<svg width="55" height="70" viewBox="0 0 55 70" fill="none" xmlns="http://www.w3.org/2000/svg">
<g clip-path="url(#clip0_80_121)">
<path d="M5.31028 3.88096H4.42345C4.39815 3.73553 4.35152 3.60669 4.28354 3.49445C4.21557 3.38063 4.131 3.28421 4.02982 3.20516C3.92865 3.12612 3.81325 3.06684 3.68363 3.02732C3.55558 2.98622 3.41726 2.96567 3.26867 2.96567C3.00467 2.96567 2.77071 3.03207 2.56679 3.16485C2.36286 3.29606 2.2032 3.48892 2.0878 3.74343C1.9724 3.99636 1.9147 4.30541 1.9147 4.67057C1.9147 5.04206 1.9724 5.35506 2.0878 5.60957C2.20478 5.8625 2.36444 6.05378 2.56679 6.18341C2.77071 6.31145 3.00388 6.37547 3.26629 6.37547C3.41173 6.37547 3.54768 6.3565 3.67414 6.31857C3.80219 6.27905 3.9168 6.22135 4.01797 6.14547C4.12072 6.06959 4.20688 5.97632 4.27643 5.86566C4.34757 5.75501 4.39657 5.62854 4.42345 5.48627L5.31028 5.49101C5.27708 5.72181 5.20516 5.93838 5.0945 6.14072C4.98542 6.34307 4.84236 6.5217 4.66531 6.67662C4.48826 6.82996 4.28117 6.9501 4.04405 7.03704C3.80693 7.12241 3.54373 7.16509 3.25444 7.16509C2.82762 7.16509 2.44665 7.06629 2.11151 6.86869C1.77638 6.67109 1.51239 6.38575 1.31953 6.01268C1.12667 5.63961 1.03024 5.19224 1.03024 4.67057C1.03024 4.14733 1.12746 3.69996 1.3219 3.32847C1.51634 2.9554 1.78113 2.67006 2.11626 2.47246C2.45139 2.27486 2.83078 2.17606 3.25444 2.17606C3.52476 2.17606 3.77611 2.214 4.00848 2.28988C4.24086 2.36576 4.44795 2.4772 4.62974 2.62422C4.81153 2.76965 4.96092 2.94828 5.0779 3.16011C5.19646 3.37036 5.27392 3.61064 5.31028 3.88096ZM7.66667 7.16983C7.31099 7.16983 7.00273 7.09158 6.7419 6.93508C6.48106 6.77858 6.27872 6.55964 6.13487 6.27825C5.99259 5.99687 5.92146 5.66806 5.92146 5.29183C5.92146 4.9156 5.99259 4.586 6.13487 4.30304C6.27872 4.02007 6.48106 3.80034 6.7419 3.64384C7.00273 3.48734 7.31099 3.40909 7.66667 3.40909C8.02235 3.40909 8.33061 3.48734 8.59144 3.64384C8.85228 3.80034 9.05383 4.02007 9.1961 4.30304C9.33995 4.586 9.41188 4.9156 9.41188 5.29183C9.41188 5.66806 9.33995 5.99687 9.1961 6.27825C9.05383 6.55964 8.85228 6.77858 8.59144 6.93508C8.33061 7.09158 8.02235 7.16983 7.66667 7.16983ZM7.67141 6.48218C7.86427 6.48218 8.02551 6.42922 8.15514 6.32331C8.28477 6.21581 8.38119 6.07196 8.44443 5.89175C8.50924 5.71154 8.54165 5.51077 8.54165 5.28946C8.54165 5.06657 8.50924 4.86501 8.44443 4.6848C8.38119 4.50301 8.28477 4.35836 8.15514 4.25087C8.02551 4.14337 7.86427 4.08963 7.67141 4.08963C7.47381 4.08963 7.30941 4.14337 7.1782 4.25087C7.04857 4.35836 6.95135 4.50301 6.88654 4.6848C6.82331 4.86501 6.79169 5.06657 6.79169 5.28946C6.79169 5.51077 6.82331 5.71154 6.88654 5.89175C6.95135 6.07196 7.04857 6.21581 7.1782 6.32331C7.30941 6.42922 7.47381 6.48218 7.67141 6.48218ZM10.1404 7.09869V3.45651H10.9609V4.0754H11.0036C11.0794 3.86673 11.2051 3.70391 11.3806 3.58693C11.556 3.46837 11.7655 3.40909 12.009 3.40909C12.2556 3.40909 12.4634 3.46916 12.6326 3.5893C12.8033 3.70786 12.9234 3.86989 12.993 4.0754H13.0309C13.1116 3.87306 13.2475 3.71181 13.4388 3.59167C13.6316 3.46995 13.8601 3.40909 14.1241 3.40909C14.4592 3.40909 14.7327 3.515 14.9445 3.72683C15.1563 3.93866 15.2623 4.24771 15.2623 4.65398V7.09869H14.4015V4.78676C14.4015 4.56071 14.3414 4.39551 14.2213 4.29118C14.1011 4.18527 13.9541 4.13231 13.7802 4.13231C13.5732 4.13231 13.4111 4.19712 13.2941 4.32675C13.1787 4.45479 13.121 4.62157 13.121 4.82707V7.09869H12.2793V4.75119C12.2793 4.56308 12.2224 4.4129 12.1085 4.30066C11.9963 4.18843 11.8493 4.13231 11.6675 4.13231C11.5442 4.13231 11.432 4.16392 11.3308 4.22716C11.2296 4.28881 11.149 4.37654 11.0889 4.49036C11.0288 4.6026 10.9988 4.73381 10.9988 4.88398V7.09869H10.1404ZM16.1331 8.46451V3.45651H16.9772V4.0588H17.027C17.0713 3.97028 17.1337 3.87622 17.2144 3.77663C17.295 3.67546 17.404 3.5893 17.5416 3.51816C17.6791 3.44545 17.8546 3.40909 18.068 3.40909C18.3494 3.40909 18.6031 3.48102 18.8291 3.62487C19.0568 3.76714 19.237 3.97818 19.3698 4.25798C19.5042 4.5362 19.5713 4.87766 19.5713 5.28235C19.5713 5.68229 19.5057 6.02216 19.3745 6.30197C19.2433 6.58177 19.0647 6.79518 18.8386 6.94219C18.6126 7.08921 18.3565 7.16272 18.0704 7.16272C17.8617 7.16272 17.6886 7.12794 17.5511 7.05838C17.4135 6.98883 17.3029 6.90504 17.2191 6.80703C17.1369 6.70744 17.0729 6.61339 17.027 6.52486H16.9915V8.46451H16.1331ZM16.9749 5.2776C16.9749 5.51314 17.0081 5.71944 17.0744 5.89649C17.1424 6.07354 17.2396 6.21186 17.3661 6.31145C17.4942 6.40946 17.6491 6.45847 17.8309 6.45847C18.0206 6.45847 18.1794 6.40788 18.3075 6.30671C18.4355 6.20396 18.532 6.06406 18.5968 5.887C18.6632 5.70837 18.6964 5.50524 18.6964 5.2776C18.6964 5.05155 18.664 4.85079 18.5991 4.67532C18.5343 4.49985 18.4379 4.36232 18.3099 4.26272C18.1818 4.16313 18.0221 4.11334 17.8309 4.11334C17.6475 4.11334 17.4918 4.16155 17.3637 4.25798C17.2357 4.35441 17.1385 4.48957 17.0721 4.66346C17.0073 4.83735 16.9749 5.04206 16.9749 5.2776ZM21.3545 7.1722C21.1237 7.1722 20.9158 7.1311 20.7309 7.0489C20.5475 6.96512 20.4021 6.84181 20.2946 6.67899C20.1886 6.51617 20.1357 6.3154 20.1357 6.0767C20.1357 5.8712 20.1736 5.70126 20.2495 5.56689C20.3254 5.43252 20.4289 5.32503 20.5601 5.24441C20.6913 5.16379 20.8391 5.10292 21.0035 5.06182C21.1695 5.01914 21.341 4.98832 21.5181 4.96935C21.7315 4.94721 21.9046 4.92745 22.0374 4.91007C22.1702 4.8911 22.2666 4.86264 22.3267 4.8247C22.3883 4.78518 22.4192 4.72432 22.4192 4.64212V4.62789C22.4192 4.44926 22.3662 4.31094 22.2603 4.21293C22.1544 4.11492 22.0018 4.06591 21.8026 4.06591C21.5924 4.06591 21.4256 4.11176 21.3023 4.20344C21.1806 4.29513 21.0984 4.40342 21.0557 4.5283L20.2542 4.41448C20.3175 4.19317 20.4218 4.00822 20.5672 3.85962C20.7127 3.70944 20.8905 3.5972 21.1008 3.52291C21.311 3.44703 21.5434 3.40909 21.7979 3.40909C21.9734 3.40909 22.1481 3.42964 22.3219 3.47074C22.4958 3.51184 22.6547 3.57982 22.7986 3.67466C22.9424 3.76793 23.0578 3.89519 23.1448 4.05643C23.2333 4.21767 23.2775 4.41922 23.2775 4.66109V7.09869H22.4524V6.59837H22.4239C22.3717 6.69954 22.2982 6.79439 22.2034 6.88291C22.1101 6.96986 21.9923 7.0402 21.8501 7.09395C21.7094 7.14612 21.5442 7.1722 21.3545 7.1722ZM21.5774 6.54146C21.7497 6.54146 21.8991 6.50747 22.0255 6.4395C22.152 6.36994 22.2492 6.27825 22.3172 6.16444C22.3868 6.05062 22.4215 5.92653 22.4215 5.79216V5.36297C22.3947 5.3851 22.3488 5.40565 22.284 5.42462C22.2208 5.44359 22.1496 5.46019 22.0706 5.47441C21.9916 5.48864 21.9133 5.50129 21.8358 5.51235C21.7584 5.52342 21.6912 5.5329 21.6343 5.54081C21.5062 5.5582 21.3916 5.58665 21.2905 5.62617C21.1893 5.66569 21.1095 5.72102 21.051 5.79216C20.9925 5.86171 20.9632 5.95182 20.9632 6.06247C20.9632 6.22056 21.0209 6.33991 21.1363 6.42053C21.2517 6.50115 21.3987 6.54146 21.5774 6.54146ZM24.999 4.9646V7.09869H24.1407V3.45651H24.9611V4.0754H25.0038C25.0876 3.87148 25.2211 3.70944 25.4045 3.5893C25.5895 3.46916 25.8179 3.40909 26.0898 3.40909C26.3411 3.40909 26.5601 3.46284 26.7466 3.57033C26.9347 3.67783 27.0802 3.83354 27.1829 4.03746C27.2873 4.24138 27.3386 4.48878 27.3371 4.77965V7.09869H26.4787V4.91244C26.4787 4.66899 26.4154 4.47851 26.289 4.34097C26.1641 4.20344 25.991 4.13468 25.7697 4.13468C25.6195 4.13468 25.4859 4.16788 25.3689 4.23427C25.2535 4.29908 25.1627 4.39314 25.0963 4.51644C25.0314 4.63975 24.999 4.78913 24.999 4.9646ZM28.6128 8.46451C28.4958 8.46451 28.3875 8.45503 28.2879 8.43606C28.1899 8.41867 28.1116 8.39812 28.0532 8.37441L28.2523 7.70572C28.3772 7.74208 28.4887 7.75947 28.5867 7.75789C28.6847 7.75631 28.7708 7.72548 28.8451 7.66541C28.921 7.60692 28.985 7.50891 29.0372 7.37138L29.1107 7.17457L27.79 3.45651H28.7005L29.5399 6.20712H29.5778L30.4196 3.45651H31.3325L29.8742 7.53974C29.8063 7.7326 29.7162 7.89779 29.6039 8.03532C29.4917 8.17443 29.3542 8.28035 29.1913 8.35306C29.0301 8.42736 28.8372 8.46451 28.6128 8.46451Z" fill="white"/>
<g clip-path="url(#clip1_80_121)">
<path d="M1.22563 23.1115H0.79407L2.04228 19.7121H2.4672L3.7154 23.1115H3.28384L2.26801 20.2499H2.24146L1.22563 23.1115ZM1.38498 21.7836H3.1245V22.1488H1.38498V21.7836ZM4.24489 23.1115V19.7121H4.63662V20.967H4.66981C4.69859 20.9227 4.73842 20.8663 4.78932 20.7977C4.84133 20.728 4.91547 20.666 5.01174 20.6118C5.10912 20.5565 5.2408 20.5288 5.40679 20.5288C5.62146 20.5288 5.81068 20.5825 5.97445 20.6898C6.13823 20.7971 6.26603 20.9493 6.35788 21.1463C6.44972 21.3432 6.49565 21.5756 6.49565 21.8434C6.49565 22.1134 6.44972 22.3474 6.35788 22.5455C6.26603 22.7425 6.13878 22.8952 5.97611 23.0036C5.81345 23.111 5.62589 23.1646 5.41343 23.1646C5.24965 23.1646 5.11853 23.1375 5.02004 23.0833C4.92156 23.028 4.84576 22.9654 4.79264 22.8957C4.73953 22.8249 4.69859 22.7663 4.66981 22.7198H4.62334V23.1115H4.24489ZM4.62998 21.8367C4.62998 22.0293 4.6582 22.1991 4.71463 22.3463C4.77107 22.4924 4.8535 22.6069 4.96195 22.6899C5.07039 22.7718 5.20318 22.8127 5.36031 22.8127C5.52408 22.8127 5.66074 22.7696 5.77029 22.6833C5.88095 22.5959 5.96394 22.4786 6.01927 22.3314C6.07571 22.1831 6.10392 22.0182 6.10392 21.8367C6.10392 21.6575 6.07626 21.4959 6.02093 21.3521C5.96671 21.2071 5.88427 21.0926 5.77361 21.0085C5.66406 20.9233 5.5263 20.8807 5.36031 20.8807C5.20097 20.8807 5.06707 20.9211 4.95863 21.0018C4.85018 21.0815 4.7683 21.1933 4.71297 21.3371C4.65764 21.4799 4.62998 21.6464 4.62998 21.8367ZM8.1306 23.1646C7.90043 23.1646 7.69848 23.1099 7.52475 23.0003C7.35213 22.8908 7.21713 22.7375 7.11975 22.5405C7.02348 22.3436 6.97534 22.1134 6.97534 21.85C6.97534 21.5845 7.02348 21.3526 7.11975 21.1546C7.21713 20.9565 7.35213 20.8027 7.52475 20.6931C7.69848 20.5836 7.90043 20.5288 8.1306 20.5288C8.36076 20.5288 8.56216 20.5836 8.73478 20.6931C8.90851 20.8027 9.04351 20.9565 9.13978 21.1546C9.23716 21.3526 9.28585 21.5845 9.28585 21.85C9.28585 22.1134 9.23716 22.3436 9.13978 22.5405C9.04351 22.7375 8.90851 22.8908 8.73478 23.0003C8.56216 23.1099 8.36076 23.1646 8.1306 23.1646ZM8.1306 22.8127C8.30543 22.8127 8.44929 22.7679 8.56216 22.6783C8.67503 22.5887 8.75857 22.4708 8.81279 22.3247C8.86702 22.1787 8.89413 22.0204 8.89413 21.85C8.89413 21.6796 8.86702 21.5208 8.81279 21.3737C8.75857 21.2265 8.67503 21.1075 8.56216 21.0168C8.44929 20.926 8.30543 20.8807 8.1306 20.8807C7.95576 20.8807 7.81191 20.926 7.69904 21.0168C7.58617 21.1075 7.50262 21.2265 7.4484 21.3737C7.39418 21.5208 7.36707 21.6796 7.36707 21.85C7.36707 22.0204 7.39418 22.1787 7.4484 22.3247C7.50262 22.4708 7.58617 22.5887 7.69904 22.6783C7.81191 22.7679 7.95576 22.8127 8.1306 22.8127ZM11.4905 22.0691V20.562H11.8823V23.1115H11.4905V22.68H11.464C11.4042 22.8094 11.3113 22.9195 11.1851 23.0103C11.059 23.0999 10.8996 23.1447 10.7071 23.1447C10.5478 23.1447 10.4061 23.1099 10.2822 23.0401C10.1582 22.9693 10.0609 22.8631 9.99004 22.7214C9.91922 22.5787 9.88381 22.3989 9.88381 22.182V20.562H10.2755V22.1554C10.2755 22.3413 10.3275 22.4896 10.4316 22.6003C10.5367 22.7109 10.6706 22.7663 10.8332 22.7663C10.9306 22.7663 11.0297 22.7414 11.1304 22.6916C11.2322 22.6418 11.3174 22.5654 11.386 22.4625C11.4557 22.3596 11.4905 22.2285 11.4905 22.0691ZM13.7085 20.562V20.894H12.3873V20.562H13.7085ZM12.7724 19.9512H13.1641V22.3812C13.1641 22.4918 13.1801 22.5748 13.2122 22.6302C13.2454 22.6844 13.2875 22.7209 13.3384 22.7397C13.3904 22.7574 13.4452 22.7663 13.5027 22.7663C13.5459 22.7663 13.5813 22.764 13.6089 22.7596C13.6366 22.7541 13.6587 22.7497 13.6753 22.7463L13.755 23.0982C13.7284 23.1082 13.6914 23.1182 13.6438 23.1281C13.5962 23.1392 13.5359 23.1447 13.4629 23.1447C13.3522 23.1447 13.2438 23.1209 13.1375 23.0733C13.0324 23.0258 12.945 22.9533 12.8753 22.8559C12.8067 22.7585 12.7724 22.6357 12.7724 22.4874V19.9512ZM17.2191 22.0691V20.562H17.6108V23.1115H17.2191V22.68H17.1925C17.1328 22.8094 17.0398 22.9195 16.9137 23.0103C16.7875 23.0999 16.6282 23.1447 16.4356 23.1447C16.2763 23.1447 16.1347 23.1099 16.0107 23.0401C15.8868 22.9693 15.7894 22.8631 15.7186 22.7214C15.6478 22.5787 15.6124 22.3989 15.6124 22.182V20.562H16.0041V22.1554C16.0041 22.3413 16.0561 22.4896 16.1601 22.6003C16.2652 22.7109 16.3991 22.7663 16.5618 22.7663C16.6592 22.7663 16.7582 22.7414 16.8589 22.6916C16.9607 22.6418 17.0459 22.5654 17.1145 22.4625C17.1842 22.3596 17.2191 22.2285 17.2191 22.0691ZM20.1342 21.133L19.7823 21.2326C19.7602 21.1739 19.7275 21.1169 19.6844 21.0616C19.6423 21.0052 19.5848 20.9587 19.5118 20.9222C19.4387 20.8857 19.3452 20.8674 19.2312 20.8674C19.0752 20.8674 18.9452 20.9034 18.8412 20.9753C18.7383 21.0461 18.6868 21.1363 18.6868 21.2458C18.6868 21.3432 18.7222 21.4201 18.793 21.4766C18.8639 21.533 18.9745 21.58 19.125 21.6176L19.5035 21.7106C19.7314 21.7659 19.9013 21.8506 20.013 21.9646C20.1248 22.0774 20.1807 22.2229 20.1807 22.4011C20.1807 22.5472 20.1386 22.6777 20.0545 22.7928C19.9715 22.9079 19.8553 22.9986 19.706 23.065C19.5566 23.1314 19.3828 23.1646 19.1848 23.1646C18.9247 23.1646 18.7095 23.1082 18.5391 22.9953C18.3687 22.8825 18.2608 22.7176 18.2154 22.5007L18.5872 22.4077C18.6226 22.5449 18.6896 22.6479 18.7881 22.7165C18.8877 22.7851 19.0177 22.8194 19.1781 22.8194C19.3607 22.8194 19.5057 22.7806 19.613 22.7032C19.7215 22.6246 19.7757 22.5306 19.7757 22.421C19.7757 22.3325 19.7447 22.2583 19.6827 22.1986C19.6208 22.1377 19.5256 22.0924 19.3972 22.0625L18.9723 21.9629C18.7388 21.9076 18.5673 21.8218 18.4578 21.7056C18.3493 21.5883 18.2951 21.4417 18.2951 21.2658C18.2951 21.1219 18.3355 20.9947 18.4163 20.884C18.4981 20.7733 18.6094 20.6865 18.7499 20.6234C18.8915 20.5603 19.052 20.5288 19.2312 20.5288C19.4835 20.5288 19.6816 20.5841 19.8255 20.6948C19.9704 20.8054 20.0733 20.9515 20.1342 21.133Z" fill="#F5F7FA"/>
<path d="M1.0862 34.1179V30.7186H2.27465C2.51146 30.7186 2.70677 30.7595 2.86058 30.8414C3.01439 30.9222 3.12892 31.0312 3.20417 31.1684C3.27942 31.3045 3.31704 31.4555 3.31704 31.6215C3.31704 31.7676 3.29103 31.8882 3.23903 31.9834C3.18812 32.0785 3.12062 32.1538 3.03652 32.2091C2.95353 32.2644 2.86335 32.3054 2.76597 32.3319V32.3651C2.86999 32.3718 2.97456 32.4083 3.07968 32.4747C3.1848 32.5411 3.27278 32.6362 3.3436 32.7602C3.41442 32.8841 3.44983 33.0357 3.44983 33.215C3.44983 33.3854 3.4111 33.5386 3.33364 33.6747C3.25618 33.8108 3.1339 33.9187 2.96681 33.9984C2.79972 34.0781 2.58228 34.1179 2.31449 34.1179H1.0862ZM1.49785 33.7528H2.31449C2.58339 33.7528 2.77427 33.7007 2.88714 33.5967C3.00111 33.4916 3.0581 33.3643 3.0581 33.215C3.0581 33.0999 3.02878 32.9936 2.97013 32.8963C2.91148 32.7978 2.82794 32.7192 2.71949 32.6606C2.61105 32.6008 2.48269 32.5709 2.33441 32.5709H1.49785V33.7528ZM1.49785 32.2124H2.26138C2.38531 32.2124 2.49707 32.1881 2.59666 32.1394C2.69736 32.0907 2.77703 32.0221 2.83568 31.9336C2.89544 31.845 2.92531 31.741 2.92531 31.6215C2.92531 31.4721 2.87331 31.3454 2.76929 31.2414C2.66527 31.1363 2.50039 31.0837 2.27465 31.0837H1.49785V32.2124ZM4.46482 30.7186V34.1179H4.0731V30.7186H4.46482ZM6.21804 34.171C5.98787 34.171 5.78592 34.1163 5.61219 34.0067C5.43957 33.8972 5.30457 33.7439 5.20719 33.5469C5.11092 33.35 5.06278 33.1198 5.06278 32.8564C5.06278 32.5909 5.11092 32.359 5.20719 32.161C5.30457 31.9629 5.43957 31.8091 5.61219 31.6995C5.78592 31.59 5.98787 31.5352 6.21804 31.5352C6.4482 31.5352 6.6496 31.59 6.82222 31.6995C6.99595 31.8091 7.13095 31.9629 7.22722 32.161C7.3246 32.359 7.37329 32.5909 7.37329 32.8564C7.37329 33.1198 7.3246 33.35 7.22722 33.5469C7.13095 33.7439 6.99595 33.8972 6.82222 34.0067C6.6496 34.1163 6.4482 34.171 6.21804 34.171ZM6.21804 33.8191C6.39287 33.8191 6.53673 33.7743 6.6496 33.6847C6.76247 33.5951 6.84601 33.4772 6.90023 33.3312C6.95446 33.1851 6.98157 33.0268 6.98157 32.8564C6.98157 32.686 6.95446 32.5272 6.90023 32.3801C6.84601 32.2329 6.76247 32.1139 6.6496 32.0232C6.53673 31.9325 6.39287 31.8871 6.21804 31.8871C6.0432 31.8871 5.89935 31.9325 5.78648 32.0232C5.67361 32.1139 5.59006 32.2329 5.53584 32.3801C5.48162 32.5272 5.45451 32.686 5.45451 32.8564C5.45451 33.0268 5.48162 33.1851 5.53584 33.3312C5.59006 33.4772 5.67361 33.5951 5.78648 33.6847C5.89935 33.7743 6.0432 33.8191 6.21804 33.8191ZM9.00036 35.1271C8.81113 35.1271 8.64847 35.1028 8.51236 35.0541C8.37625 35.0065 8.26283 34.9434 8.17209 34.8649C8.08246 34.7874 8.01109 34.7044 7.95797 34.6159L8.27002 34.3968C8.30543 34.4433 8.35025 34.4964 8.40447 34.5561C8.45869 34.617 8.53283 34.6695 8.62689 34.7138C8.72206 34.7592 8.84654 34.7819 9.00036 34.7819C9.20618 34.7819 9.37604 34.7321 9.50993 34.6325C9.64382 34.5329 9.71077 34.3769 9.71077 34.1644V33.6465H9.67758C9.6488 33.693 9.60786 33.7505 9.55475 33.8191C9.50274 33.8866 9.42749 33.947 9.32901 34.0001C9.23163 34.0521 9.09995 34.0781 8.93396 34.0781C8.72814 34.0781 8.54335 34.0294 8.37957 33.932C8.21691 33.8346 8.08799 33.693 7.99283 33.5071C7.89877 33.3212 7.85174 33.0955 7.85174 32.8299C7.85174 32.5687 7.89766 32.3413 7.98951 32.1477C8.08135 31.9529 8.20916 31.8024 8.37293 31.6962C8.53671 31.5889 8.72593 31.5352 8.9406 31.5352C9.10659 31.5352 9.23827 31.5629 9.33565 31.6182C9.43413 31.6724 9.50938 31.7344 9.56139 31.8041C9.6145 31.8727 9.65544 31.9291 9.68421 31.9734H9.72405V31.5684H10.1025V34.191C10.1025 34.4101 10.0527 34.5882 9.95311 34.7254C9.85463 34.8637 9.72184 34.965 9.55475 35.0292C9.38876 35.0945 9.20397 35.1271 9.00036 35.1271ZM8.98708 33.7262C9.14421 33.7262 9.277 33.6902 9.38544 33.6183C9.49389 33.5464 9.57632 33.4429 9.63276 33.3079C9.68919 33.1729 9.71741 33.0114 9.71741 32.8232C9.71741 32.6395 9.68975 32.4774 9.63442 32.3369C9.57909 32.1964 9.4972 32.0863 9.38876 32.0066C9.28032 31.9269 9.14642 31.8871 8.98708 31.8871C8.82109 31.8871 8.68277 31.9291 8.57212 32.0132C8.46257 32.0973 8.38013 32.2102 8.3248 32.3518C8.27058 32.4935 8.24347 32.6506 8.24347 32.8232C8.24347 33.0003 8.27113 33.1569 8.32646 33.293C8.38289 33.428 8.46589 33.5342 8.57544 33.6117C8.68609 33.688 8.82331 33.7262 8.98708 33.7262Z" fill="#F5F7FA"/>
<path d="M3.82163 42.7873H3.40999C3.38565 42.6689 3.34304 42.5648 3.28218 42.4752C3.22243 42.3856 3.14939 42.3103 3.06308 42.2495C2.97788 42.1875 2.88326 42.141 2.77925 42.11C2.67523 42.0791 2.56679 42.0636 2.45392 42.0636C2.2481 42.0636 2.06164 42.1156 1.89455 42.2196C1.72856 42.3236 1.59633 42.4769 1.49785 42.6794C1.40047 42.8819 1.35178 43.1303 1.35178 43.4246C1.35178 43.719 1.40047 43.9674 1.49785 44.1699C1.59633 44.3724 1.72856 44.5257 1.89455 44.6297C2.06164 44.7337 2.2481 44.7857 2.45392 44.7857C2.56679 44.7857 2.67523 44.7702 2.77925 44.7392C2.88326 44.7083 2.97788 44.6623 3.06308 44.6015C3.14939 44.5395 3.22243 44.4637 3.28218 44.3741C3.34304 44.2833 3.38565 44.1793 3.40999 44.062H3.82163C3.79065 44.2358 3.73421 44.3912 3.65233 44.5284C3.57044 44.6657 3.46864 44.7824 3.34692 44.8787C3.22519 44.9738 3.08853 45.0463 2.93693 45.0961C2.78644 45.1459 2.62544 45.1708 2.45392 45.1708C2.164 45.1708 1.90617 45.1 1.68043 44.9583C1.45469 44.8167 1.27709 44.6153 1.14762 44.3542C1.01815 44.093 0.953415 43.7832 0.953415 43.4246C0.953415 43.0661 1.01815 42.7563 1.14762 42.4951C1.27709 42.234 1.45469 42.0326 1.68043 41.8909C1.90617 41.7493 2.164 41.6785 2.45392 41.6785C2.62544 41.6785 2.78644 41.7034 2.93693 41.7532C3.08853 41.803 3.22519 41.876 3.34692 41.9723C3.46864 42.0674 3.57044 42.1836 3.65233 42.3208C3.73421 42.457 3.79065 42.6124 3.82163 42.7873ZM5.46945 45.1774C5.23928 45.1774 5.03733 45.1227 4.8636 45.0131C4.69098 44.9036 4.55598 44.7503 4.4586 44.5533C4.36233 44.3564 4.31419 44.1262 4.31419 43.8628C4.31419 43.5973 4.36233 43.3654 4.4586 43.1674C4.55598 42.9693 4.69098 42.8155 4.8636 42.7059C5.03733 42.5964 5.23928 42.5416 5.46945 42.5416C5.69961 42.5416 5.90101 42.5964 6.07363 42.7059C6.24736 42.8155 6.38236 42.9693 6.47863 43.1674C6.57601 43.3654 6.6247 43.5973 6.6247 43.8628C6.6247 44.1262 6.57601 44.3564 6.47863 44.5533C6.38236 44.7503 6.24736 44.9036 6.07363 45.0131C5.90101 45.1227 5.69961 45.1774 5.46945 45.1774ZM5.46945 44.8256C5.64428 44.8256 5.78814 44.7807 5.90101 44.6911C6.01388 44.6015 6.09742 44.4836 6.15164 44.3376C6.20587 44.1915 6.23298 44.0333 6.23298 43.8628C6.23298 43.6924 6.20587 43.5336 6.15164 43.3865C6.09742 43.2393 6.01388 43.1203 5.90101 43.0296C5.78814 42.9389 5.64428 42.8935 5.46945 42.8935C5.29461 42.8935 5.15076 42.9389 5.03789 43.0296C4.92502 43.1203 4.84147 43.2393 4.78725 43.3865C4.73303 43.5336 4.70592 43.6924 4.70592 43.8628C4.70592 44.0333 4.73303 44.1915 4.78725 44.3376C4.84147 44.4836 4.92502 44.6015 5.03789 44.6911C5.15076 44.7807 5.29461 44.8256 5.46945 44.8256ZM7.61438 43.5906V45.1243H7.22266V42.5748H7.60111V42.9732H7.6343C7.69406 42.8437 7.7848 42.7397 7.90652 42.6611C8.02824 42.5814 8.18537 42.5416 8.37791 42.5416C8.55054 42.5416 8.70158 42.577 8.83105 42.6478C8.96052 42.7175 9.06122 42.8238 9.13314 42.9665C9.20507 43.1082 9.24104 43.2874 9.24104 43.5043V45.1243H8.84931V43.5309C8.84931 43.3306 8.7973 43.1746 8.69329 43.0628C8.58927 42.9499 8.44652 42.8935 8.26504 42.8935C8.14 42.8935 8.02824 42.9206 7.92976 42.9748C7.83238 43.029 7.75547 43.1082 7.69904 43.2122C7.6426 43.3162 7.61438 43.4423 7.61438 43.5906ZM11.0656 42.5748V42.9068H9.74438V42.5748H11.0656ZM10.1295 41.964H10.5212V44.394C10.5212 44.5047 10.5372 44.5876 10.5693 44.643C10.6025 44.6972 10.6446 44.7337 10.6955 44.7525C10.7475 44.7702 10.8023 44.7791 10.8598 44.7791C10.903 44.7791 10.9384 44.7769 10.966 44.7724C10.9937 44.7669 11.0158 44.7625 11.0324 44.7592L11.1121 45.111C11.0855 45.121 11.0485 45.131 11.0009 45.1409C10.9533 45.152 10.893 45.1575 10.82 45.1575C10.7093 45.1575 10.6009 45.1337 10.4946 45.0862C10.3895 45.0386 10.3021 44.9661 10.2324 44.8687C10.1638 44.7713 10.1295 44.6485 10.1295 44.5002V41.964ZM12.4051 45.1841C12.2436 45.1841 12.0969 45.1537 11.9653 45.0928C11.8336 45.0308 11.729 44.9417 11.6515 44.8256C11.5741 44.7083 11.5354 44.5666 11.5354 44.4006C11.5354 44.2546 11.5641 44.1362 11.6217 44.0454C11.6792 43.9536 11.7561 43.8817 11.8524 43.8296C11.9487 43.7776 12.0549 43.7389 12.1711 43.7135C12.2884 43.6869 12.4062 43.6659 12.5246 43.6504C12.6795 43.6305 12.8051 43.6155 12.9014 43.6056C12.9988 43.5945 13.0696 43.5762 13.1139 43.5508C13.1592 43.5253 13.1819 43.4811 13.1819 43.418V43.4047C13.1819 43.241 13.1371 43.1137 13.0475 43.023C12.959 42.9322 12.8245 42.8869 12.6441 42.8869C12.4571 42.8869 12.3105 42.9278 12.2043 43.0097C12.098 43.0916 12.0234 43.179 11.9802 43.2719L11.6084 43.1392C11.6748 42.9842 11.7633 42.8636 11.874 42.7773C11.9857 42.6899 12.1075 42.629 12.2391 42.5947C12.3719 42.5593 12.5025 42.5416 12.6309 42.5416C12.7127 42.5416 12.8068 42.5516 12.913 42.5715C13.0204 42.5903 13.1238 42.6296 13.2234 42.6893C13.3241 42.7491 13.4077 42.8393 13.4741 42.9599C13.5405 43.0805 13.5737 43.2421 13.5737 43.4446V45.1243H13.1819V44.7791H13.162C13.1355 44.8344 13.0912 44.8936 13.0292 44.9567C12.9673 45.0198 12.8848 45.0734 12.7819 45.1177C12.679 45.162 12.5534 45.1841 12.4051 45.1841ZM12.4649 44.8322C12.6198 44.8322 12.7504 44.8018 12.8566 44.7409C12.9639 44.68 13.0447 44.6015 13.0989 44.5052C13.1543 44.4089 13.1819 44.3077 13.1819 44.2015V43.8429C13.1653 43.8628 13.1288 43.8811 13.0724 43.8977C13.017 43.9132 12.9529 43.927 12.8798 43.9392C12.8079 43.9503 12.7376 43.9602 12.669 43.9691C12.6015 43.9768 12.5468 43.9835 12.5047 43.989C12.4029 44.0023 12.3077 44.0238 12.2192 44.0537C12.1318 44.0825 12.061 44.1262 12.0068 44.1849C11.9536 44.2424 11.9271 44.321 11.9271 44.4206C11.9271 44.5567 11.9774 44.6596 12.0781 44.7293C12.1799 44.7979 12.3088 44.8322 12.4649 44.8322ZM15.3244 45.1774C15.0854 45.1774 14.8795 45.121 14.7069 45.0081C14.5343 44.8953 14.4015 44.7398 14.3086 44.5417C14.2156 44.3436 14.1691 44.1174 14.1691 43.8628C14.1691 43.6039 14.2167 43.3754 14.3119 43.1773C14.4081 42.9781 14.542 42.8227 14.7136 42.7109C14.8862 42.598 15.0876 42.5416 15.3177 42.5416C15.497 42.5416 15.6586 42.5748 15.8024 42.6412C15.9463 42.7076 16.0641 42.8005 16.156 42.9201C16.2478 43.0396 16.3048 43.179 16.3269 43.3383H15.9352C15.9053 43.2221 15.8389 43.1192 15.736 43.0296C15.6342 42.9389 15.497 42.8935 15.3244 42.8935C15.1717 42.8935 15.0378 42.9333 14.9227 43.013C14.8087 43.0916 14.7196 43.2028 14.6555 43.3466C14.5924 43.4894 14.5608 43.657 14.5608 43.8496C14.5608 44.0465 14.5918 44.2181 14.6538 44.3641C14.7169 44.5102 14.8054 44.6236 14.9194 44.7044C15.0345 44.7852 15.1695 44.8256 15.3244 44.8256C15.4262 44.8256 15.5186 44.8079 15.6016 44.7724C15.6846 44.737 15.7548 44.6861 15.8124 44.6197C15.8699 44.5533 15.9109 44.4737 15.9352 44.3807H16.3269C16.3048 44.5312 16.25 44.6668 16.1626 44.7874C16.0763 44.9069 15.9618 45.0021 15.819 45.0729C15.6774 45.1426 15.5125 45.1774 15.3244 45.1774ZM18.0084 42.5748V42.9068H16.6871V42.5748H18.0084ZM17.0722 41.964H17.4639V44.394C17.4639 44.5047 17.48 44.5876 17.5121 44.643C17.5453 44.6972 17.5873 44.7337 17.6382 44.7525C17.6902 44.7702 17.745 44.7791 17.8025 44.7791C17.8457 44.7791 17.8811 44.7769 17.9088 44.7724C17.9364 44.7669 17.9586 44.7625 17.9752 44.7592L18.0548 45.111C18.0283 45.121 17.9912 45.131 17.9436 45.1409C17.896 45.152 17.8357 45.1575 17.7627 45.1575C17.652 45.1575 17.5436 45.1337 17.4374 45.0862C17.3322 45.0386 17.2448 44.9661 17.1751 44.8687C17.1065 44.7713 17.0722 44.6485 17.0722 44.5002V41.964ZM21.5189 44.0819V42.5748H21.9107V45.1243H21.5189V44.6928H21.4924C21.4326 44.8222 21.3397 44.9323 21.2135 45.0231C21.0874 45.1127 20.928 45.1575 20.7355 45.1575C20.5761 45.1575 20.4345 45.1227 20.3106 45.053C20.1866 44.9821 20.0892 44.8759 20.0184 44.7343C19.9476 44.5915 19.9122 44.4117 19.9122 44.1948V42.5748H20.3039V44.1683C20.3039 44.3542 20.3559 44.5024 20.4599 44.6131C20.5651 44.7238 20.699 44.7791 20.8616 44.7791C20.959 44.7791 21.058 44.7542 21.1587 44.7044C21.2605 44.6546 21.3458 44.5782 21.4144 44.4753C21.4841 44.3724 21.5189 44.2413 21.5189 44.0819ZM24.434 43.1458L24.0821 43.2454C24.06 43.1867 24.0274 43.1297 23.9842 43.0744C23.9422 43.018 23.8846 42.9715 23.8116 42.935C23.7386 42.8985 23.6451 42.8802 23.5311 42.8802C23.3751 42.8802 23.245 42.9162 23.141 42.9881C23.0381 43.0589 22.9867 43.1491 22.9867 43.2587C22.9867 43.356 23.0221 43.4329 23.0929 43.4894C23.1637 43.5458 23.2744 43.5928 23.4249 43.6305L23.8033 43.7234C24.0312 43.7787 24.2011 43.8634 24.3129 43.9774C24.4246 44.0902 24.4805 44.2358 24.4805 44.4139C24.4805 44.56 24.4385 44.6906 24.3544 44.8056C24.2714 44.9207 24.1552 45.0115 24.0058 45.0779C23.8564 45.1442 23.6827 45.1774 23.4846 45.1774C23.2246 45.1774 23.0093 45.121 22.8389 45.0081C22.6685 44.8953 22.5606 44.7304 22.5153 44.5135L22.8871 44.4206C22.9225 44.5578 22.9894 44.6607 23.0879 44.7293C23.1875 44.7979 23.3175 44.8322 23.478 44.8322C23.6605 44.8322 23.8055 44.7935 23.9128 44.716C24.0213 44.6374 24.0755 44.5434 24.0755 44.4338C24.0755 44.3453 24.0445 44.2712 23.9826 44.2114C23.9206 44.1506 23.8254 44.1052 23.6971 44.0753L23.2721 43.9757C23.0387 43.9204 22.8671 43.8346 22.7576 43.7184C22.6491 43.6011 22.5949 43.4545 22.5949 43.2786C22.5949 43.1347 22.6353 43.0075 22.7161 42.8968C22.798 42.7862 22.9092 42.6993 23.0497 42.6362C23.1914 42.5731 23.3518 42.5416 23.5311 42.5416C23.7834 42.5416 23.9815 42.5969 24.1253 42.7076C24.2703 42.8182 24.3732 42.9643 24.434 43.1458Z" fill="#F5F7FA"/>
<path d="M1.0862 56.1307V52.7314H2.23482C2.5015 52.7314 2.71949 52.7795 2.8888 52.8758C3.05921 52.9709 3.18536 53.0999 3.26724 53.2625C3.34913 53.4252 3.39007 53.6067 3.39007 53.807C3.39007 54.0072 3.34913 54.1893 3.26724 54.353C3.18646 54.5168 3.06142 54.6474 2.89212 54.7448C2.72281 54.841 2.50593 54.8892 2.24146 54.8892H1.41817V54.524H2.22818C2.41076 54.524 2.55738 54.4925 2.66804 54.4294C2.77869 54.3663 2.85892 54.2811 2.90872 54.1738C2.95962 54.0653 2.98507 53.9431 2.98507 53.807C2.98507 53.6708 2.95962 53.5491 2.90872 53.4418C2.85892 53.3344 2.77814 53.2503 2.66638 53.1895C2.55461 53.1275 2.40634 53.0965 2.22154 53.0965H1.49785V56.1307H1.0862ZM4.00007 56.1307V53.5812H4.37851V53.9663H4.40507C4.45154 53.8401 4.53564 53.7378 4.65737 53.6592C4.77909 53.5807 4.9163 53.5414 5.06901 53.5414C5.09778 53.5414 5.13374 53.5419 5.1769 53.543C5.22005 53.5441 5.2527 53.5458 5.27483 53.548V53.9464C5.26155 53.9431 5.23112 53.9381 5.18354 53.9314C5.13706 53.9237 5.08782 53.9198 5.03581 53.9198C4.91188 53.9198 4.80122 53.9458 4.70384 53.9978C4.60757 54.0487 4.53122 54.1196 4.47478 54.2103C4.41945 54.2999 4.39179 54.4023 4.39179 54.5174V56.1307H4.00007ZM5.73917 56.1307V53.5812H6.1309V56.1307H5.73917ZM5.93835 53.1563C5.862 53.1563 5.79616 53.1303 5.74083 53.0783C5.68661 53.0263 5.6595 52.9637 5.6595 52.8907C5.6595 52.8177 5.68661 52.7552 5.74083 52.7032C5.79616 52.6511 5.862 52.6251 5.93835 52.6251C6.01471 52.6251 6.07999 52.6511 6.13421 52.7032C6.18954 52.7552 6.21721 52.8177 6.21721 52.8907C6.21721 52.9637 6.18954 53.0263 6.13421 53.0783C6.07999 53.1303 6.01471 53.1563 5.93835 53.1563ZM7.88411 56.1839C7.64509 56.1839 7.43927 56.1274 7.26665 56.0145C7.09402 55.9017 6.96123 55.7462 6.86828 55.5481C6.77533 55.3501 6.72886 55.1238 6.72886 54.8693C6.72886 54.6103 6.77644 54.3818 6.8716 54.1837C6.96787 53.9846 7.10177 53.8291 7.27329 53.7173C7.44591 53.6044 7.6473 53.548 7.87747 53.548C8.05673 53.548 8.21829 53.5812 8.36215 53.6476C8.506 53.714 8.62385 53.807 8.71569 53.9265C8.80754 54.046 8.86453 54.1854 8.88666 54.3447H8.49493C8.46506 54.2286 8.39866 54.1256 8.29575 54.036C8.19395 53.9453 8.05673 53.8999 7.88411 53.8999C7.7314 53.8999 7.59751 53.9397 7.48243 54.0194C7.36845 54.098 7.27937 54.2092 7.21519 54.353C7.15212 54.4958 7.12058 54.6634 7.12058 54.856C7.12058 55.0529 7.15156 55.2245 7.21353 55.3705C7.27661 55.5166 7.36513 55.63 7.47911 55.7108C7.59419 55.7916 7.72919 55.832 7.88411 55.832C7.98591 55.832 8.07831 55.8143 8.1613 55.7788C8.2443 55.7434 8.31456 55.6925 8.3721 55.6261C8.42965 55.5597 8.47059 55.4801 8.49493 55.3871H8.88666C8.86453 55.5376 8.80975 55.6732 8.72233 55.7938C8.63602 55.9133 8.52149 56.0085 8.37874 56.0793C8.2371 56.149 8.07223 56.1839 7.88411 56.1839ZM9.4593 56.1307V53.5812H9.85103V56.1307H9.4593ZM9.65849 53.1563C9.58213 53.1563 9.51629 53.1303 9.46096 53.0783C9.40674 53.0263 9.37963 52.9637 9.37963 52.8907C9.37963 52.8177 9.40674 52.7552 9.46096 52.7032C9.51629 52.6511 9.58213 52.6251 9.65849 52.6251C9.73484 52.6251 9.80013 52.6511 9.85435 52.7032C9.90968 52.7552 9.93734 52.8177 9.93734 52.8907C9.93734 52.9637 9.90968 53.0263 9.85435 53.0783C9.80013 53.1303 9.73484 53.1563 9.65849 53.1563ZM10.9602 54.597V56.1307H10.5685V53.5812H10.9469V53.9796H10.9801C11.0399 53.8501 11.1306 53.7461 11.2524 53.6675C11.3741 53.5879 11.5312 53.548 11.7238 53.548C11.8964 53.548 12.0474 53.5834 12.1769 53.6542C12.3064 53.724 12.4071 53.8302 12.479 53.9729C12.5509 54.1146 12.5869 54.2938 12.5869 54.5107V56.1307H12.1951V54.5373C12.1951 54.337 12.1431 54.181 12.0391 54.0692C11.9351 53.9563 11.7924 53.8999 11.6109 53.8999C11.4858 53.8999 11.3741 53.927 11.2756 53.9812C11.1782 54.0355 11.1013 54.1146 11.0449 54.2186C10.9884 54.3226 10.9602 54.4488 10.9602 54.597ZM14.3318 57.1399C14.1426 57.1399 13.9799 57.1156 13.8438 57.0669C13.7077 57.0193 13.5943 56.9562 13.5035 56.8777C13.4139 56.8002 13.3425 56.7172 13.2894 56.6287L13.6015 56.4096C13.6369 56.4561 13.6817 56.5092 13.7359 56.5689C13.7901 56.6298 13.8643 56.6824 13.9583 56.7266C14.0535 56.772 14.178 56.7947 14.3318 56.7947C14.5376 56.7947 14.7075 56.7449 14.8414 56.6453C14.9753 56.5457 15.0422 56.3897 15.0422 56.1772V55.6593H15.009C14.9802 55.7058 14.9393 55.7634 14.8862 55.832C14.8342 55.8995 14.7589 55.9598 14.6604 56.0129C14.5631 56.0649 14.4314 56.0909 14.2654 56.0909C14.0596 56.0909 13.8748 56.0422 13.711 55.9448C13.5483 55.8475 13.4194 55.7058 13.3243 55.5199C13.2302 55.334 13.1832 55.1083 13.1832 54.8427C13.1832 54.5815 13.2291 54.3541 13.3209 54.1605C13.4128 53.9657 13.5406 53.8152 13.7044 53.709C13.8681 53.6017 14.0574 53.548 14.272 53.548C14.438 53.548 14.5697 53.5757 14.6671 53.631C14.7656 53.6852 14.8408 53.7472 14.8928 53.8169C14.9459 53.8855 14.9869 53.942 15.0156 53.9862H15.0555V53.5812H15.4339V56.2038C15.4339 56.4229 15.3841 56.601 15.2845 56.7382C15.1861 56.8766 15.0533 56.9778 14.8862 57.042C14.7202 57.1073 14.5354 57.1399 14.3318 57.1399ZM14.3185 55.739C14.4756 55.739 14.6084 55.703 14.7169 55.6311C14.8253 55.5592 14.9078 55.4557 14.9642 55.3207C15.0206 55.1857 15.0488 55.0242 15.0488 54.8361C15.0488 54.6524 15.0212 54.4903 14.9659 54.3497C14.9105 54.2092 14.8286 54.0991 14.7202 54.0194C14.6117 53.9397 14.4779 53.8999 14.3185 53.8999C14.1525 53.8999 14.0142 53.942 13.9035 54.0261C13.794 54.1101 13.7116 54.223 13.6562 54.3647C13.602 54.5063 13.5749 54.6634 13.5749 54.8361C13.5749 55.0131 13.6026 55.1697 13.6579 55.3058C13.7143 55.4408 13.7973 55.547 13.9069 55.6245C14.0175 55.7008 14.1547 55.739 14.3185 55.739Z" fill="#F5F7FA"/>
<path d="M0.9003 64.1029V63.7377H3.44983V64.1029H2.38088V67.1371H1.96924V64.1029H0.9003ZM4.73123 67.1902C4.48557 67.1902 4.27366 67.136 4.09551 67.0275C3.91846 66.918 3.7818 66.7653 3.68552 66.5694C3.59036 66.3724 3.54278 66.1434 3.54278 65.8822C3.54278 65.6211 3.59036 65.3909 3.68552 65.1917C3.7818 64.9915 3.91569 64.8354 4.08721 64.7237C4.25983 64.6108 4.46123 64.5544 4.69139 64.5544C4.82418 64.5544 4.95531 64.5765 5.08478 64.6208C5.21424 64.665 5.33209 64.7369 5.43832 64.8365C5.54455 64.935 5.62921 65.0656 5.69228 65.2283C5.75535 65.3909 5.78689 65.5912 5.78689 65.8291V65.9951H3.82163V65.6565H5.38853C5.38853 65.5126 5.35976 65.3843 5.30222 65.2714C5.24578 65.1585 5.165 65.0695 5.05988 65.0042C4.95586 64.9389 4.83303 64.9062 4.69139 64.9062C4.53537 64.9062 4.40037 64.945 4.28639 65.0224C4.17352 65.0988 4.08665 65.1984 4.02579 65.3212C3.96493 65.444 3.9345 65.5757 3.9345 65.7163V65.942C3.9345 66.1345 3.9677 66.2978 4.03409 66.4316C4.10159 66.5644 4.1951 66.6657 4.31461 66.7354C4.43412 66.804 4.57299 66.8383 4.73123 66.8383C4.83414 66.8383 4.92709 66.8239 5.01008 66.7952C5.09418 66.7653 5.16666 66.721 5.22752 66.6624C5.28838 66.6026 5.33541 66.5285 5.36861 66.4399L5.74706 66.5462C5.70722 66.6745 5.64027 66.7874 5.54621 66.8848C5.45216 66.9811 5.33597 67.0563 5.19765 67.1105C5.05933 67.1636 4.90385 67.1902 4.73123 67.1902ZM8.18869 65.1585L7.8368 65.2581C7.81467 65.1995 7.78203 65.1425 7.73887 65.0872C7.69682 65.0307 7.63928 64.9843 7.56625 64.9477C7.49322 64.9112 7.39971 64.893 7.28573 64.893C7.12971 64.893 6.99969 64.9289 6.89567 65.0009C6.79276 65.0717 6.7413 65.1619 6.7413 65.2714C6.7413 65.3688 6.77671 65.4457 6.84753 65.5021C6.91835 65.5586 7.02901 65.6056 7.1795 65.6432L7.55795 65.7362C7.7859 65.7915 7.95576 65.8762 8.06752 65.9901C8.17929 66.103 8.23517 66.2485 8.23517 66.4267C8.23517 66.5727 8.19312 66.7033 8.10902 66.8184C8.02603 66.9335 7.90984 67.0242 7.76045 67.0906C7.61106 67.157 7.43733 67.1902 7.23926 67.1902C6.97922 67.1902 6.76399 67.1338 6.59358 67.0209C6.42317 66.908 6.31528 66.7431 6.26991 66.5263L6.64171 66.4333C6.67712 66.5705 6.74407 66.6734 6.84256 66.742C6.94215 66.8106 7.07217 66.845 7.23262 66.845C7.4152 66.845 7.56016 66.8062 7.6675 66.7288C7.77594 66.6502 7.83016 66.5561 7.83016 66.4466C7.83016 66.3581 7.79918 66.2839 7.73721 66.2242C7.67525 66.1633 7.58008 66.1179 7.45172 66.0881L7.0268 65.9885C6.79331 65.9331 6.6218 65.8474 6.51225 65.7312C6.4038 65.6139 6.34958 65.4673 6.34958 65.2913C6.34958 65.1475 6.38997 65.0202 6.47075 64.9096C6.55263 64.7989 6.66384 64.712 6.80438 64.649C6.94602 64.5859 7.10647 64.5544 7.28573 64.5544C7.53803 64.5544 7.73611 64.6097 7.87996 64.7203C8.02492 64.831 8.12783 64.9771 8.18869 65.1585ZM9.93361 64.5876V64.9195H8.61237V64.5876H9.93361ZM8.99745 63.9767H9.38918V66.4068C9.38918 66.5174 9.40522 66.6004 9.43731 66.6557C9.47051 66.71 9.51256 66.7465 9.56346 66.7653C9.61547 66.783 9.67024 66.7918 9.72779 66.7918C9.77094 66.7918 9.80635 66.7896 9.83402 66.7852C9.86168 66.7797 9.88381 66.7752 9.90041 66.7719L9.98008 67.1238C9.95352 67.1338 9.91645 67.1437 9.86887 67.1537C9.82129 67.1647 9.76098 67.1703 9.68795 67.1703C9.57729 67.1703 9.46885 67.1465 9.36262 67.0989C9.2575 67.0513 9.17008 66.9788 9.10036 66.8815C9.03176 66.7841 8.99745 66.6613 8.99745 66.513V63.9767ZM10.5229 67.1371V64.5876H10.9146V67.1371H10.5229ZM10.722 64.1626C10.6457 64.1626 10.5798 64.1366 10.5245 64.0846C10.4703 64.0326 10.4432 63.9701 10.4432 63.8971C10.4432 63.824 10.4703 63.7615 10.5245 63.7095C10.5798 63.6575 10.6457 63.6315 10.722 63.6315C10.7984 63.6315 10.8637 63.6575 10.9179 63.7095C10.9732 63.7615 11.0009 63.824 11.0009 63.8971C11.0009 63.9701 10.9732 64.0326 10.9179 64.0846C10.8637 64.1366 10.7984 64.1626 10.722 64.1626ZM11.632 67.1371V64.5876H12.0105V64.9859H12.0437C12.0968 64.8498 12.1826 64.7441 12.301 64.6689C12.4194 64.5925 12.5616 64.5544 12.7275 64.5544C12.8957 64.5544 13.0357 64.5925 13.1475 64.6689C13.2604 64.7441 13.3483 64.8498 13.4114 64.9859H13.438C13.5032 64.8542 13.6012 64.7497 13.7318 64.6722C13.8623 64.5936 14.0189 64.5544 14.2015 64.5544C14.4294 64.5544 14.6159 64.6257 14.7609 64.7685C14.9058 64.9101 14.9783 65.1309 14.9783 65.4308V67.1371H14.5866V65.4308C14.5866 65.2426 14.5351 65.1082 14.4322 65.0274C14.3293 64.9466 14.2081 64.9062 14.0687 64.9062C13.8894 64.9062 13.7506 64.9605 13.6521 65.0689C13.5536 65.1763 13.5044 65.3124 13.5044 65.4772V67.1371H13.106V65.3909C13.106 65.246 13.059 65.1292 12.9649 65.0407C12.8708 64.9511 12.7497 64.9062 12.6014 64.9062C12.4996 64.9062 12.4044 64.9334 12.3159 64.9876C12.2285 65.0418 12.1577 65.1171 12.1034 65.2133C12.0503 65.3085 12.0238 65.4186 12.0238 65.5436V67.1371H11.632ZM16.7303 67.1902C16.5001 67.1902 16.2982 67.1354 16.1244 67.0259C15.9518 66.9163 15.8168 66.7631 15.7194 66.5661C15.6232 66.3691 15.575 66.139 15.575 65.8756C15.575 65.61 15.6232 65.3782 15.7194 65.1801C15.8168 64.982 15.9518 64.8282 16.1244 64.7187C16.2982 64.6091 16.5001 64.5544 16.7303 64.5544C16.9604 64.5544 17.1618 64.6091 17.3345 64.7187C17.5082 64.8282 17.6432 64.982 17.7395 65.1801C17.8368 65.3782 17.8855 65.61 17.8855 65.8756C17.8855 66.139 17.8368 66.3691 17.7395 66.5661C17.6432 66.7631 17.5082 66.9163 17.3345 67.0259C17.1618 67.1354 16.9604 67.1902 16.7303 67.1902ZM16.7303 66.8383C16.9051 66.8383 17.049 66.7935 17.1618 66.7039C17.2747 66.6142 17.3582 66.4964 17.4125 66.3503C17.4667 66.2043 17.4938 66.046 17.4938 65.8756C17.4938 65.7052 17.4667 65.5464 17.4125 65.3992C17.3582 65.2521 17.2747 65.1331 17.1618 65.0424C17.049 64.9516 16.9051 64.9062 16.7303 64.9062C16.5554 64.9062 16.4116 64.9516 16.2987 65.0424C16.1858 65.1331 16.1023 65.2521 16.0481 65.3992C15.9938 65.5464 15.9667 65.7052 15.9667 65.8756C15.9667 66.046 15.9938 66.2043 16.0481 66.3503C16.1023 66.4964 16.1858 66.6142 16.2987 66.7039C16.4116 66.7935 16.5554 66.8383 16.7303 66.8383ZM18.8752 65.6034V67.1371H18.4835V64.5876H18.8619V64.9859H18.8951C18.9549 64.8565 19.0456 64.7524 19.1673 64.6739C19.2891 64.5942 19.4462 64.5544 19.6387 64.5544C19.8114 64.5544 19.9624 64.5898 20.0919 64.6606C20.2213 64.7303 20.322 64.8365 20.394 64.9793C20.4659 65.1209 20.5019 65.3002 20.5019 65.5171V67.1371H20.1101V65.5436C20.1101 65.3433 20.0581 65.1873 19.9541 65.0756C19.8501 64.9627 19.7073 64.9062 19.5259 64.9062C19.4008 64.9062 19.2891 64.9334 19.1906 64.9876C19.0932 65.0418 19.0163 65.1209 18.9599 65.2249C18.9034 65.329 18.8752 65.4551 18.8752 65.6034ZM21.2177 67.1371V64.5876H21.6094V67.1371H21.2177ZM21.4168 64.1626C21.3405 64.1626 21.2747 64.1366 21.2193 64.0846C21.1651 64.0326 21.138 63.9701 21.138 63.8971C21.138 63.824 21.1651 63.7615 21.2193 63.7095C21.2747 63.6575 21.3405 63.6315 21.4168 63.6315C21.4932 63.6315 21.5585 63.6575 21.6127 63.7095C21.668 63.7615 21.6957 63.824 21.6957 63.8971C21.6957 63.9701 21.668 64.0326 21.6127 64.0846C21.5585 64.1366 21.4932 64.1626 21.4168 64.1626ZM23.0771 67.1968C22.9156 67.1968 22.7689 67.1664 22.6373 67.1055C22.5056 67.0436 22.401 66.9545 22.3235 66.8383C22.2461 66.721 22.2074 66.5794 22.2074 66.4134C22.2074 66.2673 22.2361 66.1489 22.2937 66.0582C22.3512 65.9663 22.4281 65.8944 22.5244 65.8424C22.6207 65.7904 22.7269 65.7517 22.8431 65.7262C22.9604 65.6997 23.0782 65.6786 23.1966 65.6631C23.3515 65.6432 23.4771 65.6283 23.5734 65.6183C23.6708 65.6073 23.7416 65.589 23.7859 65.5635C23.8312 65.5381 23.8539 65.4938 23.8539 65.4308V65.4175C23.8539 65.2537 23.8091 65.1265 23.7195 65.0357C23.6309 64.945 23.4965 64.8996 23.3161 64.8996C23.1291 64.8996 22.9825 64.9406 22.8763 65.0224C22.77 65.1043 22.6953 65.1917 22.6522 65.2847L22.2804 65.1519C22.3468 64.997 22.4353 64.8764 22.546 64.7901C22.6577 64.7026 22.7794 64.6418 22.9111 64.6075C23.0439 64.5721 23.1745 64.5544 23.3029 64.5544C23.3847 64.5544 23.4788 64.5643 23.585 64.5842C23.6924 64.6031 23.7958 64.6423 23.8954 64.7021C23.9961 64.7618 24.0797 64.852 24.1461 64.9726C24.2124 65.0933 24.2456 65.2548 24.2456 65.4573V67.1371H23.8539V66.7918H23.834C23.8074 66.8472 23.7632 66.9064 23.7012 66.9694C23.6392 67.0325 23.5568 67.0862 23.4539 67.1304C23.351 67.1747 23.2254 67.1968 23.0771 67.1968ZM23.1369 66.845C23.2918 66.845 23.4224 66.8145 23.5286 66.7537C23.6359 66.6928 23.7167 66.6142 23.7709 66.518C23.8263 66.4217 23.8539 66.3204 23.8539 66.2142V65.8557C23.8373 65.8756 23.8008 65.8939 23.7444 65.9105C23.689 65.9259 23.6249 65.9398 23.5518 65.952C23.4799 65.963 23.4096 65.973 23.341 65.9818C23.2735 65.9896 23.2188 65.9962 23.1767 66.0017C23.0749 66.015 22.9797 66.0366 22.8912 66.0665C22.8038 66.0953 22.733 66.139 22.6787 66.1976C22.6256 66.2552 22.5991 66.3337 22.5991 66.4333C22.5991 66.5694 22.6494 66.6723 22.7501 66.742C22.8519 66.8106 22.9808 66.845 23.1369 66.845ZM25.3523 63.7377V67.1371H24.9606V63.7377H25.3523ZM27.8757 65.1585L27.5238 65.2581C27.5017 65.1995 27.4691 65.1425 27.4259 65.0872C27.3839 65.0307 27.3263 64.9843 27.2533 64.9477C27.1803 64.9112 27.0868 64.893 26.9728 64.893C26.8167 64.893 26.6867 64.9289 26.5827 65.0009C26.4798 65.0717 26.4283 65.1619 26.4283 65.2714C26.4283 65.3688 26.4638 65.4457 26.5346 65.5021C26.6054 65.5586 26.7161 65.6056 26.8665 65.6432L27.245 65.7362C27.4729 65.7915 27.6428 65.8762 27.7546 65.9901C27.8663 66.103 27.9222 66.2485 27.9222 66.4267C27.9222 66.5727 27.8802 66.7033 27.7961 66.8184C27.7131 66.9335 27.5969 67.0242 27.4475 67.0906C27.2981 67.157 27.1244 67.1902 26.9263 67.1902C26.6663 67.1902 26.451 67.1338 26.2806 67.0209C26.1102 66.908 26.0023 66.7431 25.9569 66.5263L26.3288 66.4333C26.3642 66.5705 26.4311 66.6734 26.5296 66.742C26.6292 66.8106 26.7592 66.845 26.9197 66.845C27.1022 66.845 27.2472 66.8062 27.3545 66.7288C27.463 66.6502 27.5172 66.5561 27.5172 66.4466C27.5172 66.3581 27.4862 66.2839 27.4243 66.2242C27.3623 66.1633 27.2671 66.1179 27.1388 66.0881L26.7138 65.9885C26.4804 65.9331 26.3088 65.8474 26.1993 65.7312C26.0908 65.6139 26.0366 65.4673 26.0366 65.2913C26.0366 65.1475 26.077 65.0202 26.1578 64.9096C26.2397 64.7989 26.3509 64.712 26.4914 64.649C26.6331 64.5859 26.7935 64.5544 26.9728 64.5544C27.2251 64.5544 27.4231 64.6097 27.567 64.7203C27.712 64.831 27.8149 64.9771 27.8757 65.1585Z" fill="#F5F7FA"/>
</g>
</g>
<defs>
<clipPath id="clip0_80_121">
<rect width="53.4186" height="69.0384" fill="white" transform="translate(0.674561 0.0986938)"/>
</clipPath>
<clipPath id="clip1_80_121">
<rect width="53.4186" height="51.0256" fill="white" transform="translate(0.674561 18.1115)"/>
</clipPath>
</defs>
</svg>
