<svg width="54" height="70" viewBox="0 0 54 70" fill="none" xmlns="http://www.w3.org/2000/svg">
<g clip-path="url(#clip0_80_129)">
<path d="M3.22735 3.57745C3.20521 3.37036 3.11195 3.20912 2.94754 3.09372C2.78472 2.97832 2.57289 2.92062 2.31206 2.92062C2.12869 2.92062 1.97139 2.94828 1.84019 3.00361C1.70898 3.05894 1.6086 3.13403 1.53904 3.22888C1.46949 3.32373 1.43392 3.43201 1.43234 3.55373C1.43234 3.6549 1.45526 3.74264 1.5011 3.81694C1.54853 3.89124 1.61255 3.95447 1.69317 4.00663C1.77379 4.05722 1.86311 4.0999 1.96112 4.13468C2.05913 4.16946 2.15793 4.1987 2.25752 4.22241L2.71279 4.33623C2.89617 4.37891 3.07243 4.43661 3.24157 4.50933C3.4123 4.58205 3.56485 4.67374 3.69922 4.78439C3.83517 4.89505 3.94266 5.02863 4.0217 5.18513C4.10074 5.34163 4.14026 5.525 4.14026 5.73525C4.14026 6.01979 4.06755 6.27035 3.92211 6.48692C3.77668 6.70191 3.56643 6.87027 3.29137 6.99199C3.01789 7.11213 2.68671 7.1722 2.29783 7.1722C1.92002 7.1722 1.592 7.11371 1.31378 6.99673C1.03714 6.87975 0.820567 6.70902 0.664067 6.48455C0.509148 6.26008 0.425365 5.9866 0.412718 5.66411H1.27821C1.29086 5.83326 1.34302 5.97395 1.43471 6.08619C1.5264 6.19842 1.64575 6.28221 1.79276 6.33753C1.94136 6.39286 2.10734 6.42053 2.29072 6.42053C2.482 6.42053 2.64956 6.39207 2.79341 6.33516C2.93885 6.27667 3.05267 6.19605 3.13487 6.0933C3.21707 5.98897 3.25896 5.86724 3.26054 5.72813C3.25896 5.60167 3.22181 5.49734 3.1491 5.41513C3.07638 5.33135 2.97442 5.2618 2.84321 5.20647C2.71358 5.14956 2.56183 5.09897 2.38794 5.05471L1.83545 4.91244C1.4355 4.80968 1.11934 4.65398 0.886961 4.44531C0.656163 4.23506 0.540764 3.95605 0.540764 3.60827C0.540764 3.32214 0.618223 3.07159 0.773143 2.8566C0.929642 2.64161 1.14226 2.47483 1.411 2.35627C1.67974 2.23613 1.98404 2.17606 2.32391 2.17606C2.66853 2.17606 2.97047 2.23613 3.22972 2.35627C3.49055 2.47483 3.69527 2.64003 3.84386 2.85185C3.99246 3.0621 4.06913 3.30397 4.07387 3.57745H3.22735ZM7.20802 5.56689V3.45651H8.0664V7.09869H7.2341V6.45135H7.19616C7.11396 6.65528 6.9788 6.82205 6.79068 6.95168C6.60415 7.0813 6.37414 7.14612 6.10066 7.14612C5.86196 7.14612 5.65092 7.09316 5.46755 6.98725C5.28576 6.87975 5.14348 6.72404 5.04073 6.52012C4.93798 6.31461 4.8866 6.06643 4.8866 5.77556V3.45651H5.74498V5.64277C5.74498 5.87357 5.80821 6.05694 5.93468 6.19289C6.06114 6.32884 6.22713 6.39682 6.43263 6.39682C6.5591 6.39682 6.68161 6.36599 6.80017 6.30434C6.91873 6.24269 7.01595 6.151 7.09183 6.02928C7.16929 5.90597 7.20802 5.75185 7.20802 5.56689ZM8.94908 8.46451V3.45651H9.79323V4.0588H9.84303C9.88729 3.97028 9.94973 3.87622 10.0304 3.77663C10.111 3.67546 10.22 3.5893 10.3576 3.51816C10.4951 3.44545 10.6706 3.40909 10.884 3.40909C11.1654 3.40909 11.4191 3.48102 11.6451 3.62487C11.8728 3.76714 12.053 3.97818 12.1858 4.25798C12.3202 4.5362 12.3873 4.87766 12.3873 5.28235C12.3873 5.68229 12.3217 6.02216 12.1905 6.30197C12.0593 6.58177 11.8807 6.79518 11.6546 6.94219C11.4286 7.08921 11.1725 7.16272 10.8864 7.16272C10.6777 7.16272 10.5046 7.12794 10.3671 7.05838C10.2295 6.98883 10.1189 6.90504 10.0351 6.80703C9.95289 6.70744 9.88887 6.61339 9.84303 6.52486H9.80746V8.46451H8.94908ZM9.79086 5.2776C9.79086 5.51314 9.82406 5.71944 9.89045 5.89649C9.95842 6.07354 10.0556 6.21186 10.1821 6.31145C10.3102 6.40946 10.4651 6.45847 10.6469 6.45847C10.8366 6.45847 10.9954 6.40788 11.1235 6.30671C11.2515 6.20396 11.348 6.06406 11.4128 5.887C11.4792 5.70837 11.5124 5.50524 11.5124 5.2776C11.5124 5.05155 11.48 4.85079 11.4151 4.67532C11.3503 4.49985 11.2539 4.36232 11.1259 4.26272C10.9978 4.16313 10.8381 4.11334 10.6469 4.11334C10.4635 4.11334 10.3078 4.16155 10.1797 4.25798C10.0517 4.35441 9.95447 4.48957 9.88808 4.66346C9.82327 4.83735 9.79086 5.04206 9.79086 5.2776ZM13.1224 8.46451V3.45651H13.9666V4.0588H14.0164C14.0606 3.97028 14.1231 3.87622 14.2037 3.77663C14.2843 3.67546 14.3934 3.5893 14.5309 3.51816C14.6684 3.44545 14.8439 3.40909 15.0573 3.40909C15.3387 3.40909 15.5924 3.48102 15.8185 3.62487C16.0461 3.76714 16.2263 3.97818 16.3591 4.25798C16.4935 4.5362 16.5607 4.87766 16.5607 5.28235C16.5607 5.68229 16.4951 6.02216 16.3639 6.30197C16.2327 6.58177 16.054 6.79518 15.828 6.94219C15.6019 7.08921 15.3458 7.16272 15.0597 7.16272C14.851 7.16272 14.6779 7.12794 14.5404 7.05838C14.4029 6.98883 14.2922 6.90504 14.2084 6.80703C14.1262 6.70744 14.0622 6.61339 14.0164 6.52486H13.9808V8.46451H13.1224ZM13.9642 5.2776C13.9642 5.51314 13.9974 5.71944 14.0638 5.89649C14.1318 6.07354 14.229 6.21186 14.3554 6.31145C14.4835 6.40946 14.6384 6.45847 14.8202 6.45847C15.0099 6.45847 15.1688 6.40788 15.2968 6.30671C15.4249 6.20396 15.5213 6.06406 15.5861 5.887C15.6525 5.70837 15.6857 5.50524 15.6857 5.2776C15.6857 5.05155 15.6533 4.85079 15.5885 4.67532C15.5237 4.49985 15.4272 4.36232 15.2992 4.26272C15.1711 4.16313 15.0115 4.11334 14.8202 4.11334C14.6368 4.11334 14.4811 4.16155 14.3531 4.25798C14.225 4.35441 14.1278 4.48957 14.0614 4.66346C13.9966 4.83735 13.9642 5.04206 13.9642 5.2776ZM18.8845 7.16983C18.5288 7.16983 18.2205 7.09158 17.9597 6.93508C17.6988 6.77858 17.4965 6.55964 17.3527 6.27825C17.2104 5.99687 17.1392 5.66806 17.1392 5.29183C17.1392 4.9156 17.2104 4.586 17.3527 4.30304C17.4965 4.02007 17.6988 3.80034 17.9597 3.64384C18.2205 3.48734 18.5288 3.40909 18.8845 3.40909C19.2401 3.40909 19.5484 3.48734 19.8092 3.64384C20.0701 3.80034 20.2716 4.02007 20.4139 4.30304C20.5577 4.586 20.6297 4.9156 20.6297 5.29183C20.6297 5.66806 20.5577 5.99687 20.4139 6.27825C20.2716 6.55964 20.0701 6.77858 19.8092 6.93508C19.5484 7.09158 19.2401 7.16983 18.8845 7.16983ZM18.8892 6.48218C19.0821 6.48218 19.2433 6.42922 19.3729 6.32331C19.5026 6.21581 19.599 6.07196 19.6622 5.89175C19.727 5.71154 19.7594 5.51077 19.7594 5.28946C19.7594 5.06657 19.727 4.86501 19.6622 4.6848C19.599 4.50301 19.5026 4.35836 19.3729 4.25087C19.2433 4.14337 19.0821 4.08963 18.8892 4.08963C18.6916 4.08963 18.5272 4.14337 18.396 4.25087C18.2664 4.35836 18.1691 4.50301 18.1043 4.6848C18.0411 4.86501 18.0095 5.06657 18.0095 5.28946C18.0095 5.51077 18.0411 5.71154 18.1043 5.89175C18.1691 6.07196 18.2664 6.21581 18.396 6.32331C18.5272 6.42922 18.6916 6.48218 18.8892 6.48218ZM21.3582 7.09869V3.45651H22.1905V4.06354H22.2285C22.2948 3.8533 22.4087 3.69126 22.5699 3.57745C22.7327 3.46205 22.9185 3.40435 23.1271 3.40435C23.1746 3.40435 23.2275 3.40672 23.286 3.41146C23.3461 3.41462 23.3959 3.42015 23.4354 3.42806V4.21767C23.399 4.20503 23.3413 4.19396 23.2623 4.18448C23.1848 4.17341 23.1098 4.16788 23.037 4.16788C22.8805 4.16788 22.7398 4.20186 22.615 4.26984C22.4917 4.33623 22.3944 4.42871 22.3233 4.54727C22.2522 4.66583 22.2166 4.80257 22.2166 4.95749V7.09869H21.3582ZM26.02 3.45651V4.12045H23.9262V3.45651H26.02ZM24.4432 2.58391H25.3015V6.00319C25.3015 6.11859 25.3189 6.20712 25.3537 6.26877C25.3901 6.32884 25.4375 6.36994 25.496 6.39207C25.5545 6.4142 25.6193 6.42527 25.6904 6.42527C25.7442 6.42527 25.7932 6.42132 25.8374 6.41341C25.8833 6.40551 25.9181 6.3984 25.9418 6.39207L26.0864 7.06313C26.0406 7.07893 25.975 7.09632 25.8896 7.11529C25.8058 7.13426 25.7031 7.14533 25.5813 7.14849C25.3664 7.15481 25.1727 7.12241 25.0004 7.05127C24.8281 6.97855 24.6914 6.86632 24.5902 6.71456C24.4906 6.5628 24.4416 6.3731 24.4432 6.14547V2.58391Z" fill="white"/>
<g clip-path="url(#clip1_80_129)">
<path d="M0.520846 23.1115V19.7121H0.932488V21.2259H2.74504V19.7121H3.15668V23.1115H2.74504V21.5911H0.932488V23.1115H0.520846ZM4.99663 23.1646C4.75097 23.1646 4.53906 23.1104 4.3609 23.002C4.18385 22.8924 4.04719 22.7397 3.95092 22.5438C3.85576 22.3469 3.80817 22.1178 3.80817 21.8567C3.80817 21.5955 3.85576 21.3654 3.95092 21.1662C4.04719 20.9659 4.18109 20.8099 4.3526 20.6981C4.52523 20.5852 4.72662 20.5288 4.95679 20.5288C5.08958 20.5288 5.2207 20.5509 5.35017 20.5952C5.47964 20.6394 5.59749 20.7114 5.70372 20.811C5.80995 20.9094 5.8946 21.04 5.95768 21.2027C6.02075 21.3654 6.05229 21.5656 6.05229 21.8036V21.9695H4.08703V21.6309H5.65393C5.65393 21.4871 5.62515 21.3587 5.56761 21.2458C5.51118 21.133 5.4304 21.0439 5.32528 20.9786C5.22126 20.9133 5.09843 20.8807 4.95679 20.8807C4.80076 20.8807 4.66576 20.9194 4.55179 20.9969C4.43892 21.0732 4.35205 21.1728 4.29119 21.2956C4.23033 21.4185 4.1999 21.5501 4.1999 21.6907V21.9164C4.1999 22.109 4.2331 22.2722 4.29949 22.4061C4.36699 22.5389 4.46049 22.6401 4.58 22.7098C4.69951 22.7784 4.83839 22.8127 4.99663 22.8127C5.09954 22.8127 5.19249 22.7984 5.27548 22.7696C5.35958 22.7397 5.43206 22.6954 5.49292 22.6368C5.55378 22.577 5.60081 22.5029 5.63401 22.4144L6.01245 22.5206C5.97262 22.649 5.90567 22.7618 5.81161 22.8592C5.71755 22.9555 5.60136 23.0307 5.46304 23.085C5.32472 23.1381 5.16925 23.1646 4.99663 23.1646ZM7.0399 19.7121V23.1115H6.64817V19.7121H7.0399ZM7.75737 24.0676V20.562H8.13581V20.967H8.18229C8.21106 20.9227 8.2509 20.8663 8.3018 20.7977C8.35381 20.728 8.42795 20.666 8.52422 20.6118C8.62159 20.5565 8.75328 20.5288 8.91926 20.5288C9.13393 20.5288 9.32316 20.5825 9.48693 20.6898C9.6507 20.7971 9.77851 20.9493 9.87035 21.1463C9.9622 21.3432 10.0081 21.5756 10.0081 21.8434C10.0081 22.1134 9.9622 22.3474 9.87035 22.5455C9.77851 22.7425 9.65125 22.8952 9.48859 23.0036C9.32592 23.111 9.13836 23.1646 8.9259 23.1646C8.76213 23.1646 8.631 23.1375 8.53252 23.0833C8.43403 23.028 8.35823 22.9654 8.30512 22.8957C8.252 22.8249 8.21106 22.7663 8.18229 22.7198H8.14909V24.0676H7.75737ZM8.14245 21.8367C8.14245 22.0293 8.17067 22.1991 8.2271 22.3463C8.28354 22.4924 8.36598 22.6069 8.47442 22.6899C8.58286 22.7718 8.71565 22.8127 8.87278 22.8127C9.03656 22.8127 9.17322 22.7696 9.28277 22.6833C9.39342 22.5959 9.47642 22.4786 9.53174 22.3314C9.58818 22.1831 9.6164 22.0182 9.6164 21.8367C9.6164 21.6575 9.58873 21.4959 9.5334 21.3521C9.47918 21.2071 9.39674 21.0926 9.28609 21.0085C9.17654 20.9233 9.03877 20.8807 8.87278 20.8807C8.71344 20.8807 8.57955 20.9211 8.4711 21.0018C8.36266 21.0815 8.28077 21.1933 8.22544 21.3371C8.17012 21.4799 8.14245 21.6464 8.14245 21.8367ZM12.956 23.1646C12.717 23.1646 12.5112 23.1082 12.3385 22.9953C12.1659 22.8825 12.0331 22.727 11.9402 22.5289C11.8472 22.3308 11.8008 22.1045 11.8008 21.85C11.8008 21.5911 11.8483 21.3626 11.9435 21.1645C12.0398 20.9653 12.1737 20.8099 12.3452 20.6981C12.5178 20.5852 12.7192 20.5288 12.9494 20.5288C13.1286 20.5288 13.2902 20.562 13.434 20.6284C13.5779 20.6948 13.6957 20.7877 13.7876 20.9072C13.8794 21.0267 13.9364 21.1662 13.9586 21.3255H13.5668C13.537 21.2093 13.4706 21.1064 13.3677 21.0168C13.2658 20.926 13.1286 20.8807 12.956 20.8807C12.8033 20.8807 12.6694 20.9205 12.5543 21.0002C12.4404 21.0788 12.3513 21.19 12.2871 21.3338C12.224 21.4766 12.1925 21.6442 12.1925 21.8367C12.1925 22.0337 12.2235 22.2052 12.2854 22.3513C12.3485 22.4974 12.437 22.6108 12.551 22.6916C12.6661 22.7723 12.8011 22.8127 12.956 22.8127C13.0578 22.8127 13.1502 22.795 13.2332 22.7596C13.3162 22.7242 13.3865 22.6733 13.444 22.6069C13.5015 22.5405 13.5425 22.4609 13.5668 22.3679H13.9586C13.9364 22.5184 13.8817 22.6539 13.7942 22.7746C13.7079 22.8941 13.5934 22.9892 13.4506 23.0601C13.309 23.1298 13.1441 23.1646 12.956 23.1646ZM15.6001 23.1646C15.3545 23.1646 15.1426 23.1104 14.9644 23.002C14.7874 22.8924 14.6507 22.7397 14.5544 22.5438C14.4593 22.3469 14.4117 22.1178 14.4117 21.8567C14.4117 21.5955 14.4593 21.3654 14.5544 21.1662C14.6507 20.9659 14.7846 20.8099 14.9561 20.6981C15.1288 20.5852 15.3301 20.5288 15.5603 20.5288C15.6931 20.5288 15.8242 20.5509 15.9537 20.5952C16.0832 20.6394 16.201 20.7114 16.3072 20.811C16.4135 20.9094 16.4981 21.04 16.5612 21.2027C16.6243 21.3654 16.6558 21.5656 16.6558 21.8036V21.9695H14.6906V21.6309H16.2574C16.2574 21.4871 16.2287 21.3587 16.1711 21.2458C16.1147 21.133 16.0339 21.0439 15.9288 20.9786C15.8248 20.9133 15.702 20.8807 15.5603 20.8807C15.4043 20.8807 15.2693 20.9194 15.1553 20.9969C15.0424 21.0732 14.9556 21.1728 14.8947 21.2956C14.8339 21.4185 14.8034 21.5501 14.8034 21.6907V21.9164C14.8034 22.109 14.8366 22.2722 14.903 22.4061C14.9705 22.5389 15.064 22.6401 15.1835 22.7098C15.303 22.7784 15.4419 22.8127 15.6001 22.8127C15.7031 22.8127 15.796 22.7984 15.879 22.7696C15.9631 22.7397 16.0356 22.6954 16.0964 22.6368C16.1573 22.577 16.2043 22.5029 16.2375 22.4144L16.616 22.5206C16.5761 22.649 16.5092 22.7618 16.4151 22.8592C16.3211 22.9555 16.2049 23.0307 16.0666 23.085C15.9282 23.1381 15.7728 23.1646 15.6001 23.1646ZM17.6434 21.5778V23.1115H17.2517V20.562H17.6301V20.9603H17.6633C17.7231 20.8309 17.8138 20.7269 17.9356 20.6483C18.0573 20.5686 18.2144 20.5288 18.407 20.5288C18.5796 20.5288 18.7306 20.5642 18.8601 20.635C18.9896 20.7047 19.0903 20.811 19.1622 20.9537C19.2341 21.0953 19.2701 21.2746 19.2701 21.4915V23.1115H18.8783V21.5181C18.8783 21.3178 18.8263 21.1617 18.7223 21.05C18.6183 20.9371 18.4756 20.8807 18.2941 20.8807C18.169 20.8807 18.0573 20.9078 17.9588 20.962C17.8614 21.0162 17.7845 21.0953 17.7281 21.1994C17.6716 21.3034 17.6434 21.4295 17.6434 21.5778ZM21.0947 20.562V20.894H19.7734V20.562H21.0947ZM20.1585 19.9512H20.5502V22.3812C20.5502 22.4918 20.5663 22.5748 20.5984 22.6302C20.6316 22.6844 20.6736 22.7209 20.7245 22.7397C20.7765 22.7574 20.8313 22.7663 20.8888 22.7663C20.932 22.7663 20.9674 22.764 20.9951 22.7596C21.0227 22.7541 21.0449 22.7497 21.0615 22.7463L21.1411 23.0982C21.1146 23.1082 21.0775 23.1182 21.0299 23.1281C20.9823 23.1392 20.922 23.1447 20.849 23.1447C20.7383 23.1447 20.6299 23.1209 20.5237 23.0733C20.4185 23.0258 20.3311 22.9533 20.2614 22.8559C20.1928 22.7585 20.1585 22.6357 20.1585 22.4874V19.9512ZM22.7255 23.1646C22.4798 23.1646 22.2679 23.1104 22.0897 23.002C21.9127 22.8924 21.776 22.7397 21.6798 22.5438C21.5846 22.3469 21.537 22.1178 21.537 21.8567C21.537 21.5955 21.5846 21.3654 21.6798 21.1662C21.776 20.9659 21.9099 20.8099 22.0814 20.6981C22.2541 20.5852 22.4555 20.5288 22.6856 20.5288C22.8184 20.5288 22.9495 20.5509 23.079 20.5952C23.2085 20.6394 23.3263 20.7114 23.4326 20.811C23.5388 20.9094 23.6234 21.04 23.6865 21.2027C23.7496 21.3654 23.7811 21.5656 23.7811 21.8036V21.9695H21.8159V21.6309H23.3828C23.3828 21.4871 23.354 21.3587 23.2964 21.2458C23.24 21.133 23.1592 21.0439 23.0541 20.9786C22.9501 20.9133 22.8273 20.8807 22.6856 20.8807C22.5296 20.8807 22.3946 20.9194 22.2806 20.9969C22.1678 21.0732 22.0809 21.1728 22.02 21.2956C21.9592 21.4185 21.9287 21.5501 21.9287 21.6907V21.9164C21.9287 22.109 21.9619 22.2722 22.0283 22.4061C22.0958 22.5389 22.1893 22.6401 22.3088 22.7098C22.4283 22.7784 22.5672 22.8127 22.7255 22.8127C22.8284 22.8127 22.9213 22.7984 23.0043 22.7696C23.0884 22.7397 23.1609 22.6954 23.2218 22.6368C23.2826 22.577 23.3296 22.5029 23.3628 22.4144L23.7413 22.5206C23.7015 22.649 23.6345 22.7618 23.5404 22.8592C23.4464 22.9555 23.3302 23.0307 23.1919 23.085C23.0536 23.1381 22.8981 23.1646 22.7255 23.1646ZM24.377 23.1115V20.562H24.7555V20.9471H24.782C24.8285 20.8209 24.9126 20.7186 25.0343 20.64C25.156 20.5614 25.2932 20.5221 25.4459 20.5221C25.4747 20.5221 25.5107 20.5227 25.5538 20.5238C25.597 20.5249 25.6296 20.5266 25.6518 20.5288V20.9272C25.6385 20.9238 25.6081 20.9189 25.5605 20.9122C25.514 20.9045 25.4648 20.9006 25.4128 20.9006C25.2888 20.9006 25.1782 20.9266 25.0808 20.9786C24.9845 21.0295 24.9082 21.1003 24.8517 21.1911C24.7964 21.2807 24.7687 21.3831 24.7687 21.4981V23.1115H24.377Z" fill="#F5F7FA"/>
<path d="M0.334943 31.0837V30.7186H2.88447V31.0837H1.81553V34.1179H1.40388V31.0837H0.334943ZM4.16587 34.171C3.92021 34.171 3.70831 34.1168 3.53015 34.0084C3.3531 33.8988 3.21644 33.7461 3.12017 33.5503C3.025 33.3533 2.97742 33.1242 2.97742 32.8631C2.97742 32.6019 3.025 32.3718 3.12017 32.1726C3.21644 31.9723 3.35033 31.8163 3.52185 31.7045C3.69447 31.5916 3.89587 31.5352 4.12604 31.5352C4.25882 31.5352 4.38995 31.5573 4.51942 31.6016C4.64889 31.6459 4.76674 31.7178 4.87297 31.8174C4.9792 31.9159 5.06385 32.0464 5.12692 32.2091C5.19 32.3718 5.22153 32.572 5.22153 32.81V32.9759H3.25627V32.6373H4.82317C4.82317 32.4935 4.7944 32.3651 4.73686 32.2523C4.68042 32.1394 4.59965 32.0503 4.49452 31.985C4.3905 31.9197 4.26768 31.8871 4.12604 31.8871C3.97001 31.8871 3.83501 31.9258 3.72103 32.0033C3.60816 32.0796 3.5213 32.1792 3.46044 32.302C3.39958 32.4249 3.36914 32.5566 3.36914 32.6971V32.9228C3.36914 33.1154 3.40234 33.2786 3.46874 33.4125C3.53624 33.5453 3.62974 33.6465 3.74925 33.7162C3.86876 33.7848 4.00763 33.8191 4.16587 33.8191C4.26878 33.8191 4.36173 33.8048 4.44473 33.776C4.52882 33.7461 4.6013 33.7019 4.66217 33.6432C4.72303 33.5834 4.77006 33.5093 4.80325 33.4208L5.1817 33.527C5.14186 33.6554 5.07491 33.7682 4.98086 33.8656C4.8868 33.9619 4.77061 34.0371 4.63229 34.0914C4.49397 34.1445 4.3385 34.171 4.16587 34.171ZM5.81742 34.1179V31.5684H6.19587V31.9535H6.22242C6.2689 31.8273 6.353 31.725 6.47472 31.6464C6.59644 31.5678 6.73366 31.5286 6.88636 31.5286C6.91513 31.5286 6.9511 31.5291 6.99425 31.5302C7.03741 31.5313 7.07005 31.533 7.09218 31.5352V31.9336C7.0789 31.9302 7.04847 31.9253 7.00089 31.9186C6.95442 31.9109 6.90517 31.907 6.85317 31.907C6.72923 31.907 6.61857 31.933 6.5212 31.985C6.42492 32.0359 6.34857 32.1067 6.29214 32.1975C6.23681 32.2871 6.20914 32.3895 6.20914 32.5045V34.1179H5.81742ZM7.55653 34.1179V31.5684H7.93497V31.9668H7.96817C8.02128 31.8306 8.10704 31.725 8.22544 31.6497C8.34385 31.5734 8.48604 31.5352 8.65203 31.5352C8.82022 31.5352 8.9602 31.5734 9.07197 31.6497C9.18484 31.725 9.27281 31.8306 9.33588 31.9668H9.36244C9.42773 31.8351 9.52566 31.7305 9.65623 31.653C9.78681 31.5745 9.94339 31.5352 10.126 31.5352C10.3539 31.5352 10.5404 31.6066 10.6853 31.7493C10.8303 31.891 10.9028 32.1117 10.9028 32.4116V34.1179H10.5111V32.4116C10.5111 32.2235 10.4596 32.089 10.3567 32.0083C10.2538 31.9275 10.1326 31.8871 9.99318 31.8871C9.81392 31.8871 9.67504 31.9413 9.57656 32.0497C9.47808 32.1571 9.42883 32.2932 9.42883 32.4581V34.1179H9.03047V32.3718C9.03047 32.2268 8.98344 32.1101 8.88938 32.0215C8.79533 31.9319 8.67416 31.8871 8.52588 31.8871C8.42407 31.8871 8.32891 31.9142 8.24038 31.9684C8.15296 32.0226 8.08214 32.0979 8.02792 32.1942C7.97481 32.2893 7.94825 32.3994 7.94825 32.5245V34.1179H7.55653ZM13.4249 32.1394L13.073 32.239C13.0509 32.1803 13.0183 32.1233 12.9751 32.068C12.933 32.0116 12.8755 31.9651 12.8025 31.9286C12.7294 31.8921 12.6359 31.8738 12.522 31.8738C12.3659 31.8738 12.2359 31.9098 12.1319 31.9817C12.029 32.0525 11.9775 32.1427 11.9775 32.2523C11.9775 32.3496 12.0129 32.4265 12.0838 32.483C12.1546 32.5394 12.2652 32.5864 12.4157 32.6241L12.7942 32.717C13.0221 32.7723 13.192 32.857 13.3037 32.971C13.4155 33.0838 13.4714 33.2293 13.4714 33.4075C13.4714 33.5536 13.4293 33.6841 13.3452 33.7992C13.2623 33.9143 13.1461 34.0051 12.9967 34.0714C12.8473 34.1378 12.6736 34.171 12.4755 34.171C12.2154 34.171 12.0002 34.1146 11.8298 34.0017C11.6594 33.8889 11.5515 33.724 11.5061 33.5071L11.8779 33.4141C11.9133 33.5514 11.9803 33.6543 12.0788 33.7229C12.1784 33.7915 12.3084 33.8258 12.4688 33.8258C12.6514 33.8258 12.7964 33.7871 12.9037 33.7096C13.0122 33.631 13.0664 33.537 13.0664 33.4274C13.0664 33.3389 13.0354 33.2648 12.9734 33.205C12.9115 33.1441 12.8163 33.0988 12.6879 33.0689L12.263 32.9693C12.0295 32.914 11.858 32.8282 11.7485 32.712C11.64 32.5947 11.5858 32.4481 11.5858 32.2722C11.5858 32.1283 11.6262 32.0011 11.707 31.8904C11.7889 31.7797 11.9001 31.6929 12.0406 31.6298C12.1822 31.5667 12.3427 31.5352 12.522 31.5352C12.7743 31.5352 12.9723 31.5905 13.1162 31.7012C13.2611 31.8118 13.3641 31.9579 13.4249 32.1394ZM16.4114 34.171C16.1812 34.171 15.9793 34.1163 15.8056 34.0067C15.6329 33.8972 15.4979 33.7439 15.4006 33.5469C15.3043 33.35 15.2561 33.1198 15.2561 32.8564C15.2561 32.5909 15.3043 32.359 15.4006 32.161C15.4979 31.9629 15.6329 31.8091 15.8056 31.6995C15.9793 31.59 16.1812 31.5352 16.4114 31.5352C16.6416 31.5352 16.843 31.59 17.0156 31.6995C17.1893 31.8091 17.3243 31.9629 17.4206 32.161C17.518 32.359 17.5667 32.5909 17.5667 32.8564C17.5667 33.1198 17.518 33.35 17.4206 33.5469C17.3243 33.7439 17.1893 33.8972 17.0156 34.0067C16.843 34.1163 16.6416 34.171 16.4114 34.171ZM16.4114 33.8191C16.5862 33.8191 16.7301 33.7743 16.843 33.6847C16.9558 33.5951 17.0394 33.4772 17.0936 33.3312C17.1478 33.1851 17.1749 33.0268 17.1749 32.8564C17.1749 32.686 17.1478 32.5272 17.0936 32.3801C17.0394 32.2329 16.9558 32.1139 16.843 32.0232C16.7301 31.9325 16.5862 31.8871 16.4114 31.8871C16.2366 31.8871 16.0927 31.9325 15.9798 32.0232C15.867 32.1139 15.7834 32.2329 15.7292 32.3801C15.675 32.5272 15.6479 32.686 15.6479 32.8564C15.6479 33.0268 15.675 33.1851 15.7292 33.3312C15.7834 33.4772 15.867 33.5951 15.9798 33.6847C16.0927 33.7743 16.2366 33.8191 16.4114 33.8191ZM19.2999 31.5684V31.9004H17.9256V31.5684H19.2999ZM18.3372 34.1179V31.2165C18.3372 31.0704 18.3715 30.9487 18.4401 30.8513C18.5088 30.754 18.5978 30.6809 18.7074 30.6322C18.8169 30.5836 18.9326 30.5592 19.0543 30.5592C19.1506 30.5592 19.2291 30.567 19.29 30.5824C19.3509 30.5979 19.3962 30.6123 19.4261 30.6256L19.3132 30.9642C19.2933 30.9576 19.2656 30.9493 19.2302 30.9393C19.1959 30.9294 19.1506 30.9244 19.0941 30.9244C18.9647 30.9244 18.8712 30.957 18.8136 31.0223C18.7572 31.0876 18.729 31.1833 18.729 31.3095V34.1179H18.3372ZM22.9695 32.1394L22.6176 32.239C22.5954 32.1803 22.5628 32.1233 22.5196 32.068C22.4776 32.0116 22.42 31.9651 22.347 31.9286C22.274 31.8921 22.1805 31.8738 22.0665 31.8738C21.9105 31.8738 21.7805 31.9098 21.6764 31.9817C21.5735 32.0525 21.5221 32.1427 21.5221 32.2523C21.5221 32.3496 21.5575 32.4265 21.6283 32.483C21.6991 32.5394 21.8098 32.5864 21.9603 32.6241L22.3387 32.717C22.5667 32.7723 22.7365 32.857 22.8483 32.971C22.9601 33.0838 23.0159 33.2293 23.0159 33.4075C23.0159 33.5536 22.9739 33.6841 22.8898 33.7992C22.8068 33.9143 22.6906 34.0051 22.5412 34.0714C22.3918 34.1378 22.2181 34.171 22.02 34.171C21.76 34.171 21.5448 34.1146 21.3743 34.0017C21.2039 33.8889 21.096 33.724 21.0507 33.5071L21.4225 33.4141C21.4579 33.5514 21.5248 33.6543 21.6233 33.7229C21.7229 33.7915 21.8529 33.8258 22.0134 33.8258C22.196 33.8258 22.3409 33.7871 22.4483 33.7096C22.5567 33.631 22.6109 33.537 22.6109 33.4274C22.6109 33.3389 22.5799 33.2648 22.518 33.205C22.456 33.1441 22.3608 33.0988 22.2325 33.0689L21.8076 32.9693C21.5741 32.914 21.4026 32.8282 21.293 32.712C21.1846 32.5947 21.1303 32.4481 21.1303 32.2722C21.1303 32.1283 21.1707 32.0011 21.2515 31.8904C21.3334 31.7797 21.4446 31.6929 21.5851 31.6298C21.7268 31.5667 21.8872 31.5352 22.0665 31.5352C22.3188 31.5352 22.5169 31.5905 22.6607 31.7012C22.8057 31.8118 22.9086 31.9579 22.9695 32.1394ZM24.6745 34.171C24.4289 34.171 24.217 34.1168 24.0388 34.0084C23.8618 33.8988 23.7251 33.7461 23.6288 33.5503C23.5337 33.3533 23.4861 33.1242 23.4861 32.8631C23.4861 32.6019 23.5337 32.3718 23.6288 32.1726C23.7251 31.9723 23.859 31.8163 24.0305 31.7045C24.2031 31.5916 24.4045 31.5352 24.6347 31.5352C24.7675 31.5352 24.8986 31.5573 25.0281 31.6016C25.1576 31.6459 25.2754 31.7178 25.3816 31.8174C25.4879 31.9159 25.5725 32.0464 25.6356 32.2091C25.6987 32.3718 25.7302 32.572 25.7302 32.81V32.9759H23.7649V32.6373H25.3318C25.3318 32.4935 25.3031 32.3651 25.2455 32.2523C25.1891 32.1394 25.1083 32.0503 25.0032 31.985C24.8992 31.9197 24.7763 31.8871 24.6347 31.8871C24.4787 31.8871 24.3437 31.9258 24.2297 32.0033C24.1168 32.0796 24.03 32.1792 23.9691 32.302C23.9082 32.4249 23.8778 32.5566 23.8778 32.6971V32.9228C23.8778 33.1154 23.911 33.2786 23.9774 33.4125C24.0449 33.5453 24.1384 33.6465 24.2579 33.7162C24.3774 33.7848 24.5163 33.8191 24.6745 33.8191C24.7774 33.8191 24.8704 33.8048 24.9534 33.776C25.0375 33.7461 25.11 33.7019 25.1708 33.6432C25.2317 33.5834 25.2787 33.5093 25.3119 33.4208L25.6904 33.527C25.6505 33.6554 25.5836 33.7682 25.4895 33.8656C25.3955 33.9619 25.2793 34.0371 25.141 34.0914C25.0026 34.1445 24.8472 34.171 24.6745 34.171ZM26.3261 34.1179V31.5684H26.7045V31.9535H26.7311C26.7776 31.8273 26.8617 31.725 26.9834 31.6464C27.1051 31.5678 27.2423 31.5286 27.395 31.5286C27.4238 31.5286 27.4598 31.5291 27.5029 31.5302C27.5461 31.5313 27.5787 31.533 27.6008 31.5352V31.9336C27.5876 31.9302 27.5571 31.9253 27.5096 31.9186C27.4631 31.9109 27.4138 31.907 27.3618 31.907C27.2379 31.907 27.1272 31.933 27.0299 31.985C26.9336 32.0359 26.8572 32.1067 26.8008 32.1975C26.7455 32.2871 26.7178 32.3895 26.7178 32.5045V34.1179H26.3261ZM30.2276 31.5684L29.2848 34.1179H28.8864L27.9436 31.5684H28.3685L29.0723 33.6H29.0989L29.8026 31.5684H30.2276ZM30.7446 34.1179V31.5684H31.1363V34.1179H30.7446ZM30.9438 31.1435C30.8674 31.1435 30.8016 31.1175 30.7463 31.0655C30.692 31.0135 30.6649 30.9509 30.6649 30.8779C30.6649 30.8049 30.692 30.7423 30.7463 30.6903C30.8016 30.6383 30.8674 30.6123 30.9438 30.6123C31.0201 30.6123 31.0854 30.6383 31.1396 30.6903C31.195 30.7423 31.2226 30.8049 31.2226 30.8779C31.2226 30.9509 31.195 31.0135 31.1396 31.0655C31.0854 31.1175 31.0201 31.1435 30.9438 31.1435ZM32.8895 34.171C32.6505 34.171 32.4447 34.1146 32.2721 34.0017C32.0995 33.8889 31.9667 33.7334 31.8737 33.5353C31.7808 33.3372 31.7343 33.1109 31.7343 32.8564C31.7343 32.5975 31.7819 32.369 31.877 32.1709C31.9733 31.9717 32.1072 31.8163 32.2787 31.7045C32.4513 31.5916 32.6527 31.5352 32.8829 31.5352C33.0622 31.5352 33.2237 31.5684 33.3676 31.6348C33.5114 31.7012 33.6293 31.7941 33.7211 31.9136C33.813 32.0332 33.87 32.1726 33.8921 32.3319H33.5004C33.4705 32.2157 33.4041 32.1128 33.3012 32.0232C33.1994 31.9325 33.0622 31.8871 32.8895 31.8871C32.7368 31.8871 32.6029 31.9269 32.4879 32.0066C32.3739 32.0852 32.2848 32.1964 32.2206 32.3402C32.1575 32.483 32.126 32.6506 32.126 32.8432C32.126 33.0401 32.157 33.2116 32.219 33.3577C32.282 33.5038 32.3706 33.6172 32.4845 33.698C32.5996 33.7788 32.7346 33.8191 32.8895 33.8191C32.9913 33.8191 33.0837 33.8014 33.1667 33.766C33.2497 33.7306 33.32 33.6797 33.3775 33.6133C33.4351 33.5469 33.476 33.4673 33.5004 33.3743H33.8921C33.87 33.5248 33.8152 33.6604 33.7278 33.781C33.6414 33.9005 33.5269 33.9956 33.3842 34.0665C33.2425 34.1362 33.0777 34.171 32.8895 34.171ZM35.5337 34.171C35.288 34.171 35.0761 34.1168 34.898 34.0084C34.7209 33.8988 34.5842 33.7461 34.488 33.5503C34.3928 33.3533 34.3452 33.1242 34.3452 32.8631C34.3452 32.6019 34.3928 32.3718 34.488 32.1726C34.5842 31.9723 34.7181 31.8163 34.8897 31.7045C35.0623 31.5916 35.2637 31.5352 35.4938 31.5352C35.6266 31.5352 35.7578 31.5573 35.8872 31.6016C36.0167 31.6459 36.1345 31.7178 36.2408 31.8174C36.347 31.9159 36.4317 32.0464 36.4947 32.2091C36.5578 32.3718 36.5893 32.572 36.5893 32.81V32.9759H34.6241V32.6373H36.191C36.191 32.4935 36.1622 32.3651 36.1047 32.2523C36.0482 32.1394 35.9674 32.0503 35.8623 31.985C35.7583 31.9197 35.6355 31.8871 35.4938 31.8871C35.3378 31.8871 35.2028 31.9258 35.0888 32.0033C34.976 32.0796 34.8891 32.1792 34.8282 32.302C34.7674 32.4249 34.7369 32.5566 34.7369 32.6971V32.9228C34.7369 33.1154 34.7701 33.2786 34.8365 33.4125C34.904 33.5453 34.9975 33.6465 35.1171 33.7162C35.2366 33.7848 35.3754 33.8191 35.5337 33.8191C35.6366 33.8191 35.7295 33.8048 35.8125 33.776C35.8966 33.7461 35.9691 33.7019 36.03 33.6432C36.0908 33.5834 36.1379 33.5093 36.1711 33.4208L36.5495 33.527C36.5097 33.6554 36.4427 33.7682 36.3487 33.8656C36.2546 33.9619 36.1384 34.0371 36.0001 34.0914C35.8618 34.1445 35.7063 34.171 35.5337 34.171Z" fill="#F5F7FA"/>
<path d="M0.520846 45.1243V41.725H0.932488V44.7592H2.51266V45.1243H0.520846ZM4.16587 45.1774C3.92021 45.1774 3.70831 45.1232 3.53015 45.0148C3.3531 44.9052 3.21644 44.7525 3.12017 44.5567C3.025 44.3597 2.97742 44.1306 2.97742 43.8695C2.97742 43.6083 3.025 43.3782 3.12017 43.179C3.21644 42.9787 3.35033 42.8227 3.52185 42.7109C3.69447 42.598 3.89587 42.5416 4.12604 42.5416C4.25882 42.5416 4.38995 42.5637 4.51942 42.608C4.64889 42.6523 4.76674 42.7242 4.87297 42.8238C4.9792 42.9223 5.06385 43.0528 5.12692 43.2155C5.19 43.3782 5.22153 43.5785 5.22153 43.8164V43.9824H3.25627V43.6437H4.82317C4.82317 43.4999 4.7944 43.3715 4.73686 43.2587C4.68042 43.1458 4.59965 43.0567 4.49452 42.9914C4.3905 42.9261 4.26768 42.8935 4.12604 42.8935C3.97001 42.8935 3.83501 42.9322 3.72103 43.0097C3.60816 43.086 3.5213 43.1856 3.46044 43.3085C3.39958 43.4313 3.36914 43.563 3.36914 43.7035V43.9292C3.36914 44.1218 3.40234 44.285 3.46874 44.4189C3.53624 44.5517 3.62974 44.6529 3.74925 44.7226C3.86876 44.7913 4.00763 44.8256 4.16587 44.8256C4.26878 44.8256 4.36173 44.8112 4.44473 44.7824C4.52882 44.7525 4.6013 44.7083 4.66217 44.6496C4.72303 44.5899 4.77006 44.5157 4.80325 44.4272L5.1817 44.5334C5.14186 44.6618 5.07491 44.7747 4.98086 44.872C4.8868 44.9683 4.77061 45.0435 4.63229 45.0978C4.49397 45.1509 4.3385 45.1774 4.16587 45.1774ZM6.84653 46.1335C6.6573 46.1335 6.49464 46.1092 6.35853 46.0605C6.22242 46.0129 6.109 45.9498 6.01826 45.8713C5.92863 45.7938 5.85726 45.7108 5.80414 45.6223L6.11619 45.4032C6.1516 45.4497 6.19642 45.5028 6.25064 45.5625C6.30486 45.6234 6.379 45.676 6.47306 45.7202C6.56822 45.7656 6.69271 45.7883 6.84653 45.7883C7.05235 45.7883 7.2222 45.7385 7.3561 45.6389C7.48999 45.5393 7.55694 45.3833 7.55694 45.1708V44.6529H7.52374C7.49497 44.6994 7.45403 44.7569 7.40091 44.8256C7.34891 44.8931 7.27366 44.9534 7.17518 45.0065C7.0778 45.0585 6.94612 45.0845 6.78013 45.0845C6.57431 45.0845 6.38951 45.0358 6.22574 44.9384C6.06308 44.841 5.93416 44.6994 5.839 44.5135C5.74494 44.3276 5.69791 44.1019 5.69791 43.8363C5.69791 43.5751 5.74383 43.3477 5.83568 43.1541C5.92752 42.9593 6.05533 42.8088 6.2191 42.7026C6.38287 42.5953 6.5721 42.5416 6.78677 42.5416C6.95276 42.5416 7.08444 42.5693 7.18181 42.6246C7.2803 42.6788 7.35555 42.7408 7.40755 42.8105C7.46067 42.8791 7.50161 42.9355 7.53038 42.9798H7.57022V42.5748H7.94866V45.1974C7.94866 45.4165 7.89887 45.5946 7.79928 45.7318C7.70079 45.8702 7.56801 45.9714 7.40091 46.0356C7.23493 46.1009 7.05013 46.1335 6.84653 46.1335ZM6.83325 44.7326C6.99038 44.7326 7.12317 44.6966 7.23161 44.6247C7.34005 44.5528 7.42249 44.4493 7.47893 44.3143C7.53536 44.1793 7.56358 44.0178 7.56358 43.8296C7.56358 43.646 7.53592 43.4838 7.48059 43.3433C7.42526 43.2028 7.34337 43.0927 7.23493 43.013C7.12649 42.9333 6.99259 42.8935 6.83325 42.8935C6.66726 42.8935 6.52894 42.9355 6.41828 43.0196C6.30873 43.1037 6.2263 43.2166 6.17097 43.3583C6.11675 43.4999 6.08964 43.657 6.08964 43.8296C6.08964 44.0067 6.1173 44.1633 6.17263 44.2994C6.22906 44.4344 6.31205 44.5406 6.4216 44.6181C6.53226 44.6944 6.66948 44.7326 6.83325 44.7326ZM9.41597 45.1841C9.25441 45.1841 9.10779 45.1537 8.97611 45.0928C8.84443 45.0308 8.73986 44.9417 8.6624 44.8256C8.58494 44.7083 8.54621 44.5666 8.54621 44.4006C8.54621 44.2546 8.57498 44.1362 8.63252 44.0454C8.69006 43.9536 8.76697 43.8817 8.86324 43.8296C8.95951 43.7776 9.06574 43.7389 9.18193 43.7135C9.29923 43.6869 9.41708 43.6659 9.53548 43.6504C9.6904 43.6305 9.81599 43.6155 9.91226 43.6056C10.0096 43.5945 10.0805 43.5762 10.1247 43.5508C10.1701 43.5253 10.1928 43.4811 10.1928 43.418V43.4047C10.1928 43.241 10.148 43.1137 10.0583 43.023C9.96981 42.9322 9.83536 42.8869 9.65499 42.8869C9.46798 42.8869 9.32136 42.9278 9.21513 43.0097C9.1089 43.0916 9.03421 43.179 8.99105 43.2719L8.61924 43.1392C8.68564 42.9842 8.77416 42.8636 8.88482 42.7773C8.99658 42.6899 9.1183 42.629 9.24999 42.5947C9.38277 42.5593 9.51335 42.5416 9.64171 42.5416C9.7236 42.5416 9.81765 42.5516 9.92388 42.5715C10.0312 42.5903 10.1347 42.6296 10.2343 42.6893C10.335 42.7491 10.4185 42.8393 10.4849 42.9599C10.5513 43.0805 10.5845 43.2421 10.5845 43.4446V45.1243H10.1928V44.7791H10.1729C10.1463 44.8344 10.102 44.8936 10.0401 44.9567C9.97811 45.0198 9.89567 45.0734 9.79276 45.1177C9.68985 45.162 9.56425 45.1841 9.41597 45.1841ZM9.47572 44.8322C9.63064 44.8322 9.76122 44.8018 9.86745 44.7409C9.97479 44.68 10.0556 44.6015 10.1098 44.5052C10.1651 44.4089 10.1928 44.3077 10.1928 44.2015V43.8429C10.1762 43.8628 10.1397 43.8811 10.0832 43.8977C10.0279 43.9132 9.96372 43.927 9.89069 43.9392C9.81876 43.9503 9.74849 43.9602 9.67989 43.9691C9.61239 43.9768 9.55761 43.9835 9.51556 43.989C9.41376 44.0023 9.31859 44.0238 9.23007 44.0537C9.14265 44.0825 9.07183 44.1262 9.01761 44.1849C8.96449 44.2424 8.93793 44.321 8.93793 44.4206C8.93793 44.5567 8.98828 44.6596 9.08898 44.7293C9.19078 44.7979 9.3197 44.8322 9.47572 44.8322ZM11.6912 41.725V45.1243H11.2995V41.725H11.6912Z" fill="#F5F7FA"/>
<path d="M0.520846 56.1307V52.7314H1.66946C1.93614 52.7314 2.15414 52.7795 2.32344 52.8758C2.49385 52.9709 2.62 53.0999 2.70189 53.2625C2.78377 53.4252 2.82471 53.6067 2.82471 53.807C2.82471 54.0072 2.78377 54.1893 2.70189 54.353C2.62111 54.5168 2.49606 54.6474 2.32676 54.7448C2.15746 54.841 1.94057 54.8892 1.6761 54.8892H0.852815V54.524H1.66282C1.8454 54.524 1.99202 54.4925 2.10268 54.4294C2.21334 54.3663 2.29356 54.2811 2.34336 54.1738C2.39426 54.0653 2.41971 53.9431 2.41971 53.807C2.41971 53.6708 2.39426 53.5491 2.34336 53.4418C2.29356 53.3344 2.21278 53.2503 2.10102 53.1895C1.98926 53.1275 1.84098 53.0965 1.65618 53.0965H0.932488V56.1307H0.520846ZM3.43471 56.1307V53.5812H3.81315V53.9663H3.83971C3.88619 53.8401 3.97029 53.7378 4.09201 53.6592C4.21373 53.5807 4.35094 53.5414 4.50365 53.5414C4.53242 53.5414 4.56838 53.5419 4.61154 53.543C4.6547 53.5441 4.68734 53.5458 4.70947 53.548V53.9464C4.69619 53.9431 4.66576 53.9381 4.61818 53.9314C4.5717 53.9237 4.52246 53.9198 4.47045 53.9198C4.34652 53.9198 4.23586 53.9458 4.13848 53.9978C4.04221 54.0487 3.96586 54.1196 3.90942 54.2103C3.8541 54.2999 3.82643 54.4023 3.82643 54.5174V56.1307H3.43471ZM5.17381 56.1307V53.5812H5.56554V56.1307H5.17381ZM5.373 53.1563C5.29664 53.1563 5.2308 53.1303 5.17547 53.0783C5.12125 53.0263 5.09414 52.9637 5.09414 52.8907C5.09414 52.8177 5.12125 52.7552 5.17547 52.7032C5.2308 52.6511 5.29664 52.6251 5.373 52.6251C5.44935 52.6251 5.51464 52.6511 5.56886 52.7032C5.62419 52.7552 5.65185 52.8177 5.65185 52.8907C5.65185 52.9637 5.62419 53.0263 5.56886 53.0783C5.51464 53.1303 5.44935 53.1563 5.373 53.1563ZM8.36778 53.5812L7.42498 56.1307H7.02662L6.08383 53.5812H6.50875L7.21252 55.6129H7.23908L7.94285 53.5812H8.36778ZM9.55747 56.1905C9.39591 56.1905 9.24929 56.1601 9.11761 56.0992C8.98593 56.0372 8.88136 55.9482 8.8039 55.832C8.72644 55.7147 8.68771 55.573 8.68771 55.407C8.68771 55.261 8.71648 55.1426 8.77402 55.0518C8.83156 54.96 8.90847 54.8881 9.00474 54.8361C9.10101 54.784 9.20724 54.7453 9.32343 54.7199C9.44073 54.6933 9.55858 54.6723 9.67698 54.6568C9.8319 54.6369 9.95749 54.6219 10.0538 54.612C10.1511 54.6009 10.222 54.5827 10.2662 54.5572C10.3116 54.5318 10.3343 54.4875 10.3343 54.4244V54.4111C10.3343 54.2474 10.2895 54.1201 10.1998 54.0294C10.1113 53.9386 9.97686 53.8933 9.79649 53.8933C9.60948 53.8933 9.46286 53.9342 9.35663 54.0161C9.2504 54.098 9.17571 54.1854 9.13255 54.2783L8.76074 54.1456C8.82714 53.9906 8.91566 53.87 9.02632 53.7837C9.13808 53.6963 9.25981 53.6354 9.39149 53.6011C9.52427 53.5657 9.65485 53.548 9.78321 53.548C9.8651 53.548 9.95915 53.558 10.0654 53.5779C10.1727 53.5967 10.2762 53.636 10.3758 53.6957C10.4765 53.7555 10.56 53.8457 10.6264 53.9663C10.6928 54.0869 10.726 54.2485 10.726 54.451V56.1307H10.3343V55.7855H10.3144C10.2878 55.8408 10.2435 55.9 10.1816 55.9631C10.1196 56.0262 10.0372 56.0798 9.93426 56.1241C9.83135 56.1684 9.70575 56.1905 9.55747 56.1905ZM9.61723 55.8386C9.77215 55.8386 9.90272 55.8082 10.009 55.7473C10.1163 55.6865 10.1971 55.6079 10.2513 55.5116C10.3066 55.4153 10.3343 55.3141 10.3343 55.2079V54.8493C10.3177 54.8693 10.2812 54.8875 10.2247 54.9041C10.1694 54.9196 10.1052 54.9334 10.0322 54.9456C9.96026 54.9567 9.88999 54.9666 9.82139 54.9755C9.75389 54.9832 9.69911 54.9899 9.65706 54.9954C9.55526 55.0087 9.46009 55.0303 9.37157 55.0601C9.28415 55.0889 9.21333 55.1326 9.15911 55.1913C9.10599 55.2488 9.07944 55.3274 9.07944 55.427C9.07944 55.5631 9.12978 55.666 9.23048 55.7357C9.33229 55.8043 9.4612 55.8386 9.61723 55.8386ZM12.4767 56.1839C12.2377 56.1839 12.0319 56.1274 11.8593 56.0145C11.6866 55.9017 11.5539 55.7462 11.4609 55.5481C11.368 55.3501 11.3215 55.1238 11.3215 54.8693C11.3215 54.6103 11.3691 54.3818 11.4642 54.1837C11.5605 53.9846 11.6944 53.8291 11.8659 53.7173C12.0385 53.6044 12.2399 53.548 12.4701 53.548C12.6494 53.548 12.8109 53.5812 12.9548 53.6476C13.0986 53.714 13.2165 53.807 13.3083 53.9265C13.4002 54.046 13.4571 54.1854 13.4793 54.3447H13.0876C13.0577 54.2286 12.9913 54.1256 12.8884 54.036C12.7866 53.9453 12.6494 53.8999 12.4767 53.8999C12.324 53.8999 12.1901 53.9397 12.075 54.0194C11.9611 54.098 11.872 54.2092 11.8078 54.353C11.7447 54.4958 11.7132 54.6634 11.7132 54.856C11.7132 55.0529 11.7442 55.2245 11.8062 55.3705C11.8692 55.5166 11.9578 55.63 12.0717 55.7108C12.1868 55.7916 12.3218 55.832 12.4767 55.832C12.5785 55.832 12.6709 55.8143 12.7539 55.7788C12.8369 55.7434 12.9072 55.6925 12.9647 55.6261C13.0223 55.5597 13.0632 55.4801 13.0876 55.3871H13.4793C13.4571 55.5376 13.4024 55.6732 13.315 55.7938C13.2286 55.9133 13.1141 56.0085 12.9714 56.0793C12.8297 56.149 12.6648 56.1839 12.4767 56.1839ZM14.3042 57.0868C14.2378 57.0868 14.1786 57.0813 14.1266 57.0702C14.0746 57.0603 14.0386 57.0503 14.0187 57.0403L14.1183 56.6951C14.2135 56.7194 14.2976 56.7283 14.3706 56.7216C14.4436 56.715 14.5084 56.6824 14.5648 56.6237C14.6224 56.5662 14.6749 56.4727 14.7225 56.3432L14.7955 56.144L13.8527 53.5812H14.2777L14.9814 55.6129H15.008L15.7118 53.5812H16.1367L15.0545 56.5025C15.0058 56.6342 14.9455 56.7432 14.8735 56.8295C14.8016 56.917 14.7181 56.9817 14.6229 57.0237C14.5289 57.0658 14.4226 57.0868 14.3042 57.0868ZM17.9683 57.0868V53.5812H18.3468V53.9862H18.3933C18.422 53.942 18.4619 53.8855 18.5128 53.8169C18.5648 53.7472 18.6389 53.6852 18.7352 53.631C18.8326 53.5757 18.9642 53.548 19.1302 53.548C19.3449 53.548 19.5341 53.6017 19.6979 53.709C19.8617 53.8164 19.9895 53.9685 20.0813 54.1655C20.1732 54.3624 20.2191 54.5948 20.2191 54.8626C20.2191 55.1326 20.1732 55.3667 20.0813 55.5647C19.9895 55.7617 19.8622 55.9144 19.6996 56.0228C19.5369 56.1302 19.3493 56.1839 19.1369 56.1839C18.9731 56.1839 18.842 56.1567 18.7435 56.1025C18.645 56.0472 18.5692 55.9847 18.5161 55.915C18.463 55.8441 18.422 55.7855 18.3933 55.739H18.3601V57.0868H17.9683ZM18.3534 54.856C18.3534 55.0485 18.3816 55.2184 18.4381 55.3655C18.4945 55.5116 18.5769 55.6261 18.6854 55.7091C18.7938 55.791 18.9266 55.832 19.0838 55.832C19.2475 55.832 19.3842 55.7888 19.4937 55.7025C19.6044 55.6151 19.6874 55.4978 19.7427 55.3506C19.7991 55.2023 19.8274 55.0375 19.8274 54.856C19.8274 54.6767 19.7997 54.5152 19.7444 54.3713C19.6902 54.2263 19.6077 54.1118 19.4971 54.0277C19.3875 53.9425 19.2497 53.8999 19.0838 53.8999C18.9244 53.8999 18.7905 53.9403 18.6821 54.0211C18.5736 54.1007 18.4917 54.2125 18.4364 54.3564C18.3811 54.4991 18.3534 54.6656 18.3534 54.856ZM21.8524 56.1839C21.6222 56.1839 21.4203 56.1291 21.2465 56.0195C21.0739 55.91 20.9389 55.7567 20.8415 55.5597C20.7453 55.3628 20.6971 55.1326 20.6971 54.8693C20.6971 54.6037 20.7453 54.3719 20.8415 54.1738C20.9389 53.9757 21.0739 53.8219 21.2465 53.7123C21.4203 53.6028 21.6222 53.548 21.8524 53.548C22.0825 53.548 22.2839 53.6028 22.4566 53.7123C22.6303 53.8219 22.7653 53.9757 22.8616 54.1738C22.9589 54.3719 23.0076 54.6037 23.0076 54.8693C23.0076 55.1326 22.9589 55.3628 22.8616 55.5597C22.7653 55.7567 22.6303 55.91 22.4566 56.0195C22.2839 56.1291 22.0825 56.1839 21.8524 56.1839ZM21.8524 55.832C22.0272 55.832 22.1711 55.7871 22.2839 55.6975C22.3968 55.6079 22.4804 55.49 22.5346 55.344C22.5888 55.1979 22.6159 55.0397 22.6159 54.8693C22.6159 54.6988 22.5888 54.54 22.5346 54.3929C22.4804 54.2457 22.3968 54.1267 22.2839 54.036C22.1711 53.9453 22.0272 53.8999 21.8524 53.8999C21.6775 53.8999 21.5337 53.9453 21.4208 54.036C21.3079 54.1267 21.2244 54.2457 21.1702 54.3929C21.116 54.54 21.0888 54.6988 21.0888 54.8693C21.0888 55.0397 21.116 55.1979 21.1702 55.344C21.2244 55.49 21.3079 55.6079 21.4208 55.6975C21.5337 55.7871 21.6775 55.832 21.8524 55.832ZM23.9973 52.7314V56.1307H23.6056V52.7314H23.9973ZM24.7148 56.1307V53.5812H25.1065V56.1307H24.7148ZM24.914 53.1563C24.8376 53.1563 24.7718 53.1303 24.7164 53.0783C24.6622 53.0263 24.6351 52.9637 24.6351 52.8907C24.6351 52.8177 24.6622 52.7552 24.7164 52.7032C24.7718 52.6511 24.8376 52.6251 24.914 52.6251C24.9903 52.6251 25.0556 52.6511 25.1098 52.7032C25.1652 52.7552 25.1928 52.8177 25.1928 52.8907C25.1928 52.9637 25.1652 53.0263 25.1098 53.0783C25.0556 53.1303 24.9903 53.1563 24.914 53.1563ZM26.8597 56.1839C26.6207 56.1839 26.4149 56.1274 26.2423 56.0145C26.0696 55.9017 25.9369 55.7462 25.8439 55.5481C25.7509 55.3501 25.7045 55.1238 25.7045 54.8693C25.7045 54.6103 25.7521 54.3818 25.8472 54.1837C25.9435 53.9846 26.0774 53.8291 26.2489 53.7173C26.4215 53.6044 26.6229 53.548 26.8531 53.548C27.0324 53.548 27.1939 53.5812 27.3378 53.6476C27.4816 53.714 27.5995 53.807 27.6913 53.9265C27.7832 54.046 27.8401 54.1854 27.8623 54.3447H27.4706C27.4407 54.2286 27.3743 54.1256 27.2714 54.036C27.1696 53.9453 27.0324 53.8999 26.8597 53.8999C26.707 53.8999 26.5731 53.9397 26.458 54.0194C26.3441 54.098 26.255 54.2092 26.1908 54.353C26.1277 54.4958 26.0962 54.6634 26.0962 54.856C26.0962 55.0529 26.1272 55.2245 26.1891 55.3705C26.2522 55.5166 26.3407 55.63 26.4547 55.7108C26.5698 55.7916 26.7048 55.832 26.8597 55.832C26.9615 55.832 27.0539 55.8143 27.1369 55.7788C27.2199 55.7434 27.2902 55.6925 27.3477 55.6261C27.4053 55.5597 27.4462 55.4801 27.4706 55.3871H27.8623C27.8401 55.5376 27.7854 55.6732 27.6979 55.7938C27.6116 55.9133 27.4971 56.0085 27.3544 56.0793C27.2127 56.149 27.0478 56.1839 26.8597 56.1839ZM28.6872 57.0868C28.6208 57.0868 28.5616 57.0813 28.5096 57.0702C28.4576 57.0603 28.4216 57.0503 28.4017 57.0403L28.5013 56.6951C28.5965 56.7194 28.6806 56.7283 28.7536 56.7216C28.8266 56.715 28.8914 56.6824 28.9478 56.6237C29.0054 56.5662 29.0579 56.4727 29.1055 56.3432L29.1785 56.144L28.2357 53.5812H28.6607L29.3644 55.6129H29.391L30.0948 53.5812H30.5197L29.4375 56.5025C29.3888 56.6342 29.3285 56.7432 29.2565 56.8295C29.1846 56.917 29.1011 56.9817 29.0059 57.0237C28.9119 57.0658 28.8056 57.0868 28.6872 57.0868Z" fill="#F5F7FA"/>
<path d="M2.37988 64.5876C2.35996 64.4194 2.27918 64.2888 2.13754 64.1958C1.9959 64.1029 1.82217 64.0564 1.61635 64.0564C1.46585 64.0564 1.33417 64.0808 1.2213 64.1294C1.10954 64.1781 1.02212 64.2451 0.959045 64.3303C0.897078 64.4155 0.866094 64.5123 0.866094 64.6208C0.866094 64.7115 0.887672 64.7895 0.930828 64.8548C0.975091 64.919 1.03153 64.9726 1.10013 65.0158C1.16874 65.0578 1.24067 65.0927 1.31591 65.1204C1.39116 65.1469 1.46032 65.1685 1.52339 65.1851L1.86864 65.2781C1.95717 65.3013 2.05565 65.3334 2.16409 65.3743C2.27364 65.4153 2.37822 65.4712 2.47781 65.542C2.5785 65.6117 2.6615 65.7013 2.72678 65.8109C2.79207 65.9204 2.82471 66.0549 2.82471 66.2142C2.82471 66.3979 2.77658 66.5639 2.68031 66.7122C2.58514 66.8604 2.44572 66.9783 2.26203 67.0657C2.07944 67.1531 1.85758 67.1968 1.59643 67.1968C1.35298 67.1968 1.14218 67.1576 0.964025 67.079C0.786975 67.0004 0.647547 66.8909 0.545743 66.7503C0.445046 66.6098 0.388058 66.4466 0.374779 66.2607H0.7997C0.810766 66.389 0.853922 66.4953 0.929168 66.5794C1.00552 66.6624 1.10179 66.7243 1.21798 66.7653C1.33528 66.8051 1.46143 66.825 1.59643 66.825C1.75356 66.825 1.89465 66.7996 2.01969 66.7487C2.14473 66.6967 2.24377 66.6247 2.3168 66.5329C2.38983 66.4399 2.42635 66.3315 2.42635 66.2076C2.42635 66.0947 2.39481 66.0029 2.33174 65.932C2.26867 65.8612 2.18567 65.8037 2.08276 65.7594C1.97985 65.7151 1.86864 65.6764 1.74913 65.6432L1.33085 65.5237C1.06528 65.4474 0.855028 65.3384 0.700109 65.1967C0.54519 65.0551 0.46773 64.8697 0.46773 64.6407C0.46773 64.4503 0.519186 64.2844 0.622096 64.1427C0.726113 64 0.865541 63.8893 1.04038 63.8107C1.21632 63.7311 1.41274 63.6912 1.62962 63.6912C1.84872 63.6912 2.04348 63.7305 2.21389 63.8091C2.3843 63.8865 2.5193 63.9928 2.61889 64.1278C2.71959 64.2628 2.77271 64.416 2.77824 64.5876H2.37988ZM4.55718 64.5876V64.9195H3.23594V64.5876H4.55718ZM3.62103 63.9767H4.01275V66.4068C4.01275 66.5174 4.0288 66.6004 4.06089 66.6557C4.09408 66.71 4.13613 66.7465 4.18703 66.7653C4.23904 66.783 4.29382 66.7918 4.35136 66.7918C4.39452 66.7918 4.42993 66.7896 4.45759 66.7852C4.48525 66.7797 4.50739 66.7752 4.52398 66.7719L4.60366 67.1238C4.5771 67.1338 4.54003 67.1437 4.49245 67.1537C4.44486 67.1647 4.38456 67.1703 4.31152 67.1703C4.20087 67.1703 4.09242 67.1465 3.98619 67.0989C3.88107 67.0513 3.79365 66.9788 3.72394 66.8815C3.65533 66.7841 3.62103 66.6613 3.62103 66.513V63.9767ZM5.89668 67.1968C5.73512 67.1968 5.5885 67.1664 5.45682 67.1055C5.32514 67.0436 5.22057 66.9545 5.14311 66.8383C5.06565 66.721 5.02692 66.5794 5.02692 66.4134C5.02692 66.2673 5.05569 66.1489 5.11323 66.0582C5.17077 65.9663 5.24768 65.8944 5.34395 65.8424C5.44022 65.7904 5.54645 65.7517 5.66264 65.7262C5.77993 65.6997 5.89778 65.6786 6.01619 65.6631C6.17111 65.6432 6.2967 65.6283 6.39297 65.6183C6.49035 65.6073 6.56117 65.589 6.60543 65.5635C6.6508 65.5381 6.67349 65.4938 6.67349 65.4308V65.4175C6.67349 65.2537 6.62867 65.1265 6.53904 65.0357C6.45051 64.945 6.31607 64.8996 6.1357 64.8996C5.94869 64.8996 5.80207 64.9406 5.69584 65.0224C5.58961 65.1043 5.51491 65.1917 5.47176 65.2847L5.09995 65.1519C5.16634 64.997 5.25487 64.8764 5.36553 64.7901C5.47729 64.7026 5.59901 64.6418 5.73069 64.6075C5.86348 64.5721 5.99406 64.5544 6.12242 64.5544C6.2043 64.5544 6.29836 64.5643 6.40459 64.5842C6.51193 64.6031 6.61539 64.6423 6.71498 64.7021C6.81568 64.7618 6.89923 64.852 6.96562 64.9726C7.03201 65.0933 7.06521 65.2548 7.06521 65.4573V67.1371H6.67349V66.7918H6.65357C6.62701 66.8472 6.58275 66.9064 6.52078 66.9694C6.45881 67.0325 6.37637 67.0862 6.27346 67.1304C6.17055 67.1747 6.04496 67.1968 5.89668 67.1968ZM5.95643 66.845C6.11135 66.845 6.24193 66.8145 6.34816 66.7537C6.45549 66.6928 6.53627 66.6142 6.59049 66.518C6.64582 66.4217 6.67349 66.3204 6.67349 66.2142V65.8557C6.65689 65.8756 6.62037 65.8939 6.56394 65.9105C6.50861 65.9259 6.44443 65.9398 6.37139 65.952C6.29947 65.963 6.2292 65.973 6.16059 65.9818C6.09309 65.9896 6.03832 65.9962 5.99627 66.0017C5.89446 66.015 5.7993 66.0366 5.71077 66.0665C5.62336 66.0953 5.55254 66.139 5.49831 66.1976C5.4452 66.2552 5.41864 66.3337 5.41864 66.4333C5.41864 66.5694 5.46899 66.6723 5.56969 66.742C5.67149 66.8106 5.80041 66.845 5.95643 66.845ZM8.88897 64.5876V64.9195H7.56773V64.5876H8.88897ZM7.95281 63.9767H8.34454V66.4068C8.34454 66.5174 8.36058 66.6004 8.39267 66.6557C8.42587 66.71 8.46792 66.7465 8.51882 66.7653C8.57083 66.783 8.62561 66.7918 8.68315 66.7918C8.7263 66.7918 8.76171 66.7896 8.78938 66.7852C8.81704 66.7797 8.83917 66.7752 8.85577 66.7719L8.93544 67.1238C8.90889 67.1338 8.87182 67.1437 8.82423 67.1537C8.77665 67.1647 8.71634 67.1703 8.64331 67.1703C8.53265 67.1703 8.42421 67.1465 8.31798 67.0989C8.21286 67.0513 8.12544 66.9788 8.05572 66.8815C7.98712 66.7841 7.95281 66.6613 7.95281 66.513V63.9767ZM11.0849 66.0947V64.5876H11.4767V67.1371H11.0849V66.7055H11.0584C10.9986 66.835 10.9057 66.9451 10.7795 67.0358C10.6534 67.1255 10.494 67.1703 10.3015 67.1703C10.1422 67.1703 10.0005 67.1354 9.87658 67.0657C9.75264 66.9949 9.65526 66.8887 9.58444 66.747C9.51362 66.6043 9.47821 66.4245 9.47821 66.2076V64.5876H9.86994V66.181C9.86994 66.3669 9.92195 66.5152 10.026 66.6259C10.1311 66.7365 10.265 66.7918 10.4276 66.7918C10.525 66.7918 10.6241 66.7669 10.7248 66.7171C10.8266 66.6673 10.9118 66.591 10.9804 66.4881C11.0501 66.3852 11.0849 66.254 11.0849 66.0947ZM14.0001 65.1585L13.6482 65.2581C13.626 65.1995 13.5934 65.1425 13.5502 65.0872C13.5082 65.0307 13.4506 64.9843 13.3776 64.9477C13.3046 64.9112 13.2111 64.893 13.0971 64.893C12.9411 64.893 12.8111 64.9289 12.707 65.0009C12.6041 65.0717 12.5527 65.1619 12.5527 65.2714C12.5527 65.3688 12.5881 65.4457 12.6589 65.5021C12.7297 65.5586 12.8404 65.6056 12.9909 65.6432L13.3693 65.7362C13.5973 65.7915 13.7671 65.8762 13.8789 65.9901C13.9906 66.103 14.0465 66.2485 14.0465 66.4267C14.0465 66.5727 14.0045 66.7033 13.9204 66.8184C13.8374 66.9335 13.7212 67.0242 13.5718 67.0906C13.4224 67.157 13.2487 67.1902 13.0506 67.1902C12.7906 67.1902 12.5754 67.1338 12.4049 67.0209C12.2345 66.908 12.1266 66.7431 12.0813 66.5263L12.4531 66.4333C12.4885 66.5705 12.5554 66.6734 12.6539 66.742C12.7535 66.8106 12.8835 66.845 13.044 66.845C13.2266 66.845 13.3715 66.8062 13.4789 66.7288C13.5873 66.6502 13.6415 66.5561 13.6415 66.4466C13.6415 66.3581 13.6105 66.2839 13.5486 66.2242C13.4866 66.1633 13.3914 66.1179 13.2631 66.0881L12.8382 65.9885C12.6047 65.9331 12.4332 65.8474 12.3236 65.7312C12.2152 65.6139 12.1609 65.4673 12.1609 65.2913C12.1609 65.1475 12.2013 65.0202 12.2821 64.9096C12.364 64.7989 12.4752 64.712 12.6157 64.649C12.7574 64.5859 12.9178 64.5544 13.0971 64.5544C13.3494 64.5544 13.5475 64.6097 13.6913 64.7203C13.8363 64.831 13.9392 64.9771 14.0001 65.1585Z" fill="#F5F7FA"/>
</g>
</g>
<defs>
<clipPath id="clip0_80_129">
<rect width="53.4186" height="69.0384" fill="white" transform="translate(0.109203 0.0986938)"/>
</clipPath>
<clipPath id="clip1_80_129">
<rect width="53.4186" height="51.0256" fill="white" transform="translate(0.109203 18.1115)"/>
</clipPath>
</defs>
</svg>
