<svg width="86" height="32" viewBox="0 0 86 32" fill="none" xmlns="http://www.w3.org/2000/svg">
<g clip-path="url(#clip0_80_137)">
<path d="M3.66199 3.57745C3.63986 3.37036 3.54659 3.20912 3.38219 3.09372C3.21936 2.97832 3.00753 2.92062 2.7467 2.92062C2.56333 2.92062 2.40604 2.94828 2.27483 3.00361C2.14362 3.05894 2.04324 3.13403 1.97369 3.22888C1.90413 3.32373 1.86856 3.43201 1.86698 3.55373C1.86698 3.6549 1.8899 3.74264 1.93575 3.81694C1.98317 3.89124 2.04719 3.95447 2.12782 4.00663C2.20844 4.05722 2.29775 4.0999 2.39576 4.13468C2.49377 4.16946 2.59257 4.1987 2.69216 4.22241L3.14744 4.33623C3.33081 4.37891 3.50707 4.43661 3.67622 4.50933C3.84694 4.58205 3.99949 4.67374 4.13386 4.78439C4.26981 4.89505 4.3773 5.02863 4.45634 5.18513C4.53539 5.34163 4.57491 5.525 4.57491 5.73525C4.57491 6.01979 4.50219 6.27035 4.35675 6.48692C4.21132 6.70191 4.00107 6.87027 3.72601 6.99199C3.45253 7.11213 3.12135 7.1722 2.73247 7.1722C2.35466 7.1722 2.02664 7.11371 1.74842 6.99673C1.47178 6.87975 1.25521 6.70902 1.09871 6.48455C0.94379 6.26008 0.860008 5.9866 0.847361 5.66411H1.71285C1.7255 5.83326 1.77767 5.97395 1.86935 6.08619C1.96104 6.19842 2.08039 6.28221 2.22741 6.33753C2.376 6.39286 2.54199 6.42053 2.72536 6.42053C2.91664 6.42053 3.0842 6.39207 3.22806 6.33516C3.37349 6.27667 3.48731 6.19605 3.56951 6.0933C3.65171 5.98897 3.69361 5.86724 3.69519 5.72813C3.69361 5.60167 3.65646 5.49734 3.58374 5.41513C3.51102 5.33135 3.40906 5.2618 3.27785 5.20647C3.14823 5.14956 2.99647 5.09897 2.82258 5.05471L2.27009 4.91244C1.87014 4.80968 1.55398 4.65398 1.3216 4.44531C1.09081 4.23506 0.975407 3.95605 0.975407 3.60827C0.975407 3.32214 1.05287 3.07159 1.20779 2.8566C1.36429 2.64161 1.5769 2.47483 1.84564 2.35627C2.11438 2.23613 2.41868 2.17606 2.75856 2.17606C3.10317 2.17606 3.40511 2.23613 3.66436 2.35627C3.92519 2.47483 4.12991 2.64003 4.2785 2.85185C4.4271 3.0621 4.50377 3.30397 4.50851 3.57745H3.66199ZM7.13996 3.45651V4.12045H5.04618V3.45651H7.13996ZM5.56311 2.58391H6.42149V6.00319C6.42149 6.11859 6.43888 6.20712 6.47365 6.26877C6.51001 6.32884 6.55744 6.36994 6.61593 6.39207C6.67442 6.4142 6.73923 6.42527 6.81036 6.42527C6.86411 6.42527 6.91312 6.42132 6.95738 6.41341C7.00322 6.40551 7.038 6.3984 7.06171 6.39207L7.20636 7.06313C7.16051 7.07893 7.09491 7.09632 7.00955 7.11529C6.92576 7.13426 6.82301 7.14533 6.70129 7.14849C6.4863 7.15481 6.29265 7.12241 6.12034 7.05127C5.94803 6.97855 5.81129 6.86632 5.71012 6.71456C5.61053 6.5628 5.56153 6.3731 5.56311 6.14547V2.58391ZM8.90592 7.1722C8.67513 7.1722 8.46725 7.1311 8.28229 7.0489C8.09892 6.96512 7.95349 6.84181 7.84599 6.67899C7.74008 6.51617 7.68712 6.3154 7.68712 6.0767C7.68712 5.8712 7.72506 5.70126 7.80094 5.56689C7.87682 5.43252 7.98036 5.32503 8.11157 5.24441C8.24277 5.16379 8.39058 5.10292 8.55498 5.06182C8.72097 5.01914 8.89249 4.98832 9.06954 4.96935C9.28295 4.94721 9.45604 4.92745 9.58883 4.91007C9.72162 4.8911 9.81805 4.86264 9.87812 4.8247C9.93977 4.78518 9.9706 4.72432 9.9706 4.64212V4.62789C9.9706 4.44926 9.91764 4.31094 9.81173 4.21293C9.70581 4.11492 9.55326 4.06591 9.35408 4.06591C9.14383 4.06591 8.97706 4.11176 8.85376 4.20344C8.73203 4.29513 8.64983 4.40342 8.60715 4.5283L7.80568 4.41448C7.86891 4.19317 7.97325 4.00822 8.11868 3.85962C8.26412 3.70944 8.44196 3.5972 8.6522 3.52291C8.86245 3.44703 9.09483 3.40909 9.34934 3.40909C9.52481 3.40909 9.69949 3.42964 9.87338 3.47074C10.0473 3.51184 10.2061 3.57982 10.35 3.67466C10.4938 3.76793 10.6092 3.89519 10.6962 4.05643C10.7847 4.21767 10.829 4.41922 10.829 4.66109V7.09869H10.0038V6.59837H9.97534C9.92317 6.69954 9.84967 6.79439 9.75482 6.88291C9.66155 6.96986 9.54378 7.0402 9.40151 7.09395C9.26081 7.14612 9.09562 7.1722 8.90592 7.1722ZM9.12882 6.54146C9.30113 6.54146 9.45051 6.50747 9.57698 6.4395C9.70344 6.36994 9.80066 6.27825 9.86863 6.16444C9.93819 6.05062 9.97297 5.92653 9.97297 5.79216V5.36297C9.94609 5.3851 9.90025 5.40565 9.83544 5.42462C9.77221 5.44359 9.70107 5.46019 9.62203 5.47441C9.54299 5.48864 9.46474 5.50129 9.38728 5.51235C9.30982 5.52342 9.24264 5.5329 9.18573 5.54081C9.05768 5.5582 8.94307 5.58665 8.8419 5.62617C8.74073 5.66569 8.6609 5.72102 8.60241 5.79216C8.54392 5.86171 8.51467 5.95182 8.51467 6.06247C8.51467 6.22056 8.57237 6.33991 8.68777 6.42053C8.80317 6.50115 8.95019 6.54146 9.12882 6.54146ZM12.0952 8.46451C11.9782 8.46451 11.8699 8.45503 11.7703 8.43606C11.6723 8.41867 11.5941 8.39812 11.5356 8.37441L11.7348 7.70572C11.8597 7.74208 11.9711 7.75947 12.0691 7.75789C12.1671 7.75631 12.2533 7.72548 12.3276 7.66541C12.4035 7.60692 12.4675 7.50891 12.5196 7.37138L12.5932 7.17457L11.2724 3.45651H12.1829L13.0223 6.20712H13.0603L13.9021 3.45651H14.815L13.3567 7.53974C13.2887 7.7326 13.1986 7.89779 13.0864 8.03532C12.9741 8.17443 12.8366 8.28035 12.6738 8.35306C12.5125 8.42736 12.3197 8.46451 12.0952 8.46451ZM19.3867 5.56689V3.45651H20.2451V7.09869H19.4128V6.45135H19.3748C19.2926 6.65528 19.1575 6.82205 18.9693 6.95168C18.7828 7.0813 18.5528 7.14612 18.2793 7.14612C18.0406 7.14612 17.8296 7.09316 17.6462 6.98725C17.4644 6.87975 17.3221 6.72404 17.2194 6.52012C17.1166 6.31461 17.0653 6.06643 17.0653 5.77556V3.45651H17.9236V5.64277C17.9236 5.87357 17.9869 6.05694 18.1133 6.19289C18.2398 6.32884 18.4058 6.39682 18.6113 6.39682C18.7378 6.39682 18.8603 6.36599 18.9788 6.30434C19.0974 6.24269 19.1946 6.151 19.2705 6.02928C19.3479 5.90597 19.3867 5.75185 19.3867 5.56689ZM21.1277 8.46451V3.45651H21.9719V4.0588H22.0217C22.0659 3.97028 22.1284 3.87622 22.209 3.77663C22.2896 3.67546 22.3987 3.5893 22.5362 3.51816C22.6738 3.44545 22.8492 3.40909 23.0626 3.40909C23.344 3.40909 23.5978 3.48102 23.8238 3.62487C24.0514 3.76714 24.2317 3.97818 24.3644 4.25798C24.4988 4.5362 24.566 4.87766 24.566 5.28235C24.566 5.68229 24.5004 6.02216 24.3692 6.30197C24.238 6.58177 24.0593 6.79518 23.8333 6.94219C23.6072 7.08921 23.3511 7.16272 23.065 7.16272C22.8564 7.16272 22.6833 7.12794 22.5457 7.05838C22.4082 6.98883 22.2975 6.90504 22.2138 6.80703C22.1316 6.70744 22.0675 6.61339 22.0217 6.52486H21.9861V8.46451H21.1277ZM21.9695 5.2776C21.9695 5.51314 22.0027 5.71944 22.0691 5.89649C22.1371 6.07354 22.2343 6.21186 22.3608 6.31145C22.4888 6.40946 22.6437 6.45847 22.8255 6.45847C23.0152 6.45847 23.1741 6.40788 23.3021 6.30671C23.4302 6.20396 23.5266 6.06406 23.5914 5.887C23.6578 5.70837 23.691 5.50524 23.691 5.2776C23.691 5.05155 23.6586 4.85079 23.5938 4.67532C23.529 4.49985 23.4326 4.36232 23.3045 4.26272C23.1765 4.16313 23.0168 4.11334 22.8255 4.11334C22.6422 4.11334 22.4864 4.16155 22.3584 4.25798C22.2304 4.35441 22.1331 4.48957 22.0667 4.66346C22.0019 4.83735 21.9695 5.04206 21.9695 5.2776ZM28.7761 3.45651V4.12045H26.6823V3.45651H28.7761ZM27.1992 2.58391H28.0576V6.00319C28.0576 6.11859 28.075 6.20712 28.1098 6.26877C28.1461 6.32884 28.1936 6.36994 28.252 6.39207C28.3105 6.4142 28.3753 6.42527 28.4465 6.42527C28.5002 6.42527 28.5492 6.42132 28.5935 6.41341C28.6393 6.40551 28.6741 6.3984 28.6978 6.39207L28.8425 7.06313C28.7966 7.07893 28.731 7.09632 28.6457 7.11529C28.5619 7.13426 28.4591 7.14533 28.3374 7.14849C28.1224 7.15481 27.9288 7.12241 27.7565 7.05127C27.5842 6.97855 27.4474 6.86632 27.3462 6.71456C27.2466 6.5628 27.1976 6.3731 27.1992 6.14547V2.58391ZM31.0436 7.16983C30.6879 7.16983 30.3796 7.09158 30.1188 6.93508C29.8579 6.77858 29.6556 6.55964 29.5117 6.27825C29.3695 5.99687 29.2983 5.66806 29.2983 5.29183C29.2983 4.9156 29.3695 4.586 29.5117 4.30304C29.6556 4.02007 29.8579 3.80034 30.1188 3.64384C30.3796 3.48734 30.6879 3.40909 31.0436 3.40909C31.3992 3.40909 31.7075 3.48734 31.9683 3.64384C32.2292 3.80034 32.4307 4.02007 32.573 4.30304C32.7168 4.586 32.7888 4.9156 32.7888 5.29183C32.7888 5.66806 32.7168 5.99687 32.573 6.27825C32.4307 6.55964 32.2292 6.77858 31.9683 6.93508C31.7075 7.09158 31.3992 7.16983 31.0436 7.16983ZM31.0483 6.48218C31.2412 6.48218 31.4024 6.42922 31.532 6.32331C31.6616 6.21581 31.7581 6.07196 31.8213 5.89175C31.8861 5.71154 31.9185 5.51077 31.9185 5.28946C31.9185 5.06657 31.8861 4.86501 31.8213 4.6848C31.7581 4.50301 31.6616 4.35836 31.532 4.25087C31.4024 4.14337 31.2412 4.08963 31.0483 4.08963C30.8507 4.08963 30.6863 4.14337 30.5551 4.25087C30.4255 4.35836 30.3282 4.50301 30.2634 4.6848C30.2002 4.86501 30.1686 5.06657 30.1686 5.28946C30.1686 5.51077 30.2002 5.71154 30.2634 5.89175C30.3282 6.07196 30.4255 6.21581 30.5551 6.32331C30.6863 6.42922 30.8507 6.48218 31.0483 6.48218ZM36.5252 7.16272C36.2391 7.16272 35.983 7.08921 35.7569 6.94219C35.5309 6.79518 35.3522 6.58177 35.221 6.30197C35.0898 6.02216 35.0242 5.68229 35.0242 5.28235C35.0242 4.87766 35.0906 4.5362 35.2234 4.25798C35.3578 3.97818 35.5388 3.76714 35.7664 3.62487C35.994 3.48102 36.2478 3.40909 36.5276 3.40909C36.741 3.40909 36.9164 3.44545 37.054 3.51816C37.1915 3.5893 37.3006 3.67546 37.3812 3.77663C37.4618 3.87622 37.5243 3.97028 37.5685 4.0588H37.6041V2.24245H38.4648V7.09869H37.6207V6.52486H37.5685C37.5243 6.61339 37.4602 6.70744 37.3765 6.80703C37.2927 6.90504 37.182 6.98883 37.0445 7.05838C36.907 7.12794 36.7339 7.16272 36.5252 7.16272ZM36.7647 6.45847C36.9465 6.45847 37.1014 6.40946 37.2294 6.31145C37.3575 6.21186 37.4547 6.07354 37.5211 5.89649C37.5875 5.71944 37.6207 5.51314 37.6207 5.2776C37.6207 5.04206 37.5875 4.83735 37.5211 4.66346C37.4563 4.48957 37.3599 4.35441 37.2318 4.25798C37.1054 4.16155 36.9496 4.11334 36.7647 4.11334C36.5734 4.11334 36.4138 4.16313 36.2857 4.26272C36.1577 4.36232 36.0612 4.49985 35.9964 4.67532C35.9316 4.85079 35.8992 5.05155 35.8992 5.2776C35.8992 5.50524 35.9316 5.70837 35.9964 5.887C36.0628 6.06406 36.16 6.20396 36.2881 6.30671C36.4177 6.40788 36.5766 6.45847 36.7647 6.45847ZM40.4276 7.1722C40.1968 7.1722 39.9889 7.1311 39.804 7.0489C39.6206 6.96512 39.4752 6.84181 39.3677 6.67899C39.2618 6.51617 39.2088 6.3154 39.2088 6.0767C39.2088 5.8712 39.2468 5.70126 39.3226 5.56689C39.3985 5.43252 39.5021 5.32503 39.6333 5.24441C39.7645 5.16379 39.9123 5.10292 40.0767 5.06182C40.2427 5.01914 40.4142 4.98832 40.5912 4.96935C40.8046 4.94721 40.9777 4.92745 41.1105 4.91007C41.2433 4.8911 41.3397 4.86264 41.3998 4.8247C41.4615 4.78518 41.4923 4.72432 41.4923 4.64212V4.62789C41.4923 4.44926 41.4393 4.31094 41.3334 4.21293C41.2275 4.11492 41.075 4.06591 40.8758 4.06591C40.6655 4.06591 40.4988 4.11176 40.3755 4.20344C40.2537 4.29513 40.1715 4.40342 40.1288 4.5283L39.3274 4.41448C39.3906 4.19317 39.4949 4.00822 39.6404 3.85962C39.7858 3.70944 39.9637 3.5972 40.1739 3.52291C40.3841 3.44703 40.6165 3.40909 40.871 3.40909C41.0465 3.40909 41.2212 3.42964 41.3951 3.47074C41.569 3.51184 41.7278 3.57982 41.8717 3.67466C42.0155 3.76793 42.1309 3.89519 42.2179 4.05643C42.3064 4.21767 42.3507 4.41922 42.3507 4.66109V7.09869H41.5255V6.59837H41.497C41.4449 6.69954 41.3714 6.79439 41.2765 6.88291C41.1832 6.96986 41.0655 7.0402 40.9232 7.09395C40.7825 7.14612 40.6173 7.1722 40.4276 7.1722ZM40.6505 6.54146C40.8228 6.54146 40.9722 6.50747 41.0987 6.4395C41.2251 6.36994 41.3224 6.27825 41.3903 6.16444C41.4599 6.05062 41.4947 5.92653 41.4947 5.79216V5.36297C41.4678 5.3851 41.4219 5.40565 41.3571 5.42462C41.2939 5.44359 41.2228 5.46019 41.1437 5.47441C41.0647 5.48864 40.9864 5.50129 40.909 5.51235C40.8315 5.52342 40.7643 5.5329 40.7074 5.54081C40.5794 5.5582 40.4648 5.58665 40.3636 5.62617C40.2624 5.66569 40.1826 5.72102 40.1241 5.79216C40.0656 5.86171 40.0364 5.95182 40.0364 6.06247C40.0364 6.22056 40.0941 6.33991 40.2095 6.42053C40.3249 6.50115 40.4719 6.54146 40.6505 6.54146ZM45.0325 3.45651V4.12045H42.9387V3.45651H45.0325ZM43.4557 2.58391H44.314V6.00319C44.314 6.11859 44.3314 6.20712 44.3662 6.26877C44.4026 6.32884 44.45 6.36994 44.5085 6.39207C44.567 6.4142 44.6318 6.42527 44.7029 6.42527C44.7567 6.42527 44.8057 6.42132 44.8499 6.41341C44.8958 6.40551 44.9305 6.3984 44.9543 6.39207L45.0989 7.06313C45.0531 7.07893 44.9875 7.09632 44.9021 7.11529C44.8183 7.13426 44.7156 7.14533 44.5938 7.14849C44.3788 7.15481 44.1852 7.12241 44.0129 7.05127C43.8406 6.97855 43.7038 6.86632 43.6027 6.71456C43.5031 6.5628 43.4541 6.3731 43.4557 6.14547V2.58391ZM47.3237 7.16983C46.9585 7.16983 46.6432 7.09395 46.3776 6.94219C46.1136 6.78886 45.9105 6.57228 45.7682 6.29248C45.6259 6.0111 45.5548 5.67992 45.5548 5.29894C45.5548 4.92429 45.6259 4.59549 45.7682 4.31252C45.912 4.02798 46.1128 3.80666 46.3705 3.64858C46.6281 3.48892 46.9309 3.40909 47.2786 3.40909C47.5031 3.40909 47.7149 3.44545 47.9141 3.51816C48.1149 3.5893 48.2919 3.69996 48.4453 3.85013C48.6002 4.00031 48.7219 4.19159 48.8104 4.42397C48.899 4.65477 48.9432 4.92983 48.9432 5.24915V5.51235H45.9579V4.93378H48.1204C48.1188 4.76937 48.0833 4.62315 48.0137 4.4951C47.9442 4.36548 47.8469 4.26352 47.7221 4.18922C47.5988 4.11492 47.4549 4.07777 47.2905 4.07777C47.115 4.07777 46.9609 4.12045 46.8281 4.20582C46.6953 4.2896 46.5918 4.40026 46.5175 4.53779C46.4448 4.67374 46.4076 4.82312 46.406 4.98594V5.49101C46.406 5.70284 46.4448 5.88463 46.5222 6.03639C46.5997 6.18657 46.708 6.30197 46.8471 6.38259C46.9862 6.46163 47.149 6.50115 47.3356 6.50115C47.4604 6.50115 47.5735 6.48376 47.6746 6.44898C47.7758 6.41262 47.8635 6.35967 47.9378 6.29011C48.0121 6.22056 48.0683 6.1344 48.1062 6.03165L48.9077 6.12175C48.8571 6.33358 48.7606 6.51854 48.6184 6.67662C48.4777 6.83312 48.2975 6.95484 48.0777 7.04178C47.858 7.12715 47.6067 7.16983 47.3237 7.16983Z" fill="white"/>
<rect opacity="0.2" x="0.543846" y="18.1115" width="85.136" height="13.3547" rx="2.67093" fill="white"/>
<g clip-path="url(#clip1_80_137)">
<path fill-rule="evenodd" clip-rule="evenodd" d="M81.3497 22.1078C81.4177 22.1758 81.4407 22.2768 81.409 22.3676L79.6562 27.3755C79.6222 27.4725 79.5326 27.5388 79.43 27.543C79.3274 27.5472 79.2327 27.4883 79.191 27.3945L78.2285 25.2289L76.0629 24.2664C75.9691 24.2248 75.9102 24.13 75.9144 24.0274C75.9186 23.9248 75.985 23.8352 76.0819 23.8013L81.0899 22.0485C81.1807 22.0167 81.2817 22.0398 81.3497 22.1078ZM78.7169 25.0947L79.3921 26.614L80.5738 23.2378L78.7169 25.0947ZM80.2197 22.8837L76.8435 24.0653L78.3628 24.7406L80.2197 22.8837Z" fill="white"/>
</g>
<path d="M4.66976 22.717H5.14115L6.08395 24.3038H6.12378L7.06658 22.717H7.53797L6.30969 24.7154V26.1163H5.89804V24.7154L4.66976 22.717ZM8.6924 26.1694C8.46223 26.1694 8.26028 26.1147 8.08655 26.0051C7.91393 25.8956 7.77893 25.7423 7.68155 25.5453C7.58528 25.3484 7.53714 25.1182 7.53714 24.8548C7.53714 24.5893 7.58528 24.3574 7.68155 24.1594C7.77893 23.9613 7.91393 23.8075 8.08655 23.6979C8.26028 23.5884 8.46223 23.5336 8.6924 23.5336C8.92256 23.5336 9.12396 23.5884 9.29658 23.6979C9.47031 23.8075 9.60531 23.9613 9.70158 24.1594C9.79896 24.3574 9.84765 24.5893 9.84765 24.8548C9.84765 25.1182 9.79896 25.3484 9.70158 25.5453C9.60531 25.7423 9.47031 25.8956 9.29658 26.0051C9.12396 26.1147 8.92256 26.1694 8.6924 26.1694ZM8.6924 25.8176C8.86723 25.8176 9.01109 25.7727 9.12396 25.6831C9.23683 25.5935 9.32037 25.4756 9.37459 25.3296C9.42882 25.1835 9.45593 25.0253 9.45593 24.8548C9.45593 24.6844 9.42882 24.5256 9.37459 24.3785C9.32037 24.2313 9.23683 24.1123 9.12396 24.0216C9.01109 23.9309 8.86723 23.8855 8.6924 23.8855C8.51756 23.8855 8.37371 23.9309 8.26084 24.0216C8.14797 24.1123 8.06442 24.2313 8.0102 24.3785C7.95598 24.5256 7.92887 24.6844 7.92887 24.8548C7.92887 25.0253 7.95598 25.1835 8.0102 25.3296C8.06442 25.4756 8.14797 25.5935 8.26084 25.6831C8.37371 25.7727 8.51756 25.8176 8.6924 25.8176ZM12.0523 25.0739V23.5668H12.4441V26.1163H12.0523V25.6848H12.0258C11.966 25.8142 11.8731 25.9243 11.7469 26.0151C11.6208 26.1047 11.4614 26.1495 11.2689 26.1495C11.1096 26.1495 10.9679 26.1147 10.844 26.045C10.72 25.9741 10.6227 25.8679 10.5518 25.7263C10.481 25.5835 10.4456 25.4037 10.4456 25.1868V23.5668H10.8373V25.1603C10.8373 25.3462 10.8893 25.4944 10.9934 25.6051C11.0985 25.7158 11.2324 25.7711 11.395 25.7711C11.4924 25.7711 11.5915 25.7462 11.6922 25.6964C11.794 25.6466 11.8792 25.5702 11.9478 25.4673C12.0175 25.3644 12.0523 25.2333 12.0523 25.0739ZM13.1615 26.1163V23.5668H13.54V23.9519H13.5665C13.613 23.8257 13.6971 23.7234 13.8188 23.6448C13.9406 23.5663 14.0778 23.527 14.2305 23.527C14.2593 23.527 14.2952 23.5275 14.3384 23.5286C14.3815 23.5297 14.4142 23.5314 14.4363 23.5336V23.932C14.423 23.9287 14.3926 23.9237 14.345 23.917C14.2985 23.9093 14.2493 23.9054 14.1973 23.9054C14.0733 23.9054 13.9627 23.9314 13.8653 23.9834C13.769 24.0343 13.6927 24.1052 13.6363 24.1959C13.5809 24.2855 13.5533 24.3879 13.5533 24.503V26.1163H13.1615ZM17.2842 26.1694C17.0385 26.1694 16.8266 26.1152 16.6485 26.0068C16.4714 25.8972 16.3348 25.7445 16.2385 25.5487C16.1433 25.3517 16.0957 25.1226 16.0957 24.8615C16.0957 24.6003 16.1433 24.3702 16.2385 24.171C16.3348 23.9707 16.4686 23.8147 16.6402 23.7029C16.8128 23.59 17.0142 23.5336 17.2443 23.5336C17.3771 23.5336 17.5083 23.5557 17.6377 23.6C17.7672 23.6443 17.885 23.7162 17.9913 23.8158C18.0975 23.9143 18.1822 24.0448 18.2452 24.2075C18.3083 24.3702 18.3398 24.5705 18.3398 24.8084V24.9744H16.3746V24.6357H17.9415C17.9415 24.4919 17.9127 24.3635 17.8552 24.2507C17.7987 24.1378 17.718 24.0487 17.6128 23.9834C17.5088 23.9181 17.386 23.8855 17.2443 23.8855C17.0883 23.8855 16.9533 23.9242 16.8393 24.0017C16.7265 24.078 16.6396 24.1776 16.5787 24.3005C16.5179 24.4233 16.4875 24.555 16.4875 24.6955V24.9212C16.4875 25.1138 16.5207 25.277 16.587 25.4109C16.6545 25.5437 16.7481 25.6449 16.8676 25.7146C16.9871 25.7833 17.1259 25.8176 17.2842 25.8176C17.3871 25.8176 17.48 25.8032 17.563 25.7744C17.6471 25.7445 17.7196 25.7003 17.7805 25.6416C17.8413 25.5819 17.8884 25.5077 17.9216 25.4192L18.3 25.5254C18.2602 25.6538 18.1932 25.7667 18.0992 25.864C18.0051 25.9603 17.8889 26.0356 17.7506 26.0898C17.6123 26.1429 17.4568 26.1694 17.2842 26.1694ZM18.9357 26.1163V23.5668H19.3142V23.9652H19.3474C19.4005 23.8291 19.4862 23.7234 19.6047 23.6481C19.7231 23.5718 19.8652 23.5336 20.0312 23.5336C20.1994 23.5336 20.3394 23.5718 20.4512 23.6481C20.564 23.7234 20.652 23.8291 20.7151 23.9652H20.7416C20.8069 23.8335 20.9049 23.7289 21.0354 23.6515C21.166 23.5729 21.3226 23.5336 21.5052 23.5336C21.7331 23.5336 21.9196 23.605 22.0645 23.7477C22.2095 23.8894 22.282 24.1101 22.282 24.41V26.1163H21.8903V24.41C21.8903 24.2219 21.8388 24.0874 21.7359 24.0067C21.633 23.9259 21.5118 23.8855 21.3724 23.8855C21.1931 23.8855 21.0543 23.9397 20.9558 24.0482C20.8573 24.1555 20.808 24.2916 20.808 24.4565V26.1163H20.4097V24.3702C20.4097 24.2252 20.3626 24.1085 20.2686 24.0199C20.1745 23.9303 20.0534 23.8855 19.9051 23.8855C19.8033 23.8855 19.7081 23.9126 19.6196 23.9668C19.5322 24.0211 19.4614 24.0963 19.4071 24.1926C19.354 24.2877 19.3275 24.3978 19.3275 24.5229V26.1163H18.9357ZM23.7485 26.1761C23.5869 26.1761 23.4403 26.1457 23.3086 26.0848C23.1769 26.0228 23.0723 25.9337 22.9949 25.8176C22.9174 25.7003 22.8787 25.5586 22.8787 25.3926C22.8787 25.2466 22.9075 25.1282 22.965 25.0374C23.0226 24.9456 23.0995 24.8737 23.1957 24.8217C23.292 24.7696 23.3982 24.7309 23.5144 24.7055C23.6317 24.6789 23.7496 24.6579 23.868 24.6424C24.0229 24.6225 24.1485 24.6075 24.2448 24.5976C24.3421 24.5865 24.413 24.5682 24.4572 24.5428C24.5026 24.5173 24.5253 24.4731 24.5253 24.41V24.3967C24.5253 24.233 24.4805 24.1057 24.3908 24.015C24.3023 23.9242 24.1678 23.8789 23.9875 23.8789C23.8005 23.8789 23.6538 23.9198 23.5476 24.0017C23.4414 24.0836 23.3667 24.171 23.3235 24.2639L22.9517 24.1312C23.0181 23.9762 23.1067 23.8556 23.2173 23.7693C23.3291 23.6819 23.4508 23.621 23.5825 23.5867C23.7153 23.5513 23.8458 23.5336 23.9742 23.5336C24.0561 23.5336 24.1501 23.5436 24.2564 23.5635C24.3637 23.5823 24.4672 23.6216 24.5668 23.6813C24.6675 23.7411 24.751 23.8313 24.8174 23.9519C24.8838 24.0725 24.917 24.2341 24.917 24.4366V26.1163H24.5253V25.7711H24.5054C24.4788 25.8264 24.4345 25.8856 24.3726 25.9487C24.3106 26.0118 24.2282 26.0654 24.1252 26.1097C24.0223 26.154 23.8967 26.1761 23.7485 26.1761ZM23.8082 25.8242C23.9631 25.8242 24.0937 25.7938 24.1999 25.7329C24.3073 25.672 24.3881 25.5935 24.4423 25.4972C24.4976 25.4009 24.5253 25.2997 24.5253 25.1935V24.8349C24.5087 24.8548 24.4722 24.8731 24.4157 24.8897C24.3604 24.9052 24.2962 24.919 24.2232 24.9312C24.1513 24.9423 24.081 24.9522 24.0124 24.9611C23.9449 24.9688 23.8901 24.9755 23.8481 24.981C23.7462 24.9943 23.6511 25.0159 23.5626 25.0457C23.4751 25.0745 23.4043 25.1182 23.3501 25.1769C23.297 25.2344 23.2704 25.313 23.2704 25.4126C23.2704 25.5487 23.3208 25.6516 23.4215 25.7213C23.5233 25.7899 23.6522 25.8242 23.8082 25.8242ZM25.632 26.1163V23.5668H26.0237V26.1163H25.632ZM25.8312 23.1419C25.7548 23.1419 25.689 23.1159 25.6336 23.0639C25.5794 23.0119 25.5523 22.9493 25.5523 22.8763C25.5523 22.8033 25.5794 22.7408 25.6336 22.6887C25.689 22.6367 25.7548 22.6107 25.8312 22.6107C25.9075 22.6107 25.9728 22.6367 26.027 22.6887C26.0823 22.7408 26.11 22.8033 26.11 22.8763C26.11 22.9493 26.0823 23.0119 26.027 23.0639C25.9728 23.1159 25.9075 23.1419 25.8312 23.1419ZM27.1329 22.717V26.1163H26.7412V22.717H27.1329ZM29.9152 26.1761C29.7537 26.1761 29.607 26.1457 29.4754 26.0848C29.3437 26.0228 29.2391 25.9337 29.1616 25.8176C29.0842 25.7003 29.0455 25.5586 29.0455 25.3926C29.0455 25.2466 29.0742 25.1282 29.1318 25.0374C29.1893 24.9456 29.2662 24.8737 29.3625 24.8217C29.4588 24.7696 29.565 24.7309 29.6812 24.7055C29.7985 24.6789 29.9163 24.6579 30.0347 24.6424C30.1896 24.6225 30.3152 24.6075 30.4115 24.5976C30.5089 24.5865 30.5797 24.5682 30.624 24.5428C30.6693 24.5173 30.692 24.4731 30.692 24.41V24.3967C30.692 24.233 30.6472 24.1057 30.5576 24.015C30.469 23.9242 30.3346 23.8789 30.1542 23.8789C29.9672 23.8789 29.8206 23.9198 29.7144 24.0017C29.6081 24.0836 29.5334 24.171 29.4903 24.2639L29.1185 24.1312C29.1849 23.9762 29.2734 23.8556 29.3841 23.7693C29.4958 23.6819 29.6175 23.621 29.7492 23.5867C29.882 23.5513 30.0126 23.5336 30.141 23.5336C30.2228 23.5336 30.3169 23.5436 30.4231 23.5635C30.5305 23.5823 30.6339 23.6216 30.7335 23.6813C30.8342 23.7411 30.9178 23.8313 30.9842 23.9519C31.0505 24.0725 31.0837 24.2341 31.0837 24.4366V26.1163H30.692V25.7711H30.6721C30.6455 25.8264 30.6013 25.8856 30.5393 25.9487C30.4773 26.0118 30.3949 26.0654 30.292 26.1097C30.1891 26.154 30.0635 26.1761 29.9152 26.1761ZM29.975 25.8242C30.1299 25.8242 30.2605 25.7938 30.3667 25.7329C30.474 25.672 30.5548 25.5935 30.609 25.4972C30.6644 25.4009 30.692 25.2997 30.692 25.1935V24.8349C30.6754 24.8548 30.6389 24.8731 30.5825 24.8897C30.5271 24.9052 30.463 24.919 30.3899 24.9312C30.318 24.9423 30.2477 24.9522 30.1791 24.9611C30.1116 24.9688 30.0569 24.9755 30.0148 24.981C29.913 24.9943 29.8178 25.0159 29.7293 25.0457C29.6419 25.0745 29.5711 25.1182 29.5168 25.1769C29.4637 25.2344 29.4372 25.313 29.4372 25.4126C29.4372 25.5487 29.4875 25.6516 29.5882 25.7213C29.69 25.7899 29.8189 25.8242 29.975 25.8242ZM32.7614 26.1694C32.549 26.1694 32.3614 26.1158 32.1987 26.0084C32.0361 25.9 31.9088 25.7473 31.817 25.5503C31.7251 25.3522 31.6792 25.1182 31.6792 24.8482C31.6792 24.5804 31.7251 24.348 31.817 24.1511C31.9088 23.9541 32.0366 23.802 32.2004 23.6946C32.3642 23.5873 32.5534 23.5336 32.7681 23.5336C32.9341 23.5336 33.0652 23.5613 33.1615 23.6166C33.2588 23.6708 33.333 23.7328 33.3839 23.8025C33.4359 23.8711 33.4763 23.9275 33.505 23.9718H33.5382V22.717H33.93V26.1163H33.5515V25.7246H33.505C33.4763 25.7711 33.4353 25.8297 33.3822 25.9006C33.3291 25.9703 33.2533 26.0328 33.1548 26.0881C33.0563 26.1423 32.9252 26.1694 32.7614 26.1694ZM32.8146 25.8176C32.9717 25.8176 33.1045 25.7766 33.2129 25.6947C33.3214 25.6117 33.4038 25.4972 33.4602 25.3511C33.5167 25.204 33.5449 25.0341 33.5449 24.8416C33.5449 24.6512 33.5172 24.4847 33.4619 24.342C33.4066 24.1981 33.3247 24.0863 33.2162 24.0067C33.1078 23.9259 32.9739 23.8855 32.8146 23.8855C32.6486 23.8855 32.5102 23.9281 32.3996 24.0133C32.29 24.0974 32.2076 24.2119 32.1523 24.3569C32.0981 24.5007 32.0709 24.6623 32.0709 24.8416C32.0709 25.023 32.0986 25.1879 32.1539 25.3362C32.2104 25.4834 32.2934 25.6007 32.4029 25.6881C32.5136 25.7744 32.6508 25.8176 32.8146 25.8176ZM35.6645 26.1694C35.452 26.1694 35.2645 26.1158 35.1018 26.0084C34.9392 25.9 34.8119 25.7473 34.7201 25.5503C34.6282 25.3522 34.5823 25.1182 34.5823 24.8482C34.5823 24.5804 34.6282 24.348 34.7201 24.1511C34.8119 23.9541 34.9397 23.802 35.1035 23.6946C35.2673 23.5873 35.4565 23.5336 35.6711 23.5336C35.8371 23.5336 35.9683 23.5613 36.0645 23.6166C36.1619 23.6708 36.2361 23.7328 36.287 23.8025C36.339 23.8711 36.3794 23.9275 36.4081 23.9718H36.4413V22.717H36.833V26.1163H36.4546V25.7246H36.4081C36.3794 25.7711 36.3384 25.8297 36.2853 25.9006C36.2322 25.9703 36.1564 26.0328 36.0579 26.0881C35.9594 26.1423 35.8283 26.1694 35.6645 26.1694ZM35.7176 25.8176C35.8748 25.8176 36.0075 25.7766 36.116 25.6947C36.2244 25.6117 36.3069 25.4972 36.3633 25.3511C36.4197 25.204 36.448 25.0341 36.448 24.8416C36.448 24.6512 36.4203 24.4847 36.365 24.342C36.3096 24.1981 36.2278 24.0863 36.1193 24.0067C36.0109 23.9259 35.877 23.8855 35.7176 23.8855C35.5516 23.8855 35.4133 23.9281 35.3027 24.0133C35.1931 24.0974 35.1107 24.2119 35.0553 24.3569C35.0011 24.5007 34.974 24.6623 34.974 24.8416C34.974 25.023 35.0017 25.1879 35.057 25.3362C35.1134 25.4834 35.1964 25.6007 35.306 25.6881C35.4166 25.7744 35.5539 25.8176 35.7176 25.8176ZM37.6049 26.1163V23.5668H37.9833V23.9519H38.0099C38.0564 23.8257 38.1405 23.7234 38.2622 23.6448C38.3839 23.5663 38.5211 23.527 38.6738 23.527C38.7026 23.527 38.7385 23.5275 38.7817 23.5286C38.8249 23.5297 38.8575 23.5314 38.8796 23.5336V23.932C38.8664 23.9287 38.8359 23.9237 38.7883 23.917C38.7419 23.9093 38.6926 23.9054 38.6406 23.9054C38.5167 23.9054 38.406 23.9314 38.3086 23.9834C38.2124 24.0343 38.136 24.1052 38.0796 24.1959C38.0243 24.2855 37.9966 24.3879 37.9966 24.503V26.1163H37.6049ZM40.3353 26.1694C40.0897 26.1694 39.8778 26.1152 39.6996 26.0068C39.5225 25.8972 39.3859 25.7445 39.2896 25.5487C39.1945 25.3517 39.1469 25.1226 39.1469 24.8615C39.1469 24.6003 39.1945 24.3702 39.2896 24.171C39.3859 23.9707 39.5198 23.8147 39.6913 23.7029C39.8639 23.59 40.0653 23.5336 40.2955 23.5336C40.4283 23.5336 40.5594 23.5557 40.6889 23.6C40.8183 23.6443 40.9362 23.7162 41.0424 23.8158C41.1486 23.9143 41.2333 24.0448 41.2964 24.2075C41.3594 24.3702 41.391 24.5705 41.391 24.8084V24.9744H39.4257V24.6357H40.9926C40.9926 24.4919 40.9639 24.3635 40.9063 24.2507C40.8499 24.1378 40.7691 24.0487 40.664 23.9834C40.56 23.9181 40.4371 23.8855 40.2955 23.8855C40.1395 23.8855 40.0045 23.9242 39.8905 24.0017C39.7776 24.078 39.6907 24.1776 39.6299 24.3005C39.569 24.4233 39.5386 24.555 39.5386 24.6955V24.9212C39.5386 25.1138 39.5718 25.277 39.6382 25.4109C39.7057 25.5437 39.7992 25.6449 39.9187 25.7146C40.0382 25.7833 40.1771 25.8176 40.3353 25.8176C40.4382 25.8176 40.5312 25.8032 40.6142 25.7744C40.6983 25.7445 40.7708 25.7003 40.8316 25.6416C40.8925 25.5819 40.9395 25.5077 40.9727 25.4192L41.3511 25.5254C41.3113 25.6538 41.2444 25.7667 41.1503 25.864C41.0562 25.9603 40.9401 26.0356 40.8017 26.0898C40.6634 26.1429 40.5079 26.1694 40.3353 26.1694ZM43.7928 24.1378L43.4409 24.2374C43.4188 24.1787 43.3861 24.1217 43.343 24.0664C43.3009 24.01 43.2434 23.9635 43.1703 23.927C43.0973 23.8905 43.0038 23.8722 42.8898 23.8722C42.7338 23.8722 42.6038 23.9082 42.4998 23.9801C42.3969 24.0509 42.3454 24.1411 42.3454 24.2507C42.3454 24.348 42.3808 24.4249 42.4516 24.4814C42.5224 24.5378 42.6331 24.5848 42.7836 24.6225L43.162 24.7154C43.39 24.7707 43.5599 24.8554 43.6716 24.9694C43.7834 25.0822 43.8393 25.2278 43.8393 25.4059C43.8393 25.552 43.7972 25.6826 43.7131 25.7976C43.6301 25.9127 43.5139 26.0035 43.3645 26.0699C43.2152 26.1363 43.0414 26.1694 42.8434 26.1694C42.5833 26.1694 42.3681 26.113 42.1977 26.0001C42.0273 25.8873 41.9194 25.7224 41.874 25.5055L42.2458 25.4126C42.2812 25.5498 42.3482 25.6527 42.4466 25.7213C42.5462 25.7899 42.6763 25.8242 42.8367 25.8242C43.0193 25.8242 43.1643 25.7855 43.2716 25.708C43.38 25.6294 43.4343 25.5354 43.4343 25.4258C43.4343 25.3373 43.4033 25.2632 43.3413 25.2034C43.2793 25.1426 43.1842 25.0972 43.0558 25.0673L42.6309 24.9677C42.3974 24.9124 42.2259 24.8266 42.1163 24.7104C42.0079 24.5931 41.9537 24.4465 41.9537 24.2706C41.9537 24.1267 41.9941 23.9995 42.0748 23.8888C42.1567 23.7782 42.2679 23.6913 42.4085 23.6282C42.5501 23.5651 42.7106 23.5336 42.8898 23.5336C43.1421 23.5336 43.3402 23.5889 43.4841 23.6996C43.629 23.8103 43.7319 23.9563 43.7928 24.1378ZM46.2348 24.1378L45.8829 24.2374C45.8608 24.1787 45.8282 24.1217 45.785 24.0664C45.743 24.01 45.6854 23.9635 45.6124 23.927C45.5394 23.8905 45.4459 23.8722 45.3319 23.8722C45.1759 23.8722 45.0458 23.9082 44.9418 23.9801C44.8389 24.0509 44.7874 24.1411 44.7874 24.2507C44.7874 24.348 44.8229 24.4249 44.8937 24.4814C44.9645 24.5378 45.0752 24.5848 45.2256 24.6225L45.6041 24.7154C45.832 24.7707 46.0019 24.8554 46.1137 24.9694C46.2254 25.0822 46.2813 25.2278 46.2813 25.4059C46.2813 25.552 46.2393 25.6826 46.1552 25.7976C46.0722 25.9127 45.956 26.0035 45.8066 26.0699C45.6572 26.1363 45.4835 26.1694 45.2854 26.1694C45.0254 26.1694 44.8101 26.113 44.6397 26.0001C44.4693 25.8873 44.3614 25.7224 44.3161 25.5055L44.6879 25.4126C44.7233 25.5498 44.7902 25.6527 44.8887 25.7213C44.9883 25.7899 45.1183 25.8242 45.2788 25.8242C45.4613 25.8242 45.6063 25.7855 45.7136 25.708C45.8221 25.6294 45.8763 25.5354 45.8763 25.4258C45.8763 25.3373 45.8453 25.2632 45.7834 25.2034C45.7214 25.1426 45.6262 25.0972 45.4979 25.0673L45.0729 24.9677C44.8395 24.9124 44.6679 24.8266 44.5584 24.7104C44.4499 24.5931 44.3957 24.4465 44.3957 24.2706C44.3957 24.1267 44.4361 23.9995 44.5169 23.8888C44.5988 23.7782 44.71 23.6913 44.8505 23.6282C44.9922 23.5651 45.1526 23.5336 45.3319 23.5336C45.5842 23.5336 45.7822 23.5889 45.9261 23.6996C46.0711 23.8103 46.174 23.9563 46.2348 24.1378Z" fill="#D9DBE1"/>
</g>
<defs>
<clipPath id="clip0_80_137">
<rect width="85.136" height="31.3675" fill="white" transform="translate(0.543846 0.0986938)"/>
</clipPath>
<clipPath id="clip1_80_137">
<rect width="6.0096" height="6.0096" fill="white" transform="translate(75.6638 21.7841)"/>
</clipPath>
</defs>
</svg>
