<svg width="386" height="17" viewBox="0 0 386 17" fill="none" xmlns="http://www.w3.org/2000/svg">
<rect x="0.410614" y="0.893921" width="16.0256" height="16.0256" rx="2.67093" fill="#E8F5E9"/>
<g clip-path="url(#clip0_0_1460)">
<path fill-rule="evenodd" clip-rule="evenodd" d="M3.86721 0.958862C5.71109 0.958862 7.20588 2.45363 7.20588 4.29753V0.958862H10.5445C12.3884 0.958862 13.8832 2.45363 13.8832 4.29753C13.8832 6.14141 12.3884 7.63619 10.5445 7.63619C12.3884 7.63619 13.8832 9.13098 13.8832 10.9749C13.8832 11.8904 13.5147 12.7199 12.9178 13.3231L12.9053 13.3357L12.8943 13.3467C12.291 13.9444 11.4609 14.3135 10.5445 14.3135C9.63446 14.3135 8.80941 13.9494 8.20715 13.3588C8.19933 13.3512 8.19152 13.3434 8.18374 13.3357C8.17643 13.3284 8.16915 13.321 8.16191 13.3136C7.5706 12.7113 7.20588 11.8856 7.20588 10.9749C7.20588 12.8187 5.71109 14.3135 3.86721 14.3135C2.02332 14.3135 0.528549 12.8187 0.528549 10.9749V7.63619H3.86721C2.02332 7.63619 0.528549 6.14141 0.528549 4.29753C0.528549 2.45363 2.02332 0.958862 3.86721 0.958862ZM6.53815 4.29753C6.53815 5.77265 5.34234 6.96846 3.86721 6.96846V1.6266C5.34234 1.6266 6.53815 2.82241 6.53815 4.29753ZM13.2155 10.9749C13.2155 9.49974 12.0197 8.30393 10.5445 8.30393C9.06942 8.30393 7.87361 9.49974 7.87361 10.9749H13.2155ZM1.19628 8.30393V10.9749C1.19628 12.45 2.3921 13.6458 3.86721 13.6458C5.34234 13.6458 6.53815 12.45 6.53815 10.9749V8.30393H1.19628ZM7.87361 6.96846V1.6266H10.5445C12.0197 1.6266 13.2155 2.82241 13.2155 4.29753C13.2155 5.77265 12.0197 6.96846 10.5445 6.96846H7.87361Z" fill="#5417D7"/>
</g>
<rect x="30.1247" y="0.893921" width="16.0256" height="16.0256" rx="2.67093" fill="#F5F7FA"/>
<g clip-path="url(#clip1_0_1460)">
<path fill-rule="evenodd" clip-rule="evenodd" d="M33.4961 5.55516L30.1621 8.85556C30.829 9.51571 31.5908 10.0721 32.4213 10.5073C32.6509 11.1102 33.0107 11.6755 33.5008 12.1607C35.3447 13.986 38.3343 13.986 40.1781 12.1607C40.6683 11.6755 41.0281 11.1102 41.2577 10.5073C42.0882 10.0721 42.85 9.51571 43.5168 8.85556L40.1856 5.55784C40.1831 5.55538 40.1806 5.55291 40.1781 5.55045C38.3343 3.72509 35.3447 3.72509 33.5008 5.55045C33.4992 5.55202 33.4976 5.55359 33.4961 5.55516ZM39.8591 11.1028C38.8876 11.4274 37.8677 11.5936 36.8395 11.5936C35.8113 11.5936 34.7914 11.4274 33.8198 11.1028C33.9251 11.241 34.0413 11.3737 34.1685 11.4996C35.6437 12.9599 38.0353 12.9599 39.5104 11.4996C39.6376 11.3737 39.7539 11.241 39.8591 11.1028ZM34.237 6.14536C34.4875 6.30919 34.7539 6.44939 35.0326 6.56368C35.6054 6.79858 36.2194 6.91948 36.8395 6.91948C37.4595 6.91948 38.0735 6.79858 38.6464 6.56368C38.9251 6.44939 39.1914 6.30919 39.442 6.14536C37.9852 4.77321 35.6937 4.77322 34.237 6.14536Z" fill="#3B4158"/>
</g>
<rect x="59.8388" y="0.893921" width="16.0256" height="16.0256" rx="2.67093" fill="#F5F7FA"/>
<g clip-path="url(#clip2_0_1460)">
<path d="M78.2 7.4098C78.202 7.39588 78.202 7.38181 78.2 7.36789C78.2018 7.35654 78.2018 7.34497 78.2 7.33361L78.064 6.35449C78.0444 6.23735 77.9919 6.12787 77.9125 6.03828L77.8891 6.01161L77.8464 5.9697L75.4914 3.981L75.5575 4.04577C75.5035 3.98238 75.4356 3.93167 75.359 3.89739C75.2823 3.8631 75.1987 3.84611 75.1145 3.84766H74.3995C74.2832 3.84541 74.1696 3.88165 74.0769 3.95053C73.9796 3.88206 73.8625 3.84601 73.7427 3.84766H73.0277C72.9339 3.84617 72.8414 3.86899 72.7595 3.91381C72.6776 3.95864 72.6092 4.02387 72.5613 4.10292C72.4875 4.21582 72.4597 4.35184 72.4836 4.4839L72.573 5.10108C72.5138 5.06817 72.4468 5.05109 72.3787 5.05155H68.9162C68.792 5.05232 68.6706 5.08802 68.5665 5.15441C68.4657 5.21622 68.3849 5.30471 68.3333 5.40967L68.0652 5.18489C67.9596 5.08916 67.8203 5.03727 67.6766 5.04012H62.2438C62.1192 5.04235 61.9973 5.07649 61.8902 5.13918C61.7437 5.22322 61.6364 5.35986 61.591 5.52015L59.8656 11.1777C59.8333 11.2709 59.8301 11.3714 59.8564 11.4664C59.8827 11.5614 59.9373 11.6466 60.0132 11.711C60.033 11.7275 60.0538 11.7427 60.0754 11.7567C60.0754 11.7567 60.0404 11.7339 60.021 11.7149L62.376 13.7074C62.4756 13.7973 62.6058 13.8475 62.7412 13.8483H68.2167C68.3418 13.8451 68.4637 13.8096 68.5704 13.7454C68.6306 13.7131 68.6846 13.6706 68.7297 13.6197L68.7491 13.5931L68.7802 13.555L68.8035 13.5131L69.06 13.7302C69.1582 13.8166 69.2856 13.8641 69.4175 13.8636H74.9046C75.0295 13.8595 75.1513 13.8241 75.2583 13.7607C75.3172 13.7264 75.3708 13.6841 75.4176 13.635L75.437 13.6083L75.4681 13.5702C75.4846 13.5461 75.499 13.5206 75.5109 13.494C75.5236 13.4709 75.534 13.4467 75.5419 13.4216L77.1158 8.25558V8.20986C77.1177 8.19213 77.1177 8.17425 77.1158 8.15652V8.12224C77.1177 8.11087 77.1177 8.0993 77.1158 8.08794C77.1176 8.06385 77.1176 8.03966 77.1158 8.01555H77.621C77.6649 8.0195 77.7092 8.0195 77.7531 8.01555H77.7881C77.8165 8.00723 77.8439 7.99571 77.8697 7.98127H77.9086L77.9785 7.92793L78.0096 7.90507L78.064 7.83648V7.81365L78.1029 7.74887C78.1007 7.73627 78.1007 7.72338 78.1029 7.71078C78.1008 7.7046 78.1008 7.69791 78.1029 7.69173C78.1111 7.66939 78.1176 7.64646 78.1223 7.62314C78.1205 7.61563 78.1205 7.60779 78.1223 7.60028C78.1204 7.58894 78.1204 7.57735 78.1223 7.566C78.1223 7.566 78.2 7.41742 78.2 7.4098Z" fill="black"/>
<path d="M67.8359 5.4745C67.8565 5.49278 67.8709 5.51683 67.8772 5.5434C67.8834 5.56997 67.8812 5.59778 67.8709 5.62308L66.1493 11.2768C66.1277 11.3385 66.0833 11.3901 66.025 11.4216C65.9775 11.4527 65.9226 11.4711 65.8656 11.4749H60.3941C60.3473 11.4727 60.3031 11.4537 60.2697 11.4216C60.2499 11.4036 60.2359 11.3802 60.2297 11.3544C60.2235 11.3286 60.2252 11.3016 60.2347 11.2768L61.9601 5.62308C61.98 5.56057 62.023 5.50759 62.0806 5.4745C62.1289 5.4456 62.1835 5.42861 62.2399 5.42497H67.7115C67.7579 5.4254 67.8023 5.44311 67.8359 5.4745ZM64.9796 10.1377L66.0094 6.76219H63.126L62.1 10.1377H64.9796ZM73.0587 5.53164C73.0774 5.55291 73.1008 5.56978 73.127 5.58099C73.1532 5.5922 73.1817 5.59747 73.2103 5.59641H73.9215C73.9485 5.59667 73.9752 5.59016 73.999 5.57749C74.0228 5.56483 74.0429 5.54642 74.0575 5.52402C74.0701 5.50652 74.079 5.48671 74.0837 5.46577C74.0884 5.44483 74.0887 5.42318 74.0847 5.40211L73.9448 4.39633C73.9315 4.34978 73.9075 4.3068 73.8748 4.27061C73.8561 4.24934 73.8328 4.23247 73.8066 4.22126C73.7803 4.21004 73.7519 4.20478 73.7233 4.20584H73.0121C72.985 4.20558 72.9583 4.21209 72.9345 4.22476C72.9107 4.23742 72.8906 4.25582 72.8761 4.27823C72.8489 4.33156 72.8372 4.36585 72.8489 4.39633L72.9927 5.40211C73.0001 5.45108 73.0232 5.49646 73.0587 5.53164ZM75.3166 4.38871C75.3032 4.34216 75.2793 4.29917 75.2466 4.26299C75.2287 4.24179 75.2061 4.22493 75.1805 4.2137C75.1549 4.20247 75.127 4.19717 75.0989 4.19822H74.3839C74.3573 4.19748 74.3309 4.20381 74.3077 4.21655C74.2844 4.2293 74.2651 4.24798 74.2518 4.27061C74.2259 4.3044 74.2147 4.34686 74.2207 4.38871L74.3645 5.39449C74.3735 5.44295 74.3964 5.48788 74.4305 5.52402C74.4495 5.54487 74.4729 5.56146 74.4991 5.57264C74.5253 5.58381 74.5535 5.58932 74.5821 5.58878H75.2971C75.3237 5.58913 75.3499 5.58263 75.3731 5.56992C75.3963 5.55722 75.4156 5.53876 75.4293 5.5164C75.4428 5.49936 75.4522 5.47956 75.4569 5.45846C75.4617 5.43737 75.4615 5.41551 75.4565 5.39449L75.3166 4.38871ZM72.4331 5.91262L72.3631 5.41735H68.9162C68.8621 5.42027 68.8097 5.43738 68.7646 5.46687C68.736 5.48218 68.7111 5.50338 68.6916 5.52904C68.6722 5.55469 68.6587 5.58417 68.652 5.61546L68.3644 6.56027C68.3529 6.58389 68.349 6.61038 68.3531 6.63622C68.3573 6.66206 68.3694 6.68605 68.3877 6.70505C68.4205 6.73525 68.4632 6.75286 68.5082 6.75458H72.6974L71.6675 10.13H67.49C67.4362 10.1313 67.3837 10.1471 67.3385 10.1757C67.2835 10.21 67.2434 10.2629 67.2258 10.3243L66.9343 11.2692C66.9248 11.2934 66.9223 11.3197 66.9271 11.3453C66.9319 11.3709 66.9438 11.3946 66.9615 11.4139C66.9933 11.4462 67.0364 11.4652 67.082 11.4673H72.5691C72.6258 11.4625 72.6806 11.4442 72.7284 11.4139C72.7858 11.3823 72.8289 11.3306 72.8489 11.2692L74.4266 6.10311H72.6507C72.6225 6.10365 72.5946 6.09852 72.5685 6.08804C72.5424 6.07755 72.5188 6.06193 72.4992 6.04215C72.467 6.0076 72.4443 5.96567 72.4331 5.92024V5.91262Z" fill="white"/>
</g>
<rect x="89.553" y="0.893921" width="16.0256" height="16.0256" rx="2.67093" fill="#F5F7FA"/>
<g clip-path="url(#clip3_0_1460)">
<path d="M104.242 5.37159C104.242 5.38288 104.242 5.39699 104.239 5.40546C104.224 5.51553 104.224 5.6256 104.233 5.73849C104.239 5.76672 104.245 5.79494 104.268 5.81752C104.307 5.85985 104.365 5.85139 104.389 5.80058C104.401 5.77518 104.401 5.74978 104.395 5.72438C104.365 5.61713 104.36 5.50424 104.357 5.39417C104.357 5.38852 104.357 5.38006 104.357 5.37159C104.389 5.36877 104.418 5.36594 104.445 5.36594C104.465 5.36312 104.483 5.3603 104.498 5.35183C104.542 5.32926 104.542 5.28128 104.495 5.2587C104.477 5.25023 104.454 5.24741 104.433 5.24741C104.36 5.25023 104.286 5.25023 104.213 5.25023C104.186 5.25023 104.16 5.25305 104.133 5.25587C104.118 5.2587 104.101 5.2587 104.089 5.26716C104.068 5.27563 104.057 5.28974 104.057 5.3095C104.06 5.32926 104.068 5.34054 104.089 5.34901C104.101 5.35748 104.115 5.3603 104.13 5.3603C104.165 5.36312 104.204 5.36877 104.242 5.37159ZM105.051 5.50142C105.051 5.50424 105.054 5.50706 105.054 5.50706C105.065 5.58326 105.077 5.65665 105.086 5.73002C105.089 5.75543 105.092 5.778 105.109 5.79776C105.148 5.84574 105.206 5.8401 105.233 5.78929C105.245 5.76389 105.248 5.73849 105.242 5.71027C105.224 5.6256 105.215 5.54093 105.198 5.45908C105.186 5.40828 105.171 5.3603 105.156 5.31514C105.148 5.28692 105.127 5.26716 105.092 5.26434C105.056 5.2587 105.03 5.27563 105.015 5.30103C104.998 5.32361 104.983 5.34619 104.971 5.37159C104.951 5.41675 104.933 5.4619 104.909 5.50424C104.907 5.51553 104.904 5.524 104.898 5.53246C104.895 5.52682 104.892 5.524 104.892 5.524C104.854 5.45344 104.818 5.38288 104.78 5.31514C104.774 5.3095 104.771 5.30385 104.768 5.29821C104.751 5.27281 104.73 5.2587 104.698 5.2587C104.668 5.26152 104.645 5.27845 104.63 5.30385C104.624 5.31514 104.624 5.32361 104.621 5.3349C104.61 5.42521 104.595 5.51553 104.583 5.60584C104.577 5.65665 104.574 5.70745 104.574 5.75825C104.571 5.76954 104.574 5.78365 104.58 5.79494C104.586 5.81752 104.604 5.83163 104.627 5.83445C104.657 5.83727 104.677 5.82881 104.686 5.80623C104.695 5.78929 104.698 5.77518 104.701 5.76107C104.712 5.71027 104.721 5.66229 104.73 5.61431C104.736 5.58609 104.739 5.56351 104.748 5.53246C104.754 5.54375 104.759 5.55222 104.765 5.56068C104.792 5.59455 104.818 5.62842 104.851 5.65665C104.883 5.67922 104.909 5.6764 104.936 5.651C104.942 5.64535 104.945 5.64253 104.951 5.63689C104.977 5.59738 105.009 5.55786 105.036 5.51835C105.042 5.51271 105.045 5.50706 105.051 5.50142Z" fill="#3A3B7B"/>
<path d="M98.275 5.42703C98.2546 5.48067 98.2507 5.51931 98.2601 5.55143C98.2706 5.5951 98.2976 5.6094 98.3343 5.59829C98.6797 5.51632 99.4371 5.749 99.7175 5.81385C99.7837 5.82747 99.8375 5.74553 99.7923 5.67207C99.7265 5.60093 98.9694 5.29634 98.6806 5.27974C98.5673 5.2736 98.3649 5.24573 98.275 5.42703Z" fill="#3A3B7B"/>
<path d="M101.235 4.44103C101.272 4.46142 101.292 4.48087 101.303 4.5026C101.318 4.53111 101.31 4.55084 101.284 4.5609C101.056 4.66785 100.752 5.12828 100.63 5.28708C100.6 5.32361 100.531 5.30238 100.521 5.24231C100.523 5.17439 100.792 4.67472 100.943 4.53862C101.002 4.48549 101.099 4.38123 101.235 4.44103Z" fill="#3A3B7B"/>
<path d="M99.4168 4.21439C99.4611 4.1824 99.507 4.17119 99.5305 4.19198C99.875 4.47473 100.058 4.92249 100.171 5.33241C100.175 5.34196 100.175 5.35566 100.172 5.36996C100.17 5.38218 100.161 5.39508 100.146 5.40507C100.131 5.4161 100.117 5.41946 100.111 5.40996C99.9597 5.21286 99.0974 4.44602 99.4168 4.21439Z" fill="#3A3B7B"/>
<path d="M92.1222 9.11661C92.2047 9.05761 92.2945 9.0085 92.3895 8.97039C92.4888 8.94312 92.5947 8.94763 92.6912 8.98328C92.7876 9.01893 92.8694 9.08373 92.924 9.16792C92.9729 9.2519 92.9921 9.34885 92.9786 9.44417C92.9651 9.53948 92.9197 9.628 92.8492 9.69641C92.7946 9.75187 92.7325 9.80017 92.6648 9.84008C92.3627 10.0274 92.058 10.2044 91.7533 10.3917C91.6909 10.4385 91.6248 10.4806 91.5555 10.5174C91.4501 10.5678 91.3296 10.5813 91.2149 10.5556C91.1002 10.5298 90.9985 10.4664 90.9273 10.3763C90.8741 10.3125 90.8293 10.2427 90.7937 10.1685C90.505 9.5861 90.2056 9.0063 89.9276 8.41366C89.7993 8.15713 89.6951 7.86209 89.5935 7.57733C89.5496 7.49459 89.541 7.39867 89.5696 7.30995C89.5982 7.22122 89.6617 7.14671 89.7467 7.10226C89.8317 7.05781 89.9313 7.04694 90.0245 7.07194C90.1177 7.09694 90.1971 7.15585 90.2457 7.23612C90.3952 7.42681 90.5276 7.62937 90.6413 7.84158C90.93 8.35467 91.2053 8.86776 91.4833 9.36546C91.4995 9.39297 91.5173 9.41951 91.5368 9.44499C91.746 9.36056 91.9428 9.25016 92.1222 9.11661Z" fill="#3A3B7B"/>
<path d="M95.1069 8.93759C94.4467 9.679 93.3401 9.49172 92.7841 8.53737C92.3885 7.86008 92.319 6.74153 93.1797 6.03602C93.3635 5.88832 93.5833 5.7877 93.8186 5.74356C94.107 5.70387 94.4012 5.75271 94.659 5.88311C94.9168 6.0135 95.125 6.21877 95.254 6.46959C95.7244 7.29055 95.6576 8.33725 95.1069 8.93759ZM94.8396 7.20845C94.7695 7.00671 94.6288 6.83448 94.4414 6.721C94.3353 6.64845 94.2064 6.61317 94.0765 6.62112C93.9465 6.62906 93.8233 6.67974 93.7277 6.76461C93.3454 7.09044 93.2652 7.86265 93.5432 8.32187C93.5787 8.39675 93.6307 8.4633 93.6957 8.51686C93.7608 8.57042 93.8372 8.60969 93.9197 8.63192C94.0022 8.65417 94.0887 8.65883 94.1733 8.64561C94.2579 8.63236 94.3384 8.60155 94.4093 8.55532C94.6165 8.40113 94.7685 8.18883 94.8442 7.94792C94.9199 7.70699 94.9155 7.44942 94.8316 7.21102L94.8396 7.20845Z" fill="#3A3B7B"/>
<path d="M97.8013 7.5317C97.7337 7.54566 97.6639 7.54649 97.596 7.53415C97.528 7.5218 97.4633 7.49656 97.4057 7.45988C97.3553 7.4322 97.3119 7.39415 97.2787 7.34845C97.2454 7.30274 97.2231 7.25055 97.2134 7.19558C97.2037 7.14063 97.2068 7.0843 97.2225 7.03063C97.2382 6.97696 97.2661 6.9273 97.3042 6.8852C97.3705 6.80062 97.4647 6.74006 97.5715 6.71332C97.8502 6.63569 98.1371 6.58836 98.4268 6.57223C98.4905 6.56512 98.555 6.57029 98.6165 6.58743C98.6781 6.6046 98.7354 6.63336 98.7852 6.67209C98.835 6.71079 98.8763 6.75867 98.9065 6.81289C98.9368 6.86711 98.9554 6.92659 98.9614 6.98783C99.0449 7.28864 99.0541 7.60403 98.9881 7.90885C98.7476 8.89398 97.9189 9.23261 96.9887 8.91706C96.7276 8.8327 96.4987 8.67549 96.3312 8.46555C96.1078 8.21271 95.9494 7.91307 95.8688 7.59072C95.8034 7.30367 95.8106 7.00581 95.8896 6.72197C95.9687 6.43813 96.1173 6.17655 96.3232 5.95907C96.5185 5.7227 96.772 5.53668 97.0609 5.41776C97.2435 5.32119 97.4571 5.29373 97.6597 5.34079C97.7056 5.353 97.7473 5.37679 97.7805 5.40969C97.8137 5.44259 97.837 5.4834 97.8482 5.5279C97.8594 5.57239 97.858 5.61895 97.8441 5.66274C97.8302 5.70652 97.8044 5.74595 97.7693 5.77692C97.7025 5.83492 97.63 5.88648 97.5527 5.93085C97.3151 6.0761 97.1083 6.26326 96.9433 6.48243C96.8351 6.62425 96.7607 6.78711 96.7251 6.95951C96.6895 7.13192 96.6938 7.30972 96.7375 7.48041C96.7981 7.71314 96.9326 7.92203 97.1224 8.07815C97.7104 8.59126 98.4749 8.09611 98.3413 7.39574C98.1462 7.44193 97.9751 7.49067 97.8013 7.5317Z" fill="#3A3B7B"/>
<path d="M101.394 8.97863C100.525 9.49174 99.5361 8.97864 99.3196 7.90115C99.1619 7.1315 99.4613 6.054 100.509 5.64352C100.732 5.55807 100.974 5.52806 101.212 5.5563C101.498 5.60659 101.761 5.74184 101.963 5.94297C102.165 6.14411 102.296 6.40099 102.337 6.67741C102.514 7.59328 102.113 8.57073 101.394 8.97863ZM101.696 7.25207C101.696 7.03895 101.617 6.83272 101.474 6.66971C101.398 6.56889 101.287 6.49664 101.161 6.46529C101.036 6.43395 100.902 6.44544 100.784 6.49783C100.314 6.69279 99.9825 7.40087 100.103 7.92168C100.112 8.0034 100.14 8.08222 100.184 8.15262C100.228 8.22301 100.288 8.28328 100.359 8.32923C100.43 8.37515 100.511 8.40565 100.595 8.41857C100.68 8.43146 100.766 8.42649 100.849 8.40398C101.097 8.3206 101.313 8.16479 101.464 7.95827C101.616 7.75176 101.697 7.50486 101.696 7.25207Z" fill="#3A3B7B"/>
<path d="M103.216 9.19415C103.203 9.28805 103.151 9.3731 103.073 9.4306C102.995 9.48807 102.895 9.51331 102.798 9.50073C102.7 9.48814 102.611 9.43876 102.551 9.36346C102.491 9.28818 102.465 9.19312 102.478 9.09923C102.491 9.00533 102.543 8.92028 102.621 8.86278C102.7 8.80528 102.799 8.78007 102.897 8.79265C102.994 8.80524 103.083 8.8546 103.143 8.9299C103.203 9.0052 103.229 9.10026 103.216 9.19415ZM102.983 5.73331C103.034 5.65879 103.109 5.60205 103.196 5.57153C103.283 5.54102 103.378 5.53837 103.467 5.56399C103.558 5.58569 103.637 5.63653 103.693 5.70798C103.749 5.77944 103.778 5.86718 103.775 5.95651C103.763 6.0998 103.741 6.24211 103.708 6.38238C103.62 6.857 103.534 7.3316 103.441 7.80109C103.398 7.98838 103.342 8.16796 103.28 8.35779C103.259 8.41714 103.223 8.47077 103.176 8.51429C103.147 8.54704 103.109 8.57214 103.067 8.5873C103.025 8.60249 102.98 8.60722 102.935 8.60108C102.891 8.59494 102.848 8.57813 102.812 8.55221C102.777 8.52626 102.748 8.49205 102.73 8.45272C102.698 8.38218 102.68 8.30637 102.679 8.22953C102.679 7.9114 102.679 7.59073 102.7 7.27003C102.736 6.81237 102.808 6.3579 102.914 5.91033C102.926 5.85037 102.95 5.79303 102.983 5.74101V5.73331Z" fill="#3A3B7B"/>
<path fill-rule="evenodd" clip-rule="evenodd" d="M90.9928 11.2557C90.9613 11.3233 90.9526 11.3987 90.968 11.4713C90.9783 11.5669 91.0008 11.661 91.0351 11.7513C91.0779 11.862 91.1259 11.9714 91.1849 12.1062C91.1985 12.1373 91.2127 12.1696 91.2276 12.2037C91.3073 12.3864 91.4072 12.6199 91.5406 12.9578C91.5783 13.0538 91.6118 13.1505 91.6456 13.248C91.6592 13.2873 91.6729 13.3268 91.6869 13.3664C91.7371 13.5072 91.8235 13.6336 91.938 13.7338C91.9866 13.7889 92.0511 13.829 92.1234 13.8491C92.1972 13.8696 92.2756 13.8683 92.3485 13.8454C92.4215 13.8225 92.4855 13.779 92.5324 13.7207C92.5784 13.6635 92.6057 13.5946 92.611 13.5226C92.6408 13.3823 92.6306 13.2369 92.5815 13.1017C92.5035 12.8772 92.4147 12.6523 92.3122 12.4324L92.3118 12.4314C92.1432 12.0874 91.9719 11.7457 91.7925 11.4039L91.7912 11.4015C91.7386 11.3124 91.6704 11.2328 91.5895 11.1662C91.5369 11.1068 91.4645 11.0667 91.3844 11.0529C91.3027 11.0387 91.2184 11.053 91.1466 11.093C91.0787 11.1302 91.0248 11.1872 90.9928 11.2557Z" fill="#3A3B7B"/>
<path fill-rule="evenodd" clip-rule="evenodd" d="M93.5669 10.4085C93.3026 10.3428 93.0266 10.3333 92.7582 10.3805C92.5502 10.4001 92.3457 10.4462 92.2037 10.5374C92.1315 10.5838 92.0731 10.6433 92.0406 10.7191C92.0079 10.7952 92.0038 10.8823 92.0305 10.9794C92.0794 11.1571 92.1429 11.33 92.2061 11.5022L92.2164 11.5301L92.2166 11.5308C92.407 12.0312 92.5992 12.53 92.7932 13.0271C92.8158 13.1054 92.8478 13.181 92.8885 13.2523L92.8893 13.2536C92.9431 13.3421 93.012 13.4213 93.0933 13.4878C93.1339 13.5244 93.1842 13.5497 93.2387 13.561C93.2937 13.5724 93.351 13.5691 93.4042 13.5514C93.4574 13.5338 93.5045 13.5024 93.5404 13.4608C93.5757 13.4198 93.5989 13.3705 93.6074 13.318C93.6424 13.1754 93.6312 13.0258 93.5751 12.8895C93.5577 12.8436 93.5439 12.7967 93.5295 12.7474C93.5247 12.7309 93.5198 12.7142 93.5146 12.6971C93.9586 12.5305 94.4311 12.3065 94.5972 11.7855C94.6622 11.6054 94.6677 11.4104 94.6127 11.2272C94.5577 11.0439 94.4448 10.8814 94.2897 10.762C94.0785 10.595 93.8318 10.4744 93.5669 10.4085ZM92.8344 11.0476C92.8431 11.0452 92.8519 11.043 92.8608 11.0409C93.1498 10.9973 93.4456 11.0554 93.6936 11.2045C93.8028 11.2774 93.8476 11.3585 93.8553 11.4365C93.8632 11.5168 93.8328 11.6038 93.7717 11.6874C93.6562 11.8454 93.4455 11.9719 93.2552 11.9954C93.1164 11.6887 92.9755 11.3696 92.8344 11.0476Z" fill="#3A3B7B"/>
<path d="M95.3286 9.84711C95.6432 9.70762 96.033 9.68353 96.3381 9.7816C96.4149 9.80308 96.4815 9.84953 96.5266 9.91302C96.5714 9.9761 96.5921 10.0521 96.5852 10.1281C96.5847 10.1775 96.5721 10.226 96.5484 10.2698C96.5242 10.3144 96.4892 10.3527 96.4463 10.3816C96.4035 10.4104 96.354 10.429 96.3021 10.4356C96.2502 10.4423 96.1974 10.4368 96.1482 10.4197L96.1444 10.4184L96.1409 10.4166C96.1157 10.404 96.0889 10.3944 96.0612 10.3882L96.0595 10.3879C95.8449 10.3332 95.6425 10.4238 95.5686 10.5352C95.5333 10.5883 95.529 10.6419 95.5583 10.6906C95.5898 10.7428 95.6669 10.8014 95.823 10.8432C95.8659 10.8545 95.9099 10.8654 95.9546 10.8765C96.078 10.9072 96.2063 10.9391 96.3303 10.9832L96.3308 10.9834C96.903 11.1924 97.116 11.6251 97.0431 12.0322C96.9709 12.4347 96.6207 12.801 96.094 12.8875C95.9023 12.9282 95.7028 12.9203 95.5153 12.8644C95.3273 12.8084 95.1579 12.7061 95.0238 12.5677L95.0203 12.5641C94.978 12.512 94.9495 12.4508 94.9369 12.3858C94.9253 12.3271 94.9314 12.2665 94.9545 12.2111C94.9774 12.156 95.0163 12.1083 95.0664 12.0736C95.1193 12.0342 95.1831 12.0106 95.2499 12.0056C95.3164 12.0007 95.383 12.0146 95.4415 12.0455C95.4998 12.0726 95.5541 12.1071 95.6029 12.1482L95.6038 12.1489C95.69 12.2246 95.7943 12.2443 95.8943 12.2261C95.9958 12.2075 96.0912 12.1499 96.1526 12.0735C96.2136 11.9975 96.2381 11.9072 96.209 11.8196C96.1798 11.7313 96.0919 11.6324 95.8988 11.5498C95.8483 11.5292 95.7959 11.5126 95.7415 11.4964C95.7268 11.4921 95.7119 11.4877 95.6968 11.4833C95.6565 11.4716 95.6151 11.4595 95.5745 11.4462C95.5465 11.4371 95.5187 11.4284 95.4913 11.4198C95.4161 11.3963 95.3429 11.3734 95.2724 11.3427C95.119 11.2926 94.9865 11.1964 94.8946 11.0682C94.8023 10.9396 94.7558 10.7857 94.7621 10.6297C94.7626 10.2494 95.0122 9.98737 95.3286 9.84711Z" fill="#3A3B7B"/>
<path d="M99.3182 9.80657C99.2571 9.77797 99.1897 9.76439 99.1218 9.76705C99.054 9.76974 98.9879 9.78857 98.9295 9.82191C98.8715 9.85501 98.823 9.90135 98.7882 9.95682C98.7563 10.0035 98.7342 10.0558 98.7232 10.1106C98.7122 10.1654 98.7125 10.2218 98.724 10.2765C98.7353 10.3467 98.7479 10.4151 98.7604 10.4825C98.781 10.594 98.801 10.7031 98.8142 10.8142L98.8147 10.8171C98.8448 10.9914 98.8606 11.1677 98.862 11.3444L98.8621 11.3469C98.8724 11.5378 98.8047 11.7249 98.6734 11.8686L98.6714 11.8711C98.6287 11.9236 98.5716 11.9637 98.5064 11.9869C98.4413 12.0101 98.3708 12.0154 98.3027 12.0023C98.2347 11.9892 98.1717 11.9581 98.121 11.9127C98.0702 11.8672 98.0336 11.8089 98.0154 11.7446C97.9764 11.6091 97.9538 11.4697 97.948 11.3293L98.0147 10.3113C98.0156 10.298 98.0168 10.2844 98.0179 10.2706C98.0204 10.2397 98.023 10.2082 98.0241 10.1788C98.0257 10.1356 98.0243 10.0911 98.0139 10.0491C98.0031 10.0061 97.9827 9.96516 97.9465 9.93033C97.9106 9.89585 97.8622 9.87041 97.8013 9.85309C97.6911 9.82248 97.5979 9.82345 97.5203 9.85507C97.4426 9.88669 97.3894 9.9454 97.3517 10.0132C97.3144 10.0805 97.2904 10.1601 97.2722 10.2398C97.2587 10.299 97.2479 10.3611 97.2376 10.4202C97.234 10.4406 97.2306 10.4606 97.227 10.4801L97.227 10.4806C97.1719 10.8049 97.1555 11.1341 97.1781 11.462C97.1823 11.6391 97.2208 11.814 97.2917 11.9776C97.3716 12.1888 97.5163 12.3717 97.7068 12.5023C97.8977 12.6332 98.1254 12.7053 98.36 12.7091C98.5945 12.7129 98.8247 12.6483 99.0201 12.5237C99.2151 12.3993 99.3663 12.221 99.4536 12.0124C99.5757 11.7467 99.6331 11.4577 99.6212 11.1675C99.6141 10.9557 99.602 10.7422 99.5901 10.5298C99.5842 10.4256 99.5784 10.3216 99.5731 10.2183C99.5705 10.1147 99.5349 10.0143 99.4711 9.93066C99.4316 9.87778 99.3791 9.83513 99.3182 9.80657Z" fill="#3A3B7B"/>
<path d="M101.478 11.4028C101.472 11.4104 101.465 11.4182 101.458 11.4263C101.409 11.1515 101.363 10.8768 101.317 10.6017C101.3 10.503 101.283 10.4038 101.267 10.305L101.265 10.2939L101.259 10.2844C101.247 10.2665 101.246 10.2489 101.246 10.2114V10.2071L101.245 10.2028C101.233 10.1253 101.196 10.0533 101.141 9.99603C101.085 9.93892 101.013 9.89918 100.934 9.88193C100.854 9.86316 100.771 9.8673 100.694 9.89384C100.617 9.92031 100.551 9.96788 100.502 10.0306C100.461 10.0787 100.428 10.1321 100.403 10.1891C100.347 10.312 100.29 10.4352 100.233 10.5587L100.232 10.5608C100.09 10.8692 99.9465 11.1796 99.8073 11.4925L99.8069 11.4935C99.7215 11.6964 99.651 11.9101 99.5807 12.1232C99.5666 12.1657 99.5526 12.2083 99.5385 12.2507C99.5131 12.3179 99.502 12.3893 99.5058 12.4607C99.5012 12.5247 99.5171 12.5884 99.5515 12.6434C99.5866 12.6995 99.6391 12.7437 99.7017 12.7697C99.768 12.7976 99.8421 12.8035 99.9123 12.7865C99.9824 12.7695 100.045 12.7307 100.089 12.6762C100.146 12.6089 100.195 12.5356 100.235 12.4579C100.353 12.2265 100.466 11.9922 100.578 11.759C100.621 11.6687 100.663 11.5879 100.711 11.4999C100.715 11.5108 100.718 11.5214 100.721 11.532C100.772 11.7444 100.857 11.9479 100.973 12.135C100.995 12.1747 101.026 12.2093 101.063 12.2366C101.1 12.2642 101.144 12.2835 101.19 12.2934C101.236 12.3032 101.284 12.3032 101.331 12.2935C101.377 12.2838 101.42 12.2644 101.458 12.2369L101.533 12.1833L102.112 11.7154L102.077 11.9247C102.03 12.2125 101.984 12.4979 101.934 12.7834C101.902 12.9099 101.902 13.0421 101.934 13.1686C101.948 13.2398 101.984 13.3053 102.037 13.3568C102.091 13.4088 102.159 13.4441 102.234 13.4582C102.309 13.4722 102.386 13.4644 102.456 13.4358C102.525 13.4075 102.584 13.3603 102.625 13.3001C102.72 13.1865 102.78 13.0489 102.796 12.9037C102.821 12.6987 102.848 12.4909 102.876 12.2832C102.908 12.0438 102.94 11.8044 102.967 11.5696L102.967 11.5689C102.993 11.3119 103.006 11.0538 103.005 10.7956C103.011 10.714 102.99 10.6328 102.944 10.5633C102.899 10.4936 102.832 10.4394 102.753 10.4084C102.67 10.3724 102.578 10.3628 102.49 10.381C102.402 10.399 102.322 10.4435 102.262 10.508C102.156 10.6027 102.056 10.7042 101.963 10.8116L101.962 10.8123C101.861 10.9336 101.76 11.0573 101.66 11.1802C101.599 11.2549 101.538 11.3294 101.478 11.4028Z" fill="#3A3B7B"/>
</g>
<rect x="119.267" y="0.893921" width="16.0256" height="16.0256" rx="2.67093" fill="#F5F7FA"/>
<g clip-path="url(#clip4_0_1460)">
<path d="M132.1 4.79696C132.1 4.95254 132.228 5.07866 132.385 5.07866H132.671C132.828 5.07866 132.956 4.95254 132.956 4.79696C132.956 4.64138 132.828 4.51526 132.671 4.51526H132.385C132.228 4.51526 132.1 4.64138 132.1 4.79696Z" fill="#212326"/>
<path d="M123.83 13.5297H125.215L124.812 13.1313C124.705 13.0256 124.56 12.9663 124.409 12.9663H123.83C121.625 12.9663 119.837 11.2006 119.837 9.02249C119.837 6.84438 121.625 5.07869 123.83 5.07869H128.393C130.598 5.07869 132.385 6.84438 132.385 9.02249C132.385 11.2006 130.598 12.9663 128.393 12.9663H126.686C126.459 12.9663 126.241 12.8772 126.081 12.7188L125.608 12.252C125.341 11.9879 124.978 11.8395 124.6 11.8395H123.83C122.255 11.8395 120.978 10.5783 120.978 9.02249C120.978 7.46669 122.255 6.20549 123.83 6.20549H128.393C129.968 6.20549 131.245 7.46669 131.245 9.02249C131.245 10.5783 129.968 11.8395 128.393 11.8395H127.297C127.07 11.8395 126.852 11.7504 126.692 11.592L126.219 11.1252C125.952 10.8611 125.589 10.7127 125.211 10.7127H123.83C122.885 10.7127 122.119 9.95595 122.119 9.02249C122.119 8.08902 122.885 7.33229 123.83 7.33229H128.393C129.338 7.33229 130.104 8.08902 130.104 9.02249C130.104 9.94457 129.356 10.6942 128.427 10.7123L128.427 10.7127H128.01C127.783 10.7127 127.565 10.6236 127.405 10.4652L126.932 9.99843C126.713 9.78168 126.429 9.64288 126.126 9.60004L126.111 9.58589H123.83C123.515 9.58589 123.26 9.33364 123.26 9.02249C123.26 8.71133 123.515 8.45909 123.83 8.45909H128.393C128.708 8.45909 128.963 8.71133 128.963 9.02249C128.963 9.33364 128.708 9.58589 128.393 9.58589H127.252L127.655 9.98428C127.762 10.0899 127.907 10.1493 128.059 10.1493H128.393C129.023 10.1493 129.534 9.6448 129.534 9.02249C129.534 8.40018 129.023 7.89569 128.393 7.89569H123.83C123.2 7.89569 122.689 8.40018 122.689 9.02249C122.689 9.6448 123.2 10.1493 123.83 10.1493H125.924C126.151 10.1493 126.369 10.2383 126.529 10.3968L127.002 10.8635C127.269 11.1277 127.632 11.2761 128.01 11.2761H128.535V11.2718C129.729 11.1991 130.674 10.2198 130.674 9.02249C130.674 7.77787 129.653 6.76889 128.393 6.76889H123.83C122.57 6.76889 121.549 7.77787 121.549 9.02249C121.549 10.2671 122.57 11.2761 123.83 11.2761H125.211C125.438 11.2761 125.656 11.3651 125.816 11.5236L126.289 11.9903C126.556 12.2545 126.919 12.4029 127.297 12.4029H128.393C130.283 12.4029 131.815 10.8894 131.815 9.02249C131.815 7.15554 130.283 5.64209 128.393 5.64209H123.83C121.94 5.64209 120.408 7.15554 120.408 9.02249C120.408 10.8894 121.94 12.4029 123.83 12.4029H124.6C124.827 12.4029 125.045 12.4919 125.205 12.6504L125.678 13.1171C125.945 13.3813 126.308 13.5297 126.686 13.5297H128.393C130.913 13.5297 132.956 11.5117 132.956 9.02249C132.956 6.53323 130.913 4.51529 128.393 4.51529L123.83 4.51529C121.31 4.51529 119.267 6.53323 119.267 9.02249C119.267 11.5117 121.31 13.5297 123.83 13.5297Z" fill="#212326"/>
</g>
<rect x="148.981" y="0.893921" width="16.0256" height="16.0256" rx="2.67093" fill="#F5F7FA"/>
<g clip-path="url(#clip5_0_1460)">
<path d="M153.102 5.51688C152.424 5.51688 151.774 5.78621 151.295 6.26562L149.73 7.83022C149.251 8.30963 148.981 8.95984 148.981 9.63784C148.981 11.0497 150.126 12.1942 151.538 12.1942C152.216 12.1942 152.866 11.9249 153.345 11.4455L154.427 10.3632C154.427 10.3632 154.428 10.3632 154.427 10.3632L157.581 7.20994C157.81 6.98097 158.12 6.85234 158.444 6.85234C158.986 6.85234 159.446 7.20566 159.605 7.69459L160.6 6.69942C160.146 5.98837 159.35 5.51688 158.444 5.51688C157.766 5.51688 157.116 5.78621 156.636 6.26562L152.401 10.5011C152.172 10.7301 151.861 10.8587 151.538 10.8587C150.863 10.8587 150.317 10.3121 150.317 9.63784C150.317 9.31403 150.445 9.00349 150.674 8.77452L152.239 7.20994C152.468 6.98097 152.778 6.85234 153.102 6.85234C153.644 6.85234 154.104 7.20568 154.263 7.69462L155.258 6.69945C154.804 5.98838 154.008 5.51688 153.102 5.51688Z" fill="#394149"/>
<path d="M157.743 10.5011C157.514 10.7301 157.203 10.8587 156.88 10.8587C156.337 10.8587 155.878 10.5055 155.719 10.0166L154.723 11.0118C155.177 11.7227 155.973 12.1942 156.88 12.1942C157.558 12.1942 158.208 11.9248 158.687 11.4454L162.923 7.20991C163.152 6.98094 163.462 6.85231 163.786 6.85231C164.46 6.85231 165.007 7.39893 165.007 8.07322C165.007 8.39702 164.878 8.70756 164.649 8.93653L163.085 10.5011C162.856 10.7301 162.545 10.8587 162.221 10.8587C161.679 10.8587 161.22 10.5054 161.06 10.0165L160.065 11.0117C160.519 11.7227 161.315 12.1942 162.221 12.1942C162.899 12.1942 163.55 11.9248 164.029 11.4454L165.594 9.88084C166.073 9.40143 166.342 8.75121 166.342 8.07322C166.342 6.66137 165.198 5.51685 163.786 5.51685C163.108 5.51685 162.458 5.78618 161.978 6.26559L157.743 10.5011Z" fill="#394149"/>
</g>
<path d="M178.841 6.05047H179.917L181.359 9.56934H181.416L182.857 6.05047H183.934V10.9067H183.09V7.57041H183.045L181.703 10.8925H181.072L179.73 7.5633H179.685V10.9067H178.841V6.05047ZM186.466 10.9778C186.101 10.9778 185.786 10.902 185.52 10.7502C185.256 10.5969 185.053 10.3803 184.911 10.1005C184.769 9.81911 184.697 9.48793 184.697 9.10696C184.697 8.73231 184.769 8.4035 184.911 8.12053C185.055 7.83599 185.255 7.61468 185.513 7.4566C185.771 7.29693 186.073 7.2171 186.421 7.2171C186.646 7.2171 186.858 7.25346 187.057 7.32618C187.258 7.39731 187.435 7.50797 187.588 7.65815C187.743 7.80832 187.865 7.9996 187.953 8.23198C188.042 8.46278 188.086 8.73784 188.086 9.05716V9.32037H185.1V8.74179H187.263C187.261 8.57739 187.226 8.43116 187.156 8.30312C187.087 8.17349 186.99 8.07153 186.865 7.99723C186.741 7.92293 186.598 7.88578 186.433 7.88578C186.258 7.88578 186.104 7.92847 185.971 8.01383C185.838 8.09761 185.734 8.20827 185.66 8.3458C185.587 8.48175 185.55 8.63114 185.549 8.79396V9.29903C185.549 9.51085 185.587 9.69265 185.665 9.84441C185.742 9.99458 185.851 10.11 185.99 10.1906C186.129 10.2696 186.292 10.3092 186.478 10.3092C186.603 10.3092 186.716 10.2918 186.817 10.257C186.918 10.2206 187.006 10.1677 187.08 10.0981C187.155 10.0286 187.211 9.94242 187.249 9.83966L188.05 9.92977C188 10.1416 187.903 10.3266 187.761 10.4846C187.62 10.6411 187.44 10.7629 187.22 10.8498C187.001 10.9352 186.749 10.9778 186.466 10.9778ZM190.424 10.9778C190.059 10.9778 189.744 10.902 189.478 10.7502C189.214 10.5969 189.011 10.3803 188.869 10.1005C188.727 9.81911 188.656 9.48793 188.656 9.10696C188.656 8.73231 188.727 8.4035 188.869 8.12053C189.013 7.83599 189.214 7.61468 189.471 7.4566C189.729 7.29693 190.032 7.2171 190.379 7.2171C190.604 7.2171 190.816 7.25346 191.015 7.32618C191.216 7.39731 191.393 7.50797 191.546 7.65815C191.701 7.80832 191.823 7.9996 191.911 8.23198C192 8.46278 192.044 8.73784 192.044 9.05716V9.32037H189.059V8.74179H191.221C191.22 8.57739 191.184 8.43116 191.114 8.30312C191.045 8.17349 190.948 8.07153 190.823 7.99723C190.7 7.92293 190.556 7.88578 190.391 7.88578C190.216 7.88578 190.062 7.92847 189.929 8.01383C189.796 8.09761 189.693 8.20827 189.618 8.3458C189.546 8.48175 189.508 8.63114 189.507 8.79396V9.29903C189.507 9.51085 189.546 9.69265 189.623 9.84441C189.7 9.99458 189.809 10.11 189.948 10.1906C190.087 10.2696 190.25 10.3092 190.436 10.3092C190.561 10.3092 190.674 10.2918 190.775 10.257C190.877 10.2206 190.964 10.1677 191.039 10.0981C191.113 10.0286 191.169 9.94242 191.207 9.83966L192.008 9.92977C191.958 10.1416 191.861 10.3266 191.719 10.4846C191.578 10.6411 191.398 10.7629 191.179 10.8498C190.959 10.9352 190.707 10.9778 190.424 10.9778ZM194.589 7.26453V7.92847H192.495V7.26453H194.589ZM193.012 6.39192H193.87V9.81121C193.87 9.92661 193.888 10.0151 193.923 10.0768C193.959 10.1369 194.006 10.178 194.065 10.2001C194.123 10.2222 194.188 10.2333 194.259 10.2333C194.313 10.2333 194.362 10.2293 194.406 10.2214C194.452 10.2135 194.487 10.2064 194.511 10.2001L194.655 10.8711C194.609 10.8869 194.544 10.9043 194.458 10.9233C194.375 10.9423 194.272 10.9533 194.15 10.9565C193.935 10.9628 193.742 10.9304 193.569 10.8593C193.397 10.7866 193.26 10.6743 193.159 10.5226C193.059 10.3708 193.01 10.1811 193.012 9.95348V6.39192ZM198.011 10.9802C197.78 10.9802 197.572 10.9391 197.388 10.8569C197.204 10.7731 197.059 10.6498 196.951 10.487C196.845 10.3242 196.792 10.1234 196.792 9.88472C196.792 9.67921 196.83 9.50927 196.906 9.37491C196.982 9.24054 197.086 9.13304 197.217 9.05242C197.348 8.9718 197.496 8.91094 197.66 8.86984C197.826 8.82716 197.998 8.79633 198.175 8.77736C198.388 8.75523 198.561 8.73547 198.694 8.71808C198.827 8.69911 198.923 8.67066 198.983 8.63272C199.045 8.5932 199.076 8.53233 199.076 8.45013V8.43591C199.076 8.25727 199.023 8.11895 198.917 8.02094C198.811 7.92293 198.658 7.87393 198.459 7.87393C198.249 7.87393 198.082 7.91977 197.959 8.01146C197.837 8.10315 197.755 8.21143 197.712 8.33631L196.911 8.2225C196.974 8.00118 197.078 7.81623 197.224 7.66763C197.369 7.51746 197.547 7.40522 197.757 7.33092C197.968 7.25504 198.2 7.2171 198.455 7.2171C198.63 7.2171 198.805 7.23765 198.979 7.27875C199.152 7.31986 199.311 7.38783 199.455 7.48268C199.599 7.57595 199.714 7.7032 199.801 7.86444C199.89 8.02569 199.934 8.22724 199.934 8.4691V10.9067H199.109V10.4064H199.081C199.028 10.5076 198.955 10.6024 198.86 10.6909C198.767 10.7779 198.649 10.8482 198.507 10.902C198.366 10.9541 198.201 10.9802 198.011 10.9802ZM198.234 10.3495C198.406 10.3495 198.556 10.3155 198.682 10.2475C198.809 10.178 198.906 10.0863 198.974 9.97245C199.043 9.85863 199.078 9.73454 199.078 9.60017V9.17098C199.051 9.19311 199.005 9.21366 198.941 9.23263C198.877 9.2516 198.806 9.2682 198.727 9.28243C198.648 9.29666 198.57 9.3093 198.493 9.32037C198.415 9.33143 198.348 9.34092 198.291 9.34882C198.163 9.36621 198.048 9.39467 197.947 9.43419C197.846 9.47371 197.766 9.52903 197.708 9.60017C197.649 9.66973 197.62 9.75983 197.62 9.87049C197.62 10.0286 197.678 10.1479 197.793 10.2285C197.908 10.3092 198.055 10.3495 198.234 10.3495ZM201.656 6.05047V10.9067H200.797V6.05047H201.656ZM203.397 6.05047V10.9067H202.538V6.05047H203.397ZM207.524 10.9778C207.161 10.9778 206.849 10.898 206.588 10.7384C206.329 10.5787 206.129 10.3582 205.988 10.0768C205.849 9.79382 205.779 9.46817 205.779 9.09984C205.779 8.72994 205.85 8.4035 205.993 8.12053C206.135 7.83599 206.336 7.61468 206.595 7.4566C206.856 7.29693 207.164 7.2171 207.52 7.2171C207.815 7.2171 208.077 7.27164 208.305 7.38072C208.534 7.48821 208.716 7.64076 208.852 7.83836C208.988 8.03438 209.066 8.2636 209.085 8.52601H208.264C208.231 8.35054 208.152 8.20432 208.027 8.08734C207.904 7.96878 207.739 7.9095 207.532 7.9095C207.356 7.9095 207.202 7.95692 207.069 8.05177C206.936 8.14504 206.833 8.27941 206.759 8.45488C206.686 8.63034 206.649 8.84059 206.649 9.08562C206.649 9.3338 206.686 9.54721 206.759 9.72584C206.831 9.90289 206.933 10.0396 207.064 10.1361C207.197 10.2309 207.353 10.2783 207.532 10.2783C207.658 10.2783 207.771 10.2546 207.871 10.2072C207.972 10.1582 208.056 10.0878 208.124 9.99616C208.192 9.90448 208.239 9.79303 208.264 9.66182H209.085C209.064 9.91949 208.988 10.1479 208.857 10.3471C208.726 10.5447 208.547 10.6996 208.321 10.8119C208.095 10.9225 207.83 10.9778 207.524 10.9778ZM212.111 9.37491V7.26453H212.969V10.9067H212.137V10.2594H212.099C212.017 10.4633 211.882 10.6301 211.694 10.7597C211.507 10.8893 211.277 10.9541 211.004 10.9541C210.765 10.9541 210.554 10.9012 210.37 10.7953C210.189 10.6878 210.046 10.5321 209.944 10.3281C209.841 10.1226 209.79 9.87444 209.79 9.58357V7.26453H210.648V9.45078C210.648 9.68158 210.711 9.86496 210.838 10.0009C210.964 10.1369 211.13 10.2048 211.336 10.2048C211.462 10.2048 211.585 10.174 211.703 10.1124C211.822 10.0507 211.919 9.95901 211.995 9.83729C212.072 9.71399 212.111 9.55986 212.111 9.37491ZM216.731 8.22724L215.948 8.3126C215.926 8.23356 215.887 8.15926 215.832 8.08971C215.778 8.02015 215.706 7.96403 215.614 7.92135C215.522 7.87867 215.41 7.85733 215.277 7.85733C215.098 7.85733 214.948 7.89606 214.827 7.97352C214.706 8.05098 214.647 8.15136 214.649 8.27466C214.647 8.38058 214.686 8.46673 214.765 8.53313C214.846 8.59952 214.978 8.65406 215.163 8.69674L215.785 8.82953C216.129 8.90382 216.385 9.02159 216.553 9.18284C216.722 9.34408 216.807 9.55512 216.809 9.81595C216.807 10.0452 216.74 10.2475 216.607 10.423C216.476 10.5969 216.294 10.7328 216.06 10.8308C215.826 10.9288 215.557 10.9778 215.253 10.9778C214.808 10.9778 214.449 10.8846 214.177 10.698C213.905 10.5099 213.743 10.2483 213.691 9.91317L214.528 9.83255C214.566 9.99695 214.646 10.121 214.77 10.2048C214.893 10.2886 215.053 10.3305 215.251 10.3305C215.455 10.3305 215.619 10.2886 215.742 10.2048C215.867 10.121 215.929 10.0175 215.929 9.8942C215.929 9.78987 215.889 9.70371 215.808 9.63574C215.729 9.56776 215.606 9.5156 215.438 9.47924L214.817 9.34882C214.468 9.2761 214.209 9.15359 214.042 8.98128C213.874 8.8074 213.791 8.58766 213.793 8.32209C213.791 8.09761 213.852 7.90317 213.975 7.73877C214.1 7.57278 214.273 7.44474 214.495 7.35463C214.718 7.26295 214.974 7.2171 215.265 7.2171C215.692 7.2171 216.028 7.308 216.273 7.48979C216.52 7.67159 216.672 7.9174 216.731 8.22724ZM219.335 7.26453V7.92847H217.242V7.26453H219.335ZM217.759 6.39192H218.617V9.81121C218.617 9.92661 218.634 10.0151 218.669 10.0768C218.706 10.1369 218.753 10.178 218.811 10.2001C218.87 10.2222 218.935 10.2333 219.006 10.2333C219.06 10.2333 219.109 10.2293 219.153 10.2214C219.199 10.2135 219.233 10.2064 219.257 10.2001L219.402 10.8711C219.356 10.8869 219.29 10.9043 219.205 10.9233C219.121 10.9423 219.019 10.9533 218.897 10.9565C218.682 10.9628 218.488 10.9304 218.316 10.8593C218.144 10.7866 218.007 10.6743 217.906 10.5226C217.806 10.3708 217.757 10.1811 217.759 9.95348V6.39192ZM221.603 10.9778C221.247 10.9778 220.939 10.8996 220.678 10.7431C220.417 10.5866 220.215 10.3677 220.071 10.0863C219.929 9.80488 219.858 9.47608 219.858 9.09984C219.858 8.72361 219.929 8.39401 220.071 8.11105C220.215 7.82808 220.417 7.60835 220.678 7.45185C220.939 7.29535 221.247 7.2171 221.603 7.2171C221.959 7.2171 222.267 7.29535 222.528 7.45185C222.789 7.60835 222.99 7.82808 223.132 8.11105C223.276 8.39401 223.348 8.72361 223.348 9.09984C223.348 9.47608 223.276 9.80488 223.132 10.0863C222.99 10.3677 222.789 10.5866 222.528 10.7431C222.267 10.8996 221.959 10.9778 221.603 10.9778ZM221.608 10.2902C221.801 10.2902 221.962 10.2372 222.091 10.1313C222.221 10.0238 222.317 9.87997 222.381 9.69976C222.445 9.51955 222.478 9.31879 222.478 9.09747C222.478 8.87458 222.445 8.67303 222.381 8.49281C222.317 8.31102 222.221 8.16638 222.091 8.05888C221.962 7.95139 221.801 7.89764 221.608 7.89764C221.41 7.89764 221.246 7.95139 221.114 8.05888C220.985 8.16638 220.888 8.31102 220.823 8.49281C220.76 8.67303 220.728 8.87458 220.728 9.09747C220.728 9.31879 220.76 9.51955 220.823 9.69976C220.888 9.87997 220.985 10.0238 221.114 10.1313C221.246 10.2372 221.41 10.2902 221.608 10.2902ZM224.077 10.9067V7.26453H224.897V7.88341H224.94C225.016 7.67475 225.141 7.51192 225.317 7.39494C225.492 7.27638 225.702 7.2171 225.945 7.2171C226.192 7.2171 226.4 7.27717 226.569 7.39732C226.74 7.51588 226.86 7.67791 226.929 7.88341H226.967C227.048 7.68107 227.184 7.51983 227.375 7.39969C227.568 7.27796 227.796 7.2171 228.06 7.2171C228.395 7.2171 228.669 7.32302 228.881 7.53485C229.093 7.74667 229.199 8.05572 229.199 8.46199V10.9067H228.338V8.59478C228.338 8.36872 228.278 8.20353 228.158 8.09919C228.037 7.99328 227.89 7.94032 227.716 7.94032C227.509 7.94032 227.347 8.00514 227.23 8.13476C227.115 8.26281 227.057 8.42958 227.057 8.63509V10.9067H226.216V8.55921C226.216 8.37109 226.159 8.22092 226.045 8.10868C225.933 7.99644 225.786 7.94032 225.604 7.94032C225.48 7.94032 225.368 7.97194 225.267 8.03517C225.166 8.09682 225.085 8.18456 225.025 8.29838C224.965 8.41061 224.935 8.54182 224.935 8.692V10.9067H224.077ZM231.682 10.9778C231.317 10.9778 231.001 10.902 230.736 10.7502C230.472 10.5969 230.269 10.3803 230.126 10.1005C229.984 9.81911 229.913 9.48793 229.913 9.10696C229.913 8.73231 229.984 8.4035 230.126 8.12053C230.27 7.83599 230.471 7.61468 230.729 7.4566C230.986 7.29693 231.289 7.2171 231.637 7.2171C231.861 7.2171 232.073 7.25346 232.272 7.32618C232.473 7.39731 232.65 7.50797 232.803 7.65815C232.958 7.80832 233.08 7.9996 233.169 8.23198C233.257 8.46278 233.301 8.73784 233.301 9.05716V9.32037H230.316V8.74179H232.478C232.477 8.57739 232.441 8.43116 232.372 8.30312C232.302 8.17349 232.205 8.07153 232.08 7.99723C231.957 7.92293 231.813 7.88578 231.649 7.88578C231.473 7.88578 231.319 7.92847 231.186 8.01383C231.053 8.09761 230.95 8.20827 230.876 8.3458C230.803 8.48175 230.766 8.63114 230.764 8.79396V9.29903C230.764 9.51085 230.803 9.69265 230.88 9.84441C230.958 9.99458 231.066 10.11 231.205 10.1906C231.344 10.2696 231.507 10.3092 231.694 10.3092C231.818 10.3092 231.932 10.2918 232.033 10.257C232.134 10.2206 232.222 10.1677 232.296 10.0981C232.37 10.0286 232.426 9.94242 232.464 9.83966L233.266 9.92977C233.215 10.1416 233.119 10.3266 232.976 10.4846C232.836 10.6411 232.656 10.7629 232.436 10.8498C232.216 10.9352 231.965 10.9778 231.682 10.9778ZM234.027 10.9067V7.26453H234.86V7.87156H234.898C234.964 7.66131 235.078 7.49928 235.239 7.38546C235.402 7.27006 235.588 7.21236 235.796 7.21236C235.844 7.21236 235.897 7.21473 235.955 7.21947C236.015 7.22264 236.065 7.22817 236.105 7.23607V8.02569C236.068 8.01304 236.011 8.00197 235.932 7.99249C235.854 7.98142 235.779 7.97589 235.706 7.97589C235.55 7.97589 235.409 8.00988 235.284 8.07785C235.161 8.14425 235.064 8.23672 234.993 8.35528C234.921 8.47384 234.886 8.61058 234.886 8.7655V10.9067H234.027ZM239.554 8.22724L238.771 8.3126C238.749 8.23356 238.71 8.15926 238.655 8.08971C238.601 8.02015 238.528 7.96403 238.437 7.92135C238.345 7.87867 238.233 7.85733 238.1 7.85733C237.921 7.85733 237.771 7.89606 237.65 7.97352C237.529 8.05098 237.47 8.15136 237.472 8.27466C237.47 8.38058 237.509 8.46673 237.588 8.53313C237.668 8.59952 237.801 8.65406 237.986 8.69674L238.607 8.82953C238.952 8.90382 239.208 9.02159 239.376 9.18284C239.545 9.34408 239.63 9.55512 239.632 9.81595C239.63 10.0452 239.563 10.2475 239.43 10.423C239.299 10.5969 239.116 10.7328 238.883 10.8308C238.649 10.9288 238.38 10.9778 238.076 10.9778C237.631 10.9778 237.272 10.8846 237 10.698C236.728 10.5099 236.566 10.2483 236.514 9.91317L237.351 9.83255C237.389 9.99695 237.469 10.121 237.593 10.2048C237.716 10.2886 237.876 10.3305 238.074 10.3305C238.278 10.3305 238.441 10.2886 238.565 10.2048C238.69 10.121 238.752 10.0175 238.752 9.8942C238.752 9.78987 238.712 9.70371 238.631 9.63574C238.552 9.56776 238.429 9.5156 238.261 9.47924L237.64 9.34882C237.291 9.2761 237.032 9.15359 236.865 8.98128C236.697 8.8074 236.614 8.58766 236.616 8.32209C236.614 8.09761 236.675 7.90317 236.798 7.73877C236.923 7.57278 237.096 7.44474 237.318 7.35463C237.54 7.26295 237.797 7.2171 238.088 7.2171C238.515 7.2171 238.851 7.308 239.096 7.48979C239.343 7.67159 239.495 7.9174 239.554 8.22724Z" fill="#4CAF4F"/>
<path d="M249.141 10.2422L250.241 9.14277C250.371 9.01239 250.371 8.801 250.241 8.67061L249.141 7.57123M250.143 8.90669L245.469 8.90669" stroke="#4CAF4F" stroke-width="0.5008" stroke-linecap="round"/>
<defs>
<clipPath id="clip0_0_1460">
<rect width="13.3547" height="13.3547" fill="white" transform="translate(0.528549 0.958862)"/>
</clipPath>
<clipPath id="clip1_0_1460">
<rect width="13.3547" height="9.34826" fill="white" transform="translate(30.1621 4.18143)"/>
</clipPath>
<clipPath id="clip2_0_1460">
<rect width="18.3627" height="10.016" fill="white" transform="translate(59.8388 3.84756)"/>
</clipPath>
<clipPath id="clip3_0_1460">
<rect width="15.6917" height="9.68213" fill="white" transform="translate(89.553 4.18143)"/>
</clipPath>
<clipPath id="clip4_0_1460">
<rect width="13.6885" height="9.0144" fill="white" transform="translate(119.267 4.51529)"/>
</clipPath>
<clipPath id="clip5_0_1460">
<rect width="17.3611" height="6.67733" fill="white" transform="translate(148.981 5.51688)"/>
</clipPath>
</defs>
</svg>
