<svg width="17" height="17" viewBox="0 0 17 17" fill="none" xmlns="http://www.w3.org/2000/svg">
<path d="M2.72516 5.89359V6.06052H2.89209H14.9113H15.0782V5.89359V5.14239C15.0782 4.76607 14.9287 4.40515 14.6626 4.13905C14.3965 3.87295 14.0356 3.72346 13.6593 3.72346H4.14409C3.76777 3.72346 3.40686 3.87295 3.14076 4.13905C2.87466 4.40515 2.72516 4.76607 2.72516 5.14239V5.89359ZM15.0782 6.89519V6.72826H14.9113H2.89209H2.72516V6.89519V11.6528C2.72516 12.0291 2.87466 12.39 3.14076 12.6561C3.40686 12.9222 3.76777 13.0717 4.14409 13.0717H13.6593C14.0356 13.0717 14.3965 12.9222 14.6626 12.6561C14.9287 12.39 15.0782 12.0291 15.0782 11.6528V6.89519ZM2.05743 5.14239C2.05743 4.58897 2.27727 4.05822 2.6686 3.66689C3.05992 3.27557 3.59068 3.05572 4.14409 3.05572H13.6593C14.2127 3.05572 14.7435 3.27557 15.1348 3.66689C15.5261 4.05822 15.746 4.58897 15.746 5.14239V11.6528C15.746 12.2062 15.5261 12.737 15.1348 13.1283C14.7435 13.5196 14.2127 13.7395 13.6593 13.7395H4.14409C3.59068 13.7395 3.05992 13.5196 2.6686 13.1283C2.27727 12.737 2.05743 12.2062 2.05743 11.6528V5.14239ZM11.4057 10.0669H12.9081C12.9966 10.0669 13.0816 10.1021 13.1442 10.1647C13.2068 10.2273 13.242 10.3122 13.242 10.4008C13.242 10.4893 13.2068 10.5743 13.1442 10.6369C13.0816 10.6995 12.9966 10.7347 12.9081 10.7347H11.4057C11.3171 10.7347 11.2322 10.6995 11.1696 10.6369C11.107 10.5743 11.0718 10.4893 11.0718 10.4008C11.0718 10.3122 11.107 10.2273 11.1696 10.1647C11.2322 10.1021 11.3171 10.0669 11.4057 10.0669Z" fill="#4CAF4F" stroke="#4CAF4F" stroke-width="0.333867"/>
</svg>
