<svg width="23" height="20" viewBox="0 0 23 20" fill="none" xmlns="http://www.w3.org/2000/svg">
<path d="M22.6286 13.1396C22.6286 16.4586 19.938 19.1492 16.619 19.1492L7.60461 19.1492C6.68266 19.1492 5.93527 18.4018 5.93527 17.4798L5.93528 6.12837C5.93528 4.28448 7.43005 2.78971 9.27394 2.78971L20.9593 2.78971C21.8812 2.78971 22.6286 3.5371 22.6286 4.45904L22.6286 13.1396Z" fill="#E8F5E9"/>
<path d="M10.3796 8.34684C10.2992 8.34684 10.2246 8.32473 10.1583 8.28918V8.29012C10.1583 8.41661 10.1091 8.53539 10.0199 8.62435C9.93072 8.71355 9.81203 8.76271 9.68569 8.76271C9.60412 8.76271 9.52853 8.74006 9.46151 8.70356C9.45475 8.81927 9.4085 8.92742 9.32598 9.01002C9.23679 9.09922 9.1181 9.14838 8.99168 9.14838C8.74052 9.14838 8.53655 8.95094 8.52185 8.70348C8.44414 8.74548 8.35628 8.76751 8.26566 8.76169C8.01858 8.74548 7.82509 8.53201 7.82509 8.27557V6.14996L7.58305 6.56928C7.49086 6.72967 7.31829 6.82925 7.13249 6.82925C7.04196 6.82925 6.95252 6.80549 6.87332 6.76011C6.77468 6.70292 6.70412 6.61113 6.67478 6.50131C6.64529 6.39143 6.66055 6.27651 6.71757 6.17802C6.71765 6.17802 7.5095 4.80676 7.55781 4.72253C7.56355 4.70987 7.57991 4.67314 7.59384 4.64183C7.60713 4.61194 7.61854 4.58126 7.62947 4.55043C7.86827 3.87626 8.45956 3.45748 9.17267 3.45748C10.0987 3.45748 10.8521 4.27442 10.8521 5.27858L10.8522 7.87418C10.8522 8.00051 10.8031 8.1192 10.714 8.20849C10.6248 8.29769 10.5061 8.34685 10.3796 8.34685L10.3796 8.34684ZM9.17268 3.70859C8.55992 3.70859 8.07153 4.0547 7.86616 4.63441C7.85302 4.67122 7.83934 4.70803 7.82337 4.7439C7.77704 4.84781 7.77704 4.84781 7.76398 4.86275L7.76225 4.86126C7.6976 4.98326 7.50551 5.3159 6.935 6.3037C6.91156 6.34421 6.90535 6.39124 6.91731 6.43624C6.92942 6.48123 6.95845 6.51914 6.99864 6.54235C7.12339 6.614 7.29424 6.56775 7.36535 6.44387L7.84194 5.61873C7.87041 5.56957 7.92799 5.54542 7.98321 5.56037C8.03811 5.57508 8.07626 5.62487 8.07626 5.68166V8.27564C8.07626 8.39804 8.1686 8.50367 8.28212 8.51114C8.34756 8.5146 8.4086 8.49266 8.45446 8.44688C8.49614 8.40519 8.51911 8.34966 8.51911 8.29027V6.59377C8.51911 6.52439 8.57535 6.46815 8.64473 6.46815C8.71411 6.46815 8.77035 6.52431 8.77035 6.59377L8.77027 8.67588C8.77027 8.79796 8.86961 8.8973 8.99169 8.8973C9.051 8.8973 9.10669 8.87434 9.14846 8.83265C9.19015 8.79088 9.21311 8.73519 9.21311 8.67588V6.59377C9.21311 6.52439 9.26928 6.46815 9.33873 6.46815C9.40811 6.46815 9.46435 6.52431 9.46435 6.59377L9.46427 8.27076V8.29026C9.46427 8.41226 9.56361 8.5116 9.68577 8.5116C9.745 8.5116 9.80053 8.48856 9.84254 8.44671C9.88423 8.4051 9.90719 8.34957 9.90719 8.29018V6.59368C9.90719 6.5243 9.96336 6.46806 10.0328 6.46806C10.1022 6.46806 10.1584 6.52422 10.1584 6.59368L10.1583 7.87424C10.1583 7.9964 10.2576 8.09574 10.3796 8.09574C10.439 8.09574 10.4945 8.0727 10.5362 8.03109C10.5781 7.98924 10.601 7.93355 10.601 7.87424L10.601 5.27864C10.601 4.41301 9.96029 3.70862 9.17267 3.70862L9.17268 3.70859Z" fill="#103E13"/>
<path d="M5.44422 10.1508L7.26704 9.05733C7.48681 8.92534 7.76958 8.98143 7.91054 9.18507C7.96198 9.25925 7.98825 9.34569 7.99234 9.43372C8.0603 9.39824 8.13424 9.37897 8.20952 9.37897C8.24806 9.37897 8.28676 9.38377 8.32499 9.39329C8.44746 9.42388 8.55066 9.50042 8.61556 9.60865C8.68053 9.71704 8.69949 9.84406 8.66889 9.96639C8.64065 10.0796 8.57182 10.1748 8.47609 10.2402C8.54303 10.2797 8.60077 10.3336 8.64183 10.4022C8.7068 10.5106 8.72576 10.6375 8.69524 10.76C8.66464 10.8823 8.5881 10.9855 8.47972 11.0506L8.47909 11.051C8.54484 11.0904 8.60156 11.1437 8.64215 11.2113C8.7072 11.3197 8.72615 11.4467 8.69555 11.5691C8.66488 11.6915 8.58834 11.7947 8.48011 11.8597L6.25442 13.1949C5.83903 13.4441 5.35881 13.53 4.90244 13.4368C4.44198 13.3428 4.06063 13.0781 3.82876 12.6915C3.46181 12.08 3.51681 11.3574 3.972 10.8059C3.99284 10.7808 4.01337 10.7551 4.03201 10.7285C4.05176 10.7005 4.0748 10.6674 4.08267 10.6561C4.12979 10.5719 4.8986 9.18675 4.89852 9.18691C4.97616 9.04682 5.12167 8.96752 5.27175 8.9676C5.34176 8.9676 5.41279 8.98483 5.47831 9.02117C5.55744 9.06537 5.62391 9.12979 5.6704 9.20743C5.76597 9.36671 5.76935 9.56604 5.67936 9.72735L5.44422 10.1508ZM5.45515 9.33656C5.43077 9.2959 5.39726 9.26349 5.35628 9.24052C5.27156 9.19364 5.1649 9.22416 5.11827 9.30856C4.56814 10.2997 4.3806 10.6374 4.30823 10.7576L4.30989 10.758C4.30383 10.7781 4.30383 10.7781 4.2376 10.8728C4.2151 10.9048 4.19064 10.9355 4.16571 10.9658C3.77429 11.44 3.72884 12.0368 4.04402 12.5623C4.23925 12.8878 4.56191 13.111 4.9526 13.1907C5.34754 13.271 5.7638 13.1963 6.12509 12.9795L8.35098 11.6443C8.40179 11.6138 8.43766 11.5654 8.45198 11.5081C8.46629 11.4508 8.4574 11.3913 8.42688 11.3405C8.36411 11.2359 8.2278 11.2015 8.12318 11.2645L7.02512 11.9233C6.96566 11.959 6.88841 11.9398 6.85278 11.8802C6.81707 11.8208 6.83634 11.7436 6.89581 11.7079L7.99395 11.0491L8.35059 10.8352C8.4014 10.8047 8.43735 10.7563 8.45166 10.6991C8.46598 10.6418 8.45709 10.5821 8.42657 10.5314C8.36372 10.4267 8.22741 10.3926 8.12287 10.4554L6.66809 11.3281C6.60847 11.3639 6.53146 11.3446 6.49575 11.2851C6.46004 11.2256 6.47939 11.1485 6.53878 11.1128L8.32424 10.0417C8.37505 10.0112 8.41092 9.96287 8.42524 9.90553C8.43955 9.84826 8.43066 9.78872 8.40022 9.73791C8.36978 9.68717 8.32141 9.6513 8.26407 9.63699C8.20641 9.62267 8.1471 9.63156 8.09645 9.66192L7.76592 9.86022C7.76585 9.86022 7.76585 9.8603 7.76577 9.8603H7.76569L6.31099 10.733C6.25136 10.7689 6.17428 10.7495 6.13865 10.69C6.10294 10.6305 6.12229 10.5534 6.18167 10.5177L7.63645 9.64493C7.68727 9.61442 7.72321 9.56604 7.73753 9.50886C7.75326 9.44609 7.7413 9.3819 7.70402 9.3281C7.63936 9.23458 7.50108 9.20972 7.39623 9.27272L5.17196 10.6071C5.12327 10.6362 5.06089 10.6291 5.02007 10.5897C4.97916 10.5502 4.96996 10.4882 4.99749 10.4385L5.46001 9.60522C5.50641 9.52192 5.5046 9.41903 5.45513 9.33659L5.45515 9.33656Z" fill="#103E13"/>
<path d="M14.1545 12.6914C13.9227 13.0781 13.5414 13.3427 13.0809 13.4367C12.6244 13.5298 12.1444 13.444 11.7289 13.1949L9.50301 11.8596C9.3947 11.7946 9.31808 11.6914 9.28741 11.5688C9.25697 11.4465 9.276 11.3195 9.34089 11.2113C9.3814 11.1436 9.43819 11.0903 9.50403 11.0509L9.5034 11.0505C9.39509 10.9855 9.31848 10.8823 9.28796 10.7599C9.25729 10.6375 9.27632 10.5104 9.34129 10.402C9.38314 10.3324 9.44048 10.278 9.50592 10.2394C9.4109 10.174 9.34247 10.0791 9.31431 9.96641C9.28364 9.84394 9.30267 9.7169 9.36764 9.60866C9.43254 9.50035 9.53582 9.42381 9.65821 9.39322C9.69644 9.38363 9.73522 9.37891 9.77361 9.37891C9.84896 9.37898 9.9229 9.3981 9.99086 9.43365C9.99503 9.34563 10.0212 9.25919 10.0727 9.18501C10.2137 8.98153 10.4962 8.92521 10.7163 9.05726L12.5391 10.1506L12.3041 9.72743C12.214 9.56586 12.2173 9.36654 12.3129 9.20718C12.3594 9.12962 12.426 9.0652 12.5055 9.0206C12.5709 8.98442 12.6417 8.96727 12.7115 8.96727C12.8615 8.96735 13.0072 9.04648 13.0847 9.18658C13.355 9.67356 13.865 10.592 13.9009 10.6561C13.9085 10.6672 13.9316 10.7002 13.9513 10.7283C13.9701 10.755 13.9904 10.7804 14.0114 10.8058C14.4665 11.3575 14.5214 12.0799 14.1545 12.6915L14.1545 12.6914ZM13.8176 10.9659C13.7926 10.9356 13.768 10.9047 13.7457 10.8728C13.6777 10.7764 13.676 10.7738 13.6709 10.7486C13.5915 10.6172 13.3977 10.2682 12.8649 9.30843C12.8182 9.22419 12.712 9.19344 12.6274 9.24016C12.5858 9.26344 12.5524 9.29593 12.528 9.33659C12.4786 9.41895 12.4767 9.52183 12.5234 9.60538L12.9857 10.4384C13.0133 10.4882 13.0041 10.5501 12.9633 10.5896C12.9226 10.6292 12.8603 10.6361 12.8113 10.607L10.5871 9.27264C10.4822 9.20979 10.344 9.23442 10.2792 9.32802C10.2419 9.38182 10.23 9.44601 10.2456 9.5087C10.2599 9.56596 10.2959 9.61426 10.3468 9.64477C10.3469 9.64485 10.347 9.64501 10.3471 9.64509L11.8015 10.5176C11.8609 10.5533 11.8802 10.6304 11.8445 10.6899C11.8088 10.7493 11.7318 10.7687 11.6722 10.7329L9.88669 9.66185C9.83603 9.63149 9.77641 9.62252 9.71914 9.63691C9.66172 9.65123 9.61343 9.6871 9.58299 9.73799C9.55247 9.78872 9.54366 9.84827 9.55782 9.90553C9.57213 9.9628 9.60808 10.0112 9.65889 10.0417L10.0063 10.2501L11.4443 11.1128C11.5037 11.1485 11.523 11.2256 11.4873 11.2851C11.4516 11.3445 11.3746 11.3639 11.315 11.3282L9.86034 10.4554C9.75572 10.3925 9.61949 10.4267 9.55656 10.5314C9.52604 10.5822 9.51723 10.6418 9.53139 10.699C9.54571 10.7563 9.58165 10.8046 9.63254 10.8352L9.98918 11.0492L11.0872 11.7079C11.1466 11.7436 11.1659 11.8207 11.1302 11.8803C11.0945 11.9396 11.0175 11.9592 10.9579 11.9233L9.85987 11.2645C9.80921 11.2342 9.74982 11.2252 9.69225 11.2396C9.63498 11.2539 9.58653 11.2898 9.55609 11.3405C9.52565 11.3913 9.51676 11.4509 9.53092 11.5081C9.54523 11.5654 9.58118 11.6137 9.63207 11.6443L11.858 12.9796C12.2192 13.1963 12.6357 13.2713 13.0305 13.1908C13.4211 13.111 13.7437 12.8878 13.9389 12.5624C14.2544 12.0368 14.2091 11.4399 13.8177 10.9658L13.8176 10.9659Z" fill="#103E13"/>
</svg>
