<svg width="17" height="17" viewBox="0 0 17 17" fill="none" xmlns="http://www.w3.org/2000/svg">
<g clip-path="url(#clip0_0_1283)">
<path d="M11.3478 4.12002C11.1036 4.11958 10.8606 4.15334 10.6258 4.22033L10.6258 4.22031L10.6239 4.22089C10.5496 4.24304 10.4717 4.25019 10.3946 4.24194C10.3176 4.23369 10.2429 4.21019 10.1751 4.17281L10.0945 4.31904L10.1751 4.17281C10.1072 4.13543 10.0474 4.08492 9.99923 4.02423C9.95105 3.96353 9.91543 3.89385 9.89444 3.81925C9.87345 3.74466 9.86751 3.66663 9.87697 3.58972C9.88642 3.5128 9.91108 3.43854 9.94951 3.37124C9.98794 3.30395 10.0394 3.24498 10.1008 3.19775C10.1623 3.15053 10.2325 3.116 10.3074 3.09617L10.3074 3.0962L10.3104 3.09535C10.6477 2.99933 10.9967 2.95091 11.3474 2.95149L11.3482 2.95149C12.1361 2.9492 12.9057 3.18982 13.552 3.64059C14.1984 4.09135 14.6901 4.73036 14.9602 5.47061C15.2304 6.21086 15.2658 7.01637 15.0617 7.77748C14.8576 8.53859 14.4239 9.2183 13.8196 9.72408L13.6159 9.89463L13.858 10.0042C14.8506 10.4534 15.7049 11.1603 16.3318 12.0515L16.3326 12.0525C16.3771 12.1149 16.4088 12.1854 16.4259 12.2601C16.4429 12.3348 16.4449 12.4121 16.4318 12.4876C16.4187 12.5631 16.3907 12.6352 16.3495 12.6997C16.3083 12.7643 16.2546 12.82 16.1917 12.8637L16.1917 12.8637L16.1897 12.8651C16.0923 12.9347 15.9754 12.972 15.8556 12.9717C15.7619 12.9711 15.6697 12.9482 15.5866 12.905C15.5035 12.8617 15.4319 12.7994 15.3777 12.723C14.9225 12.0772 14.3189 11.5501 13.6177 11.186C12.9165 10.8218 12.138 10.6313 11.3479 10.6304H11.3477C11.1927 10.6304 11.0441 10.5689 10.9345 10.4593C10.825 10.3497 10.7634 10.2011 10.7634 10.0462C10.7634 9.8912 10.825 9.74259 10.9345 9.63301C11.0441 9.52344 11.1927 9.46189 11.3477 9.46189C12.056 9.46189 12.7354 9.18049 13.2363 8.67959C13.7372 8.17869 14.0186 7.49933 14.0186 6.79095C14.0186 6.08258 13.7372 5.40322 13.2363 4.90232C12.7354 4.40145 12.0561 4.12005 11.3478 4.12002ZM11.3478 4.12002C11.3479 4.12002 11.3479 4.12002 11.348 4.12002L11.3477 4.28695V4.12002C11.3477 4.12002 11.3478 4.12002 11.3478 4.12002ZM8.71743 9.72435L8.51466 9.89493L8.75607 10.0042C9.74875 10.4534 10.603 11.1603 11.2299 12.0515L11.2298 12.0516L11.2349 12.0582C11.2836 12.1206 11.3191 12.1922 11.3393 12.2687L11.5007 12.2262L11.3393 12.2687C11.3594 12.3453 11.3638 12.4251 11.3522 12.5034C11.3406 12.5817 11.3132 12.6568 11.2717 12.7242C11.2302 12.7916 11.1754 12.8498 11.1107 12.8954C11.0459 12.941 10.9726 12.9729 10.8952 12.9893C10.8178 13.0057 10.7378 13.0061 10.6602 12.9907C10.5825 12.9752 10.5089 12.9441 10.4436 12.8994C10.3784 12.8546 10.3229 12.797 10.2806 12.7301L10.2807 12.73L10.2761 12.7234C9.82181 12.0764 9.2184 11.5482 8.51689 11.1836C7.81537 10.819 7.03638 10.6286 6.24577 10.6286C5.45516 10.6286 4.67617 10.819 3.97466 11.1836C3.27314 11.5482 2.66973 12.0764 2.21543 12.7234L2.21506 12.7239C2.16165 12.8006 2.09045 12.8632 2.00754 12.9064C1.92464 12.9495 1.83251 12.9719 1.73905 12.9717L1.73803 12.9717C1.61817 12.972 1.50122 12.9348 1.40371 12.8651L1.4029 12.8645C1.27651 12.7753 1.19066 12.6396 1.16419 12.4871C1.13772 12.3347 1.17279 12.178 1.26171 12.0514C1.88864 11.1603 2.74283 10.4534 3.73548 10.0042L3.97689 9.89493L3.77412 9.72435C3.17148 9.21738 2.73931 8.53736 2.5362 7.77648C2.33309 7.0156 2.36887 6.21067 2.63868 5.47081C2.90849 4.73095 3.39929 4.09196 4.04453 3.64045C4.68978 3.18895 5.45825 2.94679 6.24577 2.94679C7.03329 2.94679 7.80177 3.18895 8.44701 3.64045C9.09225 4.09196 9.58305 4.73095 9.85286 5.47081C10.1227 6.21067 10.1585 7.0156 9.95535 7.77648C9.75224 8.53736 9.32007 9.21738 8.71743 9.72435ZM1.30663 13.0009C1.43262 13.0909 1.58372 13.1391 1.73857 13.1386C1.85902 13.1389 1.97776 13.1101 2.08461 13.0545C2.19145 12.9989 2.28323 12.9182 2.35205 12.8193C2.79095 12.1942 3.37391 11.684 4.05164 11.3317C4.72938 10.9794 5.48196 10.7955 6.24577 10.7955C7.00958 10.7955 7.76217 10.9794 8.4399 11.3317C9.11763 11.684 9.70059 12.1942 10.1395 12.8193L1.30663 13.0009ZM4.02497 5.30706C3.73149 5.7463 3.57484 6.26269 3.57484 6.79095C3.57484 7.49933 3.85624 8.17869 4.35714 8.67959C4.85803 9.18049 5.5374 9.46189 6.24577 9.46189C6.77403 9.46189 7.29043 9.30524 7.72966 9.01175C8.1689 8.71827 8.51124 8.30112 8.71339 7.81308C8.91555 7.32503 8.96844 6.78799 8.86538 6.26988C8.76233 5.75177 8.50794 5.27586 8.13441 4.90232C7.76087 4.52878 7.28496 4.2744 6.76684 4.17134C6.24873 4.06828 5.7117 4.12118 5.22365 4.32333C4.7356 4.52549 4.31846 4.86783 4.02497 5.30706Z" fill="#4CAF4F" stroke="#4CAF4F" stroke-width="0.333867"/>
</g>
<defs>
<clipPath id="clip0_0_1283">
<rect width="16.0256" height="16.0256" fill="white" transform="translate(0.737 0.0301361)"/>
</clipPath>
</defs>
</svg>
