<svg width="23" height="20" viewBox="0 0 23 20" fill="none" xmlns="http://www.w3.org/2000/svg">
<path d="M22.2345 13.1396C22.2345 16.4586 19.5439 19.1492 16.2249 19.1492L7.21052 19.1492C6.28858 19.1492 5.54119 18.4018 5.54119 17.4799L5.54119 6.12843C5.54119 4.28454 7.03596 2.78977 8.87986 2.78977L20.5652 2.78977C21.4871 2.78977 22.2345 3.53716 22.2345 4.4591L22.2345 13.1396Z" fill="#E8F5E9"/>
<path d="M9.51969 6.7999C9.41552 6.7999 9.33083 6.71535 9.33083 6.61104V6.29009C9.33083 6.18591 9.41538 6.10123 9.51969 6.10123C9.62386 6.10123 9.70855 6.18578 9.70855 6.29009V6.61104C9.70855 6.71535 9.62387 6.7999 9.51969 6.7999Z" fill="#103E13"/>
<path d="M8.72563 6.7999C8.62146 6.7999 8.53677 6.71535 8.53677 6.61104V6.29009C8.53677 6.18591 8.62132 6.10123 8.72563 6.10123C8.8298 6.10123 8.91449 6.18578 8.91449 6.29009V6.61104C8.91436 6.71535 8.82994 6.7999 8.72563 6.7999Z" fill="#103E13"/>
<path d="M7.93168 6.7999C7.82751 6.7999 7.74282 6.71535 7.74282 6.61104V6.29009C7.74282 6.18591 7.82738 6.10123 7.93168 6.10123C8.03586 6.10123 8.12054 6.18578 8.12054 6.29009V6.61104C8.12054 6.71535 8.03599 6.7999 7.93168 6.7999Z" fill="#103E13"/>
<path d="M9.51969 8.11236C9.41552 8.11236 9.33083 8.02781 9.33083 7.9235V7.60268C9.33083 7.4985 9.41538 7.41382 9.51969 7.41382C9.62386 7.41382 9.70855 7.49837 9.70855 7.60268V7.9235C9.70855 8.02781 9.62387 8.11236 9.51969 8.11236Z" fill="#103E13"/>
<path d="M8.72563 8.11236C8.62146 8.11236 8.53677 8.02781 8.53677 7.9235V7.60268C8.53677 7.4985 8.62132 7.41382 8.72563 7.41382C8.8298 7.41382 8.91449 7.49837 8.91449 7.60268V7.9235C8.91436 8.02781 8.82994 8.11236 8.72563 8.11236Z" fill="#103E13"/>
<path d="M7.93168 8.11236C7.82751 8.11236 7.74282 8.02781 7.74282 7.9235V7.60268C7.74282 7.4985 7.82738 7.41382 7.93168 7.41382C8.03586 7.41382 8.12054 7.49837 8.12054 7.60268V7.9235C8.12054 8.02781 8.03599 8.11236 7.93168 8.11236Z" fill="#103E13"/>
<path d="M9.51969 9.4249C9.41552 9.4249 9.33083 9.34035 9.33083 9.23604V8.91509C9.33083 8.81091 9.41538 8.72623 9.51969 8.72623C9.62386 8.72623 9.70855 8.81078 9.70855 8.91509V9.23604C9.70855 9.34035 9.62387 9.4249 9.51969 9.4249Z" fill="#103E13"/>
<path d="M8.72563 9.4249C8.62146 9.4249 8.53677 9.34035 8.53677 9.23604V8.91509C8.53677 8.81091 8.62132 8.72623 8.72563 8.72623C8.8298 8.72623 8.91449 8.81078 8.91449 8.91509V9.23604C8.91436 9.34035 8.82994 9.4249 8.72563 9.4249Z" fill="#103E13"/>
<path d="M7.93168 9.4249C7.82751 9.4249 7.74282 9.34035 7.74282 9.23604V8.91509C7.74282 8.81091 7.82738 8.72623 7.93168 8.72623C8.03586 8.72623 8.12054 8.81078 8.12054 8.91509V9.23604C8.12054 9.34035 8.03599 9.4249 7.93168 9.4249Z" fill="#103E13"/>
<path d="M9.51969 10.7372C9.41552 10.7372 9.33083 10.6526 9.33083 10.5483V10.2273C9.33083 10.1232 9.41538 10.0385 9.51969 10.0385C9.62386 10.0385 9.70855 10.123 9.70855 10.2273V10.5483C9.70855 10.6526 9.62387 10.7372 9.51969 10.7372Z" fill="#103E13"/>
<path d="M8.72563 10.7372C8.62146 10.7372 8.53677 10.6526 8.53677 10.5483V10.2273C8.53677 10.1232 8.62132 10.0385 8.72563 10.0385C8.8298 10.0385 8.91449 10.123 8.91449 10.2273V10.5483C8.91436 10.6526 8.82994 10.7372 8.72563 10.7372Z" fill="#103E13"/>
<path d="M7.93168 10.7372C7.82751 10.7372 7.74282 10.6526 7.74282 10.5483V10.2273C7.74282 10.1232 7.82738 10.0385 7.93168 10.0385C8.03586 10.0385 8.12054 10.123 8.12054 10.2273V10.5483C8.12054 10.6526 8.03599 10.7372 7.93168 10.7372Z" fill="#103E13"/>
<path d="M9.51969 12.0496C9.41552 12.0496 9.33083 11.9651 9.33083 11.8608V11.5399C9.33083 11.4358 9.41538 11.3511 9.51969 11.3511C9.62386 11.3511 9.70855 11.4356 9.70855 11.5399V11.8608C9.70855 11.9649 9.62387 12.0496 9.51969 12.0496Z" fill="#103E13"/>
<path d="M8.72563 12.0496C8.62146 12.0496 8.53677 11.9651 8.53677 11.8608V11.5399C8.53677 11.4358 8.62132 11.3511 8.72563 11.3511C8.8298 11.3511 8.91449 11.4356 8.91449 11.5399V11.8608C8.91436 11.9649 8.82994 12.0496 8.72563 12.0496Z" fill="#103E13"/>
<path d="M7.93168 12.0496C7.82751 12.0496 7.74282 11.9651 7.74282 11.8608L7.74296 11.5399C7.74296 11.4358 7.82751 11.3511 7.93182 11.3511C8.03599 11.3511 8.12068 11.4356 8.12068 11.5399V11.8608C8.12054 11.9649 8.03599 12.0496 7.93168 12.0496Z" fill="#103E13"/>
<path d="M2.53654 13.3557C2.53654 13.4599 2.62109 13.5446 2.7254 13.5446H14.2264C14.3305 13.5446 14.4152 13.46 14.4152 13.3557C14.4152 13.2516 14.3307 13.1669 14.2264 13.1669H13.8772V7.74445C13.8772 7.64028 13.7927 7.55559 13.6884 7.55559L10.6049 7.55572V3.64644C10.6049 3.58033 10.5704 3.51922 10.514 3.48497C10.4578 3.4506 10.3874 3.44849 10.329 3.47892L6.82325 5.30416C6.76069 5.33669 6.72171 5.40122 6.72171 5.47168V8.88636H3.32894C3.22477 8.88636 3.14008 8.97092 3.14008 9.07523V13.1669H2.72498C2.62081 13.1668 2.53638 13.2513 2.53638 13.3556L2.53654 13.3557ZM10.6049 10.4161H13.4997V13.167L10.6049 13.1669V10.4161ZM10.6049 9.10367H13.4997V10.0385L10.6049 10.0384V9.10367ZM10.6049 7.93324H13.4997V8.72623H10.6049V7.93324ZM7.09923 5.58636L10.2271 3.95774V13.1667H7.09923V5.58636ZM4.4514 11.6585C4.4514 11.2665 4.76195 10.9476 5.14374 10.9476C5.52554 10.9476 5.83622 11.2664 5.83622 11.6585V13.167H4.4514V11.6585ZM3.51779 9.26402H6.72165V13.1669H6.21393V11.6584C6.21393 11.0582 5.73403 10.5699 5.14374 10.5699C4.55373 10.5699 4.07382 11.0581 4.07382 11.6584V13.1669H3.51779V9.26402Z" fill="#103E13"/>
</svg>
