<svg width="22" height="20" viewBox="0 0 22 20" fill="none" xmlns="http://www.w3.org/2000/svg">
<path d="M21.8405 13.1396C21.8405 16.4586 19.1499 19.1492 15.8309 19.1492L6.81648 19.1492C5.89453 19.1492 5.14714 18.4018 5.14714 17.4798L5.14714 6.12837C5.14714 4.28448 6.64191 2.78971 8.48581 2.78971L20.1711 2.78971C21.0931 2.78971 21.8405 3.5371 21.8405 4.45904L21.8405 13.1396Z" fill="#E8F5E9"/>
<path d="M8.14858 3.79132C6.95626 3.79132 5.98561 4.77085 5.98561 5.96824C5.98561 6.72573 6.37458 7.39456 6.96195 7.78442C6.25253 8.02162 5.63868 8.46496 5.18845 9.04494C4.93953 8.85347 4.66139 8.69949 4.36155 8.58915C4.81624 8.2516 5.11336 7.70936 5.11336 7.09993C5.11336 6.08439 4.29202 5.25305 3.28264 5.25305C2.27326 5.25305 1.45192 6.08439 1.45192 7.09993C1.45192 7.70971 1.74929 8.2522 2.20436 8.58975C0.999572 9.03433 0.13913 10.1983 0.13913 11.5682V12.5304C0.139253 12.6038 0.168596 12.6741 0.220623 12.7257C0.272649 12.7775 0.343048 12.8063 0.416405 12.8061H4.63813C4.64837 12.8072 4.6586 12.8078 4.66883 12.8077H11.6286C11.6388 12.8078 11.6492 12.8072 11.6593 12.8061H15.8813C16.0331 12.8055 16.156 12.6823 16.1564 12.5304V11.5682C16.1564 10.1983 15.2974 9.03433 14.0933 8.58962C14.5483 8.2522 14.8457 7.70958 14.8457 7.09981C14.8457 6.08427 14.0244 5.25292 13.015 5.25292C12.0056 5.25292 11.1842 6.08427 11.1842 7.09981C11.1842 7.70924 11.4815 8.25156 11.9362 8.58903C11.6357 8.69962 11.3575 8.85409 11.1082 9.04604C10.6582 8.46571 10.0452 8.02176 9.33579 7.78442C9.923 7.39456 10.3121 6.72573 10.3121 5.96824C10.3121 4.77085 9.34097 3.79132 8.14865 3.79132H8.14858ZM8.14858 4.34366C9.04033 4.34366 9.75922 5.06737 9.75922 5.96824C9.75922 6.86208 9.05154 7.57876 8.16966 7.59025C8.16264 7.59025 8.15573 7.58926 8.14858 7.58926C8.14143 7.58926 8.13465 7.59025 8.1275 7.59025C7.24563 7.5789 6.53842 6.86211 6.53842 5.96824C6.53842 5.06725 7.2567 4.34366 8.14846 4.34366H8.14858ZM3.28267 5.80535C3.99023 5.80535 4.56106 6.37962 4.56106 7.0999C4.56106 7.81535 3.99761 8.38716 3.29672 8.39492C3.29203 8.39492 3.28747 8.39443 3.28266 8.39443C3.27798 8.39443 3.27341 8.39492 3.26861 8.39492C2.56771 8.38715 2.00427 7.81522 2.00427 7.0999C2.00427 6.37966 2.57509 5.80535 3.28265 5.80535H3.28267ZM13.0148 5.80535C13.7224 5.80535 14.2932 6.37962 14.2932 7.0999C14.2932 7.81535 13.7297 8.38716 13.0289 8.39492C13.0242 8.39492 13.0196 8.39443 13.0148 8.39443C13.0101 8.39443 13.0055 8.39492 13.0007 8.39492C12.2998 8.38715 11.7364 7.81522 11.7364 7.0999C11.7364 6.37966 12.3072 5.80535 13.0148 5.80535H13.0148ZM8.12743 8.14255C8.13446 8.14267 8.14137 8.14354 8.14852 8.14354C8.15555 8.14354 8.16245 8.14255 8.1696 8.14255C9.93818 8.15389 11.3536 9.58146 11.3536 11.3685L11.3534 12.2552H4.94384V11.3685C4.94384 9.5813 6.35883 8.15391 8.12718 8.14255H8.12743ZM3.26152 8.94789C3.26855 8.94801 3.27546 8.94887 3.28261 8.94887C3.28976 8.94887 3.29654 8.94789 3.30369 8.94789C3.90188 8.95269 4.44781 9.15896 4.88251 9.50404C4.57146 10.0544 4.39157 10.6897 4.39157 11.3687V12.2532H0.691241V11.5681C0.691241 10.1158 1.83315 8.95922 3.26146 8.94776L3.26152 8.94789ZM12.9937 8.94789C13.0008 8.94801 13.0076 8.94887 13.0147 8.94887C13.0219 8.94887 13.0287 8.94789 13.0358 8.94789C14.4641 8.95923 15.606 10.1159 15.606 11.5683V12.2532H11.9038L11.9037 11.3687C11.9037 10.6901 11.7243 10.0553 11.4139 9.50502C11.8487 9.15945 12.395 8.95268 12.9937 8.94789H12.9937Z" fill="#103E13"/>
</svg>
