<svg width="17" height="17" viewBox="0 0 17 17" fill="none" xmlns="http://www.w3.org/2000/svg">
<path d="M14.0917 14.4072V13.0717C14.0917 12.3633 13.8103 11.684 13.3094 11.1831C12.8085 10.6822 12.1291 10.4008 11.4207 10.4008H10.753C10.5759 10.4008 10.4061 10.3304 10.2809 10.2052C10.1556 10.08 10.0853 9.91015 10.0853 9.73306V6.39439C10.0853 6.0402 9.94458 5.70052 9.69413 5.45007C9.44368 5.19963 9.104 5.05893 8.74981 5.05893C8.39562 5.05893 8.05594 5.19963 7.8055 5.45007C7.55505 5.70052 7.41435 6.0402 7.41435 6.39439V12.404L5.81179 10.2672C5.68739 10.1014 5.52609 9.96676 5.34065 9.87405C5.15522 9.78133 4.95074 9.73306 4.74341 9.73306H4.45362C3.87603 9.73306 3.40795 10.2011 3.40795 10.7787C3.40795 10.9684 3.45936 11.1547 3.55685 11.3169L5.41115 14.4072M8.74981 3.05573V2.38799V3.05573ZM12.7562 7.06212H13.4239H12.7562ZM4.07568 7.06212H4.74341H4.07568ZM5.64018 3.95249L5.16809 3.4804L5.64018 3.95249ZM11.8594 3.95249L12.3315 3.4804L11.8594 3.95249Z" fill="#4CAF4F"/>
<path d="M14.0917 14.4072V13.0717C14.0917 12.3633 13.8103 11.684 13.3094 11.1831C12.8085 10.6822 12.1291 10.4008 11.4207 10.4008H10.753C10.5759 10.4008 10.4061 10.3304 10.2809 10.2052C10.1556 10.08 10.0853 9.91015 10.0853 9.73306V6.39439C10.0853 6.0402 9.94458 5.70052 9.69413 5.45007C9.44368 5.19963 9.104 5.05893 8.74981 5.05893V5.05893C8.39562 5.05893 8.05594 5.19963 7.8055 5.45007C7.55505 5.70052 7.41435 6.0402 7.41435 6.39439V12.404L5.81179 10.2672C5.68739 10.1014 5.52609 9.96676 5.34065 9.87405C5.15522 9.78133 4.95074 9.73306 4.74341 9.73306H4.45362C3.87603 9.73306 3.40795 10.2011 3.40795 10.7787C3.40795 10.9684 3.45936 11.1547 3.55685 11.3169L5.41115 14.4072M8.74981 3.05573V2.38799M12.7562 7.06212H13.4239M4.07568 7.06212H4.74341M5.64018 3.95249L5.16809 3.4804M11.8594 3.95249L12.3315 3.4804" stroke="#4CAF4F" stroke-width="0.667733" stroke-linecap="round" stroke-linejoin="round"/>
</svg>
