<svg width="12" height="9" viewBox="0 0 12 9" fill="none" xmlns="http://www.w3.org/2000/svg">
<path d="M6.3489 4.89459L4.54905 7.97714L2.74921 4.89459H6.3489ZM6.83108 4.61908H2.26509L4.54905 8.52238L6.83108 4.61908Z" fill="#263238"/>
<path d="M9.47816 1.06059L11.278 4.14314H7.6783L9.47816 1.06059ZM9.47816 0.509583L7.19418 4.41287H11.7621L9.47816 0.509583Z" fill="#263238"/>
<path d="M0.0767822 0.509583L1.99181 3.96205L4.08446 0.596275L0.0767822 0.509583Z" fill="#4CAF4F"/>
<path d="M4.5491 0.812012L6.55782 4.24521H2.53647L4.5491 0.812012Z" fill="#4CAF4F"/>
<path d="M7.07513 4.99475L9.0858 8.52237H4.9688L7.01265 4.99475H7.07513Z" fill="#4CAF4F"/>
<path d="M7.51042 4.78088L9.47815 8.25454L11.4732 4.78088H7.51042Z" fill="#4CAF4F"/>
</svg>
