<svg width="20" height="17" viewBox="0 0 20 17" fill="none" xmlns="http://www.w3.org/2000/svg">
<g clip-path="url(#clip0_0_1003)">
<path d="M19.2992 7.21611C19.3011 7.20219 19.3011 7.18811 19.2992 7.17419C19.301 7.16285 19.301 7.15128 19.2992 7.13991L19.1632 6.1608C19.1436 6.04366 19.0911 5.93417 19.0116 5.84459L18.9883 5.81792L18.9456 5.77601L16.5906 3.78731L16.6567 3.85208C16.6026 3.78868 16.5348 3.73798 16.4581 3.70369C16.3815 3.6694 16.2979 3.65241 16.2137 3.65397H15.4986C15.3824 3.65171 15.2688 3.68795 15.1761 3.75683C15.0788 3.68837 14.9617 3.65231 14.8419 3.65397H14.1268C14.0331 3.65248 13.9406 3.6753 13.8587 3.72012C13.7768 3.76494 13.7084 3.83018 13.6605 3.90922C13.5867 4.02212 13.5589 4.15814 13.5828 4.2902L13.6722 4.90738C13.613 4.87447 13.546 4.8574 13.4779 4.85786H10.0154C9.89117 4.85862 9.7698 4.89432 9.66564 4.96072C9.56493 5.02252 9.48408 5.11102 9.43249 5.21597L9.16434 4.9912C9.05881 4.89547 8.9195 4.84358 8.77574 4.84643H3.34301C3.21835 4.84866 3.09645 4.8828 2.98939 4.94548C2.84294 5.02952 2.7356 5.16617 2.69016 5.32646L0.964744 10.984C0.932505 11.0772 0.929334 11.1777 0.955636 11.2727C0.981938 11.3677 1.03652 11.4529 1.11242 11.5174C1.13219 11.5338 1.15296 11.5491 1.17459 11.5631C1.17459 11.5631 1.13961 11.5402 1.12018 11.5212L3.47515 13.5137C3.57477 13.6036 3.70502 13.6538 3.84042 13.6546H9.31591C9.44095 13.6514 9.56294 13.616 9.66954 13.5518C9.72983 13.5195 9.78377 13.4769 9.82886 13.426L9.8483 13.3994L9.87939 13.3613L9.9027 13.3194L10.1592 13.5365C10.2574 13.6229 10.3848 13.6704 10.5167 13.6699H16.0038C16.1287 13.6658 16.2505 13.6304 16.3575 13.567C16.4164 13.5327 16.47 13.4904 16.5168 13.4413L16.5362 13.4146L16.5673 13.3765C16.5838 13.3524 16.5982 13.3269 16.61 13.3003C16.6227 13.2772 16.6331 13.253 16.6411 13.2279L18.215 8.06188V8.01616C18.2169 7.99843 18.2169 7.98055 18.215 7.96283V7.92855C18.2169 7.91718 18.2169 7.90561 18.215 7.89424C18.2167 7.87015 18.2167 7.84596 18.215 7.82185H18.7202C18.7641 7.82581 18.8084 7.82581 18.8523 7.82185H18.8873C18.9157 7.81354 18.9431 7.80202 18.9689 7.78757H19.0078L19.0777 7.73424L19.1088 7.71137L19.1632 7.64279V7.61995L19.2021 7.55518C19.1999 7.54258 19.1999 7.52968 19.2021 7.51709C19.2 7.5109 19.2 7.50422 19.2021 7.49803C19.2103 7.4757 19.2168 7.45276 19.2215 7.42945C19.2197 7.42194 19.2197 7.4141 19.2215 7.40659C19.2196 7.39524 19.2196 7.38365 19.2215 7.37231C19.2215 7.37231 19.2992 7.22372 19.2992 7.21611Z" fill="black"/>
<path d="M8.93504 5.28071C8.95568 5.299 8.97009 5.32305 8.97634 5.34961C8.98261 5.37618 8.98039 5.40399 8.97004 5.42929L7.24851 11.083C7.22683 11.1447 7.18248 11.1963 7.12415 11.2278C7.07669 11.2589 7.02176 11.2773 6.96481 11.2811H1.49324C1.44651 11.2789 1.40224 11.2599 1.36888 11.2278C1.34904 11.2098 1.33511 11.1864 1.32888 11.1606C1.32265 11.1348 1.3244 11.1078 1.33391 11.083L3.05932 5.42929C3.0792 5.36678 3.12216 5.3138 3.17979 5.28071C3.22803 5.25182 3.28271 5.23482 3.33912 5.23118H8.81069C8.85705 5.23162 8.90151 5.24933 8.93504 5.28071ZM6.07878 9.94387L7.1086 6.56841H4.22515L3.19921 9.94387H6.07878ZM14.1579 5.33785C14.1766 5.35912 14.1999 5.37599 14.2262 5.3872C14.2524 5.39841 14.2809 5.40369 14.3095 5.40262H15.0206C15.0477 5.40288 15.0744 5.39637 15.0982 5.3837C15.122 5.37104 15.1421 5.35263 15.1566 5.33023C15.1693 5.31274 15.1782 5.29293 15.1829 5.27198C15.1875 5.25104 15.1879 5.22939 15.1838 5.20832L15.0439 4.20254C15.0306 4.15599 15.0067 4.11301 14.974 4.07682C14.9553 4.05555 14.932 4.03868 14.9058 4.02747C14.8795 4.01626 14.851 4.01099 14.8224 4.01205H14.1113C14.0842 4.0118 14.0575 4.01831 14.0337 4.03097C14.0099 4.04364 13.9898 4.06204 13.9753 4.08444C13.9481 4.13778 13.9364 4.17206 13.9481 4.20254L14.0919 5.20832C14.0992 5.2573 14.1224 5.30268 14.1579 5.33785ZM16.4157 4.19492C16.4024 4.14837 16.3785 4.10539 16.3458 4.0692C16.3279 4.04801 16.3053 4.03115 16.2796 4.01991C16.254 4.00868 16.2261 4.00338 16.1981 4.00443H15.4831C15.4564 4.00369 15.4301 4.01002 15.4068 4.02277C15.3836 4.03551 15.3643 4.05419 15.351 4.07682C15.3251 4.11062 15.3139 4.15307 15.3199 4.19492L15.4636 5.2007C15.4727 5.24916 15.4956 5.29409 15.5297 5.33023C15.5487 5.35109 15.5721 5.36767 15.5983 5.37885C15.6244 5.39003 15.6527 5.39553 15.6813 5.395H16.3963C16.4229 5.39534 16.449 5.38884 16.4722 5.37613C16.4954 5.36343 16.5148 5.34498 16.5284 5.32262C16.542 5.30557 16.5514 5.28577 16.5561 5.26468C16.5608 5.24358 16.5606 5.22172 16.5556 5.2007L16.4157 4.19492ZM13.5323 5.71883L13.4623 5.22356H10.0154C9.96126 5.22649 9.9089 5.24359 9.86381 5.27309C9.8352 5.28839 9.81028 5.3096 9.79082 5.33525C9.77139 5.3609 9.75784 5.39038 9.75114 5.42167L9.46356 6.36649C9.45208 6.3901 9.44815 6.41659 9.45231 6.44243C9.45649 6.46827 9.46853 6.49226 9.48687 6.51127C9.51964 6.54147 9.56241 6.55907 9.60735 6.5608H13.7965L12.7667 9.93626H8.58919C8.53533 9.93746 8.48286 9.95329 8.43765 9.98196C8.38269 10.0162 8.34254 10.0691 8.32494 10.1305L8.03349 11.0754C8.02398 11.0996 8.02148 11.126 8.02627 11.1515C8.03109 11.1771 8.04298 11.2008 8.06068 11.2201C8.09243 11.2524 8.13553 11.2714 8.18116 11.2735H13.6683C13.725 11.2687 13.7797 11.2504 13.8276 11.2201C13.885 11.1885 13.928 11.1368 13.9481 11.0754L15.5258 5.90932H13.7499C13.7217 5.90986 13.6937 5.90474 13.6677 5.89425C13.6416 5.88377 13.618 5.86814 13.5983 5.84836C13.5662 5.81381 13.5435 5.77189 13.5323 5.72645V5.71883Z" fill="white"/>
</g>
<defs>
<clipPath id="clip0_0_1003">
<rect width="18.3627" height="10.016" fill="white" transform="translate(0.937996 3.65387)"/>
</clipPath>
</defs>
</svg>
