<svg width="17" height="17" viewBox="0 0 17 17" fill="none" xmlns="http://www.w3.org/2000/svg">
<g clip-path="url(#clip0_0_1023)">
<path d="M14.9709 4.60326C14.9709 4.75884 15.0986 4.88496 15.2561 4.88496H15.5413C15.6988 4.88496 15.8265 4.75884 15.8265 4.60326C15.8265 4.44769 15.6988 4.32156 15.5413 4.32156H15.2561C15.0986 4.32156 14.9709 4.44769 14.9709 4.60326Z" fill="#212326"/>
<path d="M6.70087 13.336H8.08621L7.6829 12.9376C7.57595 12.832 7.43088 12.7726 7.27962 12.7726H6.70087C4.49587 12.7726 2.70838 11.0069 2.70838 8.82879C2.70838 6.65069 4.49587 4.885 6.70087 4.88499H11.2637C13.4687 4.88499 15.2562 6.65069 15.2562 8.82879C15.2562 11.0069 13.4687 12.7726 11.2637 12.7726H9.55684C9.32993 12.7726 9.11233 12.6836 8.95188 12.5251L8.47939 12.0583C8.21199 11.7942 7.84929 11.6458 7.47112 11.6458H6.70087C5.12586 11.6458 3.84909 10.3846 3.84909 8.82879C3.84909 7.273 5.12586 6.01179 6.70087 6.01179H11.2637C12.8387 6.01179 14.1155 7.273 14.1155 8.82879C14.1155 10.3846 12.8387 11.6458 11.2637 11.6458H10.1677C9.94083 11.6458 9.72323 11.5568 9.56277 11.3983L9.09027 10.9315C8.82286 10.6674 8.46018 10.519 8.08202 10.519H6.70087C5.75588 10.519 4.9898 9.76226 4.9898 8.82879C4.9898 7.89533 5.75588 7.13859 6.70087 7.13859H11.2637C12.2087 7.13859 12.9748 7.89533 12.9748 8.82879C12.9748 9.75087 12.2273 10.5005 11.2982 10.5187L11.298 10.519H10.8807C10.6538 10.519 10.4362 10.43 10.2757 10.2715L9.80321 9.80474C9.58381 9.58799 9.30025 9.44919 8.99662 9.40634L8.98229 9.39219H6.70087C6.38587 9.39219 6.13051 9.13995 6.13051 8.82879C6.13051 8.51764 6.38587 8.26539 6.70087 8.26539H11.2637C11.5787 8.26539 11.8341 8.51764 11.8341 8.82879C11.8341 9.13995 11.5787 9.39219 11.2637 9.39219H10.123L10.5263 9.79058C10.6333 9.89623 10.7783 9.95559 10.9296 9.95559H11.2637C11.8937 9.95559 12.4044 9.4511 12.4044 8.82879C12.4044 8.20648 11.8937 7.70199 11.2637 7.70199H6.70087C6.07087 7.70199 5.56016 8.20648 5.56016 8.82879C5.56016 9.4511 6.07087 9.95559 6.70087 9.95559H8.79496C9.02187 9.95559 9.23947 10.0446 9.39993 10.2031L9.87243 10.6698C10.1398 10.934 10.5025 11.0824 10.8807 11.0824H11.4063V11.0781C12.5999 11.0054 13.5451 10.0261 13.5451 8.82879C13.5451 7.58417 12.5237 6.57519 11.2637 6.57519H6.70087C5.44088 6.57519 4.41945 7.58417 4.41945 8.82879C4.41945 10.0734 5.44088 11.0824 6.70087 11.0824H8.08202C8.30893 11.0824 8.52653 11.1714 8.68698 11.3299L9.15949 11.7966C9.42689 12.0608 9.78957 12.2092 10.1677 12.2092H11.2637C13.1537 12.2092 14.6858 10.6957 14.6858 8.82879C14.6858 6.96184 13.1537 5.44839 11.2637 5.44839H6.70087C4.81087 5.44839 3.27873 6.96184 3.27873 8.82879C3.27873 10.6957 4.81087 12.2092 6.70087 12.2092H7.47112C7.69803 12.2092 7.91563 12.2982 8.07608 12.4567L8.54859 12.9234C8.816 13.1876 9.17867 13.336 9.55684 13.336H11.2637C13.7837 13.336 15.8266 11.3181 15.8266 8.82879C15.8266 6.33953 13.7837 4.32159 11.2637 4.32159L6.70087 4.3216C4.18088 4.3216 2.13802 6.33954 2.13802 8.82879C2.13802 11.3181 4.18088 13.336 6.70087 13.336Z" fill="#212326"/>
</g>
<defs>
<clipPath id="clip0_0_1023">
<rect width="13.6885" height="9.0144" fill="white" transform="translate(2.13802 4.32159)"/>
</clipPath>
</defs>
</svg>
