<svg width="17" height="17" viewBox="0 0 17 17" fill="none" xmlns="http://www.w3.org/2000/svg">
<g clip-path="url(#clip0_0_997)">
<path fill-rule="evenodd" clip-rule="evenodd" d="M4.75087 2.03568C6.59474 2.03568 8.08953 3.53045 8.08953 5.37434V2.03568H11.4282C13.2721 2.03568 14.7669 3.53045 14.7669 5.37434C14.7669 7.21822 13.2721 8.71301 11.4282 8.71301C13.2721 8.71301 14.7669 10.2078 14.7669 12.0517C14.7669 12.9672 14.3983 13.7967 13.8015 14.3999L13.789 14.4125L13.7779 14.4235C13.1746 15.0212 12.3445 15.3903 11.4282 15.3903C10.5181 15.3903 9.69306 15.0262 9.0908 14.4356C9.08298 14.428 9.07517 14.4202 9.06739 14.4125C9.06008 14.4052 9.0528 14.3978 9.04556 14.3904C8.45425 13.7881 8.08953 12.9625 8.08953 12.0517C8.08953 13.8955 6.59474 15.3903 4.75087 15.3903C2.90697 15.3903 1.4122 13.8955 1.4122 12.0517V8.71301H4.75087C2.90697 8.71301 1.4122 7.21822 1.4122 5.37434C1.4122 3.53045 2.90697 2.03568 4.75087 2.03568ZM7.4218 5.37434C7.4218 6.84946 6.22599 8.04527 4.75087 8.04527V2.70341C6.22599 2.70341 7.4218 3.89922 7.4218 5.37434ZM14.0991 12.0517C14.0991 10.5765 12.9033 9.38074 11.4282 9.38074C9.95307 9.38074 8.75726 10.5765 8.75726 12.0517H14.0991ZM2.07993 9.38074V12.0517C2.07993 13.5268 3.27575 14.7226 4.75087 14.7226C6.22599 14.7226 7.4218 13.5268 7.4218 12.0517V9.38074H2.07993ZM8.75726 8.04527V2.70341H11.4282C12.9033 2.70341 14.0991 3.89922 14.0991 5.37434C14.0991 6.84946 12.9033 8.04527 11.4282 8.04527H8.75726Z" fill="#263238"/>
</g>
<defs>
<clipPath id="clip0_0_997">
<rect width="13.3547" height="13.3547" fill="white" transform="translate(1.4122 2.03568)"/>
</clipPath>
</defs>
</svg>
