<svg width="38" height="7" viewBox="0 0 38 7" fill="none" xmlns="http://www.w3.org/2000/svg">
<path d="M6.11968 0.0667725V6.86551H4.87812L1.92027 2.58642H1.87047V6.86551H0.433044V0.0667725H1.69453L4.62914 4.34254H4.68889V0.0667725H6.11968Z" fill="#263238"/>
<path d="M9.60453 6.9651C9.08002 6.9651 8.62854 6.85887 8.2501 6.64641C7.87387 6.43174 7.58395 6.12854 7.38034 5.73681C7.17673 5.34288 7.07493 4.87701 7.07493 4.33922C7.07493 3.81471 7.17673 3.35438 7.38034 2.95823C7.58395 2.56208 7.87055 2.25335 8.24014 2.03203C8.61194 1.81072 9.04793 1.70006 9.5481 1.70006C9.8845 1.70006 10.1977 1.75428 10.4876 1.86273C10.7797 1.96896 11.0342 2.12941 11.2511 2.34408C11.4702 2.55876 11.6406 2.82876 11.7623 3.15409C11.8841 3.47721 11.9449 3.85565 11.9449 4.28943V4.67783H7.63927V3.80143H10.6137C10.6137 3.59782 10.5695 3.41745 10.4809 3.26032C10.3924 3.10319 10.2696 2.98036 10.1124 2.89183C9.95753 2.8011 9.77716 2.75573 9.57134 2.75573C9.35666 2.75573 9.16633 2.80552 9.00035 2.90511C8.83658 3.00249 8.70822 3.13417 8.61526 3.30016C8.52231 3.46393 8.47473 3.64651 8.47252 3.84791V4.68115C8.47252 4.93345 8.51899 5.15144 8.61194 5.33513C8.70711 5.51882 8.841 5.66046 9.01363 5.76005C9.18625 5.85964 9.39097 5.90944 9.62777 5.90944C9.7849 5.90944 9.92876 5.88731 10.0593 5.84304C10.1899 5.79878 10.3017 5.73239 10.3946 5.64386C10.4876 5.55534 10.5584 5.44689 10.6071 5.31853L11.915 5.40484C11.8486 5.71911 11.7125 5.99354 11.5067 6.22813C11.3031 6.46051 11.0397 6.64198 10.7166 6.77256C10.3957 6.90092 10.025 6.9651 9.60453 6.9651Z" fill="#263238"/>
<path d="M13.9583 1.76646L14.8945 3.54913L15.8539 1.76646H17.3046L15.8273 4.31598L17.3444 6.86551H15.9003L14.8945 5.10275L13.9052 6.86551H12.4445L13.9583 4.31598L12.4976 1.76646H13.9583Z" fill="#263238"/>
<path d="M20.2657 6.9651C19.7434 6.9651 19.2942 6.85444 18.9179 6.63313C18.5439 6.4096 18.2562 6.09977 18.0548 5.70362C17.8556 5.30747 17.756 4.85156 17.756 4.3359C17.756 3.8136 17.8567 3.35548 18.0581 2.96155C18.2617 2.5654 18.5506 2.25666 18.9246 2.03535C19.2986 1.81183 19.7434 1.70006 20.2591 1.70006C20.7039 1.70006 21.0934 1.78084 21.4276 1.9424C21.7618 2.10396 22.0263 2.3308 22.221 2.62294C22.4158 2.91507 22.5231 3.25811 22.543 3.65204H21.2085C21.1709 3.39753 21.0713 3.19282 20.9098 3.0379C20.7504 2.88077 20.5413 2.8022 20.2823 2.8022C20.0632 2.8022 19.8718 2.86196 19.708 2.98147C19.5465 3.09876 19.4203 3.27028 19.3296 3.49602C19.2388 3.72176 19.1935 3.99508 19.1935 4.31598C19.1935 4.64131 19.2377 4.91795 19.3263 5.14591C19.417 5.37386 19.5443 5.54759 19.708 5.6671C19.8718 5.78661 20.0632 5.84636 20.2823 5.84636C20.4439 5.84636 20.5889 5.81317 20.7172 5.74677C20.8478 5.68038 20.9551 5.58411 21.0392 5.45796C21.1255 5.3296 21.182 5.17578 21.2085 4.99652H22.543C22.5209 5.38603 22.4147 5.72907 22.2244 6.02563C22.0362 6.31997 21.7762 6.55014 21.4442 6.71612C21.1123 6.88211 20.7194 6.9651 20.2657 6.9651Z" fill="#263238"/>
<path d="M25.7723 6.9651C25.2478 6.9651 24.7963 6.85887 24.4178 6.64641C24.0416 6.43174 23.7517 6.12854 23.5481 5.73681C23.3445 5.34288 23.2427 4.87701 23.2427 4.33922C23.2427 3.81471 23.3445 3.35438 23.5481 2.95823C23.7517 2.56208 24.0383 2.25335 24.4079 2.03203C24.7797 1.81072 25.2157 1.70006 25.7158 1.70006C26.0522 1.70006 26.3654 1.75428 26.6553 1.86273C26.9475 1.96896 27.202 2.12941 27.4189 2.34408C27.638 2.55876 27.8084 2.82876 27.9301 3.15409C28.0518 3.47721 28.1127 3.85565 28.1127 4.28943V4.67783H23.807V3.80143H26.7815C26.7815 3.59782 26.7372 3.41745 26.6487 3.26032C26.5602 3.10319 26.4373 2.98036 26.2802 2.89183C26.1253 2.8011 25.9449 2.75573 25.7391 2.75573C25.5244 2.75573 25.3341 2.80552 25.1681 2.90511C25.0043 3.00249 24.876 3.13417 24.783 3.30016C24.6901 3.46393 24.6425 3.64651 24.6403 3.84791V4.68115C24.6403 4.93345 24.6867 5.15144 24.7797 5.33513C24.8749 5.51882 25.0088 5.66046 25.1814 5.76005C25.354 5.85964 25.5587 5.90944 25.7955 5.90944C25.9527 5.90944 26.0965 5.88731 26.2271 5.84304C26.3577 5.79878 26.4694 5.73239 26.5624 5.64386C26.6553 5.55534 26.7261 5.44689 26.7748 5.31853L28.0828 5.40484C28.0164 5.71911 27.8803 5.99354 27.6745 6.22813C27.4709 6.46051 27.2075 6.64198 26.8844 6.77256C26.5635 6.90092 26.1928 6.9651 25.7723 6.9651Z" fill="#263238"/>
<path d="M30.4497 3.91762V6.86551H29.0355V1.76646H30.3833V2.66609H30.4431C30.556 2.36953 30.7452 2.13494 31.0108 1.96232C31.2763 1.78748 31.5983 1.70006 31.9768 1.70006C32.3309 1.70006 32.6396 1.77752 32.903 1.93244C33.1663 2.08736 33.3711 2.30867 33.5171 2.59638C33.6632 2.88187 33.7362 3.2227 33.7362 3.61885V6.86551H32.322V3.87114C32.3243 3.55909 32.2446 3.31565 32.083 3.14081C31.9215 2.96376 31.699 2.87524 31.4158 2.87524C31.2254 2.87524 31.0572 2.91618 30.9112 2.99806C30.7673 3.07995 30.6544 3.19946 30.5726 3.35659C30.4929 3.51151 30.4519 3.69852 30.4497 3.91762Z" fill="#263238"/>
<path d="M37.563 1.76646V2.82876H34.4923V1.76646H37.563ZM35.1894 0.544809H36.6036V5.29861C36.6036 5.42919 36.6235 5.53099 36.6634 5.60403C36.7032 5.67485 36.7585 5.72464 36.8294 5.75341C36.9024 5.78218 36.9865 5.79657 37.0817 5.79657C37.148 5.79657 37.2144 5.79103 37.2808 5.77997C37.3472 5.76669 37.3981 5.75673 37.4335 5.75009L37.656 6.80244C37.5851 6.82457 37.4855 6.85002 37.3572 6.87879C37.2288 6.90977 37.0728 6.92858 36.8891 6.93522C36.5483 6.9485 36.2495 6.90313 35.9928 6.79912C35.7383 6.6951 35.5402 6.53354 35.3986 6.31444C35.2569 6.09534 35.1872 5.8187 35.1894 5.48452V0.544809Z" fill="#263238"/>
</svg>
