<svg width="313" height="19" viewBox="0 0 313 19" fill="none" xmlns="http://www.w3.org/2000/svg">
<path d="M98.4557 11.016V7.131H99.0418V8.8193H100.979V7.131H101.567V11.016H100.979V9.322H99.0418V11.016H98.4557ZM103.602 11.0748C103.329 11.0748 103.091 11.0122 102.887 10.887C102.683 10.7618 102.525 10.5866 102.413 10.3615C102.3 10.1364 102.244 9.87338 102.244 9.5724C102.244 9.27015 102.3 9.00584 102.413 8.77946C102.525 8.55309 102.683 8.37731 102.887 8.25211C103.091 8.12691 103.329 8.06431 103.602 8.06431C103.875 8.06431 104.114 8.12691 104.317 8.25211C104.521 8.37731 104.679 8.55309 104.792 8.77946C104.904 9.00584 104.96 9.27015 104.96 9.5724C104.96 9.87338 104.904 10.1364 104.792 10.3615C104.679 10.5866 104.521 10.7618 104.317 10.887C104.114 11.0122 103.875 11.0748 103.602 11.0748ZM103.604 10.5987C103.781 10.5987 103.928 10.5519 104.044 10.4583C104.16 10.3647 104.246 10.2401 104.302 10.0846C104.359 9.92903 104.387 9.75767 104.387 9.5705C104.387 9.3846 104.359 9.21387 104.302 9.05832C104.246 8.9015 104.16 8.77567 104.044 8.68082C103.928 8.58597 103.781 8.53855 103.604 8.53855C103.426 8.53855 103.278 8.58597 103.16 8.68082C103.044 8.77567 102.957 8.9015 102.9 9.05832C102.845 9.21387 102.817 9.3846 102.817 9.5705C102.817 9.75767 102.845 9.92903 102.9 10.0846C102.957 10.2401 103.044 10.3647 103.16 10.4583C103.278 10.5519 103.426 10.5987 103.604 10.5987ZM105.593 11.016V8.10225H106.138V8.57649H106.174C106.235 8.41588 106.334 8.29068 106.472 8.20089C106.61 8.10983 106.775 8.06431 106.967 8.06431C107.162 8.06431 107.325 8.10983 107.456 8.20089C107.589 8.29194 107.687 8.41714 107.75 8.57649H107.781C107.85 8.42094 107.961 8.297 108.113 8.20468C108.264 8.1111 108.445 8.06431 108.655 8.06431C108.92 8.06431 109.135 8.14714 109.302 8.31281C109.47 8.47848 109.554 8.72825 109.554 9.06211V11.016H108.987V9.11523C108.987 8.91794 108.933 8.77504 108.826 8.68651C108.718 8.59799 108.59 8.55373 108.441 8.55373C108.256 8.55373 108.113 8.61063 108.01 8.72445C107.908 8.83701 107.857 8.98181 107.857 9.15886V11.016H107.291V9.07919C107.291 8.92111 107.242 8.79401 107.143 8.6979C107.045 8.60178 106.916 8.55373 106.758 8.55373C106.651 8.55373 106.551 8.58218 106.46 8.63909C106.371 8.69473 106.298 8.77251 106.242 8.87242C106.188 8.97232 106.161 9.08804 106.161 9.21956V11.016H105.593ZM111.57 11.0748C111.283 11.0748 111.036 11.0135 110.829 10.8908C110.623 10.7669 110.463 10.593 110.351 10.3691C110.239 10.144 110.184 9.88034 110.184 9.57809C110.184 9.27963 110.239 9.01659 110.351 8.78895C110.463 8.56131 110.62 8.38363 110.821 8.2559C111.023 8.12817 111.26 8.06431 111.531 8.06431C111.695 8.06431 111.854 8.0915 112.009 8.14588C112.163 8.20026 112.301 8.28562 112.424 8.40197C112.547 8.51832 112.643 8.66944 112.714 8.85534C112.785 9.03998 112.82 9.26446 112.82 9.52877V9.72985H110.504V9.30493H112.265C112.265 9.1557 112.234 9.02354 112.174 8.90846C112.113 8.79211 112.028 8.70042 111.918 8.6334C111.809 8.56637 111.681 8.53286 111.534 8.53286C111.375 8.53286 111.236 8.57206 111.117 8.65047C110.999 8.72761 110.908 8.82879 110.844 8.95399C110.781 9.07792 110.749 9.21261 110.749 9.35804V9.69001C110.749 9.88477 110.783 10.0504 110.851 10.187C110.921 10.3236 111.018 10.4279 111.142 10.5C111.266 10.5708 111.41 10.6062 111.576 10.6062C111.684 10.6062 111.782 10.5911 111.87 10.5607C111.959 10.5291 112.035 10.4823 112.1 10.4203C112.164 10.3584 112.213 10.2819 112.248 10.1908L112.784 10.2876C112.741 10.4456 112.664 10.5841 112.553 10.703C112.443 10.8206 112.304 10.9123 112.138 10.9781C111.972 11.0425 111.783 11.0748 111.57 11.0748Z" fill="#4D4D4D"/>
<path d="M131.414 11.016V7.131H133.824V7.63559H132.001V8.8193H133.651V9.322H132.001V11.016H131.414ZM135.541 11.0748C135.254 11.0748 135.006 11.0135 134.799 10.8908C134.593 10.7669 134.434 10.593 134.321 10.3691C134.21 10.144 134.154 9.88034 134.154 9.57809C134.154 9.27963 134.21 9.01659 134.321 8.78895C134.434 8.56131 134.59 8.38363 134.792 8.2559C134.994 8.12817 135.23 8.06431 135.501 8.06431C135.665 8.06431 135.825 8.0915 135.979 8.14588C136.133 8.20026 136.272 8.28562 136.394 8.40197C136.517 8.51832 136.614 8.66944 136.685 8.85534C136.755 9.03998 136.791 9.26446 136.791 9.52877V9.72985H134.475V9.30493H136.235C136.235 9.1557 136.205 9.02354 136.144 8.90846C136.083 8.79211 135.998 8.70042 135.888 8.6334C135.779 8.56637 135.651 8.53286 135.505 8.53286C135.345 8.53286 135.206 8.57206 135.087 8.65047C134.97 8.72761 134.879 8.82879 134.814 8.95399C134.751 9.07792 134.719 9.21261 134.719 9.35804V9.69001C134.719 9.88477 134.754 10.0504 134.822 10.187C134.891 10.3236 134.988 10.4279 135.112 10.5C135.236 10.5708 135.381 10.6062 135.546 10.6062C135.654 10.6062 135.752 10.5911 135.841 10.5607C135.929 10.5291 136.006 10.4823 136.07 10.4203C136.135 10.3584 136.184 10.2819 136.218 10.1908L136.755 10.2876C136.712 10.4456 136.635 10.5841 136.523 10.703C136.413 10.8206 136.275 10.9123 136.108 10.9781C135.942 11.0425 135.753 11.0748 135.541 11.0748ZM138.268 11.0805C138.084 11.0805 137.917 11.0463 137.767 10.9781C137.618 10.9085 137.5 10.808 137.413 10.6764C137.327 10.5449 137.284 10.3837 137.284 10.1927C137.284 10.0283 137.315 9.89299 137.378 9.78676C137.442 9.68053 137.527 9.59643 137.635 9.53446C137.742 9.47249 137.862 9.4257 137.995 9.39408C138.128 9.36247 138.263 9.33844 138.401 9.322C138.575 9.30176 138.717 9.28532 138.826 9.27268C138.935 9.25877 139.014 9.23663 139.063 9.20628C139.112 9.17593 139.137 9.12661 139.137 9.05832V9.04504C139.137 8.87937 139.09 8.75101 138.997 8.65996C138.904 8.5689 138.766 8.52337 138.583 8.52337C138.392 8.52337 138.242 8.56574 138.132 8.65047C138.023 8.73394 137.948 8.82689 137.906 8.92933L137.373 8.80792C137.436 8.63087 137.528 8.48796 137.65 8.3792C137.772 8.26918 137.913 8.18951 138.073 8.14019C138.232 8.0896 138.4 8.06431 138.575 8.06431C138.692 8.06431 138.815 8.07822 138.945 8.10604C139.077 8.1326 139.2 8.18192 139.313 8.254C139.428 8.32609 139.523 8.42916 139.596 8.56321C139.669 8.696 139.706 8.86862 139.706 9.08108V11.016H139.152V10.6176H139.129C139.093 10.691 139.038 10.7631 138.964 10.8339C138.891 10.9047 138.797 10.9635 138.682 11.0103C138.567 11.0571 138.429 11.0805 138.268 11.0805ZM138.391 10.6252C138.548 10.6252 138.682 10.5942 138.794 10.5323C138.906 10.4703 138.992 10.3894 139.05 10.2895C139.109 10.1883 139.139 10.0802 139.139 9.96507V9.58947C139.119 9.6097 139.079 9.62867 139.021 9.64638C138.964 9.66282 138.899 9.67736 138.826 9.69001C138.753 9.70139 138.681 9.71214 138.612 9.72226C138.542 9.73111 138.484 9.7387 138.437 9.74502C138.327 9.75893 138.226 9.78233 138.135 9.81521C138.046 9.84809 137.974 9.89551 137.919 9.95748C137.866 10.0182 137.839 10.0991 137.839 10.2003C137.839 10.3407 137.891 10.4469 137.995 10.519C138.099 10.5898 138.231 10.6252 138.391 10.6252ZM141.822 8.10225V8.55752H140.23V8.10225H141.822ZM140.657 7.40416H141.224V10.1605C141.224 10.2705 141.241 10.3533 141.273 10.409C141.306 10.4633 141.349 10.5006 141.401 10.5209C141.454 10.5399 141.511 10.5493 141.573 10.5493C141.619 10.5493 141.659 10.5462 141.693 10.5399C141.727 10.5335 141.753 10.5285 141.772 10.5247L141.875 10.9932C141.842 11.0059 141.795 11.0185 141.734 11.0312C141.674 11.0451 141.598 11.0527 141.507 11.0539C141.358 11.0565 141.218 11.0299 141.089 10.9743C140.96 10.9186 140.856 10.8326 140.776 10.7163C140.697 10.5999 140.657 10.4539 140.657 10.2781V7.40416ZM144.295 9.80762V8.10225H144.864V11.016H144.306V10.5114H144.276C144.209 10.6669 144.101 10.7966 143.953 10.9003C143.807 11.0027 143.624 11.0539 143.405 11.0539C143.218 11.0539 143.052 11.0128 142.908 10.9306C142.765 10.8472 142.653 10.7239 142.57 10.5607C142.49 10.3976 142.449 10.1959 142.449 9.95559V8.10225H143.016V9.88729C143.016 10.0858 143.071 10.2439 143.181 10.3615C143.291 10.4791 143.434 10.538 143.61 10.538C143.716 10.538 143.822 10.5114 143.927 10.4583C144.033 10.4052 144.121 10.3249 144.191 10.2174C144.261 10.1099 144.296 9.97329 144.295 9.80762ZM145.626 11.016V8.10225H146.174V8.56511H146.205C146.258 8.40829 146.351 8.28499 146.485 8.1952C146.621 8.10414 146.774 8.05862 146.944 8.05862C146.98 8.05862 147.022 8.05988 147.07 8.06241C147.119 8.06494 147.158 8.0681 147.185 8.0719V8.61443C147.163 8.60811 147.122 8.60115 147.064 8.59356C147.006 8.58471 146.948 8.58028 146.889 8.58028C146.755 8.58028 146.636 8.60874 146.531 8.66565C146.427 8.72129 146.345 8.79907 146.284 8.89897C146.224 8.99762 146.193 9.11017 146.193 9.23663V11.016H145.626ZM148.828 11.0748C148.541 11.0748 148.293 11.0135 148.086 10.8908C147.88 10.7669 147.72 10.593 147.608 10.3691C147.497 10.144 147.441 9.88034 147.441 9.57809C147.441 9.27963 147.497 9.01659 147.608 8.78895C147.72 8.56131 147.877 8.38363 148.078 8.2559C148.281 8.12817 148.517 8.06431 148.788 8.06431C148.952 8.06431 149.112 8.0915 149.266 8.14588C149.42 8.20026 149.559 8.28562 149.681 8.40197C149.804 8.51832 149.901 8.66944 149.972 8.85534C150.042 9.03998 150.078 9.26446 150.078 9.52877V9.72985H147.762V9.30493H149.522C149.522 9.1557 149.492 9.02354 149.431 8.90846C149.37 8.79211 149.285 8.70042 149.175 8.6334C149.066 8.56637 148.938 8.53286 148.792 8.53286C148.632 8.53286 148.493 8.57206 148.374 8.65047C148.257 8.72761 148.166 8.82879 148.101 8.95399C148.038 9.07792 148.006 9.21261 148.006 9.35804V9.69001C148.006 9.88477 148.04 10.0504 148.109 10.187C148.178 10.3236 148.275 10.4279 148.399 10.5C148.523 10.5708 148.668 10.6062 148.833 10.6062C148.941 10.6062 149.039 10.5911 149.127 10.5607C149.216 10.5291 149.292 10.4823 149.357 10.4203C149.421 10.3584 149.471 10.2819 149.505 10.1908L150.042 10.2876C149.999 10.4456 149.922 10.5841 149.81 10.703C149.7 10.8206 149.562 10.9123 149.395 10.9781C149.229 11.0425 149.04 11.0748 148.828 11.0748ZM152.89 8.81361L152.376 8.90466C152.355 8.8389 152.321 8.7763 152.274 8.71686C152.228 8.65743 152.166 8.60874 152.088 8.5708C152.01 8.53286 151.912 8.51389 151.794 8.51389C151.633 8.51389 151.499 8.54993 151.392 8.62202C151.284 8.69284 151.231 8.78452 151.231 8.89708C151.231 8.99445 151.267 9.07286 151.339 9.1323C151.411 9.19174 151.527 9.24043 151.688 9.27837L152.151 9.3846C152.419 9.44657 152.619 9.54205 152.75 9.67104C152.882 9.80003 152.947 9.9676 152.947 10.1737C152.947 10.3483 152.897 10.5038 152.796 10.6404C152.696 10.7757 152.556 10.8819 152.376 10.9591C152.198 11.0362 151.991 11.0748 151.756 11.0748C151.43 11.0748 151.164 11.0052 150.957 10.8661C150.751 10.7258 150.625 10.5266 150.578 10.2686L151.126 10.1851C151.16 10.328 151.231 10.4362 151.337 10.5095C151.443 10.5816 151.582 10.6176 151.752 10.6176C151.938 10.6176 152.087 10.5791 152.198 10.5019C152.309 10.4235 152.365 10.328 152.365 10.2155C152.365 10.1244 152.331 10.0479 152.263 9.98594C152.196 9.92397 152.092 9.87718 151.953 9.84556L151.46 9.73743C151.188 9.67547 150.987 9.57682 150.857 9.44151C150.728 9.30619 150.663 9.13483 150.663 8.92743C150.663 8.75544 150.711 8.60494 150.808 8.47595C150.904 8.34696 151.037 8.24642 151.206 8.17433C151.375 8.10098 151.57 8.06431 151.788 8.06431C152.103 8.06431 152.351 8.1326 152.532 8.26918C152.713 8.4045 152.832 8.58597 152.89 8.81361Z" fill="#4D4D4D"/>
<path d="M165.604 8.39438H165.012C164.989 8.26792 164.947 8.15663 164.885 8.06051C164.823 7.9644 164.747 7.88283 164.657 7.8158C164.568 7.74878 164.467 7.69819 164.356 7.66405C164.246 7.6299 164.129 7.61283 164.005 7.61283C163.781 7.61283 163.581 7.66911 163.404 7.78166C163.228 7.89421 163.089 8.05925 162.986 8.27677C162.885 8.49429 162.834 8.75986 162.834 9.07349C162.834 9.38966 162.885 9.6565 162.986 9.87402C163.089 10.0915 163.228 10.2559 163.405 10.3672C163.582 10.4785 163.782 10.5342 164.003 10.5342C164.126 10.5342 164.242 10.5177 164.352 10.4848C164.463 10.4507 164.564 10.4007 164.654 10.335C164.743 10.2692 164.819 10.1889 164.881 10.0941C164.945 9.99795 164.988 9.88793 165.012 9.76399L165.604 9.76589C165.572 9.95685 165.511 10.1326 165.42 10.2932C165.33 10.4526 165.215 10.5904 165.073 10.7068C164.932 10.8219 164.772 10.911 164.591 10.9743C164.41 11.0375 164.213 11.0691 163.999 11.0691C163.663 11.0691 163.363 10.9894 163.1 10.8301C162.837 10.6695 162.63 10.4399 162.478 10.1415C162.327 9.84303 162.252 9.48703 162.252 9.07349C162.252 8.65869 162.328 8.30269 162.48 8.0055C162.631 7.70704 162.839 7.47814 163.102 7.3188C163.365 7.15819 163.664 7.07788 163.999 7.07788C164.205 7.07788 164.398 7.1076 164.576 7.16704C164.755 7.22521 164.917 7.31121 165.06 7.42503C165.202 7.53758 165.321 7.67543 165.414 7.83857C165.508 8.00044 165.571 8.18571 165.604 8.39438ZM167.487 11.0748C167.214 11.0748 166.976 11.0122 166.772 10.887C166.568 10.7618 166.41 10.5866 166.298 10.3615C166.185 10.1364 166.129 9.87338 166.129 9.5724C166.129 9.27015 166.185 9.00584 166.298 8.77946C166.41 8.55309 166.568 8.37731 166.772 8.25211C166.976 8.12691 167.214 8.06431 167.487 8.06431C167.76 8.06431 167.999 8.12691 168.202 8.25211C168.406 8.37731 168.564 8.55309 168.677 8.77946C168.789 9.00584 168.845 9.27015 168.845 9.5724C168.845 9.87338 168.789 10.1364 168.677 10.3615C168.564 10.5866 168.406 10.7618 168.202 10.887C167.999 11.0122 167.76 11.0748 167.487 11.0748ZM167.489 10.5987C167.666 10.5987 167.813 10.5519 167.929 10.4583C168.046 10.3647 168.132 10.2401 168.187 10.0846C168.244 9.92903 168.273 9.75767 168.273 9.5705C168.273 9.3846 168.244 9.21387 168.187 9.05832C168.132 8.9015 168.046 8.77567 167.929 8.68082C167.813 8.58597 167.666 8.53855 167.489 8.53855C167.311 8.53855 167.163 8.58597 167.045 8.68082C166.929 8.77567 166.842 8.9015 166.785 9.05832C166.73 9.21387 166.702 9.3846 166.702 9.5705C166.702 9.75767 166.73 9.92903 166.785 10.0846C166.842 10.2401 166.929 10.3647 167.045 10.4583C167.163 10.5519 167.311 10.5987 167.489 10.5987ZM169.479 11.016V8.10225H170.023V8.57649H170.059C170.12 8.41588 170.219 8.29068 170.357 8.20089C170.495 8.10983 170.66 8.06431 170.852 8.06431C171.047 8.06431 171.21 8.10983 171.341 8.20089C171.474 8.29194 171.572 8.41714 171.635 8.57649H171.666C171.735 8.42094 171.846 8.297 171.998 8.20468C172.15 8.1111 172.33 8.06431 172.54 8.06431C172.805 8.06431 173.02 8.14714 173.187 8.31281C173.355 8.47848 173.439 8.72825 173.439 9.06211V11.016H172.872V9.11523C172.872 8.91794 172.819 8.77504 172.711 8.68651C172.604 8.59799 172.475 8.55373 172.326 8.55373C172.141 8.55373 171.998 8.61063 171.895 8.72445C171.793 8.83701 171.742 8.98181 171.742 9.15886V11.016H171.176V9.07919C171.176 8.92111 171.127 8.79401 171.028 8.6979C170.93 8.60178 170.801 8.55373 170.643 8.55373C170.536 8.55373 170.437 8.58218 170.345 8.63909C170.256 8.69473 170.183 8.77251 170.127 8.87242C170.073 8.97232 170.046 9.08804 170.046 9.21956V11.016H169.479ZM174.2 11.016V8.10225H174.744V8.57649H174.78C174.841 8.41588 174.94 8.29068 175.078 8.20089C175.216 8.10983 175.381 8.06431 175.573 8.06431C175.768 8.06431 175.931 8.10983 176.062 8.20089C176.195 8.29194 176.293 8.41714 176.357 8.57649H176.387C176.456 8.42094 176.567 8.297 176.719 8.20468C176.871 8.1111 177.051 8.06431 177.261 8.06431C177.526 8.06431 177.741 8.14714 177.908 8.31281C178.076 8.47848 178.161 8.72825 178.161 9.06211V11.016H177.593V9.11523C177.593 8.91794 177.54 8.77504 177.432 8.68651C177.325 8.59799 177.196 8.55373 177.047 8.55373C176.862 8.55373 176.719 8.61063 176.616 8.72445C176.514 8.83701 176.463 8.98181 176.463 9.15886V11.016H175.897V9.07919C175.897 8.92111 175.848 8.79401 175.749 8.6979C175.651 8.60178 175.522 8.55373 175.364 8.55373C175.257 8.55373 175.158 8.58218 175.067 8.63909C174.977 8.69473 174.904 8.77251 174.848 8.87242C174.794 8.97232 174.767 9.08804 174.767 9.21956V11.016H174.2ZM180.766 9.80762V8.10225H181.336V11.016H180.778V10.5114H180.748C180.68 10.6669 180.573 10.7966 180.425 10.9003C180.278 11.0027 180.096 11.0539 179.877 11.0539C179.69 11.0539 179.524 11.0128 179.38 10.9306C179.237 10.8472 179.124 10.7239 179.042 10.5607C178.961 10.3976 178.921 10.1959 178.921 9.95559V8.10225H179.488V9.88729C179.488 10.0858 179.543 10.2439 179.653 10.3615C179.763 10.4791 179.906 10.538 180.082 10.538C180.188 10.538 180.294 10.5114 180.398 10.4583C180.505 10.4052 180.593 10.3249 180.662 10.2174C180.733 10.1099 180.768 9.97329 180.766 9.80762ZM182.665 9.28596V11.016H182.098V8.10225H182.642V8.57649H182.678C182.745 8.4222 182.85 8.29827 182.993 8.20468C183.137 8.1111 183.319 8.06431 183.537 8.06431C183.736 8.06431 183.91 8.10604 184.059 8.18951C184.208 8.27171 184.324 8.39438 184.406 8.55752C184.489 8.72066 184.53 8.92237 184.53 9.16265V11.016H183.962V9.23094C183.962 9.01975 183.907 8.85471 183.797 8.73583C183.687 8.61569 183.536 8.55562 183.344 8.55562C183.212 8.55562 183.095 8.58408 182.993 8.64099C182.892 8.6979 182.812 8.78136 182.752 8.89139C182.694 9.00015 182.665 9.13167 182.665 9.28596ZM185.29 11.016V8.10225H185.857V11.016H185.29ZM185.577 7.65267C185.478 7.65267 185.393 7.61978 185.323 7.55402C185.253 7.487 185.218 7.40732 185.218 7.315C185.218 7.22142 185.253 7.14175 185.323 7.07599C185.393 7.00896 185.478 6.97545 185.577 6.97545C185.675 6.97545 185.759 7.00896 185.829 7.07599C185.9 7.14175 185.935 7.22142 185.935 7.315C185.935 7.40732 185.9 7.487 185.829 7.55402C185.759 7.61978 185.675 7.65267 185.577 7.65267ZM187.981 8.10225V8.55752H186.389V8.10225H187.981ZM186.816 7.40416H187.383V10.1605C187.383 10.2705 187.4 10.3533 187.432 10.409C187.465 10.4633 187.508 10.5006 187.56 10.5209C187.613 10.5399 187.67 10.5493 187.732 10.5493C187.778 10.5493 187.818 10.5462 187.852 10.5399C187.886 10.5335 187.912 10.5285 187.931 10.5247L188.034 10.9932C188.001 11.0059 187.954 11.0185 187.893 11.0312C187.833 11.0451 187.757 11.0527 187.666 11.0539C187.517 11.0565 187.377 11.0299 187.248 10.9743C187.119 10.9186 187.015 10.8326 186.935 10.7163C186.856 10.5999 186.816 10.4539 186.816 10.2781V7.40416ZM188.967 12.1086C188.882 12.1086 188.805 12.1017 188.735 12.0878C188.666 12.0751 188.614 12.0612 188.58 12.046L188.716 11.5813C188.82 11.6091 188.912 11.6211 188.993 11.6173C189.074 11.6135 189.146 11.5832 189.208 11.5263C189.271 11.4694 189.326 11.3764 189.374 11.2474L189.445 11.0539L188.379 8.10225H188.986L189.724 10.3634H189.754L190.492 8.10225H191.101L189.9 11.4049C189.844 11.5566 189.773 11.685 189.687 11.79C189.601 11.8962 189.499 11.9759 189.38 12.029C189.261 12.0821 189.123 12.1086 188.967 12.1086Z" fill="#4D4D4D"/>
<path d="M200.041 11.016V7.131H201.464C201.739 7.131 201.968 7.17653 202.149 7.26758C202.329 7.35737 202.465 7.47941 202.555 7.6337C202.644 7.78672 202.689 7.95934 202.689 8.15157C202.689 8.31344 202.66 8.45002 202.6 8.56131C202.541 8.67134 202.461 8.75986 202.361 8.82689C202.262 8.89265 202.154 8.94071 202.035 8.97106V9.009C202.164 9.01532 202.29 9.05705 202.412 9.1342C202.536 9.21008 202.639 9.3182 202.72 9.45858C202.801 9.59896 202.841 9.76968 202.841 9.97076C202.841 10.1693 202.794 10.3476 202.701 10.5057C202.608 10.6625 202.465 10.7871 202.272 10.8794C202.078 10.9705 201.831 11.016 201.53 11.016H200.041ZM200.627 10.5133H201.473C201.754 10.5133 201.955 10.4589 202.077 10.3502C202.198 10.2414 202.259 10.1054 202.259 9.94231C202.259 9.81964 202.228 9.70708 202.166 9.60465C202.104 9.50221 202.015 9.42064 201.9 9.35994C201.786 9.29923 201.651 9.26888 201.494 9.26888H200.627V10.5133ZM200.627 8.81171H201.413C201.544 8.81171 201.662 8.78642 201.767 8.73583C201.874 8.68525 201.958 8.61443 202.02 8.52337C202.083 8.43105 202.114 8.3223 202.114 8.1971C202.114 8.03649 202.058 7.9018 201.946 7.79304C201.833 7.68428 201.66 7.6299 201.428 7.6299H200.627V8.81171ZM204.058 7.131V11.016H203.491V7.131H204.058ZM206.048 11.0748C205.775 11.0748 205.537 11.0122 205.333 10.887C205.13 10.7618 204.971 10.5866 204.859 10.3615C204.746 10.1364 204.69 9.87338 204.69 9.5724C204.69 9.27015 204.746 9.00584 204.859 8.77946C204.971 8.55309 205.13 8.37731 205.333 8.25211C205.537 8.12691 205.775 8.06431 206.048 8.06431C206.321 8.06431 206.56 8.12691 206.763 8.25211C206.967 8.37731 207.125 8.55309 207.238 8.77946C207.35 9.00584 207.407 9.27015 207.407 9.5724C207.407 9.87338 207.35 10.1364 207.238 10.3615C207.125 10.5866 206.967 10.7618 206.763 10.887C206.56 11.0122 206.321 11.0748 206.048 11.0748ZM206.05 10.5987C206.227 10.5987 206.374 10.5519 206.49 10.4583C206.607 10.3647 206.693 10.2401 206.748 10.0846C206.805 9.92903 206.834 9.75767 206.834 9.5705C206.834 9.3846 206.805 9.21387 206.748 9.05832C206.693 8.9015 206.607 8.77567 206.49 8.68082C206.374 8.58597 206.227 8.53855 206.05 8.53855C205.872 8.53855 205.724 8.58597 205.606 8.68082C205.49 8.77567 205.403 8.9015 205.346 9.05832C205.291 9.21387 205.263 9.3846 205.263 9.5705C205.263 9.75767 205.291 9.92903 205.346 10.0846C205.403 10.2401 205.49 10.3647 205.606 10.4583C205.724 10.5519 205.872 10.5987 206.05 10.5987ZM209.261 12.1693C209.03 12.1693 208.831 12.139 208.664 12.0783C208.498 12.0176 208.363 11.9373 208.258 11.8374C208.153 11.7375 208.074 11.6281 208.023 11.5092L208.51 11.3081C208.544 11.3638 208.59 11.4226 208.647 11.4845C208.705 11.5478 208.783 11.6015 208.882 11.6458C208.982 11.69 209.11 11.7122 209.267 11.7122C209.482 11.7122 209.66 11.6597 209.8 11.5547C209.94 11.451 210.011 11.2854 210.011 11.0577V10.4848H209.975C209.94 10.5468 209.891 10.6157 209.827 10.6916C209.763 10.7675 209.676 10.8332 209.565 10.8889C209.454 10.9445 209.309 10.9724 209.13 10.9724C208.9 10.9724 208.693 10.9186 208.508 10.8111C208.325 10.7024 208.179 10.5424 208.072 10.3312C207.966 10.1187 207.913 9.85758 207.913 9.54774C207.913 9.2379 207.965 8.97232 208.07 8.75101C208.176 8.5297 208.322 8.36023 208.506 8.24262C208.691 8.12375 208.9 8.06431 209.134 8.06431C209.315 8.06431 209.461 8.09466 209.572 8.15536C209.684 8.2148 209.77 8.28436 209.832 8.36403C209.896 8.4437 209.944 8.51389 209.978 8.57459H210.02V8.10225H210.576V11.0805C210.576 11.3309 210.518 11.5364 210.401 11.697C210.285 11.8576 210.128 11.9765 209.929 12.0536C209.732 12.1308 209.509 12.1693 209.261 12.1693ZM209.256 10.5019C209.419 10.5019 209.557 10.464 209.669 10.3881C209.783 10.311 209.869 10.2009 209.927 10.058C209.987 9.91385 210.016 9.74123 210.016 9.54015C210.016 9.34413 209.987 9.17151 209.929 9.02228C209.871 8.87305 209.785 8.7567 209.673 8.67323C209.56 8.5885 209.421 8.54614 209.256 8.54614C209.085 8.54614 208.943 8.5904 208.829 8.67893C208.715 8.76619 208.629 8.88506 208.571 9.03556C208.514 9.18605 208.485 9.35425 208.485 9.54015C208.485 9.73111 208.515 9.89868 208.573 10.0428C208.631 10.187 208.717 10.2996 208.831 10.3805C208.946 10.4614 209.087 10.5019 209.256 10.5019Z" fill="#4D4D4D"/>
<path d="M220.054 11.016V7.131H221.439C221.741 7.131 221.991 7.18601 222.19 7.29603C222.388 7.40606 222.537 7.55655 222.636 7.74751C222.734 7.93721 222.784 8.15094 222.784 8.38869C222.784 8.62771 222.734 8.8427 222.634 9.03366C222.535 9.22336 222.386 9.37385 222.186 9.48514C221.988 9.59516 221.738 9.65017 221.437 9.65017H220.484V9.15317H221.384C221.575 9.15317 221.73 9.12029 221.848 9.05453C221.967 8.9875 222.055 8.89644 222.11 8.78136C222.166 8.66628 222.194 8.53539 222.194 8.38869C222.194 8.24199 222.166 8.11173 222.11 7.99791C222.055 7.8841 221.967 7.79494 221.847 7.73044C221.728 7.66594 221.571 7.6337 221.376 7.6337H220.64V11.016H220.054ZM223.425 11.016V8.10225H223.973V8.56511H224.004C224.057 8.40829 224.151 8.28499 224.285 8.1952C224.42 8.10414 224.573 8.05862 224.744 8.05862C224.779 8.05862 224.821 8.05988 224.869 8.06241C224.918 8.06494 224.957 8.0681 224.985 8.0719V8.61443C224.962 8.60811 224.921 8.60115 224.863 8.59356C224.805 8.58471 224.747 8.58028 224.689 8.58028C224.555 8.58028 224.435 8.60874 224.33 8.66565C224.226 8.72129 224.144 8.79907 224.084 8.89897C224.023 8.99762 223.992 9.11017 223.992 9.23663V11.016H223.425ZM225.475 11.016V8.10225H226.043V11.016H225.475ZM225.762 7.65267C225.663 7.65267 225.578 7.61978 225.508 7.55402C225.438 7.487 225.403 7.40732 225.403 7.315C225.403 7.22142 225.438 7.14175 225.508 7.07599C225.578 7.00896 225.663 6.97545 225.762 6.97545C225.861 6.97545 225.945 7.00896 226.014 7.07599C226.085 7.14175 226.12 7.22142 226.12 7.315C226.12 7.40732 226.085 7.487 226.014 7.55402C225.945 7.61978 225.861 7.65267 225.762 7.65267ZM228.033 11.0748C227.751 11.0748 227.508 11.0109 227.305 10.8832C227.102 10.7542 226.947 10.5765 226.838 10.3502C226.729 10.1238 226.675 9.86453 226.675 9.5724C226.675 9.27647 226.73 9.01532 226.842 8.78895C226.953 8.56131 227.11 8.38363 227.312 8.2559C227.514 8.12817 227.753 8.06431 228.027 8.06431C228.249 8.06431 228.446 8.10541 228.619 8.18761C228.792 8.26855 228.932 8.38237 229.038 8.52906C229.146 8.67576 229.21 8.84712 229.23 9.04314H228.678C228.648 8.90656 228.578 8.78895 228.469 8.69031C228.362 8.59166 228.218 8.54234 228.037 8.54234C227.879 8.54234 227.74 8.58408 227.621 8.66754C227.504 8.74975 227.412 8.86736 227.346 9.02038C227.281 9.17214 227.248 9.35172 227.248 9.55912C227.248 9.77158 227.28 9.95495 227.344 10.1092C227.409 10.2635 227.5 10.383 227.618 10.4678C227.736 10.5525 227.876 10.5949 228.037 10.5949C228.144 10.5949 228.242 10.5753 228.329 10.5361C228.417 10.4956 228.491 10.438 228.551 10.3634C228.612 10.2888 228.654 10.199 228.678 10.0941H229.23C229.21 10.2825 229.148 10.4507 229.046 10.5987C228.944 10.7466 228.806 10.863 228.634 10.9477C228.464 11.0324 228.263 11.0748 228.033 11.0748ZM229.837 11.016V8.10225H230.404V11.016H229.837ZM230.123 7.65267C230.024 7.65267 229.94 7.61978 229.869 7.55402C229.799 7.487 229.764 7.40732 229.764 7.315C229.764 7.22142 229.799 7.14175 229.869 7.07599C229.94 7.00896 230.024 6.97545 230.123 6.97545C230.222 6.97545 230.306 7.00896 230.375 7.07599C230.446 7.14175 230.482 7.22142 230.482 7.315C230.482 7.40732 230.446 7.487 230.375 7.55402C230.306 7.61978 230.222 7.65267 230.123 7.65267ZM231.734 9.28596V11.016H231.167V8.10225H231.711V8.57649H231.747C231.814 8.4222 231.919 8.29827 232.062 8.20468C232.206 8.1111 232.388 8.06431 232.607 8.06431C232.805 8.06431 232.979 8.10604 233.128 8.18951C233.277 8.27171 233.393 8.39438 233.475 8.55752C233.558 8.72066 233.599 8.92237 233.599 9.16265V11.016H233.032V9.23094C233.032 9.01975 232.977 8.85471 232.866 8.73583C232.756 8.61569 232.605 8.55562 232.413 8.55562C232.282 8.55562 232.165 8.58408 232.062 8.64099C231.961 8.6979 231.881 8.78136 231.821 8.89139C231.763 9.00015 231.734 9.13167 231.734 9.28596ZM235.581 12.1693C235.35 12.1693 235.15 12.139 234.983 12.0783C234.818 12.0176 234.683 11.9373 234.578 11.8374C234.473 11.7375 234.394 11.6281 234.342 11.5092L234.83 11.3081C234.864 11.3638 234.91 11.4226 234.966 11.4845C235.025 11.5478 235.103 11.6015 235.202 11.6458C235.302 11.69 235.43 11.7122 235.587 11.7122C235.802 11.7122 235.979 11.6597 236.12 11.5547C236.26 11.451 236.33 11.2854 236.33 11.0577V10.4848H236.294C236.26 10.5468 236.211 10.6157 236.146 10.6916C236.083 10.7675 235.996 10.8332 235.885 10.8889C235.773 10.9445 235.628 10.9724 235.45 10.9724C235.22 10.9724 235.013 10.9186 234.828 10.8111C234.645 10.7024 234.499 10.5424 234.392 10.3312C234.285 10.1187 234.232 9.85758 234.232 9.54774C234.232 9.2379 234.285 8.97232 234.39 8.75101C234.496 8.5297 234.641 8.36023 234.826 8.24262C235.011 8.12375 235.22 8.06431 235.454 8.06431C235.635 8.06431 235.781 8.09466 235.892 8.15536C236.003 8.2148 236.09 8.28436 236.152 8.36403C236.215 8.4437 236.264 8.51389 236.298 8.57459H236.34V8.10225H236.896V11.0805C236.896 11.3309 236.837 11.5364 236.721 11.697C236.605 11.8576 236.447 11.9765 236.249 12.0536C236.051 12.1308 235.829 12.1693 235.581 12.1693ZM235.575 10.5019C235.738 10.5019 235.876 10.464 235.989 10.3881C236.103 10.311 236.189 10.2009 236.247 10.058C236.306 9.91385 236.336 9.74123 236.336 9.54015C236.336 9.34413 236.307 9.17151 236.249 9.02228C236.191 8.87305 236.105 8.7567 235.993 8.67323C235.88 8.5885 235.741 8.54614 235.575 8.54614C235.405 8.54614 235.262 8.5904 235.149 8.67893C235.035 8.76619 234.949 8.88506 234.891 9.03556C234.834 9.18605 234.805 9.35425 234.805 9.54015C234.805 9.73111 234.834 9.89868 234.892 10.0428C234.951 10.187 235.037 10.2996 235.15 10.3805C235.266 10.4614 235.407 10.5019 235.575 10.5019Z" fill="#4D4D4D"/>
<rect x="248.311" y="0.341858" width="64.3803" height="18.3483" rx="1.33547" fill="#4CAF4F"/>
<path d="M259.863 11.016V7.131H261.248C261.549 7.131 261.798 7.18285 261.997 7.28655C262.197 7.39025 262.346 7.53379 262.445 7.71716C262.543 7.89927 262.593 8.10983 262.593 8.34885C262.593 8.58661 262.543 8.79591 262.443 8.97675C262.344 9.15633 262.195 9.29607 261.995 9.39598C261.796 9.49589 261.547 9.54584 261.246 9.54584H260.197V9.04125H261.193C261.382 9.04125 261.537 9.01406 261.655 8.95968C261.776 8.9053 261.864 8.82626 261.919 8.72256C261.975 8.61885 262.003 8.49429 262.003 8.34885C262.003 8.20215 261.974 8.07506 261.917 7.96756C261.862 7.86007 261.774 7.77787 261.654 7.72096C261.535 7.66278 261.379 7.6337 261.185 7.6337H260.449V11.016H259.863ZM261.781 9.26319L262.741 11.016H262.073L261.132 9.26319H261.781ZM264.48 11.0748C264.193 11.0748 263.945 11.0135 263.738 10.8908C263.532 10.7669 263.372 10.593 263.26 10.3691C263.149 10.144 263.093 9.88034 263.093 9.57809C263.093 9.27963 263.149 9.01659 263.26 8.78895C263.372 8.56131 263.529 8.38363 263.73 8.2559C263.933 8.12817 264.169 8.06431 264.44 8.06431C264.604 8.06431 264.764 8.0915 264.918 8.14588C265.072 8.20026 265.211 8.28562 265.333 8.40197C265.456 8.51832 265.553 8.66944 265.623 8.85534C265.694 9.03998 265.73 9.26446 265.73 9.52877V9.72985H263.413V9.30493H265.174C265.174 9.1557 265.144 9.02354 265.083 8.90846C265.022 8.79211 264.937 8.70042 264.827 8.6334C264.718 8.56637 264.59 8.53286 264.444 8.53286C264.284 8.53286 264.145 8.57206 264.026 8.65047C263.909 8.72761 263.818 8.82879 263.753 8.95399C263.69 9.07792 263.658 9.21261 263.658 9.35804V9.69001C263.658 9.88477 263.692 10.0504 263.761 10.187C263.83 10.3236 263.927 10.4279 264.051 10.5C264.175 10.5708 264.32 10.6062 264.485 10.6062C264.593 10.6062 264.691 10.5911 264.779 10.5607C264.868 10.5291 264.944 10.4823 265.009 10.4203C265.073 10.3584 265.123 10.2819 265.157 10.1908L265.694 10.2876C265.651 10.4456 265.574 10.5841 265.462 10.703C265.352 10.8206 265.214 10.9123 265.047 10.9781C264.881 11.0425 264.692 11.0748 264.48 11.0748ZM267.581 12.1693C267.349 12.1693 267.15 12.139 266.983 12.0783C266.817 12.0176 266.682 11.9373 266.577 11.8374C266.472 11.7375 266.394 11.6281 266.342 11.5092L266.829 11.3081C266.864 11.3638 266.909 11.4226 266.966 11.4845C267.024 11.5478 267.103 11.6015 267.201 11.6458C267.301 11.69 267.43 11.7122 267.586 11.7122C267.801 11.7122 267.979 11.6597 268.119 11.5547C268.26 11.451 268.33 11.2854 268.33 11.0577V10.4848H268.294C268.26 10.5468 268.21 10.6157 268.146 10.6916C268.083 10.7675 267.995 10.8332 267.884 10.8889C267.773 10.9445 267.628 10.9724 267.45 10.9724C267.22 10.9724 267.012 10.9186 266.828 10.8111C266.644 10.7024 266.499 10.5424 266.391 10.3312C266.285 10.1187 266.232 9.85758 266.232 9.54774C266.232 9.2379 266.284 8.97232 266.389 8.75101C266.496 8.5297 266.641 8.36023 266.826 8.24262C267.01 8.12375 267.22 8.06431 267.454 8.06431C267.634 8.06431 267.78 8.09466 267.892 8.15536C268.003 8.2148 268.09 8.28436 268.152 8.36403C268.215 8.4437 268.264 8.51389 268.298 8.57459H268.339V8.10225H268.895V11.0805C268.895 11.3309 268.837 11.5364 268.721 11.697C268.604 11.8576 268.447 11.9765 268.248 12.0536C268.051 12.1308 267.829 12.1693 267.581 12.1693ZM267.575 10.5019C267.738 10.5019 267.876 10.464 267.989 10.3881C268.102 10.311 268.188 10.2009 268.247 10.058C268.306 9.91385 268.336 9.74123 268.336 9.54015C268.336 9.34413 268.307 9.17151 268.248 9.02228C268.19 8.87305 268.105 8.7567 267.992 8.67323C267.88 8.5885 267.741 8.54614 267.575 8.54614C267.404 8.54614 267.262 8.5904 267.148 8.67893C267.034 8.76619 266.948 8.88506 266.89 9.03556C266.833 9.18605 266.805 9.35425 266.805 9.54015C266.805 9.73111 266.834 9.89868 266.892 10.0428C266.95 10.187 267.036 10.2996 267.15 10.3805C267.265 10.4614 267.407 10.5019 267.575 10.5019ZM269.656 11.016V8.10225H270.223V11.016H269.656ZM269.942 7.65267C269.844 7.65267 269.759 7.61978 269.688 7.55402C269.619 7.487 269.584 7.40732 269.584 7.315C269.584 7.22142 269.619 7.14175 269.688 7.07599C269.759 7.00896 269.844 6.97545 269.942 6.97545C270.041 6.97545 270.125 7.00896 270.195 7.07599C270.266 7.14175 270.301 7.22142 270.301 7.315C270.301 7.40732 270.266 7.487 270.195 7.55402C270.125 7.61978 270.041 7.65267 269.942 7.65267ZM273.17 8.81361L272.656 8.90466C272.634 8.8389 272.6 8.7763 272.553 8.71686C272.508 8.65743 272.446 8.60874 272.367 8.5708C272.289 8.53286 272.191 8.51389 272.073 8.51389C271.913 8.51389 271.778 8.54993 271.671 8.62202C271.564 8.69284 271.51 8.78452 271.51 8.89708C271.51 8.99445 271.546 9.07286 271.618 9.1323C271.69 9.19174 271.806 9.24043 271.967 9.27837L272.43 9.3846C272.698 9.44657 272.898 9.54205 273.029 9.67104C273.161 9.80003 273.227 9.9676 273.227 10.1737C273.227 10.3483 273.176 10.5038 273.075 10.6404C272.975 10.7757 272.835 10.8819 272.656 10.9591C272.477 11.0362 272.27 11.0748 272.035 11.0748C271.709 11.0748 271.443 11.0052 271.237 10.8661C271.03 10.7258 270.904 10.5266 270.857 10.2686L271.405 10.1851C271.44 10.328 271.51 10.4362 271.616 10.5095C271.722 10.5816 271.861 10.6176 272.031 10.6176C272.217 10.6176 272.366 10.5791 272.477 10.5019C272.589 10.4235 272.644 10.328 272.644 10.2155C272.644 10.1244 272.61 10.0479 272.542 9.98594C272.475 9.92397 272.372 9.87718 272.233 9.84556L271.739 9.73743C271.467 9.67547 271.266 9.57682 271.136 9.44151C271.007 9.30619 270.943 9.13483 270.943 8.92743C270.943 8.75544 270.991 8.60494 271.087 8.47595C271.183 8.34696 271.316 8.24642 271.485 8.17433C271.655 8.10098 271.849 8.06431 272.067 8.06431C272.382 8.06431 272.63 8.1326 272.811 8.26918C272.992 8.4045 273.111 8.58597 273.17 8.81361ZM275.21 8.10225V8.55752H273.619V8.10225H275.21ZM274.046 7.40416H274.613V10.1605C274.613 10.2705 274.629 10.3533 274.662 10.409C274.695 10.4633 274.737 10.5006 274.789 10.5209C274.842 10.5399 274.9 10.5493 274.962 10.5493C275.007 10.5493 275.047 10.5462 275.081 10.5399C275.115 10.5335 275.142 10.5285 275.161 10.5247L275.263 10.9932C275.231 11.0059 275.184 11.0185 275.123 11.0312C275.062 11.0451 274.986 11.0527 274.895 11.0539C274.746 11.0565 274.607 11.0299 274.478 10.9743C274.349 10.9186 274.245 10.8326 274.165 10.7163C274.085 10.5999 274.046 10.4539 274.046 10.2781V7.40416ZM277.062 11.0748C276.775 11.0748 276.528 11.0135 276.32 10.8908C276.114 10.7669 275.955 10.593 275.842 10.3691C275.731 10.144 275.676 9.88034 275.676 9.57809C275.676 9.27963 275.731 9.01659 275.842 8.78895C275.955 8.56131 276.112 8.38363 276.313 8.2559C276.515 8.12817 276.752 8.06431 277.022 8.06431C277.187 8.06431 277.346 8.0915 277.5 8.14588C277.655 8.20026 277.793 8.28562 277.916 8.40197C278.038 8.51832 278.135 8.66944 278.206 8.85534C278.277 9.03998 278.312 9.26446 278.312 9.52877V9.72985H275.996V9.30493H277.756C277.756 9.1557 277.726 9.02354 277.665 8.90846C277.605 8.79211 277.519 8.70042 277.409 8.6334C277.301 8.56637 277.173 8.53286 277.026 8.53286C276.867 8.53286 276.728 8.57206 276.609 8.65047C276.491 8.72761 276.4 8.82879 276.336 8.95399C276.272 9.07792 276.241 9.21261 276.241 9.35804V9.69001C276.241 9.88477 276.275 10.0504 276.343 10.187C276.413 10.3236 276.51 10.4279 276.633 10.5C276.757 10.5708 276.902 10.6062 277.068 10.6062C277.175 10.6062 277.273 10.5911 277.362 10.5607C277.45 10.5291 277.527 10.4823 277.591 10.4203C277.656 10.3584 277.705 10.2819 277.739 10.1908L278.276 10.2876C278.233 10.4456 278.156 10.5841 278.045 10.703C277.935 10.8206 277.796 10.9123 277.629 10.9781C277.464 11.0425 277.275 11.0748 277.062 11.0748ZM278.942 11.016V8.10225H279.49V8.56511H279.52C279.573 8.40829 279.667 8.28499 279.801 8.1952C279.936 8.10414 280.089 8.05862 280.26 8.05862C280.295 8.05862 280.337 8.05988 280.385 8.06241C280.435 8.06494 280.473 8.0681 280.501 8.0719V8.61443C280.478 8.60811 280.438 8.60115 280.38 8.59356C280.321 8.58471 280.263 8.58028 280.205 8.58028C280.071 8.58028 279.951 8.60874 279.846 8.66565C279.743 8.72129 279.661 8.79907 279.6 8.89897C279.539 8.99762 279.509 9.11017 279.509 9.23663V11.016H278.942ZM285.587 7.131V11.016H285.048L283.073 8.16674H283.037V11.016H282.451V7.131H282.994L284.97 9.98404H285.006V7.131H285.587ZM287.624 11.0748C287.35 11.0748 287.112 11.0122 286.908 10.887C286.705 10.7618 286.547 10.5866 286.434 10.3615C286.322 10.1364 286.265 9.87338 286.265 9.5724C286.265 9.27015 286.322 9.00584 286.434 8.77946C286.547 8.55309 286.705 8.37731 286.908 8.25211C287.112 8.12691 287.35 8.06431 287.624 8.06431C287.897 8.06431 288.135 8.12691 288.339 8.25211C288.542 8.37731 288.7 8.55309 288.813 8.77946C288.926 9.00584 288.982 9.27015 288.982 9.5724C288.982 9.87338 288.926 10.1364 288.813 10.3615C288.7 10.5866 288.542 10.7618 288.339 10.887C288.135 11.0122 287.897 11.0748 287.624 11.0748ZM287.625 10.5987C287.803 10.5987 287.949 10.5519 288.066 10.4583C288.182 10.3647 288.268 10.2401 288.324 10.0846C288.38 9.92903 288.409 9.75767 288.409 9.5705C288.409 9.3846 288.38 9.21387 288.324 9.05832C288.268 8.9015 288.182 8.77567 288.066 8.68082C287.949 8.58597 287.803 8.53855 287.625 8.53855C287.447 8.53855 287.299 8.58597 287.182 8.68082C287.065 8.77567 286.979 8.9015 286.922 9.05832C286.866 9.21387 286.838 9.3846 286.838 9.5705C286.838 9.75767 286.866 9.92903 286.922 10.0846C286.979 10.2401 287.065 10.3647 287.182 10.4583C287.299 10.5519 287.447 10.5987 287.625 10.5987ZM290.158 11.016L289.3 8.10225H289.887L290.458 10.242H290.486L291.059 8.10225H291.645L292.214 10.2325H292.243L292.81 8.10225H293.396L292.541 11.016H291.962L291.37 8.91225H291.326L290.735 11.016H290.158Z" fill="white"/>
<path d="M300.422 10.5176L301.246 9.69308C301.344 9.59529 301.344 9.43674 301.246 9.33895L300.422 8.51439M301.173 9.51601L297.5 9.51601" stroke="white" stroke-width="0.367253" stroke-linecap="round"/>
</svg>
