<svg width="59" height="12" viewBox="0 0 59 12" fill="none" xmlns="http://www.w3.org/2000/svg">
<g clip-path="url(#clip0_75_107)">
<path opacity="0.1" fill-rule="evenodd" clip-rule="evenodd" d="M0.0879517 5.72724C0.0879517 2.77701 2.47959 0.385376 5.42982 0.385376C8.38005 0.385376 10.7717 2.77701 10.7717 5.72724C10.7717 8.67747 8.38005 11.0691 5.42982 11.0691C2.47959 11.0691 0.0879517 8.67747 0.0879517 5.72724Z" fill="white"/>
<path fill-rule="evenodd" clip-rule="evenodd" d="M5.43009 2.87823C4.65634 2.87823 4.55924 2.88162 4.25534 2.89545C3.95204 2.90934 3.74501 2.95735 3.56386 3.02781C3.37648 3.10058 3.21752 3.19792 3.05917 3.35634C2.90069 3.51469 2.80335 3.67365 2.73034 3.86097C2.65971 4.04218 2.61163 4.24927 2.59798 4.55245C2.58439 4.85635 2.58083 4.95351 2.58083 5.72726C2.58083 6.50101 2.58427 6.59781 2.59804 6.90171C2.61199 7.20501 2.66 7.41204 2.7304 7.59319C2.80323 7.78057 2.90057 7.93953 3.05899 8.09788C3.21729 8.25636 3.37624 8.35394 3.5635 8.42671C3.74477 8.49716 3.95186 8.54518 4.2551 8.55907C4.559 8.5729 4.65604 8.57628 5.42973 8.57628C6.20354 8.57628 6.30035 8.5729 6.60424 8.55907C6.90754 8.54518 7.11481 8.49716 7.29608 8.42671C7.4834 8.35394 7.64212 8.25636 7.80042 8.09788C7.95889 7.93953 8.05623 7.78057 8.12924 7.59325C8.19928 7.41204 8.24736 7.20495 8.2616 6.90177C8.27525 6.59787 8.27881 6.50101 8.27881 5.72726C8.27881 4.95351 8.27525 4.85641 8.2616 4.55251C8.24736 4.24921 8.19928 4.04218 8.12924 3.86103C8.05623 3.67365 7.95889 3.51469 7.80042 3.35634C7.64194 3.19786 7.48346 3.10052 7.2959 3.02781C7.11428 2.95735 6.90713 2.90934 6.60383 2.89545C6.29993 2.88162 6.20318 2.87823 5.4292 2.87823H5.43009ZM5.17449 3.39164C5.25035 3.39153 5.33499 3.39164 5.43008 3.39164C6.19076 3.39164 6.28092 3.39438 6.58132 3.40803C6.8591 3.42073 7.00986 3.46714 7.11029 3.50614C7.24324 3.55778 7.33803 3.61951 7.43769 3.71922C7.5374 3.81894 7.59913 3.91391 7.65089 4.04686C7.68989 4.14717 7.73636 4.29793 7.749 4.57571C7.76265 4.87605 7.76562 4.96627 7.76562 5.7266C7.76562 6.48693 7.76265 6.57715 7.749 6.87749C7.7363 7.15527 7.68989 7.30603 7.65089 7.40634C7.59925 7.53929 7.5374 7.63396 7.43769 7.73362C7.33797 7.83333 7.2433 7.89506 7.11029 7.9467C7.00998 7.98587 6.8591 8.03217 6.58132 8.04487C6.28098 8.05852 6.19076 8.06149 5.43008 8.06149C4.66933 8.06149 4.57917 8.05852 4.27883 8.04487C4.00105 8.03205 3.85029 7.98564 3.7498 7.94664C3.61685 7.895 3.52188 7.83327 3.42217 7.73356C3.32245 7.63384 3.26072 7.53911 3.20896 7.4061C3.16997 7.30579 3.12349 7.15503 3.11085 6.87725C3.0972 6.57691 3.09447 6.48669 3.09447 5.72589C3.09447 4.96508 3.0972 4.87533 3.11085 4.575C3.12355 4.29722 3.16997 4.14646 3.20896 4.04603C3.2606 3.91308 3.32245 3.81811 3.42217 3.71839C3.52188 3.61868 3.61685 3.55695 3.7498 3.50519C3.85023 3.46602 4.00105 3.41972 4.27883 3.40696C4.54165 3.39509 4.64351 3.39153 5.17449 3.39093V3.39164ZM6.95086 3.8647C6.76211 3.8647 6.60898 4.01766 6.60898 4.20647C6.60898 4.39521 6.76211 4.54835 6.95086 4.54835C7.13961 4.54835 7.29275 4.39521 7.29275 4.20647C7.29275 4.01772 7.13961 3.8647 6.95086 3.8647ZM5.43009 4.26416C4.6221 4.26416 3.967 4.91926 3.967 5.72725C3.967 6.53525 4.6221 7.19005 5.43009 7.19005C6.23809 7.19005 6.89295 6.53525 6.89295 5.72725C6.89295 4.91926 6.23809 4.26416 5.43009 4.26416ZM5.43008 4.77758C5.95454 4.77758 6.37976 5.20273 6.37976 5.72725C6.37976 6.25171 5.95454 6.67693 5.43008 6.67693C4.90556 6.67693 4.48041 6.25171 4.48041 5.72725C4.48041 5.20273 4.90556 4.77758 5.43008 4.77758Z" fill="white"/>
<path opacity="0.1" fill-rule="evenodd" clip-rule="evenodd" d="M16.1135 5.72724C16.1135 2.77701 18.5052 0.385376 21.4554 0.385376C24.4056 0.385376 26.7973 2.77701 26.7973 5.72724C26.7973 8.67747 24.4056 11.0691 21.4554 11.0691C18.5052 11.0691 16.1135 8.67747 16.1135 5.72724Z" fill="white"/>
<path fill-rule="evenodd" clip-rule="evenodd" d="M24.3044 5.72328C24.3044 5.91595 24.2848 6.10836 24.2463 6.29591C24.2087 6.479 24.153 6.65876 24.0802 6.83059C24.0089 6.99939 23.9206 7.16205 23.8174 7.31375C23.7157 7.46448 23.5985 7.6059 23.4698 7.73481C23.3409 7.86317 23.199 7.97999 23.0483 8.08211C22.8961 8.18462 22.7332 8.27283 22.5643 8.34438C22.3922 8.4169 22.2121 8.47246 22.0291 8.50996C21.8413 8.54859 21.6482 8.56831 21.4553 8.56831C21.2622 8.56831 21.0691 8.54859 20.8816 8.50996C20.6983 8.47246 20.5182 8.4169 20.3462 8.34438C20.1773 8.27283 20.0143 8.18462 19.8621 8.08211C19.7114 7.98 19.5695 7.86317 19.4409 7.73481C19.312 7.6059 19.1949 7.46448 19.0931 7.31375C18.9904 7.16205 18.9019 6.99938 18.8304 6.83059C18.7575 6.65876 18.7017 6.47899 18.664 6.29591C18.6259 6.10836 18.6064 5.91595 18.6064 5.72328C18.6064 5.53046 18.6259 5.33765 18.664 5.15051C18.7017 4.96741 18.7575 4.78738 18.8304 4.61582C18.9019 4.4469 18.9904 4.28409 19.0931 4.13239C19.1949 3.98153 19.312 3.84038 19.4409 3.71132C19.5695 3.58296 19.7114 3.46642 19.8621 3.36445C20.0143 3.26151 20.1774 3.17331 20.3462 3.10162C20.5182 3.02895 20.6983 2.97325 20.8816 2.93603C21.0691 2.89769 21.2622 2.87823 21.4553 2.87823C21.6482 2.87823 21.8413 2.89769 22.0291 2.93603C22.2121 2.97326 22.3922 3.02896 22.5643 3.10162C22.7332 3.17329 22.8961 3.26151 23.0483 3.36445C23.199 3.46642 23.3409 3.58296 23.4699 3.71132C23.5985 3.84038 23.7157 3.98153 23.8174 4.13239C23.9206 4.28409 24.0089 4.44691 24.0802 4.61582C24.153 4.78738 24.2087 4.96741 24.2463 5.15051C24.2848 5.33765 24.3044 5.53046 24.3044 5.72328ZM20.4172 3.52573C19.7387 3.84566 19.2323 4.46996 19.0744 5.22234C19.1385 5.22289 20.1524 5.23568 21.3206 4.92574C20.8995 4.17864 20.4496 3.56894 20.4172 3.52573ZM21.5222 5.29986C20.2694 5.67437 19.0673 5.64742 19.0242 5.64576C19.0235 5.67188 19.0222 5.69715 19.0222 5.72328C19.0222 6.34742 19.258 6.91643 19.6456 7.34667C19.6448 7.34541 20.3106 6.16587 21.6236 5.74189C21.6553 5.73134 21.6876 5.72188 21.7196 5.71272C21.6585 5.57464 21.5919 5.43628 21.5222 5.29986ZM23.0621 3.89984C22.6337 3.52267 22.0713 3.29389 21.4553 3.29389C21.2576 3.29389 21.0657 3.31778 20.882 3.36196C20.9184 3.41086 21.3754 4.01626 21.7915 4.77918C22.7096 4.43551 23.0561 3.90873 23.0621 3.89984ZM21.8854 6.1153C21.88 6.1171 21.8746 6.11864 21.8693 6.12058C20.4338 6.62031 19.965 7.6274 19.9599 7.6384C20.3729 7.95915 20.891 8.15267 21.4553 8.15267C21.7922 8.15267 22.1132 8.08417 22.4052 7.96013C22.3691 7.74786 22.2278 7.00382 21.8854 6.1153ZM22.8149 7.73814C23.3612 7.37001 23.7492 6.78545 23.8574 6.10834C23.8073 6.09223 23.1266 5.87704 22.3413 6.00277C22.6604 6.87852 22.7901 7.59173 22.8149 7.73814ZM21.9788 5.14121C22.0353 5.25707 22.0899 5.37499 22.1404 5.4935C22.1584 5.53602 22.1759 5.5777 22.193 5.61936C23.0288 5.51434 23.8523 5.69104 23.8875 5.69826C23.8819 5.12231 23.6756 4.59373 23.3342 4.1799C23.3296 4.18641 22.9394 4.74945 21.9788 5.14121Z" fill="white"/>
<path opacity="0.1" fill-rule="evenodd" clip-rule="evenodd" d="M32.1391 5.72724C32.1391 2.77701 34.5308 0.385376 37.481 0.385376C40.4312 0.385376 42.8229 2.77701 42.8229 5.72724C42.8229 8.67747 40.4312 11.0691 37.481 11.0691C34.5308 11.0691 32.1391 8.67747 32.1391 5.72724Z" fill="white"/>
<path fill-rule="evenodd" clip-rule="evenodd" d="M37.321 4.72727L37.3322 4.91211L37.1454 4.88948C36.4654 4.80271 35.8712 4.50848 35.3668 4.01431L35.1202 3.76912L35.0567 3.95018C34.9222 4.35382 35.0081 4.78008 35.2883 5.06677C35.4378 5.22521 35.4042 5.24784 35.1464 5.15353C35.0567 5.12336 34.9782 5.10072 34.9707 5.11204C34.9446 5.13845 35.0343 5.48172 35.1053 5.61752C35.2024 5.80614 35.4004 5.99098 35.6172 6.10037L35.8003 6.18713L35.5835 6.19091C35.3743 6.19091 35.3668 6.19468 35.3892 6.2739C35.464 6.51909 35.7592 6.77938 36.088 6.89255L36.3196 6.97176L36.1179 7.09247C35.8189 7.266 35.4677 7.36408 35.1165 7.37162C34.9483 7.37539 34.8101 7.39048 34.8101 7.4018C34.8101 7.43952 35.2659 7.65077 35.5312 7.73376C36.3271 7.97895 37.2724 7.87333 37.9824 7.45461C38.4868 7.1566 38.9912 6.56436 39.2266 5.99098C39.3537 5.68542 39.4807 5.12713 39.4807 4.8593C39.4807 4.68577 39.4919 4.66314 39.7012 4.45567C39.8245 4.33496 39.9403 4.20293 39.9627 4.1652C40.0001 4.09353 39.9964 4.09353 39.8058 4.15766C39.4882 4.27083 39.4434 4.25574 39.6003 4.08599C39.7161 3.96527 39.8544 3.74648 39.8544 3.68235C39.8544 3.67104 39.7983 3.6899 39.7348 3.72385C39.6676 3.76157 39.5181 3.81816 39.406 3.85211L39.2042 3.91623L39.0211 3.79175C38.9203 3.72385 38.7783 3.6484 38.7035 3.62577C38.513 3.57296 38.2215 3.5805 38.0496 3.64086C37.5826 3.81061 37.2874 4.24819 37.321 4.72727Z" fill="white"/>
<path opacity="0.1" fill-rule="evenodd" clip-rule="evenodd" d="M48.1647 5.72724C48.1647 2.77701 50.5564 0.385376 53.5066 0.385376C56.4568 0.385376 58.8485 2.77701 58.8485 5.72724C58.8485 8.67747 56.4568 11.0691 53.5066 11.0691C50.5564 11.0691 48.1647 8.67747 48.1647 5.72724Z" fill="white"/>
<path fill-rule="evenodd" clip-rule="evenodd" d="M55.7327 3.89082C55.9779 3.9581 56.171 4.15633 56.2365 4.40807C56.3556 4.86431 56.3556 5.81627 56.3556 5.81627C56.3556 5.81627 56.3556 6.76819 56.2365 7.22447C56.171 7.47621 55.9779 7.67444 55.7327 7.74175C55.2884 7.86398 53.5066 7.86398 53.5066 7.86398C53.5066 7.86398 51.7248 7.86398 51.2804 7.74175C51.0353 7.67444 50.8422 7.47621 50.7767 7.22447C50.6576 6.76819 50.6576 5.81627 50.6576 5.81627C50.6576 5.81627 50.6576 4.86431 50.7767 4.40807C50.8422 4.15633 51.0353 3.9581 51.2804 3.89082C51.7248 3.76855 53.5066 3.76855 53.5066 3.76855C53.5066 3.76855 55.2884 3.76855 55.7327 3.89082ZM52.9724 5.01497V6.79559L54.3969 5.90532L52.9724 5.01497Z" fill="white"/>
</g>
<defs>
<clipPath id="clip0_75_107">
<rect width="58.7605" height="10.6837" fill="white" transform="translate(0.0879517 0.385376)"/>
</clipPath>
</defs>
</svg>
