<svg width="11" height="12" viewBox="0 0 11 12" fill="none" xmlns="http://www.w3.org/2000/svg">
<path opacity="0.1" fill-rule="evenodd" clip-rule="evenodd" d="M0.164734 5.72724C0.164734 2.77701 2.55637 0.385376 5.5066 0.385376C8.45683 0.385376 10.8485 2.77701 10.8485 5.72724C10.8485 8.67747 8.45683 11.0691 5.5066 11.0691C2.55637 11.0691 0.164734 8.67747 0.164734 5.72724Z" fill="white"/>
<path fill-rule="evenodd" clip-rule="evenodd" d="M7.73274 3.89082C7.97791 3.9581 8.171 4.15633 8.23652 4.40807C8.3556 4.86431 8.3556 5.81627 8.3556 5.81627C8.3556 5.81627 8.3556 6.76819 8.23652 7.22447C8.171 7.47621 7.97791 7.67444 7.73274 7.74175C7.28842 7.86398 5.5066 7.86398 5.5066 7.86398C5.5066 7.86398 3.72478 7.86398 3.28044 7.74175C3.03526 7.67444 2.84218 7.47621 2.77665 7.22447C2.65761 6.76819 2.65761 5.81627 2.65761 5.81627C2.65761 5.81627 2.65761 4.86431 2.77665 4.40807C2.84218 4.15633 3.03526 3.9581 3.28044 3.89082C3.72478 3.76855 5.5066 3.76855 5.5066 3.76855C5.5066 3.76855 7.28842 3.76855 7.73274 3.89082ZM4.97242 5.01497V6.79559L6.39692 5.90532L4.97242 5.01497Z" fill="white"/>
</svg>
