<svg width="124" height="25" viewBox="0 0 124 25" fill="none" xmlns="http://www.w3.org/2000/svg">
<g clip-path="url(#clip0_0_518)">
<g clip-path="url(#clip1_0_518)">
<path d="M0.400002 0.407715H23.5V23.6077H0.400002V0.407715ZM25.425 0.407715H48.525V23.6077H25.425V0.407715ZM50.451 0.407715H73.551V23.6077H50.451V0.407715ZM75.476 0.407715H98.576V23.6077H75.476V0.407715ZM100.5 0.407715H123.6V23.6077H100.5V0.407715Z" fill="#00B67A"/>
<path d="M13.852 10.1717H20.036L15.055 13.7967L11.975 16.0207L6.969 19.6447L8.871 13.7967L3.865 10.1717H10.049L11.951 4.32373L13.852 10.1717ZM15.464 15.1507L11.95 16.0437L16.932 19.6937L15.464 15.1507ZM38.652 10.1717H44.836L39.855 13.7967L36.775 16.0207L31.769 19.6447L33.671 13.7967L28.665 10.1717H34.849L36.751 4.32373L38.652 10.1717ZM40.264 15.1507L36.75 16.0437L41.732 19.6937L40.264 15.1507ZM63.852 10.1717H70.036L65.055 13.7967L61.975 16.0207L56.969 19.6447L58.871 13.7967L53.865 10.1717H60.049L61.95 4.32373L63.852 10.1717ZM65.464 15.1507L61.951 16.0437L66.932 19.6937L65.464 15.1507ZM88.892 10.1717H95.076L90.095 13.7967L87.015 16.0207L82.009 19.6447L83.911 13.7967L78.905 10.1717H85.089L86.991 4.32373L88.892 10.1717ZM90.504 15.1507L86.991 16.0437L91.972 19.6937L90.504 15.1507ZM113.852 10.1717H120.036L115.055 13.7967L111.975 16.0207L106.969 19.6447L108.871 13.7967L103.865 10.1717H110.049L111.951 4.32373L113.852 10.1717ZM115.464 15.1507L111.951 16.0437L116.932 19.6937L115.464 15.1507Z" fill="white"/>
</g>
</g>
<defs>
<clipPath id="clip0_0_518">
<rect width="124" height="24" fill="white" transform="translate(0 0.0498047)"/>
</clipPath>
<clipPath id="clip1_0_518">
<rect width="124" height="24" fill="white" transform="translate(0 0.0498047)"/>
</clipPath>
</defs>
</svg>
