<svg width="95" height="25" viewBox="0 0 95 25" fill="none" xmlns="http://www.w3.org/2000/svg">
<g clip-path="url(#clip0_0_488)">
<g clip-path="url(#clip1_0_488)">
<path fill-rule="evenodd" clip-rule="evenodd" d="M24.9856 9.12036H34.4532V10.8972H30.7307V20.8886H28.6833V10.8972H24.9774V9.12036H24.9856ZM34.0485 12.3678H35.798V14.0122H35.8312C35.8891 13.7797 35.9967 13.5554 36.1539 13.3394C36.3103 13.1234 36.4998 12.9157 36.7233 12.741C36.9459 12.559 37.1934 12.4175 37.4656 12.3016C37.7387 12.1932 38.0185 12.1352 38.2998 12.1352C38.5142 12.1352 38.6706 12.1435 38.7534 12.1518C38.7923 12.1559 38.8303 12.1609 38.8692 12.1667C38.9147 12.1733 38.9603 12.1808 39.0099 12.1849V13.9957C38.8775 13.9708 38.7451 13.9543 38.6044 13.9377C38.4637 13.9212 38.3321 13.9129 38.2005 13.9129C37.886 13.9129 37.5898 13.9791 37.3092 14.1032C37.0278 14.2274 36.7887 14.4194 36.5826 14.6602C36.3757 14.9085 36.211 15.2081 36.0877 15.5739C35.9636 15.9388 35.9056 16.3543 35.9056 16.8277V20.8812H34.0403V12.3678H34.0485ZM45.7531 20.8886H47.5854V12.3761H45.72V17.3176C45.72 17.6503 45.6869 17.9573 45.6124 18.2395C45.5485 18.506 45.4274 18.7554 45.2574 18.9703C45.1001 19.178 44.8858 19.3361 44.6218 19.4602C44.3578 19.5843 44.0358 19.6431 43.6394 19.6431C43.128 19.6431 42.7233 19.4859 42.4427 19.178C42.1539 18.871 42.014 18.3388 42.014 17.5915V12.3678H40.1478V17.7736C40.1478 18.895 40.3961 19.7341 40.891 20.2903C41.3867 20.8464 42.1953 21.1212 43.3092 21.1212C43.7801 21.1212 44.2419 20.9879 44.6963 20.7306C45.13 20.4935 45.4857 20.1355 45.72 19.7002H45.7531V20.8886ZM50.7633 18.1568C50.8212 18.7046 51.0273 19.087 51.3823 19.3112C51.7448 19.5264 52.1743 19.6431 52.6775 19.6431C52.8513 19.6431 53.0499 19.6266 53.2717 19.6017C53.4868 19.5769 53.6977 19.524 53.899 19.4445C54.0976 19.3692 54.2549 19.2525 54.3865 19.1035C54.5106 18.9546 54.5685 18.7626 54.5603 18.5217C54.5592 18.4105 54.5352 18.3008 54.4896 18.1994C54.444 18.0979 54.3779 18.0071 54.2954 17.9325C54.1299 17.7752 53.9238 17.6586 53.6681 17.5584C53.4124 17.4674 53.1236 17.3846 52.7934 17.3184C52.5208 17.2623 52.2488 17.2036 51.9774 17.1421L51.7953 17.1016C51.4543 17.0262 51.1178 16.932 50.7873 16.8194C50.4764 16.7171 50.1838 16.5656 49.9208 16.3708C49.6626 16.1855 49.453 15.9405 49.31 15.6566C49.1528 15.3661 49.0783 15.0086 49.0783 14.5766C49.0783 14.1115 49.1942 13.73 49.4176 13.4139C49.6411 13.0986 49.9291 12.8495 50.2676 12.6583C50.6264 12.4637 51.0134 12.3263 51.4146 12.2511C51.8358 12.1766 52.2405 12.1352 52.6204 12.1352C53.0574 12.1352 53.4786 12.1849 53.875 12.2759C54.2706 12.367 54.6339 12.5168 54.9558 12.7328C55.2778 12.9405 55.5418 13.2144 55.7569 13.5471C55.9713 13.879 56.1029 14.2861 56.1608 14.7595H54.2127C54.1216 14.311 53.9238 14.0039 53.6019 13.8541C53.28 13.6969 52.9092 13.6224 52.4963 13.6224C52.3638 13.6224 52.2066 13.6307 52.0254 13.6555C51.8441 13.6803 51.6794 13.7217 51.5139 13.7797C51.3567 13.8376 51.2251 13.9286 51.1092 14.0453C51.0016 14.1612 50.9437 14.311 50.9437 14.5021C50.9437 14.7347 51.0265 14.9176 51.1837 15.0583C51.3409 15.1998 51.547 15.3165 51.8027 15.4158C52.0593 15.5068 52.3473 15.5896 52.6775 15.6566C52.9365 15.7088 53.2005 15.7659 53.4695 15.8246L53.6929 15.8726C54.0314 15.9471 54.3616 16.0464 54.6918 16.1548C55.022 16.2624 55.3109 16.4122 55.5666 16.6034C55.8231 16.7937 56.0292 17.0271 56.1856 17.3093C56.3429 17.5915 56.4256 17.949 56.4256 18.3645C56.4256 18.871 56.3098 19.2947 56.078 19.6514C55.8471 20.0006 55.55 20.2911 55.1867 20.5071C54.8242 20.7223 54.4113 20.8886 53.9652 20.9888C53.52 21.0881 53.0739 21.1377 52.6369 21.1377C52.1356 21.1438 51.6357 21.0826 51.1506 20.9557C50.7273 20.8461 50.3274 20.6604 49.9705 20.4078C49.6432 20.1634 49.3753 19.8482 49.1867 19.4859C48.9964 19.1201 48.8971 18.6798 48.8805 18.1733H50.7633V18.1568ZM58.3316 12.3678H56.9379V13.7879H58.3489V18.813C58.3572 19.1615 58.3986 19.4768 58.4565 19.7515C58.5227 20.0246 58.6303 20.2497 58.8033 20.4326C58.9688 20.6147 59.2071 20.7562 59.5043 20.8472C59.8022 20.9383 60.1978 20.9888 60.6935 20.9888C60.8996 20.9888 61.0974 20.9805 61.296 20.9557C61.3994 20.9416 61.5078 20.9308 61.6187 20.9192C61.7114 20.9101 61.8049 20.9002 61.8985 20.8886V19.4354C61.766 19.4685 61.6336 19.485 61.502 19.4933C61.3696 19.5016 61.2372 19.5016 61.1056 19.5016C60.8913 19.5016 60.7349 19.4768 60.6107 19.4271C60.4968 19.386 60.4004 19.3072 60.3376 19.2037C60.2805 19.1035 60.2391 18.9786 60.2226 18.8379C60.206 18.6881 60.1978 18.5217 60.1978 18.3231V13.7714H61.8819V12.3678H60.1978V9.80974H58.3324V12.367L58.3316 12.3678ZM63.2019 12.3678H64.968V13.5223H65.0011C65.2651 13.0241 65.6284 12.6748 66.0985 12.4588C66.5776 12.2405 67.0988 12.1301 67.6254 12.1352C68.294 12.1352 68.8717 12.2511 69.3674 12.4919C69.8504 12.715 70.2744 13.048 70.6055 13.4643C70.9406 13.8946 71.1901 14.3851 71.3404 14.9093C71.5051 15.4572 71.5878 16.0472 71.5878 16.6696C71.5895 17.2311 71.5143 17.7902 71.3644 18.3314C71.2282 18.8435 71.0017 19.3272 70.6957 19.7598C70.3978 20.173 70.008 20.5112 69.5569 20.7479C69.0951 20.997 68.558 21.122 67.9307 21.122C67.6585 21.122 67.3862 21.0972 67.1139 21.0475C66.844 20.9973 66.5808 20.9162 66.3294 20.8059C66.0819 20.6983 65.8427 20.5576 65.6367 20.3821C65.4281 20.2117 65.2469 20.0102 65.0996 19.7846H65.0665V24.0368H63.2027L63.2019 12.3678ZM69.5743 15.5151C69.6728 15.8809 69.7225 16.2541 69.7225 16.6365C69.7225 17.0106 69.6811 17.3755 69.6066 17.733C69.5238 18.0897 69.3831 18.4059 69.1936 18.6881C69.0041 18.962 68.7649 19.1946 68.4678 19.3692C68.1699 19.543 67.8157 19.6348 67.3862 19.6348C67.0063 19.6348 66.6687 19.5603 66.379 19.4031C66.0888 19.2521 65.8353 19.0391 65.6367 18.7791C65.4215 18.5143 65.2725 18.1981 65.1658 17.8323C65.0565 17.4433 65.0036 17.0406 65.0085 16.6365C65.0085 15.7228 65.2072 14.9921 65.6036 14.4434C66 13.8955 66.5942 13.6216 67.3779 13.6216C67.7578 13.6216 68.0962 13.7126 68.3934 13.879C68.6822 14.0453 68.9296 14.2696 69.1282 14.5518C69.326 14.834 69.475 15.1501 69.5743 15.5151ZM73.0154 9.12036H74.8808V10.8972H73.0154V9.12036ZM74.8808 12.3678H73.0154V20.8886H74.8808V12.3678ZM76.5484 9.12036H78.4138V20.8886H76.5484V9.12036ZM82.3258 20.781C82.8546 21.0053 83.4571 21.122 84.1332 21.122C84.8102 21.122 85.4127 21.0053 85.9415 20.781C86.4519 20.5722 86.9108 20.2547 87.2863 19.8508C87.6584 19.4394 87.9423 18.9561 88.1205 18.4307C88.317 17.8474 88.4147 17.2354 88.4094 16.6199C88.4094 15.9719 88.31 15.3744 88.1205 14.8257C87.9423 14.3004 87.6584 13.8171 87.2863 13.4056C86.907 13.0061 86.4491 12.6894 85.9415 12.4754C85.4127 12.2519 84.8102 12.1352 84.1332 12.1352C83.4571 12.1352 82.8546 12.2511 82.3258 12.4754C81.815 12.6841 81.3559 13.0015 80.9801 13.4056C80.6082 13.817 80.3245 14.3004 80.1467 14.8257C79.9507 15.4034 79.8531 16.0099 79.8579 16.6199C79.8579 17.2762 79.9572 17.8828 80.1476 18.4307C80.3371 18.9786 80.6176 19.4519 80.9809 19.8508C81.3517 20.2415 81.7978 20.5568 82.3258 20.781ZM84.1332 19.6348C84.5462 19.6348 84.9095 19.5438 85.2149 19.3692C85.5203 19.1954 85.7677 18.962 85.9663 18.6798C86.1641 18.3976 86.304 18.0732 86.4033 17.7165C86.4943 17.359 86.544 16.994 86.544 16.6199C86.544 16.255 86.4943 15.8975 86.4033 15.5317C86.3188 15.1862 86.1706 14.8595 85.9663 14.5683C85.7699 14.288 85.5131 14.0552 85.2149 13.8872C84.9095 13.7135 84.5462 13.6224 84.1332 13.6224C83.7211 13.6224 83.3578 13.7135 83.0524 13.8872C82.7462 14.0619 82.4996 14.2944 82.3009 14.5683C82.1023 14.8506 81.9625 15.1667 81.864 15.5317C81.7729 15.8975 81.7233 16.2541 81.7233 16.6199C81.7233 16.994 81.7729 17.359 81.864 17.7165C81.955 18.0732 82.1031 18.3976 82.3009 18.6798C82.4996 18.962 82.747 19.1946 83.0524 19.3692C83.3578 19.5512 83.7211 19.6348 84.1332 19.6348ZM90.3649 12.3678H88.9705V13.7879H90.3815V18.813C90.3898 19.1615 90.4311 19.4768 90.4891 19.7515C90.5553 20.0246 90.662 20.2497 90.8358 20.4326C91.0005 20.6147 91.2405 20.7562 91.5376 20.8472C91.8347 20.9383 92.2303 20.9888 92.726 20.9888C92.9321 20.9888 93.1307 20.9805 93.3285 20.9557C93.432 20.9416 93.5404 20.9308 93.6513 20.9192C93.744 20.9101 93.8375 20.9002 93.931 20.8886V19.4354C93.7986 19.4685 93.667 19.485 93.5346 19.4933C93.403 19.5016 93.2706 19.5016 93.139 19.5016C92.9238 19.5016 92.7674 19.4768 92.6433 19.4271C92.5298 19.3857 92.4338 19.3069 92.371 19.2037C92.3131 19.1035 92.2717 18.9786 92.2551 18.8379C92.2386 18.6881 92.2303 18.5217 92.2303 18.3231V13.7714H93.9145V12.3678H92.2303V9.80974H90.3649V12.3678Z" fill="white"/>
<path d="M22.8069 9.12021H14.2563L11.6146 0.93042L8.96551 9.12021L0.414062 9.11193L7.3393 14.1776L4.68937 22.3591L11.6146 17.3009L18.5316 22.3591L15.8899 14.1776L22.8069 9.12021Z" fill="#00B67A"/>
<path d="M16.4847 16.0306L15.8896 14.1785L11.6143 17.3009L16.4847 16.0306Z" fill="#005128"/>
</g>
</g>
<defs>
<clipPath id="clip0_0_488">
<rect width="95" height="24" fill="white" transform="translate(0 0.559814)"/>
</clipPath>
<clipPath id="clip1_0_488">
<rect width="95" height="24" fill="white" transform="translate(0 0.559814)"/>
</clipPath>
</defs>
</svg>
