<svg width="48" height="49" viewBox="0 0 48 49" fill="none" xmlns="http://www.w3.org/2000/svg">
<rect y="0.989746" width="48" height="48" rx="4" fill="#2D2D2D"/>
<g clip-path="url(#clip0_0_121)">
<path d="M30.75 18.2397L17.25 31.7397" stroke="#E8F91F" stroke-width="2" stroke-linecap="round" stroke-linejoin="round"/>
<path d="M19.125 22.7397C20.575 22.7397 21.75 21.5647 21.75 20.1147C21.75 18.6647 20.575 17.4897 19.125 17.4897C17.675 17.4897 16.5 18.6647 16.5 20.1147C16.5 21.5647 17.675 22.7397 19.125 22.7397Z" stroke="#E8F91F" stroke-width="2" stroke-miterlimit="10"/>
<path d="M28.875 32.4897C30.325 32.4897 31.5 31.3147 31.5 29.8647C31.5 28.4147 30.325 27.2397 28.875 27.2397C27.425 27.2397 26.25 28.4147 26.25 29.8647C26.25 31.3147 27.425 32.4897 28.875 32.4897Z" stroke="#E8F91F" stroke-width="2" stroke-miterlimit="10"/>
</g>
<defs>
<clipPath id="clip0_0_121">
<rect width="24" height="24" fill="white" transform="translate(12 12.9897)"/>
</clipPath>
</defs>
</svg>
