<svg width="124" height="25" viewBox="0 0 124 25" fill="none" xmlns="http://www.w3.org/2000/svg">
<g clip-path="url(#clip0_0_31)">
<g clip-path="url(#clip1_0_31)">
<mask id="mask0_0_31" style="mask-type:luminance" maskUnits="userSpaceOnUse" x="0" y="0" width="124" height="25">
<path d="M124 0.840088H0V24.8401H124V0.840088Z" fill="white"/>
</mask>
<g mask="url(#mask0_0_31)">
<path d="M0.400391 1.19849H23.5004V24.3985H0.400391V1.19849ZM25.4252 1.19849H48.5252V24.3985H25.4252V1.19849ZM50.4508 1.19849H73.5508V24.3985H50.4508V1.19849ZM75.4756 1.19849H98.5756V24.3985H75.4756V1.19849ZM100.5 1.19849H123.6V24.3985H100.5V1.19849Z" fill="#00B67A"/>
<path fill-rule="evenodd" clip-rule="evenodd" d="M13.8516 10.9625H20.0356L15.0548 14.5873L11.9748 16.8113L6.96923 20.4353L8.87083 14.5873L3.86523 10.9625H10.0492L11.9508 5.1145L13.8516 10.9625ZM15.4636 15.9409L11.95 16.8345L16.9316 20.4841L15.4636 15.9409ZM38.6516 10.9625H44.8356L39.8548 14.5873L36.7748 16.8113L31.7692 20.4353L33.6708 14.5873L28.6652 10.9625H34.8492L36.7508 5.1145L38.6516 10.9625ZM40.2636 15.9409L36.75 16.8345L41.7316 20.4841L40.2636 15.9409ZM63.8516 10.9625H70.0356L65.0548 14.5873L61.9748 16.8113L56.9692 20.4353L58.8708 14.5873L53.8652 10.9625H60.0492L61.95 5.1145L63.8516 10.9625ZM65.4636 15.9409L61.9508 16.8345L66.9316 20.4841L65.4636 15.9409ZM88.8916 10.9625H95.0756L90.0948 14.5873L87.0148 16.8113L82.0092 20.4353L83.9108 14.5873L78.9052 10.9625H85.0892L86.9908 5.1145L88.8916 10.9625ZM90.5036 15.9409L86.9908 16.8345L91.9716 20.4841L90.5036 15.9409ZM113.852 10.9625H120.036L115.055 14.5873L111.975 16.8113L106.969 20.4353L108.871 14.5873L103.865 10.9625H110.049L111.951 5.1145L113.852 10.9625ZM115.464 15.9409L111.951 16.8345L116.932 20.4841L115.464 15.9409Z" fill="white"/>
</g>
</g>
</g>
<defs>
<clipPath id="clip0_0_31">
<rect width="124" height="24" fill="white" transform="translate(0 0.840088)"/>
</clipPath>
<clipPath id="clip1_0_31">
<rect width="124" height="24" fill="white" transform="translate(0 0.840088)"/>
</clipPath>
</defs>
</svg>
