<svg width="48" height="49" viewBox="0 0 48 49" fill="none" xmlns="http://www.w3.org/2000/svg">
<rect y="0.989746" width="48" height="48" rx="4" fill="#2D2D2D"/>
<g clip-path="url(#clip0_0_79)">
<g clip-path="url(#clip1_0_79)">
<path d="M23.503 15.4177L15.937 16.9277L14.428 24.4927C14.404 24.6137 14.411 24.7387 14.447 24.8557C14.483 24.9737 14.547 25.0807 14.634 25.1677L24.422 34.9557C24.491 35.0257 24.573 35.0817 24.664 35.1207C24.755 35.1587 24.853 35.1787 24.951 35.1787C25.05 35.1787 25.148 35.1587 25.239 35.1207C25.33 35.0817 25.412 35.0257 25.481 34.9557L33.965 26.4707C34.036 26.4017 34.092 26.3197 34.131 26.2287C34.169 26.1377 34.189 26.0397 34.189 25.9417C34.189 25.8427 34.169 25.7447 34.131 25.6537C34.092 25.5627 34.036 25.4807 33.965 25.4117L24.178 15.6237C24.091 15.5367 23.984 15.4727 23.866 15.4367C23.749 15.4007 23.624 15.3947 23.503 15.4177Z" stroke="#E8F91F" stroke-width="2" stroke-linecap="round" stroke-linejoin="round"/>
<path d="M19.875 21.9897C20.496 21.9897 21 21.4857 21 20.8647C21 20.2437 20.496 19.7397 19.875 19.7397C19.254 19.7397 18.75 20.2437 18.75 20.8647C18.75 21.4857 19.254 21.9897 19.875 21.9897Z" fill="#E8F91F"/>
</g>
</g>
<defs>
<clipPath id="clip0_0_79">
<rect width="24" height="24" fill="white" transform="translate(12 12.9897)"/>
</clipPath>
<clipPath id="clip1_0_79">
<rect width="24" height="24" fill="white" transform="translate(12 12.9897)"/>
</clipPath>
</defs>
</svg>
