<svg width="264" height="40" viewBox="0 0 264 40" fill="none" xmlns="http://www.w3.org/2000/svg">
<rect width="40" height="40" rx="4" fill="#2D2D2D"/>
<g clip-path="url(#clip0_0_709)">
<path d="M29.285 20.0001C29.281 22.2691 28.448 24.4581 26.944 26.1561C25.44 27.8541 23.367 28.9451 21.116 29.2231C21.066 29.2281 21.015 29.2231 20.967 29.2071C20.919 29.1921 20.874 29.1661 20.837 29.1331C20.799 29.0991 20.769 29.0581 20.748 29.0121C20.726 28.9661 20.715 28.9171 20.714 28.8661V22.1431H22.857C22.954 22.1431 23.051 22.1231 23.141 22.0851C23.231 22.0461 23.311 21.9891 23.378 21.9181C23.445 21.8471 23.497 21.7631 23.53 21.6711C23.563 21.5791 23.577 21.4821 23.571 21.3841C23.555 21.1991 23.47 21.0271 23.332 20.9031C23.195 20.7791 23.015 20.7111 22.83 20.7141H20.714V18.5721C20.714 18.1931 20.864 17.8291 21.132 17.5611C21.4 17.2931 21.764 17.1431 22.143 17.1431H23.571C23.669 17.1431 23.765 17.1231 23.855 17.0851C23.945 17.0461 24.026 16.9891 24.093 16.9181C24.16 16.8471 24.211 16.7631 24.244 16.6711C24.277 16.5791 24.291 16.4821 24.285 16.3841C24.27 16.1991 24.184 16.0271 24.047 15.9031C23.909 15.7791 23.73 15.7111 23.544 15.7141H22.143C21.385 15.7141 20.658 16.0151 20.122 16.5511C19.586 17.0871 19.285 17.8141 19.285 18.5721V20.7141H17.143C17.045 20.7141 16.948 20.7341 16.858 20.7731C16.769 20.8111 16.688 20.8681 16.621 20.9391C16.554 21.0101 16.502 21.0941 16.469 21.1861C16.436 21.2781 16.422 21.3761 16.428 21.4731C16.444 21.6581 16.529 21.8301 16.667 21.9541C16.804 22.0781 16.984 22.1461 17.169 22.1431H19.285V28.8661C19.286 28.9161 19.275 28.9661 19.255 29.0121C19.235 29.0581 19.206 29.0991 19.168 29.1321C19.131 29.1661 19.088 29.1911 19.04 29.2071C18.993 29.2231 18.942 29.2281 18.893 29.2231C14.178 28.6521 10.535 24.5541 10.723 19.6521C10.828 17.2311 11.875 14.9471 13.641 13.2881C15.407 11.6291 17.751 10.7261 20.174 10.7711C22.597 10.8171 24.905 11.8071 26.608 13.5311C28.31 15.2561 29.271 17.5771 29.285 20.0001Z" fill="white"/>
</g>
<rect x="56" width="40" height="40" rx="4" fill="#2D2D2D"/>
<g clip-path="url(#clip1_0_709)">
<path d="M86.5092 15.5087L83.8127 18.1962C83.277 24.4373 78.0092 29.2855 71.7145 29.2855C70.4199 29.2855 69.3485 29.0802 68.536 28.6784C67.8842 28.348 67.6163 27.9998 67.5449 27.8927C67.4858 27.8029 67.4477 27.701 67.4335 27.5944C67.4192 27.4879 67.4292 27.3795 67.4627 27.2774C67.4962 27.1753 67.5523 27.082 67.6268 27.0046C67.7013 26.9272 67.7923 26.8675 67.8931 26.8302C67.911 26.8212 70.0181 26.0177 71.3842 24.473C70.537 23.8698 69.7923 23.1342 69.1788 22.2944C67.9556 20.6337 66.661 17.7498 67.4377 13.4462C67.4622 13.3183 67.5207 13.1993 67.6071 13.1019C67.6936 13.0045 67.8047 12.9322 67.9288 12.8927C68.0533 12.8519 68.1867 12.8462 68.3142 12.8761C68.4418 12.906 68.5586 12.9704 68.652 13.0623C68.6788 13.098 71.652 16.0266 75.286 16.973V16.4284C75.2895 15.8621 75.4045 15.302 75.6245 14.7801C75.8444 14.2582 76.165 13.7848 76.568 13.3868C76.9709 12.9888 77.4483 12.6741 77.9729 12.4607C78.4974 12.2472 79.0589 12.1391 79.6252 12.1427C80.3685 12.1533 81.0964 12.3562 81.738 12.7318C82.3795 13.1073 82.9128 13.6426 83.286 14.2855H86.0002C86.1413 14.2851 86.2793 14.3264 86.3968 14.4042C86.5144 14.4821 86.6063 14.593 86.661 14.723C86.7124 14.855 86.7255 14.9988 86.6986 15.1378C86.6718 15.2769 86.6061 15.4055 86.5092 15.5087Z" fill="white"/>
</g>
<rect x="112" width="40" height="40" rx="4" fill="#2D2D2D"/>
<g clip-path="url(#clip2_0_709)">
<path d="M132 22.8569C133.578 22.8569 134.857 21.5777 134.857 19.9997C134.857 18.4218 133.578 17.1426 132 17.1426C130.422 17.1426 129.143 18.4218 129.143 19.9997C129.143 21.5777 130.422 22.8569 132 22.8569Z" fill="white"/>
<path d="M135.929 11.0713H128.071C126.745 11.0713 125.474 11.5981 124.536 12.5358C123.598 13.4734 123.071 14.7452 123.071 16.0713V23.9284C123.071 25.2545 123.598 26.5263 124.536 27.464C125.474 28.4016 126.745 28.9284 128.071 28.9284H135.929C137.255 28.9284 138.526 28.4016 139.464 27.464C140.402 26.5263 140.929 25.2545 140.929 23.9284V16.0713C140.929 14.7452 140.402 13.4734 139.464 12.5358C138.526 11.5981 137.255 11.0713 135.929 11.0713ZM132 24.2856C131.152 24.2856 130.324 24.0342 129.619 23.5633C128.914 23.0924 128.365 22.423 128.041 21.6399C127.716 20.8568 127.631 19.9951 127.797 19.1638C127.962 18.3324 128.37 17.5688 128.97 16.9694C129.569 16.37 130.333 15.9619 131.164 15.7965C131.995 15.6311 132.857 15.716 133.64 16.0404C134.423 16.3647 135.093 16.9141 135.564 17.6188C136.034 18.3236 136.286 19.1522 136.286 19.9999C136.286 21.1365 135.834 22.2266 135.031 23.0303C134.227 23.834 133.137 24.2856 132 24.2856ZM136.643 16.4284C136.431 16.4284 136.224 16.3656 136.048 16.2479C135.871 16.1301 135.734 15.9628 135.653 15.767C135.572 15.5712 135.551 15.3558 135.592 15.148C135.633 14.9401 135.735 14.7492 135.885 14.5994C136.035 14.4495 136.226 14.3475 136.434 14.3062C136.642 14.2648 136.857 14.286 137.053 14.3671C137.249 14.4482 137.416 14.5855 137.534 14.7617C137.652 14.9379 137.714 15.1451 137.714 15.357C137.714 15.6412 137.601 15.9137 137.401 16.1146C137.2 16.3155 136.927 16.4284 136.643 16.4284Z" fill="white"/>
</g>
<rect x="168" width="40" height="40" rx="4" fill="#2D2D2D"/>
<g clip-path="url(#clip3_0_709)">
<path d="M197.491 14.8032C197.409 14.4741 197.248 14.1697 197.023 13.9162C196.797 13.6627 196.514 13.4677 196.196 13.3479C193.143 12.1693 188.268 12.1782 188 12.1782C187.732 12.1782 182.857 12.1693 179.804 13.3479C179.486 13.4677 179.203 13.6627 178.977 13.9162C178.752 14.1697 178.591 14.4741 178.509 14.8032C178.277 15.6872 178 17.3122 178 19.9997C178 22.6872 178.277 24.3122 178.509 25.1961C178.591 25.5253 178.752 25.8296 178.977 26.0831C179.203 26.3366 179.486 26.5316 179.804 26.6514C182.732 27.7854 187.321 27.8211 187.938 27.8211H188.062C188.679 27.8211 193.268 27.7854 196.196 26.6514C196.514 26.5316 196.797 26.3366 197.023 26.0831C197.248 25.8296 197.409 25.5253 197.491 25.1961C197.723 24.3122 198 22.6872 198 19.9997C198 17.3122 197.723 15.6872 197.491 14.8032ZM191.054 20.2943L186.768 23.1514C186.711 23.1933 186.642 23.2152 186.571 23.2139C186.512 23.2117 186.454 23.1965 186.402 23.1693C186.345 23.1396 186.297 23.0947 186.264 23.0395C186.231 22.9844 186.214 22.9211 186.214 22.8568V17.1425C186.214 17.0782 186.231 17.0149 186.264 16.9598C186.297 16.9046 186.345 16.8597 186.402 16.83C186.459 16.7996 186.523 16.7853 186.587 16.7884C186.652 16.7915 186.714 16.8121 186.768 16.8479L191.054 19.705C191.103 19.7364 191.144 19.7799 191.173 19.8314C191.201 19.8829 191.216 19.9408 191.216 19.9997C191.216 20.0585 191.201 20.1164 191.173 20.1679C191.144 20.2195 191.103 20.2629 191.054 20.2943Z" fill="white"/>
</g>
<rect x="224" width="40" height="40" rx="4" fill="#2D2D2D"/>
<g clip-path="url(#clip4_0_709)">
<path d="M251.501 11.0713H236.501C236.122 11.0713 235.759 11.2218 235.491 11.4897C235.223 11.7576 235.072 12.121 235.072 12.4999V27.4999C235.072 27.8788 235.223 28.2421 235.491 28.51C235.759 28.7779 236.122 28.9285 236.501 28.9285H251.501C251.88 28.9285 252.243 28.7779 252.511 28.51C252.779 28.2421 252.929 27.8788 252.929 27.4999V12.4999C252.929 12.121 252.779 11.7576 252.511 11.4897C252.243 11.2218 251.88 11.0713 251.501 11.0713ZM241.144 24.2856C241.144 24.475 241.068 24.6567 240.934 24.7907C240.801 24.9246 240.619 24.9999 240.429 24.9999C240.24 24.9999 240.058 24.9246 239.924 24.7907C239.79 24.6567 239.715 24.475 239.715 24.2856V18.5713C239.715 18.3819 239.79 18.2002 239.924 18.0662C240.058 17.9323 240.24 17.857 240.429 17.857C240.619 17.857 240.801 17.9323 240.934 18.0662C241.068 18.2002 241.144 18.3819 241.144 18.5713V24.2856ZM240.429 16.7856C240.217 16.7856 240.01 16.7227 239.834 16.605C239.658 16.4873 239.521 16.3199 239.44 16.1242C239.358 15.9284 239.337 15.713 239.379 15.5051C239.42 15.2973 239.522 15.1064 239.672 14.9565C239.822 14.8067 240.013 14.7046 240.22 14.6633C240.428 14.622 240.644 14.6432 240.839 14.7243C241.035 14.8054 241.203 14.9427 241.32 15.1189C241.438 15.2951 241.501 15.5022 241.501 15.7141C241.501 15.9983 241.388 16.2708 241.187 16.4718C240.986 16.6727 240.714 16.7856 240.429 16.7856ZM249.001 24.2856C249.001 24.475 248.926 24.6567 248.792 24.7907C248.658 24.9246 248.476 24.9999 248.287 24.9999C248.097 24.9999 247.915 24.9246 247.781 24.7907C247.647 24.6567 247.572 24.475 247.572 24.2856V21.0713C247.572 20.5977 247.384 20.1435 247.049 19.8086C246.714 19.4737 246.26 19.2856 245.787 19.2856C245.313 19.2856 244.859 19.4737 244.524 19.8086C244.189 20.1435 244.001 20.5977 244.001 21.0713V24.2856C244.001 24.475 243.926 24.6567 243.792 24.7907C243.658 24.9246 243.476 24.9999 243.287 24.9999C243.097 24.9999 242.915 24.9246 242.781 24.7907C242.647 24.6567 242.572 24.475 242.572 24.2856V18.5713C242.572 18.3955 242.636 18.2257 242.753 18.0944C242.87 17.9631 243.031 17.8795 243.206 17.8596C243.38 17.8397 243.556 17.8849 243.7 17.9865C243.843 18.0882 243.944 18.2392 243.983 18.4106C244.466 18.083 245.03 17.8931 245.613 17.8616C246.196 17.83 246.776 17.9579 247.292 18.2314C247.808 18.505 248.24 18.9139 248.541 19.4142C248.842 19.9145 249.001 20.4874 249.001 21.0713V24.2856Z" fill="white"/>
</g>
<defs>
<clipPath id="clip0_0_709">
<rect width="24" height="24" fill="white" transform="translate(8 8)"/>
</clipPath>
<clipPath id="clip1_0_709">
<rect width="24" height="24" fill="white" transform="translate(64 8)"/>
</clipPath>
<clipPath id="clip2_0_709">
<rect width="24" height="24" fill="white" transform="translate(120 8)"/>
</clipPath>
<clipPath id="clip3_0_709">
<rect width="24" height="24" fill="white" transform="translate(176 8)"/>
</clipPath>
<clipPath id="clip4_0_709">
<rect width="24" height="24" fill="white" transform="translate(232 8)"/>
</clipPath>
</defs>
</svg>
