<svg width="31" height="38" viewBox="0 0 31 38" fill="none" xmlns="http://www.w3.org/2000/svg">
<path d="M19.784 37.3022C22.842 36.3882 25.525 34.5132 27.435 31.9552C29.345 29.3972 30.381 26.2912 30.39 23.0982L30.31 3.18318C30.3 2.67718 30.173 2.17918 29.937 1.73018C29.701 1.28118 29.364 0.894181 28.952 0.599181C28.54 0.304181 28.064 0.109181 27.564 0.0311808C27.063 -0.0478192 26.551 -0.00781927 26.069 0.147181L2.271 7.47318C1.616 7.67418 1.042 8.07818 0.634 8.62818C0.225 9.17818 0.003 9.84518 0 10.5302V23.1992C0.087 33.2002 10.023 40.3122 19.784 37.3022Z" fill="white"/>
</svg>
