<svg width="1200" height="388" viewBox="0 0 1200 388" fill="none" xmlns="http://www.w3.org/2000/svg">
<rect y="0.839844" width="1200" height="386.83" rx="16" fill="#E8F91F"/>
<path d="M404.287 115.52C396.367 115.52 391.375 121.376 391.375 130.16C391.375 139.088 396.655 144.512 404.383 144.512C410.143 144.512 415.759 141.728 415.759 133.472V131.696H403.327V128.624H419.023V147.248H416.287L415.951 141.776C414.127 145.184 409.807 147.776 404.239 147.776C394.495 147.776 387.775 140.768 387.775 130.16C387.775 119.648 394.495 112.256 404.335 112.256C411.583 112.256 417.199 116.384 418.543 122.624H414.799C413.359 117.92 409.327 115.52 404.287 115.52ZM421.535 135.584C421.535 128.48 426.527 123.344 433.343 123.344C440.159 123.344 445.151 128.48 445.151 135.584C445.151 142.64 440.159 147.776 433.343 147.776C426.527 147.776 421.535 142.64 421.535 135.584ZM424.895 135.536C424.895 141.008 428.351 144.8 433.343 144.8C438.287 144.8 441.791 141.008 441.791 135.536C441.791 130.16 438.287 126.32 433.343 126.32C428.351 126.32 424.895 130.16 424.895 135.536ZM453.542 147.2H450.278V126.752H445.622V123.968H450.278V116.624H453.542V123.968H458.198V126.752H453.542V147.2ZM469.855 140.672H473.023C473.023 143.36 475.039 145.04 478.303 145.04C481.903 145.04 484.015 143.504 484.015 141.008C484.015 139.088 483.055 137.984 480.319 137.312L476.335 136.304C472.303 135.296 470.335 133.184 470.335 130.016C470.335 125.936 473.743 123.344 478.735 123.344C483.631 123.344 486.799 126.032 486.943 130.352H483.727C483.631 127.664 481.759 126.08 478.639 126.08C475.375 126.08 473.551 127.472 473.551 129.968C473.551 131.744 474.799 132.992 477.343 133.616L481.327 134.624C485.359 135.632 487.183 137.504 487.183 140.864C487.183 145.04 483.631 147.776 478.351 147.776C473.119 147.776 469.855 144.992 469.855 140.672ZM489.004 135.584C489.004 128.48 493.996 123.344 500.812 123.344C507.628 123.344 512.62 128.48 512.62 135.584C512.62 142.64 507.628 147.776 500.812 147.776C493.996 147.776 489.004 142.64 489.004 135.584ZM492.364 135.536C492.364 141.008 495.82 144.8 500.812 144.8C505.756 144.8 509.26 141.008 509.26 135.536C509.26 130.16 505.756 126.32 500.812 126.32C495.82 126.32 492.364 130.16 492.364 135.536ZM519.229 147.2H515.917V123.968H518.797L519.181 127.28C520.333 124.832 522.925 123.344 526.189 123.344C529.837 123.344 532.573 125.264 533.677 128.288C534.733 125.264 537.565 123.344 541.309 123.344C546.349 123.344 549.661 126.608 549.661 131.984V147.2H546.445V132.656C546.445 128.672 544.237 126.32 540.685 126.32C536.797 126.32 534.493 129.248 534.493 132.848V147.2H531.229V132.608C531.229 128.672 528.973 126.368 525.469 126.368C521.581 126.368 519.229 129.248 519.229 132.8V147.2ZM564.067 147.776C557.251 147.776 552.691 142.88 552.691 135.584C552.691 128.336 557.203 123.344 563.827 123.344C570.115 123.344 574.387 127.808 574.387 134.384V136.016H555.907C556.147 141.68 559.123 144.944 564.115 144.944C567.907 144.944 570.355 143.312 571.219 140.24H574.387C573.139 145.136 569.539 147.776 564.067 147.776ZM563.827 126.176C559.459 126.176 556.579 129.056 556.003 133.616H571.075C571.075 129.152 568.195 126.176 563.827 126.176ZM582.776 147.2H579.512V126.752H574.856V123.968H579.512V116.624H582.776V123.968H587.432V126.752H582.776V147.2ZM593.057 147.152H589.745V112.208H593.057V128C594.545 125.216 597.377 123.344 601.265 123.344C607.361 123.344 610.097 127.136 610.097 132.992V147.2H606.785V133.712C606.785 128.288 604.241 126.368 600.641 126.368C595.649 126.368 593.057 130.064 593.057 134.528V147.152ZM616.33 117.584C614.986 117.584 613.882 116.48 613.882 115.136C613.882 113.792 614.986 112.64 616.33 112.64C617.674 112.64 618.826 113.792 618.826 115.136C618.826 116.48 617.674 117.584 616.33 117.584ZM614.698 147.2V123.968H618.01V147.2H614.698ZM626.229 147.2H622.917V123.968H625.797L626.277 128C627.813 125.024 630.885 123.344 634.245 123.344C640.629 123.344 643.269 127.136 643.269 132.992V147.2H639.957V133.712C639.957 128.288 637.509 126.368 633.669 126.368C628.917 126.368 626.229 129.824 626.229 135.056V147.2ZM646.286 134.912C646.286 128.576 650.366 123.344 657.182 123.344C661.214 123.344 664.286 125.216 665.774 128.624L666.11 123.968H668.99V146.48C668.99 153.392 664.574 157.904 657.758 157.904C651.806 157.904 647.63 154.544 646.718 148.928H650.03C650.75 152.672 653.63 154.88 657.806 154.88C662.558 154.88 665.726 151.664 665.726 146.816V141.296C664.142 144.56 660.926 146.48 656.942 146.48C650.318 146.48 646.286 141.248 646.286 134.912ZM649.598 134.864C649.598 139.616 652.526 143.504 657.422 143.504C662.462 143.504 665.438 139.856 665.438 134.864C665.438 129.92 662.558 126.272 657.47 126.272C652.478 126.272 649.598 130.16 649.598 134.864ZM690.542 147.2H687.278V126.752H682.622V123.968H687.278V116.624H690.542V123.968H695.198V126.752H690.542V147.2ZM695.644 135.584C695.644 128.48 700.636 123.344 707.452 123.344C714.268 123.344 719.26 128.48 719.26 135.584C719.26 142.64 714.268 147.776 707.452 147.776C700.636 147.776 695.644 142.64 695.644 135.584ZM699.004 135.536C699.004 141.008 702.46 144.8 707.452 144.8C712.396 144.8 715.9 141.008 715.9 135.536C715.9 130.16 712.396 126.32 707.452 126.32C702.46 126.32 699.004 130.16 699.004 135.536ZM731.902 140.672H735.07C735.07 143.36 737.086 145.04 740.35 145.04C743.95 145.04 746.062 143.504 746.062 141.008C746.062 139.088 745.102 137.984 742.366 137.312L738.382 136.304C734.35 135.296 732.382 133.184 732.382 130.016C732.382 125.936 735.79 123.344 740.782 123.344C745.678 123.344 748.846 126.032 748.99 130.352H745.774C745.678 127.664 743.806 126.08 740.686 126.08C737.422 126.08 735.598 127.472 735.598 129.968C735.598 131.744 736.846 132.992 739.39 133.616L743.374 134.624C747.406 135.632 749.23 137.504 749.23 140.864C749.23 145.04 745.678 147.776 740.398 147.776C735.166 147.776 731.902 144.992 731.902 140.672ZM762.427 147.776C755.611 147.776 751.051 142.88 751.051 135.584C751.051 128.336 755.563 123.344 762.187 123.344C768.475 123.344 772.747 127.808 772.747 134.384V136.016H754.267C754.507 141.68 757.483 144.944 762.475 144.944C766.267 144.944 768.715 143.312 769.579 140.24H772.747C771.499 145.136 767.899 147.776 762.427 147.776ZM762.187 126.176C757.819 126.176 754.939 129.056 754.363 133.616H769.435C769.435 129.152 766.555 126.176 762.187 126.176ZM779.498 147.2H776.186V112.208H779.498V147.2ZM787.998 147.2H784.686V112.208H787.998V147.2ZM802.306 139.328H799.186V138.08C799.186 134.144 801.73 132.032 804.418 130.016C806.914 128.096 809.266 126.128 809.266 122.624C809.266 118.544 806.434 115.376 802.018 115.376C797.842 115.376 794.578 118.688 794.578 122.864H791.218C791.218 116.864 795.97 112.208 802.018 112.208C808.594 112.208 812.674 116.672 812.674 122.528C812.674 127.472 809.506 129.92 806.674 132.032C803.986 133.952 802.306 135.536 802.306 138.08V139.328ZM800.962 147.872C799.282 147.872 797.938 146.48 797.938 144.848C797.938 143.216 799.282 141.872 800.962 141.872C802.594 141.872 803.938 143.216 803.938 144.848C803.938 146.48 802.594 147.872 800.962 147.872Z" fill="#161616"/>
<rect x="476.5" y="186.83" width="247" height="64.44" rx="4" fill="#161616"/>
<path d="M524.811 215.996H522.817C522.74 215.57 522.597 215.195 522.388 214.871C522.18 214.547 521.924 214.272 521.621 214.046C521.319 213.821 520.98 213.65 520.605 213.535C520.234 213.42 519.84 213.363 519.423 213.363C518.668 213.363 517.993 213.552 517.396 213.931C516.804 214.311 516.335 214.867 515.99 215.6C515.649 216.333 515.479 217.228 515.479 218.284C515.479 219.35 515.649 220.249 515.99 220.982C516.335 221.715 516.806 222.269 517.403 222.644C517.999 223.019 518.67 223.206 519.416 223.206C519.83 223.206 520.222 223.151 520.592 223.04C520.967 222.925 521.306 222.757 521.609 222.535C521.911 222.313 522.167 222.043 522.376 221.723C522.589 221.399 522.736 221.029 522.817 220.611L524.811 220.617C524.705 221.261 524.498 221.853 524.191 222.394C523.888 222.931 523.499 223.396 523.021 223.788C522.548 224.176 522.007 224.476 521.398 224.689C520.788 224.902 520.124 225.009 519.403 225.009C518.27 225.009 517.26 224.74 516.374 224.203C515.487 223.662 514.788 222.889 514.277 221.883C513.77 220.877 513.516 219.678 513.516 218.284C513.516 216.887 513.772 215.687 514.283 214.686C514.795 213.68 515.494 212.909 516.38 212.372C517.266 211.831 518.274 211.56 519.403 211.56C520.098 211.56 520.746 211.66 521.347 211.86C521.952 212.056 522.495 212.346 522.977 212.73C523.458 213.109 523.857 213.573 524.172 214.123C524.487 214.669 524.7 215.293 524.811 215.996ZM527.021 224.83V215.012H528.868V216.571H528.971C529.15 216.043 529.465 215.627 529.917 215.325C530.373 215.018 530.888 214.865 531.464 214.865C531.583 214.865 531.724 214.869 531.885 214.877C532.052 214.886 532.182 214.897 532.275 214.909V216.738C532.199 216.716 532.062 216.693 531.866 216.667C531.67 216.637 531.474 216.622 531.278 216.622C530.827 216.622 530.424 216.718 530.07 216.91C529.721 217.098 529.444 217.36 529.239 217.696C529.035 218.029 528.932 218.408 528.932 218.834V224.83H527.021ZM537.809 225.028C536.842 225.028 536.009 224.821 535.31 224.408C534.615 223.99 534.078 223.404 533.699 222.65C533.324 221.892 533.137 221.003 533.137 219.985C533.137 218.979 533.324 218.093 533.699 217.326C534.078 216.559 534.607 215.96 535.284 215.529C535.966 215.099 536.763 214.884 537.675 214.884C538.229 214.884 538.766 214.975 539.286 215.159C539.806 215.342 540.272 215.63 540.686 216.022C541.099 216.414 541.425 216.923 541.664 217.549C541.902 218.171 542.022 218.928 542.022 219.818V220.496H534.217V219.064H540.149C540.149 218.561 540.047 218.116 539.842 217.728C539.637 217.336 539.35 217.027 538.979 216.801C538.613 216.576 538.182 216.463 537.688 216.463C537.151 216.463 536.682 216.595 536.282 216.859C535.885 217.119 535.578 217.46 535.361 217.882C535.148 218.299 535.042 218.753 535.042 219.243V220.362C535.042 221.018 535.157 221.576 535.387 222.037C535.621 222.497 535.947 222.848 536.365 223.091C536.782 223.33 537.27 223.449 537.828 223.449C538.191 223.449 538.521 223.398 538.819 223.296C539.118 223.189 539.375 223.032 539.593 222.823C539.81 222.614 539.976 222.356 540.091 222.049L541.9 222.375C541.755 222.908 541.495 223.375 541.12 223.775C540.75 224.171 540.283 224.48 539.721 224.702C539.162 224.919 538.525 225.028 537.809 225.028ZM546.999 225.047C546.377 225.047 545.815 224.932 545.312 224.702C544.809 224.468 544.411 224.129 544.117 223.686C543.827 223.242 543.682 222.699 543.682 222.056C543.682 221.502 543.789 221.046 544.002 220.688C544.215 220.33 544.502 220.046 544.865 219.838C545.227 219.629 545.632 219.471 546.079 219.365C546.526 219.258 546.982 219.177 547.447 219.122C548.035 219.054 548.512 218.998 548.879 218.956C549.245 218.909 549.512 218.834 549.678 218.732C549.844 218.63 549.927 218.463 549.927 218.233V218.188C549.927 217.63 549.769 217.198 549.454 216.891C549.143 216.584 548.678 216.431 548.061 216.431C547.417 216.431 546.91 216.573 546.539 216.859C546.173 217.14 545.919 217.453 545.779 217.799L543.982 217.389C544.195 216.793 544.507 216.311 544.916 215.945C545.329 215.574 545.804 215.306 546.341 215.139C546.878 214.969 547.443 214.884 548.035 214.884C548.427 214.884 548.843 214.931 549.281 215.024C549.725 215.114 550.138 215.28 550.521 215.523C550.909 215.766 551.227 216.113 551.474 216.565C551.721 217.012 551.845 217.594 551.845 218.31V224.83H549.978V223.488H549.901C549.778 223.735 549.593 223.978 549.345 224.216C549.098 224.455 548.781 224.653 548.393 224.811C548.005 224.968 547.541 225.047 546.999 225.047ZM547.415 223.513C547.943 223.513 548.395 223.409 548.77 223.2C549.149 222.991 549.437 222.718 549.633 222.382C549.833 222.041 549.933 221.676 549.933 221.289V220.023C549.865 220.091 549.733 220.155 549.537 220.215C549.345 220.27 549.126 220.319 548.879 220.362C548.632 220.4 548.391 220.436 548.156 220.47C547.922 220.5 547.726 220.526 547.568 220.547C547.198 220.594 546.859 220.673 546.552 220.784C546.249 220.894 546.007 221.054 545.823 221.263C545.644 221.468 545.555 221.74 545.555 222.081C545.555 222.554 545.73 222.912 546.079 223.155C546.428 223.394 546.874 223.513 547.415 223.513ZM558.973 215.012V216.546H553.61V215.012H558.973ZM555.049 212.659H556.96V221.947C556.96 222.318 557.015 222.597 557.126 222.784C557.237 222.968 557.38 223.093 557.554 223.162C557.733 223.225 557.927 223.257 558.136 223.257C558.289 223.257 558.424 223.247 558.539 223.225C558.654 223.204 558.743 223.187 558.807 223.174L559.152 224.753C559.042 224.796 558.884 224.838 558.679 224.881C558.475 224.928 558.219 224.953 557.912 224.958C557.409 224.966 556.941 224.877 556.506 224.689C556.071 224.502 555.72 224.212 555.451 223.82C555.183 223.428 555.049 222.936 555.049 222.343V212.659ZM565.214 225.028C564.246 225.028 563.413 224.821 562.714 224.408C562.02 223.99 561.483 223.404 561.104 222.65C560.729 221.892 560.541 221.003 560.541 219.985C560.541 218.979 560.729 218.093 561.104 217.326C561.483 216.559 562.011 215.96 562.689 215.529C563.371 215.099 564.167 214.884 565.079 214.884C565.633 214.884 566.17 214.975 566.69 215.159C567.21 215.342 567.677 215.63 568.09 216.022C568.503 216.414 568.829 216.923 569.068 217.549C569.307 218.171 569.426 218.928 569.426 219.818V220.496H561.621V219.064H567.553C567.553 218.561 567.451 218.116 567.246 217.728C567.042 217.336 566.754 217.027 566.383 216.801C566.017 216.576 565.586 216.463 565.092 216.463C564.555 216.463 564.086 216.595 563.686 216.859C563.29 217.119 562.983 217.46 562.765 217.882C562.552 218.299 562.446 218.753 562.446 219.243V220.362C562.446 221.018 562.561 221.576 562.791 222.037C563.025 222.497 563.351 222.848 563.769 223.091C564.187 223.33 564.675 223.449 565.233 223.449C565.595 223.449 565.925 223.398 566.224 223.296C566.522 223.189 566.78 223.032 566.997 222.823C567.214 222.614 567.381 222.356 567.496 222.049L569.305 222.375C569.16 222.908 568.9 223.375 568.525 223.775C568.154 224.171 567.687 224.48 567.125 224.702C566.567 224.919 565.93 225.028 565.214 225.028ZM583.667 217.409L581.935 217.715C581.863 217.494 581.748 217.283 581.59 217.083C581.437 216.882 581.228 216.718 580.964 216.59C580.699 216.463 580.369 216.399 579.973 216.399C579.432 216.399 578.98 216.52 578.618 216.763C578.256 217.002 578.074 217.311 578.074 217.69C578.074 218.018 578.196 218.282 578.439 218.483C578.682 218.683 579.074 218.847 579.615 218.975L581.175 219.333C582.078 219.541 582.751 219.863 583.194 220.298C583.638 220.733 583.859 221.297 583.859 221.992C583.859 222.58 583.689 223.104 583.348 223.564C583.011 224.02 582.54 224.378 581.935 224.638C581.334 224.898 580.638 225.028 579.845 225.028C578.746 225.028 577.849 224.794 577.154 224.325C576.459 223.852 576.033 223.181 575.876 222.311L577.723 222.03C577.838 222.512 578.074 222.876 578.432 223.123C578.79 223.366 579.257 223.488 579.832 223.488C580.459 223.488 580.959 223.358 581.334 223.098C581.709 222.833 581.897 222.512 581.897 222.132C581.897 221.826 581.782 221.568 581.552 221.359C581.326 221.15 580.979 220.992 580.51 220.886L578.848 220.522C577.932 220.313 577.254 219.98 576.815 219.524C576.381 219.068 576.163 218.491 576.163 217.792C576.163 217.213 576.325 216.706 576.649 216.271C576.973 215.836 577.42 215.497 577.991 215.255C578.562 215.007 579.216 214.884 579.954 214.884C581.015 214.884 581.85 215.114 582.459 215.574C583.069 216.03 583.471 216.642 583.667 217.409ZM590.544 215.012V216.546H585.181V215.012H590.544ZM586.619 212.659H588.53V221.947C588.53 222.318 588.586 222.597 588.696 222.784C588.807 222.968 588.95 223.093 589.125 223.162C589.304 223.225 589.498 223.257 589.706 223.257C589.86 223.257 589.994 223.247 590.109 223.225C590.224 223.204 590.314 223.187 590.377 223.174L590.723 224.753C590.612 224.796 590.454 224.838 590.25 224.881C590.045 224.928 589.789 224.953 589.483 224.958C588.98 224.966 588.511 224.877 588.076 224.689C587.642 224.502 587.29 224.212 587.022 223.82C586.753 223.428 586.619 222.936 586.619 222.343V212.659ZM596.688 225.028C595.768 225.028 594.964 224.817 594.278 224.395C593.592 223.973 593.059 223.383 592.68 222.625C592.301 221.866 592.111 220.98 592.111 219.965C592.111 218.947 592.301 218.056 592.68 217.294C593.059 216.531 593.592 215.938 594.278 215.517C594.964 215.095 595.768 214.884 596.688 214.884C597.608 214.884 598.412 215.095 599.098 215.517C599.784 215.938 600.317 216.531 600.696 217.294C601.075 218.056 601.265 218.947 601.265 219.965C601.265 220.98 601.075 221.866 600.696 222.625C600.317 223.383 599.784 223.973 599.098 224.395C598.412 224.817 597.608 225.028 596.688 225.028ZM596.694 223.424C597.291 223.424 597.785 223.266 598.177 222.951C598.569 222.635 598.859 222.215 599.047 221.691C599.238 221.167 599.334 220.59 599.334 219.959C599.334 219.333 599.238 218.757 599.047 218.233C598.859 217.705 598.569 217.281 598.177 216.961C597.785 216.642 597.291 216.482 596.694 216.482C596.094 216.482 595.595 216.642 595.199 216.961C594.807 217.281 594.515 217.705 594.323 218.233C594.135 218.757 594.042 219.333 594.042 219.959C594.042 220.59 594.135 221.167 594.323 221.691C594.515 222.215 594.807 222.635 595.199 222.951C595.595 223.266 596.094 223.424 596.694 223.424ZM603.398 224.83V215.012H605.245V216.571H605.348C605.527 216.043 605.842 215.627 606.294 215.325C606.75 215.018 607.265 214.865 607.841 214.865C607.96 214.865 608.1 214.869 608.262 214.877C608.429 214.886 608.559 214.897 608.652 214.909V216.738C608.576 216.716 608.439 216.693 608.243 216.667C608.047 216.637 607.851 216.622 607.655 216.622C607.203 216.622 606.801 216.718 606.447 216.91C606.098 217.098 605.821 217.36 605.616 217.696C605.412 218.029 605.309 218.408 605.309 218.834V224.83H603.398ZM614.186 225.028C613.219 225.028 612.386 224.821 611.687 224.408C610.992 223.99 610.455 223.404 610.076 222.65C609.701 221.892 609.514 221.003 609.514 219.985C609.514 218.979 609.701 218.093 610.076 217.326C610.455 216.559 610.984 215.96 611.661 215.529C612.343 215.099 613.14 214.884 614.052 214.884C614.606 214.884 615.143 214.975 615.663 215.159C616.183 215.342 616.649 215.63 617.063 216.022C617.476 216.414 617.802 216.923 618.041 217.549C618.279 218.171 618.399 218.928 618.399 219.818V220.496H610.594V219.064H616.526C616.526 218.561 616.423 218.116 616.219 217.728C616.014 217.336 615.727 217.027 615.356 216.801C614.99 216.576 614.559 216.463 614.065 216.463C613.528 216.463 613.059 216.595 612.659 216.859C612.262 217.119 611.955 217.46 611.738 217.882C611.525 218.299 611.419 218.753 611.419 219.243V220.362C611.419 221.018 611.534 221.576 611.764 222.037C611.998 222.497 612.324 222.848 612.742 223.091C613.159 223.33 613.647 223.449 614.205 223.449C614.568 223.449 614.898 223.398 615.196 223.296C615.494 223.189 615.752 223.032 615.97 222.823C616.187 222.614 616.353 222.356 616.468 222.049L618.277 222.375C618.132 222.908 617.872 223.375 617.497 223.775C617.127 224.171 616.66 224.48 616.097 224.702C615.539 224.919 614.902 225.028 614.186 225.028ZM629.955 215.012V216.546H624.407V215.012H629.955ZM625.928 224.83V213.874C625.928 213.26 626.063 212.751 626.331 212.346C626.6 211.937 626.955 211.632 627.399 211.432C627.842 211.228 628.323 211.125 628.843 211.125C629.227 211.125 629.555 211.157 629.828 211.221C630.1 211.281 630.303 211.336 630.435 211.387L629.987 212.934C629.898 212.909 629.783 212.879 629.642 212.845C629.502 212.806 629.331 212.787 629.131 212.787C628.666 212.787 628.334 212.902 628.134 213.132C627.938 213.363 627.84 213.695 627.84 214.13V224.83H625.928ZM635.676 225.028C634.756 225.028 633.953 224.817 633.267 224.395C632.58 223.973 632.048 223.383 631.669 222.625C631.289 221.866 631.1 220.98 631.1 219.965C631.1 218.947 631.289 218.056 631.669 217.294C632.048 216.531 632.58 215.938 633.267 215.517C633.953 215.095 634.756 214.884 635.676 214.884C636.597 214.884 637.4 215.095 638.086 215.517C638.772 215.938 639.305 216.531 639.684 217.294C640.063 218.056 640.253 218.947 640.253 219.965C640.253 220.98 640.063 221.866 639.684 222.625C639.305 223.383 638.772 223.973 638.086 224.395C637.4 224.817 636.597 225.028 635.676 225.028ZM635.683 223.424C636.279 223.424 636.774 223.266 637.166 222.951C637.558 222.635 637.847 222.215 638.035 221.691C638.227 221.167 638.323 220.59 638.323 219.959C638.323 219.333 638.227 218.757 638.035 218.233C637.847 217.705 637.558 217.281 637.166 216.961C636.774 216.642 636.279 216.482 635.683 216.482C635.082 216.482 634.583 216.642 634.187 216.961C633.795 217.281 633.503 217.705 633.311 218.233C633.124 218.757 633.03 219.333 633.03 219.959C633.03 220.59 633.124 221.167 633.311 221.691C633.503 222.215 633.795 222.635 634.187 222.951C634.583 223.266 635.082 223.424 635.683 223.424ZM642.386 224.83V215.012H644.234V216.571H644.336C644.515 216.043 644.83 215.627 645.282 215.325C645.738 215.018 646.254 214.865 646.829 214.865C646.948 214.865 647.089 214.869 647.251 214.877C647.417 214.886 647.547 214.897 647.641 214.909V216.738C647.564 216.716 647.428 216.693 647.232 216.667C647.036 216.637 646.839 216.622 646.643 216.622C646.192 216.622 645.789 216.718 645.435 216.91C645.086 217.098 644.809 217.36 644.604 217.696C644.4 218.029 644.298 218.408 644.298 218.834V224.83H642.386ZM658.731 215.012V216.546H653.183V215.012H658.731ZM654.704 224.83V213.874C654.704 213.26 654.838 212.751 655.107 212.346C655.375 211.937 655.731 211.632 656.174 211.432C656.617 211.228 657.099 211.125 657.619 211.125C658.002 211.125 658.33 211.157 658.603 211.221C658.876 211.281 659.078 211.336 659.21 211.387L658.763 212.934C658.673 212.909 658.558 212.879 658.418 212.845C658.277 212.806 658.107 212.787 657.906 212.787C657.442 212.787 657.109 212.902 656.909 213.132C656.713 213.363 656.615 213.695 656.615 214.13V224.83H654.704ZM660.703 224.83V215.012H662.55V216.571H662.652C662.831 216.043 663.147 215.627 663.598 215.325C664.054 215.018 664.57 214.865 665.145 214.865C665.265 214.865 665.405 214.869 665.567 214.877C665.733 214.886 665.863 214.897 665.957 214.909V216.738C665.88 216.716 665.744 216.693 665.548 216.667C665.352 216.637 665.156 216.622 664.96 216.622C664.508 216.622 664.105 216.718 663.752 216.91C663.402 217.098 663.125 217.36 662.921 217.696C662.716 218.029 662.614 218.408 662.614 218.834V224.83H660.703ZM671.491 225.028C670.524 225.028 669.691 224.821 668.992 224.408C668.297 223.99 667.76 223.404 667.381 222.65C667.006 221.892 666.818 221.003 666.818 219.985C666.818 218.979 667.006 218.093 667.381 217.326C667.76 216.559 668.289 215.96 668.966 215.529C669.648 215.099 670.445 214.884 671.357 214.884C671.911 214.884 672.448 214.975 672.968 215.159C673.487 215.342 673.954 215.63 674.367 216.022C674.781 216.414 675.107 216.923 675.345 217.549C675.584 218.171 675.703 218.928 675.703 219.818V220.496H667.899V219.064H673.83C673.83 218.561 673.728 218.116 673.524 217.728C673.319 217.336 673.031 217.027 672.661 216.801C672.294 216.576 671.864 216.463 671.369 216.463C670.833 216.463 670.364 216.595 669.963 216.859C669.567 217.119 669.26 217.46 669.043 217.882C668.83 218.299 668.723 218.753 668.723 219.243V220.362C668.723 221.018 668.838 221.576 669.068 222.037C669.303 222.497 669.629 222.848 670.046 223.091C670.464 223.33 670.952 223.449 671.51 223.449C671.872 223.449 672.203 223.398 672.501 223.296C672.799 223.189 673.057 223.032 673.274 222.823C673.492 222.614 673.658 222.356 673.773 222.049L675.582 222.375C675.437 222.908 675.177 223.375 674.802 223.775C674.431 224.171 673.965 224.48 673.402 224.702C672.844 224.919 672.207 225.028 671.491 225.028ZM682.055 225.028C681.088 225.028 680.255 224.821 679.556 224.408C678.862 223.99 678.325 223.404 677.945 222.65C677.57 221.892 677.383 221.003 677.383 219.985C677.383 218.979 677.57 218.093 677.945 217.326C678.325 216.559 678.853 215.96 679.531 215.529C680.212 215.099 681.009 214.884 681.921 214.884C682.475 214.884 683.012 214.975 683.532 215.159C684.052 215.342 684.518 215.63 684.932 216.022C685.345 216.414 685.671 216.923 685.91 217.549C686.148 218.171 686.268 218.928 686.268 219.818V220.496H678.463V219.064H684.395C684.395 218.561 684.293 218.116 684.088 217.728C683.884 217.336 683.596 217.027 683.225 216.801C682.859 216.576 682.428 216.463 681.934 216.463C681.397 216.463 680.928 216.595 680.528 216.859C680.131 217.119 679.825 217.46 679.607 217.882C679.394 218.299 679.288 218.753 679.288 219.243V220.362C679.288 221.018 679.403 221.576 679.633 222.037C679.867 222.497 680.193 222.848 680.611 223.091C681.028 223.33 681.516 223.449 682.075 223.449C682.437 223.449 682.767 223.398 683.065 223.296C683.364 223.189 683.621 223.032 683.839 222.823C684.056 222.614 684.222 222.356 684.337 222.049L686.146 222.375C686.001 222.908 685.741 223.375 685.366 223.775C684.996 224.171 684.529 224.48 683.967 224.702C683.408 224.919 682.771 225.028 682.055 225.028Z" fill="white"/>
<g clip-path="url(#clip0_0_605)">
<path d="M527.75 274.02L517.25 284.52L512 279.27" stroke="#161616" stroke-width="2" stroke-linecap="round" stroke-linejoin="round"/>
</g>
<path d="M542.486 279.736V284.27H540.999V276.633H542.426V277.876H542.521C542.696 277.472 542.971 277.147 543.346 276.902C543.724 276.657 544.199 276.534 544.773 276.534C545.293 276.534 545.749 276.643 546.14 276.862C546.531 277.078 546.834 277.399 547.05 277.827C547.265 278.254 547.373 278.783 547.373 279.413V284.27H545.886V279.592C545.886 279.038 545.742 278.605 545.454 278.294C545.165 277.979 544.769 277.822 544.266 277.822C543.921 277.822 543.614 277.896 543.346 278.045C543.081 278.194 542.87 278.413 542.714 278.702C542.562 278.987 542.486 279.331 542.486 279.736ZM552.583 284.424C551.867 284.424 551.242 284.26 550.709 283.932C550.175 283.604 549.761 283.145 549.466 282.555C549.171 281.965 549.023 281.275 549.023 280.486C549.023 279.694 549.171 279.002 549.466 278.408C549.761 277.815 550.175 277.354 550.709 277.026C551.242 276.698 551.867 276.534 552.583 276.534C553.299 276.534 553.924 276.698 554.457 277.026C554.991 277.354 555.405 277.815 555.7 278.408C555.995 279.002 556.143 279.694 556.143 280.486C556.143 281.275 555.995 281.965 555.7 282.555C555.405 283.145 554.991 283.604 554.457 283.932C553.924 284.26 553.299 284.424 552.583 284.424ZM552.588 283.176C553.052 283.176 553.437 283.053 553.741 282.808C554.046 282.563 554.272 282.236 554.418 281.829C554.567 281.421 554.641 280.972 554.641 280.481C554.641 279.994 554.567 279.547 554.418 279.139C554.272 278.728 554.046 278.398 553.741 278.15C553.437 277.901 553.052 277.777 552.588 277.777C552.121 277.777 551.733 277.901 551.425 278.15C551.12 278.398 550.893 278.728 550.744 279.139C550.598 279.547 550.525 279.994 550.525 280.481C550.525 280.972 550.598 281.421 550.744 281.829C550.893 282.236 551.12 282.563 551.425 282.808C551.733 283.053 552.121 283.176 552.588 283.176ZM564.724 284.424C563.985 284.424 563.348 284.257 562.815 283.922C562.284 283.584 561.877 283.118 561.592 282.525C561.307 281.931 561.164 281.252 561.164 280.486C561.164 279.711 561.31 279.026 561.602 278.433C561.893 277.837 562.304 277.371 562.835 277.036C563.365 276.701 563.99 276.534 564.709 276.534C565.289 276.534 565.806 276.642 566.26 276.857C566.714 277.069 567.08 277.368 567.359 277.752C567.64 278.136 567.808 278.586 567.861 279.099H566.414C566.335 278.741 566.152 278.433 565.867 278.175C565.585 277.916 565.208 277.787 564.734 277.787C564.319 277.787 563.956 277.896 563.645 278.115C563.337 278.33 563.096 278.639 562.924 279.04C562.752 279.437 562.665 279.908 562.665 280.452C562.665 281.008 562.75 281.489 562.919 281.893C563.088 282.298 563.327 282.611 563.635 282.833C563.946 283.055 564.313 283.166 564.734 283.166C565.015 283.166 565.271 283.115 565.499 283.012C565.731 282.906 565.925 282.755 566.081 282.56C566.24 282.364 566.351 282.129 566.414 281.854H567.861C567.808 282.347 567.647 282.788 567.379 283.176C567.11 283.564 566.75 283.869 566.3 284.091C565.852 284.313 565.327 284.424 564.724 284.424ZM569.45 284.27V276.633H570.887V277.846H570.967C571.106 277.435 571.351 277.112 571.703 276.877C572.057 276.638 572.458 276.519 572.906 276.519C572.999 276.519 573.108 276.522 573.234 276.529C573.363 276.536 573.464 276.544 573.537 276.554V277.976C573.477 277.959 573.371 277.941 573.219 277.921C573.066 277.898 572.914 277.886 572.762 277.886C572.41 277.886 572.097 277.961 571.822 278.11C571.55 278.256 571.335 278.46 571.176 278.721C571.017 278.98 570.937 279.275 570.937 279.606V284.27H569.45ZM577.841 284.424C577.089 284.424 576.441 284.263 575.897 283.942C575.357 283.617 574.94 283.161 574.645 282.574C574.353 281.985 574.207 281.293 574.207 280.501C574.207 279.719 574.353 279.03 574.645 278.433C574.94 277.837 575.35 277.371 575.877 277.036C576.408 276.701 577.028 276.534 577.737 276.534C578.168 276.534 578.585 276.605 578.99 276.748C579.394 276.89 579.757 277.114 580.078 277.419C580.4 277.724 580.654 278.12 580.839 278.607C581.025 279.091 581.118 279.679 581.118 280.372V280.899H575.047V279.785H579.661C579.661 279.394 579.581 279.048 579.422 278.746C579.263 278.441 579.039 278.201 578.751 278.025C578.466 277.85 578.131 277.762 577.747 277.762C577.329 277.762 576.965 277.865 576.653 278.07C576.345 278.272 576.106 278.538 575.937 278.866C575.771 279.19 575.689 279.543 575.689 279.925V280.795C575.689 281.305 575.778 281.739 575.957 282.097C576.139 282.455 576.393 282.729 576.718 282.918C577.042 283.103 577.422 283.196 577.856 283.196C578.138 283.196 578.395 283.156 578.627 283.077C578.859 282.994 579.059 282.871 579.228 282.709C579.397 282.546 579.527 282.346 579.616 282.107L581.023 282.361C580.91 282.775 580.708 283.138 580.417 283.449C580.128 283.758 579.765 283.998 579.328 284.17C578.894 284.339 578.398 284.424 577.841 284.424ZM585.626 284.419C585.009 284.419 584.459 284.261 583.975 283.947C583.494 283.628 583.117 283.176 582.841 282.589C582.57 281.999 582.434 281.292 582.434 280.467C582.434 279.641 582.571 278.935 582.846 278.349C583.125 277.762 583.506 277.313 583.99 277.001C584.474 276.69 585.022 276.534 585.635 276.534C586.109 276.534 586.491 276.614 586.779 276.773C587.071 276.928 587.296 277.111 587.455 277.319C587.617 277.528 587.743 277.712 587.833 277.871H587.922V274.088H589.409V284.27H587.957V283.082H587.833C587.743 283.244 587.614 283.43 587.445 283.638C587.279 283.847 587.051 284.029 586.759 284.185C586.467 284.341 586.09 284.419 585.626 284.419ZM585.954 283.151C586.381 283.151 586.742 283.038 587.037 282.813C587.336 282.584 587.561 282.268 587.714 281.864C587.869 281.459 587.947 280.989 587.947 280.452C587.947 279.921 587.871 279.457 587.719 279.06C587.566 278.662 587.342 278.352 587.047 278.13C586.752 277.908 586.388 277.797 585.954 277.797C585.506 277.797 585.133 277.913 584.835 278.145C584.537 278.377 584.311 278.693 584.159 279.094C584.01 279.495 583.935 279.948 583.935 280.452C583.935 280.962 584.011 281.421 584.164 281.829C584.316 282.236 584.542 282.56 584.84 282.798C585.142 283.034 585.513 283.151 585.954 283.151ZM591.531 284.27V276.633H593.017V284.27H591.531ZM592.281 275.455C592.023 275.455 591.801 275.369 591.615 275.197C591.433 275.021 591.342 274.812 591.342 274.57C591.342 274.325 591.433 274.116 591.615 273.944C591.801 273.768 592.023 273.68 592.281 273.68C592.54 273.68 592.76 273.768 592.942 273.944C593.128 274.116 593.221 274.325 593.221 274.57C593.221 274.812 593.128 275.021 592.942 275.197C592.76 275.369 592.54 275.455 592.281 275.455ZM598.581 276.633V277.827H594.41V276.633H598.581ZM595.529 274.804H597.015V282.028C597.015 282.316 597.059 282.533 597.145 282.679C597.231 282.821 597.342 282.919 597.478 282.972C597.617 283.022 597.768 283.047 597.93 283.047C598.05 283.047 598.154 283.038 598.243 283.022C598.333 283.005 598.403 282.992 598.452 282.982L598.721 284.21C598.635 284.243 598.512 284.276 598.353 284.31C598.194 284.346 597.995 284.366 597.756 284.369C597.365 284.376 597.001 284.306 596.662 284.16C596.324 284.015 596.051 283.789 595.842 283.484C595.633 283.179 595.529 282.797 595.529 282.336V274.804ZM607.148 284.424C606.408 284.424 605.772 284.257 605.238 283.922C604.708 283.584 604.3 283.118 604.015 282.525C603.73 281.931 603.588 281.252 603.588 280.486C603.588 279.711 603.734 279.026 604.025 278.433C604.317 277.837 604.728 277.371 605.258 277.036C605.789 276.701 606.413 276.534 607.133 276.534C607.713 276.534 608.23 276.642 608.684 276.857C609.138 277.069 609.504 277.368 609.782 277.752C610.064 278.136 610.232 278.586 610.285 279.099H608.838C608.758 278.741 608.576 278.433 608.291 278.175C608.009 277.916 607.631 277.787 607.157 277.787C606.743 277.787 606.38 277.896 606.069 278.115C605.76 278.33 605.52 278.639 605.348 279.04C605.175 279.437 605.089 279.908 605.089 280.452C605.089 281.008 605.174 281.489 605.343 281.893C605.512 282.298 605.751 282.611 606.059 282.833C606.37 283.055 606.737 283.166 607.157 283.166C607.439 283.166 607.694 283.115 607.923 283.012C608.155 282.906 608.349 282.755 608.505 282.56C608.664 282.364 608.775 282.129 608.838 281.854H610.285C610.232 282.347 610.071 282.788 609.802 283.176C609.534 283.564 609.174 283.869 608.724 284.091C608.276 284.313 607.751 284.424 607.148 284.424ZM614.097 284.439C613.613 284.439 613.175 284.349 612.784 284.17C612.393 283.988 612.083 283.725 611.854 283.38C611.629 283.035 611.516 282.613 611.516 282.112C611.516 281.681 611.599 281.327 611.765 281.048C611.931 280.77 612.154 280.549 612.436 280.387C612.718 280.225 613.033 280.102 613.381 280.019C613.729 279.936 614.083 279.873 614.445 279.83C614.902 279.777 615.273 279.734 615.558 279.701C615.843 279.664 616.05 279.606 616.18 279.527C616.309 279.447 616.374 279.318 616.374 279.139V279.104C616.374 278.67 616.251 278.334 616.006 278.095C615.764 277.856 615.402 277.737 614.922 277.737C614.421 277.737 614.027 277.848 613.739 278.07C613.454 278.289 613.256 278.533 613.147 278.801L611.75 278.483C611.916 278.019 612.158 277.644 612.476 277.359C612.797 277.071 613.167 276.862 613.585 276.733C614.002 276.6 614.441 276.534 614.902 276.534C615.207 276.534 615.53 276.57 615.871 276.643C616.216 276.713 616.538 276.842 616.836 277.031C617.138 277.22 617.384 277.49 617.577 277.842C617.769 278.19 617.865 278.642 617.865 279.199V284.27H616.413V283.226H616.354C616.258 283.418 616.113 283.607 615.921 283.793C615.729 283.978 615.482 284.132 615.18 284.255C614.879 284.377 614.518 284.439 614.097 284.439ZM614.42 283.246C614.831 283.246 615.182 283.164 615.474 283.002C615.769 282.84 615.992 282.627 616.145 282.366C616.301 282.101 616.379 281.817 616.379 281.516V280.531C616.326 280.584 616.223 280.634 616.07 280.68C615.921 280.723 615.75 280.761 615.558 280.795C615.366 280.824 615.179 280.853 614.996 280.879C614.814 280.902 614.662 280.922 614.539 280.939C614.251 280.975 613.987 281.037 613.749 281.123C613.513 281.209 613.324 281.333 613.182 281.496C613.043 281.655 612.973 281.867 612.973 282.132C612.973 282.5 613.109 282.778 613.381 282.967C613.652 283.153 613.999 283.246 614.42 283.246ZM619.845 284.27V276.633H621.282V277.846H621.361C621.501 277.435 621.746 277.112 622.097 276.877C622.452 276.638 622.853 276.519 623.3 276.519C623.393 276.519 623.502 276.522 623.628 276.529C623.758 276.536 623.859 276.544 623.932 276.554V277.976C623.872 277.959 623.766 277.941 623.613 277.921C623.461 277.898 623.309 277.886 623.156 277.886C622.805 277.886 622.492 277.961 622.216 278.11C621.945 278.256 621.729 278.46 621.57 278.721C621.411 278.98 621.331 279.275 621.331 279.606V284.27H619.845ZM627.803 284.419C627.187 284.419 626.637 284.261 626.153 283.947C625.672 283.628 625.294 283.176 625.019 282.589C624.747 281.999 624.612 281.292 624.612 280.467C624.612 279.641 624.749 278.935 625.024 278.349C625.303 277.762 625.684 277.313 626.168 277.001C626.652 276.69 627.2 276.534 627.813 276.534C628.287 276.534 628.668 276.614 628.957 276.773C629.248 276.928 629.474 277.111 629.633 277.319C629.795 277.528 629.921 277.712 630.011 277.871H630.1V274.088H631.587V284.27H630.135V283.082H630.011C629.921 283.244 629.792 283.43 629.623 283.638C629.457 283.847 629.228 284.029 628.937 284.185C628.645 284.341 628.267 284.419 627.803 284.419ZM628.131 283.151C628.559 283.151 628.92 283.038 629.215 282.813C629.513 282.584 629.739 282.268 629.891 281.864C630.047 281.459 630.125 280.989 630.125 280.452C630.125 279.921 630.049 279.457 629.896 279.06C629.744 278.662 629.52 278.352 629.225 278.13C628.93 277.908 628.566 277.797 628.131 277.797C627.684 277.797 627.311 277.913 627.013 278.145C626.714 278.377 626.489 278.693 626.337 279.094C626.188 279.495 626.113 279.948 626.113 280.452C626.113 280.962 626.189 281.421 626.342 281.829C626.494 282.236 626.719 282.56 627.018 282.798C627.319 283.034 627.691 283.151 628.131 283.151ZM637.413 284.27V276.633H638.85V277.846H638.93C639.069 277.435 639.314 277.112 639.665 276.877C640.02 276.638 640.421 276.519 640.869 276.519C640.961 276.519 641.071 276.522 641.197 276.529C641.326 276.536 641.427 276.544 641.5 276.554V277.976C641.44 277.959 641.334 277.941 641.182 277.921C641.029 277.898 640.877 277.886 640.724 277.886C640.373 277.886 640.06 277.961 639.785 278.11C639.513 278.256 639.298 278.46 639.138 278.721C638.979 278.98 638.9 279.275 638.9 279.606V284.27H637.413ZM645.804 284.424C645.052 284.424 644.404 284.263 643.86 283.942C643.32 283.617 642.902 283.161 642.607 282.574C642.316 281.985 642.17 281.293 642.17 280.501C642.17 279.719 642.316 279.03 642.607 278.433C642.902 277.837 643.313 277.371 643.84 277.036C644.371 276.701 644.99 276.534 645.7 276.534C646.131 276.534 646.548 276.605 646.953 276.748C647.357 276.89 647.72 277.114 648.041 277.419C648.363 277.724 648.616 278.12 648.802 278.607C648.988 279.091 649.08 279.679 649.08 280.372V280.899H643.01V279.785H647.624C647.624 279.394 647.544 279.048 647.385 278.746C647.226 278.441 647.002 278.201 646.714 278.025C646.429 277.85 646.094 277.762 645.71 277.762C645.292 277.762 644.927 277.865 644.616 278.07C644.308 278.272 644.069 278.538 643.9 278.866C643.734 279.19 643.651 279.543 643.651 279.925V280.795C643.651 281.305 643.741 281.739 643.92 282.097C644.102 282.455 644.356 282.729 644.681 282.918C645.005 283.103 645.385 283.196 645.819 283.196C646.101 283.196 646.358 283.156 646.59 283.077C646.822 282.994 647.022 282.871 647.191 282.709C647.36 282.546 647.49 282.346 647.579 282.107L648.986 282.361C648.873 282.775 648.671 283.138 648.379 283.449C648.091 283.758 647.728 283.998 647.291 284.17C646.856 284.339 646.361 284.424 645.804 284.424ZM655.885 287.133V283.082H655.796C655.706 283.244 655.577 283.43 655.408 283.638C655.242 283.847 655.014 284.029 654.722 284.185C654.43 284.341 654.052 284.419 653.588 284.419C652.972 284.419 652.422 284.261 651.938 283.947C651.457 283.628 651.079 283.176 650.804 282.589C650.533 281.999 650.397 281.292 650.397 280.467C650.397 279.641 650.534 278.935 650.809 278.349C651.088 277.762 651.469 277.313 651.953 277.001C652.437 276.69 652.985 276.534 653.598 276.534C654.072 276.534 654.453 276.614 654.742 276.773C655.033 276.928 655.259 277.111 655.418 277.319C655.58 277.528 655.706 277.712 655.796 277.871H655.92V276.633H657.372V287.133H655.885ZM653.917 283.151C654.344 283.151 654.705 283.038 655 282.813C655.299 282.584 655.524 282.268 655.676 281.864C655.832 281.459 655.91 280.989 655.91 280.452C655.91 279.921 655.834 279.457 655.681 279.06C655.529 278.662 655.305 278.352 655.01 278.13C654.715 277.908 654.351 277.797 653.917 277.797C653.469 277.797 653.096 277.913 652.798 278.145C652.5 278.377 652.274 278.693 652.122 279.094C651.973 279.495 651.898 279.948 651.898 280.452C651.898 280.962 651.974 281.421 652.127 281.829C652.279 282.236 652.505 282.56 652.803 282.798C653.105 283.034 653.476 283.151 653.917 283.151ZM664.208 281.103V276.633H665.699V284.27H664.238V282.947H664.158C663.982 283.355 663.701 283.695 663.313 283.967C662.928 284.235 662.449 284.369 661.876 284.369C661.386 284.369 660.951 284.261 660.574 284.046C660.199 283.827 659.904 283.504 659.689 283.077C659.476 282.649 659.37 282.12 659.37 281.491V276.633H660.857V281.312C660.857 281.832 661.001 282.246 661.289 282.555C661.578 282.863 661.952 283.017 662.413 283.017C662.691 283.017 662.968 282.947 663.243 282.808C663.522 282.669 663.752 282.458 663.934 282.177C664.12 281.895 664.211 281.537 664.208 281.103ZM667.697 284.27V276.633H669.183V284.27H667.697ZM668.447 275.455C668.189 275.455 667.967 275.369 667.781 275.197C667.599 275.021 667.508 274.812 667.508 274.57C667.508 274.325 667.599 274.116 667.781 273.944C667.967 273.768 668.189 273.68 668.447 273.68C668.706 273.68 668.926 273.768 669.108 273.944C669.294 274.116 669.387 274.325 669.387 274.57C669.387 274.812 669.294 275.021 669.108 275.197C668.926 275.369 668.706 275.455 668.447 275.455ZM671.183 284.27V276.633H672.62V277.846H672.699C672.838 277.435 673.084 277.112 673.435 276.877C673.79 276.638 674.191 276.519 674.638 276.519C674.731 276.519 674.84 276.522 674.966 276.529C675.096 276.536 675.197 276.544 675.27 276.554V277.976C675.21 277.959 675.104 277.941 674.951 277.921C674.799 277.898 674.646 277.886 674.494 277.886C674.143 277.886 673.829 277.961 673.554 278.11C673.283 278.256 673.067 278.46 672.908 278.721C672.749 278.98 672.669 279.275 672.669 279.606V284.27H671.183ZM679.574 284.424C678.821 284.424 678.173 284.263 677.63 283.942C677.09 283.617 676.672 283.161 676.377 282.574C676.085 281.985 675.939 281.293 675.939 280.501C675.939 279.719 676.085 279.03 676.377 278.433C676.672 277.837 677.083 277.371 677.61 277.036C678.14 276.701 678.76 276.534 679.469 276.534C679.9 276.534 680.318 276.605 680.722 276.748C681.126 276.89 681.489 277.114 681.811 277.419C682.132 277.724 682.386 278.12 682.572 278.607C682.757 279.091 682.85 279.679 682.85 280.372V280.899H676.78V279.785H681.393C681.393 279.394 681.314 279.048 681.155 278.746C680.996 278.441 680.772 278.201 680.483 278.025C680.198 277.85 679.864 277.762 679.479 277.762C679.062 277.762 678.697 277.865 678.385 278.07C678.077 278.272 677.839 278.538 677.67 278.866C677.504 279.19 677.421 279.543 677.421 279.925V280.795C677.421 281.305 677.51 281.739 677.689 282.097C677.872 282.455 678.125 282.729 678.45 282.918C678.775 283.103 679.154 283.196 679.589 283.196C679.87 283.196 680.127 283.156 680.359 283.077C680.591 282.994 680.792 282.871 680.961 282.709C681.13 282.546 681.259 282.346 681.349 282.107L682.756 282.361C682.643 282.775 682.441 283.138 682.149 283.449C681.861 283.758 681.498 283.998 681.06 284.17C680.626 284.339 680.131 284.424 679.574 284.424ZM687.358 284.419C686.741 284.419 686.191 284.261 685.707 283.947C685.227 283.628 684.849 283.176 684.574 282.589C684.302 281.999 684.166 281.292 684.166 280.467C684.166 279.641 684.304 278.935 684.579 278.349C684.857 277.762 685.238 277.313 685.722 277.001C686.206 276.69 686.755 276.534 687.368 276.534C687.842 276.534 688.223 276.614 688.511 276.773C688.803 276.928 689.028 277.111 689.188 277.319C689.35 277.528 689.476 277.712 689.565 277.871H689.655V274.088H691.141V284.27H689.69V283.082H689.565C689.476 283.244 689.347 283.43 689.178 283.638C689.012 283.847 688.783 284.029 688.491 284.185C688.2 284.341 687.822 284.419 687.358 284.419ZM687.686 283.151C688.114 283.151 688.475 283.038 688.77 282.813C689.068 282.584 689.294 282.268 689.446 281.864C689.602 281.459 689.68 280.989 689.68 280.452C689.68 279.921 689.603 279.457 689.451 279.06C689.299 278.662 689.075 278.352 688.78 278.13C688.485 277.908 688.12 277.797 687.686 277.797C687.239 277.797 686.866 277.913 686.567 278.145C686.269 278.377 686.044 278.693 685.891 279.094C685.742 279.495 685.668 279.948 685.668 280.452C685.668 280.962 685.744 281.421 685.896 281.829C686.049 282.236 686.274 282.56 686.572 282.798C686.874 283.034 687.245 283.151 687.686 283.151Z" fill="#161616"/>
<defs>
<clipPath id="clip0_0_605">
<rect width="25" height="24" fill="white" transform="translate(507 267.27)"/>
</clipPath>
</defs>
</svg>
