<svg width="103" height="145" viewBox="0 0 103 145" fill="none" xmlns="http://www.w3.org/2000/svg">
<path d="M103.008 119.609V145H3.78906V123.516L49.4922 75.4688C53.5286 70.8464 56.7839 66.7122 59.2578 63.0664C61.7318 59.3555 63.5221 56.0026 64.6289 53.0078C65.8008 50.013 66.3867 47.3112 66.3867 44.9023C66.3867 40.8008 65.7682 37.3828 64.5312 34.6484C63.3594 31.849 61.6016 29.7331 59.2578 28.3008C56.9792 26.8685 54.1471 26.1523 50.7617 26.1523C47.3763 26.1523 44.4141 27.1289 41.875 29.082C39.3359 31.0352 37.3503 33.7044 35.918 37.0898C34.5508 40.4753 33.8672 44.2839 33.8672 48.5156H0.859375C0.859375 39.7917 2.97526 31.8164 7.20703 24.5898C11.5039 17.3633 17.4609 11.6016 25.0781 7.30469C32.6953 2.94271 41.5169 0.761719 51.543 0.761719C62.0247 0.761719 70.8138 2.38932 77.9102 5.64453C85.0065 8.89974 90.3451 13.6198 93.9258 19.8047C97.5716 25.9245 99.3945 33.3138 99.3945 41.9727C99.3945 46.9206 98.6133 51.6732 97.0508 56.2305C95.4883 60.7878 93.2422 65.3125 90.3125 69.8047C87.3828 74.2318 83.8021 78.7891 79.5703 83.4766C75.4036 88.1641 70.651 93.1445 65.3125 98.418L46.9531 119.609H103.008Z" fill="#F2F2F2"/>
</svg>
