<svg width="54" height="53" viewBox="0 0 54 53" fill="none" xmlns="http://www.w3.org/2000/svg">
<rect x="1.43555" y="0.5" width="52" height="52" fill="#F9F9F9" stroke="#F2F2F2"/>
<path fill-rule="evenodd" clip-rule="evenodd" d="M18.9355 26.5C18.9355 26.2239 19.1594 26 19.4355 26L35.4355 26C35.7117 26 35.9355 26.2239 35.9355 26.5C35.9355 26.7761 35.7117 27 35.4355 27L19.4355 27C19.1594 27 18.9355 26.7761 18.9355 26.5Z" fill="#333333"/>
<path fill-rule="evenodd" clip-rule="evenodd" d="M31.582 22.6464C31.7773 22.4512 32.0938 22.4512 32.2891 22.6464L36.1427 26.5L32.2891 30.3536C32.0938 30.5488 31.7773 30.5488 31.582 30.3536C31.3867 30.1583 31.3867 29.8417 31.582 29.6464L34.7284 26.5L31.582 23.3536C31.3867 23.1583 31.3867 22.8417 31.582 22.6464Z" fill="#333333"/>
</svg>
