<svg width="20" height="20" viewBox="0 0 20 20" fill="none" xmlns="http://www.w3.org/2000/svg">
<g clip-path="url(#clip0_0_106)">
<path fill-rule="evenodd" clip-rule="evenodd" d="M18.5127 19.013H1.48872C0.672719 19.013 0.0117188 18.434 0.0117188 17.72V2.28199C0.0117188 1.56899 0.672719 0.98999 1.48872 0.98999H18.5127C19.3277 0.98999 19.9887 1.56899 19.9887 2.28199V17.72C19.9887 18.434 19.3277 19.013 18.5127 19.013ZM3.47372 16.044H6.41572V7.90699H3.47372V16.044ZM4.96472 3.98499C3.95772 3.98499 3.30072 4.59199 3.30072 5.39099C3.30072 6.17099 3.93872 6.79699 4.92572 6.79699H4.94472C5.97072 6.79699 6.60872 6.17099 6.60872 5.39099C6.59072 4.59199 5.97072 3.98499 4.96472 3.98499ZM17.0237 11.379C17.0237 8.87899 15.5717 7.71599 13.6367 7.71599C12.0747 7.71599 11.3767 8.50499 10.9857 9.05999V7.90699H8.04372C8.08272 8.67099 8.04372 16.044 8.04372 16.044H10.9857V11.5C10.9857 11.258 11.0047 11.014 11.0827 10.841C11.2947 10.355 11.7797 9.85199 12.5917 9.85199C13.6567 9.85199 14.0817 10.598 14.0817 11.692V16.044H17.0237V11.379ZM10.9657 9.08699C10.9717 9.07799 10.9797 9.06899 10.9857 9.05999V9.08699H10.9657Z" fill="white"/>
</g>
<defs>
<clipPath id="clip0_0_106">
<rect width="20" height="20" fill="white"/>
</clipPath>
</defs>
</svg>
