<svg width="14" height="19" viewBox="0 0 14 19" fill="none" xmlns="http://www.w3.org/2000/svg">
<g clip-path="url(#clip0_0_113)">
<path fill-rule="evenodd" clip-rule="evenodd" d="M7.42495 0C2.48995 0 0.00195312 3.522 0.00195312 6.46C0.00195312 8.238 0.677953 9.82 2.12895 10.41C2.36695 10.507 2.57995 10.413 2.64895 10.151C2.69695 9.97 2.81095 9.512 2.86095 9.321C2.93095 9.062 2.90395 8.971 2.71195 8.745C2.29295 8.254 2.02595 7.618 2.02595 6.717C2.02595 4.104 3.98995 1.765 7.13995 1.765C9.92895 1.765 11.461 3.462 11.461 5.727C11.461 8.709 10.136 11.225 8.16795 11.225C7.08195 11.225 6.26895 10.33 6.52895 9.233C6.84195 7.924 7.44595 6.51 7.44595 5.564C7.44595 4.718 6.98995 4.012 6.04495 4.012C4.93495 4.012 4.04295 5.156 4.04295 6.688C4.04295 7.665 4.37395 8.325 4.37395 8.325C4.37395 8.325 3.23695 13.119 3.03795 13.959C2.64095 15.631 2.97895 17.681 3.00695 17.889C3.02395 18.011 3.18195 18.04 3.25395 17.948C3.35595 17.814 4.67895 16.189 5.12895 14.564C5.25595 14.104 5.85895 11.722 5.85895 11.722C6.21995 12.407 7.27495 13.011 8.39595 13.011C11.735 13.011 14 9.98 14 5.924C14 2.857 11.391 0 7.42495 0Z" fill="white"/>
</g>
<defs>
<clipPath id="clip0_0_113">
<rect width="14" height="19" fill="white"/>
</clipPath>
</defs>
</svg>
