<svg width="149" height="13" viewBox="0 0 149 13" fill="none" xmlns="http://www.w3.org/2000/svg">
<path d="M5.23242 3.79492C4.74414 3.79492 4.36719 3.96484 4.10156 4.30469C3.83984 4.64453 3.70898 5.11523 3.70898 5.7168C3.70898 6.37305 3.83203 6.85938 4.07812 7.17578C4.32812 7.49219 4.70898 7.65039 5.2207 7.65039C5.55664 7.65039 5.96875 7.5625 6.45703 7.38672V8.11328C6.26953 8.19141 6.07617 8.25781 5.87695 8.3125C5.68164 8.36719 5.44727 8.39453 5.17383 8.39453C4.41602 8.39453 3.83398 8.16016 3.42773 7.69141C3.02148 7.21875 2.81836 6.56055 2.81836 5.7168C2.81836 4.90039 3.0332 4.25195 3.46289 3.77148C3.89648 3.29102 4.48633 3.05078 5.23242 3.05078C5.73242 3.05078 6.21289 3.16797 6.67383 3.40234L6.33398 4.09375C5.91211 3.89453 5.54492 3.79492 5.23242 3.79492ZM0.585938 5.7168C0.585938 4.93555 0.78125 4.20312 1.17188 3.51953C1.5625 2.83594 2.09961 2.29688 2.7832 1.90234C3.4668 1.50781 4.20312 1.31055 4.99219 1.31055C5.77344 1.31055 6.50586 1.50586 7.18945 1.89648C7.87305 2.28711 8.41211 2.82422 8.80664 3.50781C9.20117 4.19141 9.39844 4.92773 9.39844 5.7168C9.39844 6.48633 9.20898 7.20898 8.83008 7.88477C8.45117 8.56055 7.91992 9.10156 7.23633 9.50781C6.55273 9.91406 5.80469 10.1172 4.99219 10.1172C4.18359 10.1172 3.4375 9.91602 2.75391 9.51367C2.07031 9.10742 1.53711 8.56641 1.1543 7.89062C0.775391 7.21484 0.585938 6.49023 0.585938 5.7168ZM1.20117 5.7168C1.20117 6.39258 1.37109 7.02539 1.71094 7.61523C2.05078 8.20117 2.51367 8.66406 3.09961 9.00391C3.68945 9.33984 4.32031 9.50781 4.99219 9.50781C5.67188 9.50781 6.30273 9.33789 6.88477 8.99805C7.4668 8.6582 7.92773 8.19922 8.26758 7.62109C8.61133 7.03906 8.7832 6.4043 8.7832 5.7168C8.7832 5.03711 8.61328 4.40625 8.27344 3.82422C7.93359 3.24219 7.47266 2.78125 6.89062 2.44141C6.3125 2.09766 5.67969 1.92578 4.99219 1.92578C4.3125 1.92578 3.68164 2.0957 3.09961 2.43555C2.51758 2.77539 2.05469 3.23633 1.71094 3.81836C1.37109 4.39648 1.20117 5.0293 1.20117 5.7168ZM19.3184 10H13.6875V9.16211L15.9434 6.89453C16.6309 6.19922 17.084 5.70312 17.3027 5.40625C17.5215 5.10938 17.6855 4.82031 17.7949 4.53906C17.9043 4.25781 17.959 3.95508 17.959 3.63086C17.959 3.17383 17.8203 2.8125 17.543 2.54688C17.2656 2.27734 16.8809 2.14258 16.3887 2.14258C16.0332 2.14258 15.6953 2.20117 15.375 2.31836C15.0586 2.43555 14.7051 2.64844 14.3145 2.95703L13.7988 2.29492C14.5879 1.63867 15.4473 1.31055 16.377 1.31055C17.1816 1.31055 17.8125 1.51758 18.2695 1.93164C18.7266 2.3418 18.9551 2.89453 18.9551 3.58984C18.9551 4.13281 18.8027 4.66992 18.498 5.20117C18.1934 5.73242 17.623 6.4043 16.7871 7.2168L14.9121 9.05078V9.09766H19.3184V10ZM26.2324 5.70508C26.2324 7.18555 25.998 8.29102 25.5293 9.02148C25.0645 9.75195 24.3516 10.1172 23.3906 10.1172C22.4688 10.1172 21.7676 9.74414 21.2871 8.99805C20.8066 8.24805 20.5664 7.15039 20.5664 5.70508C20.5664 4.21289 20.7988 3.10547 21.2637 2.38281C21.7285 1.66016 22.4375 1.29883 23.3906 1.29883C24.3203 1.29883 25.0254 1.67578 25.5059 2.42969C25.9902 3.18359 26.2324 4.27539 26.2324 5.70508ZM21.5508 5.70508C21.5508 6.95117 21.6973 7.85938 21.9902 8.42969C22.2832 8.99609 22.75 9.2793 23.3906 9.2793C24.0391 9.2793 24.5078 8.99219 24.7969 8.41797C25.0898 7.83984 25.2363 6.93555 25.2363 5.70508C25.2363 4.47461 25.0898 3.57422 24.7969 3.00391C24.5078 2.42969 24.0391 2.14258 23.3906 2.14258C22.75 2.14258 22.2832 2.42578 21.9902 2.99219C21.6973 3.55469 21.5508 4.45898 21.5508 5.70508ZM33.0527 10H27.4219V9.16211L29.6777 6.89453C30.3652 6.19922 30.8184 5.70312 31.0371 5.40625C31.2559 5.10938 31.4199 4.82031 31.5293 4.53906C31.6387 4.25781 31.6934 3.95508 31.6934 3.63086C31.6934 3.17383 31.5547 2.8125 31.2773 2.54688C31 2.27734 30.6152 2.14258 30.123 2.14258C29.7676 2.14258 29.4297 2.20117 29.1094 2.31836C28.793 2.43555 28.4395 2.64844 28.0488 2.95703L27.5332 2.29492C28.3223 1.63867 29.1816 1.31055 30.1113 1.31055C30.916 1.31055 31.5469 1.51758 32.0039 1.93164C32.4609 2.3418 32.6895 2.89453 32.6895 3.58984C32.6895 4.13281 32.5371 4.66992 32.2324 5.20117C31.9277 5.73242 31.3574 6.4043 30.5215 7.2168L28.6465 9.05078V9.09766H33.0527V10ZM37.8926 10H36.9434V3.89453C36.9434 3.38672 36.959 2.90625 36.9902 2.45312C36.9082 2.53516 36.8164 2.62109 36.7148 2.71094C36.6133 2.80078 36.1484 3.18164 35.3203 3.85352L34.8047 3.18555L37.0723 1.43359H37.8926V10ZM50.25 10L49.1836 7.27539H45.75L44.6953 10H43.6875L47.0742 1.39844H47.9121L51.2812 10H50.25ZM48.873 6.37891L47.877 3.72461C47.748 3.38867 47.6152 2.97656 47.4785 2.48828C47.3926 2.86328 47.2695 3.27539 47.1094 3.72461L46.1016 6.37891H48.873ZM53.2852 10H52.3125V0.882812H53.2852V10ZM56.3203 10H55.3477V0.882812H56.3203V10ZM62.6426 6.4375V10H61.6465V1.43359H63.9961C65.0469 1.43359 65.8223 1.63477 66.3223 2.03711C66.8262 2.43945 67.0781 3.04492 67.0781 3.85352C67.0781 4.98633 66.5039 5.75195 65.3555 6.15039L67.6816 10H66.5039L64.4297 6.4375H62.6426ZM62.6426 5.58203H64.0078C64.7109 5.58203 65.2266 5.44336 65.5547 5.16602C65.8828 4.88477 66.0469 4.46484 66.0469 3.90625C66.0469 3.33984 65.8789 2.93164 65.543 2.68164C65.2109 2.43164 64.6758 2.30664 63.9375 2.30664H62.6426V5.58203ZM69.8906 10H68.918V3.57812H69.8906V10ZM68.8359 1.83789C68.8359 1.61523 68.8906 1.45312 69 1.35156C69.1094 1.24609 69.2461 1.19336 69.4102 1.19336C69.5664 1.19336 69.7012 1.24609 69.8145 1.35156C69.9277 1.45703 69.9844 1.61914 69.9844 1.83789C69.9844 2.05664 69.9277 2.2207 69.8145 2.33008C69.7012 2.43555 69.5664 2.48828 69.4102 2.48828C69.2461 2.48828 69.1094 2.43555 69 2.33008C68.8906 2.2207 68.8359 2.05664 68.8359 1.83789ZM77.209 3.57812V4.19336L76.0195 4.33398C76.1289 4.4707 76.2266 4.65039 76.3125 4.87305C76.3984 5.0918 76.4414 5.33984 76.4414 5.61719C76.4414 6.24609 76.2266 6.74805 75.7969 7.12305C75.3672 7.49805 74.7773 7.68555 74.0273 7.68555C73.8359 7.68555 73.6562 7.66992 73.4883 7.63867C73.0742 7.85742 72.8672 8.13281 72.8672 8.46484C72.8672 8.64062 72.9395 8.77148 73.084 8.85742C73.2285 8.93945 73.4766 8.98047 73.8281 8.98047H74.9648C75.6602 8.98047 76.1934 9.12695 76.5645 9.41992C76.9395 9.71289 77.127 10.1387 77.127 10.6973C77.127 11.4082 76.8418 11.9492 76.2715 12.3203C75.7012 12.6953 74.8691 12.8828 73.7754 12.8828C72.9355 12.8828 72.2871 12.7266 71.8301 12.4141C71.377 12.1016 71.1504 11.6602 71.1504 11.0898C71.1504 10.6992 71.2754 10.3613 71.5254 10.0762C71.7754 9.79102 72.127 9.59766 72.5801 9.49609C72.416 9.42188 72.2773 9.30664 72.1641 9.15039C72.0547 8.99414 72 8.8125 72 8.60547C72 8.37109 72.0625 8.16602 72.1875 7.99023C72.3125 7.81445 72.5098 7.64453 72.7793 7.48047C72.4473 7.34375 72.1758 7.11133 71.9648 6.7832C71.7578 6.45508 71.6543 6.08008 71.6543 5.6582C71.6543 4.95508 71.8652 4.41406 72.2871 4.03516C72.709 3.65234 73.3066 3.46094 74.0801 3.46094C74.416 3.46094 74.7188 3.5 74.9883 3.57812H77.209ZM72.0879 11.0781C72.0879 11.4258 72.2344 11.6895 72.5273 11.8691C72.8203 12.0488 73.2402 12.1387 73.7871 12.1387C74.6035 12.1387 75.207 12.0156 75.5977 11.7695C75.9922 11.5273 76.1895 11.1973 76.1895 10.7793C76.1895 10.4316 76.082 10.1895 75.8672 10.0527C75.6523 9.91992 75.248 9.85352 74.6543 9.85352H73.4883C73.0469 9.85352 72.7031 9.95898 72.457 10.1699C72.2109 10.3809 72.0879 10.6836 72.0879 11.0781ZM72.6152 5.63477C72.6152 6.08398 72.7422 6.42383 72.9961 6.6543C73.25 6.88477 73.6035 7 74.0566 7C75.0059 7 75.4805 6.53906 75.4805 5.61719C75.4805 4.65234 75 4.16992 74.0391 4.16992C73.582 4.16992 73.2305 4.29297 72.9844 4.53906C72.7383 4.78516 72.6152 5.15039 72.6152 5.63477ZM82.9219 10V5.8457C82.9219 5.32227 82.8027 4.93164 82.5645 4.67383C82.3262 4.41602 81.9531 4.28711 81.4453 4.28711C80.7695 4.28711 80.2754 4.4707 79.9629 4.83789C79.6543 5.20508 79.5 5.80664 79.5 6.64258V10H78.5273V0.882812H79.5V3.64258C79.5 3.97461 79.4844 4.25 79.4531 4.46875H79.5117C79.7031 4.16016 79.9746 3.91797 80.3262 3.74219C80.6816 3.5625 81.0859 3.47266 81.5391 3.47266C82.3242 3.47266 82.9121 3.66016 83.3027 4.03516C83.6973 4.40625 83.8945 4.99805 83.8945 5.81055V10H82.9219ZM87.9727 9.31445C88.1445 9.31445 88.3105 9.30273 88.4707 9.2793C88.6309 9.25195 88.7578 9.22461 88.8516 9.19727V9.94141C88.7461 9.99219 88.5898 10.0332 88.3828 10.0645C88.1797 10.0996 87.9961 10.1172 87.832 10.1172C86.5898 10.1172 85.9688 9.46289 85.9688 8.1543V4.33398H85.0488V3.86523L85.9688 3.46094L86.3789 2.08984H86.9414V3.57812H88.8047V4.33398H86.9414V8.11328C86.9414 8.5 87.0332 8.79688 87.2168 9.00391C87.4004 9.21094 87.6523 9.31445 87.9727 9.31445ZM94.2832 8.24805C94.2832 8.8457 94.0605 9.30664 93.6152 9.63086C93.1699 9.95508 92.5449 10.1172 91.7402 10.1172C90.8887 10.1172 90.2246 9.98242 89.748 9.71289V8.81055C90.0566 8.9668 90.3867 9.08984 90.7383 9.17969C91.0938 9.26953 91.4355 9.31445 91.7637 9.31445C92.2715 9.31445 92.6621 9.23438 92.9355 9.07422C93.209 8.91016 93.3457 8.66211 93.3457 8.33008C93.3457 8.08008 93.2363 7.86719 93.0176 7.69141C92.8027 7.51172 92.3809 7.30078 91.752 7.05859C91.1543 6.83594 90.7285 6.64258 90.4746 6.47852C90.2246 6.31055 90.0371 6.12109 89.9121 5.91016C89.791 5.69922 89.7305 5.44727 89.7305 5.1543C89.7305 4.63086 89.9434 4.21875 90.3691 3.91797C90.7949 3.61328 91.3789 3.46094 92.1211 3.46094C92.8125 3.46094 93.4883 3.60156 94.1484 3.88281L93.8027 4.67383C93.1582 4.4082 92.5742 4.27539 92.0508 4.27539C91.5898 4.27539 91.2422 4.34766 91.0078 4.49219C90.7734 4.63672 90.6562 4.83594 90.6562 5.08984C90.6562 5.26172 90.6992 5.4082 90.7852 5.5293C90.875 5.65039 91.0176 5.76562 91.2129 5.875C91.4082 5.98438 91.7832 6.14258 92.3379 6.34961C93.0996 6.62695 93.6133 6.90625 93.8789 7.1875C94.1484 7.46875 94.2832 7.82227 94.2832 8.24805ZM100.131 6.4375V10H99.1348V1.43359H101.484C102.535 1.43359 103.311 1.63477 103.811 2.03711C104.314 2.43945 104.566 3.04492 104.566 3.85352C104.566 4.98633 103.992 5.75195 102.844 6.15039L105.17 10H103.992L101.918 6.4375H100.131ZM100.131 5.58203H101.496C102.199 5.58203 102.715 5.44336 103.043 5.16602C103.371 4.88477 103.535 4.46484 103.535 3.90625C103.535 3.33984 103.367 2.93164 103.031 2.68164C102.699 2.43164 102.164 2.30664 101.426 2.30664H100.131V5.58203ZM109.119 10.1172C108.17 10.1172 107.42 9.82812 106.869 9.25C106.322 8.67188 106.049 7.86914 106.049 6.8418C106.049 5.80664 106.303 4.98438 106.811 4.375C107.322 3.76562 108.008 3.46094 108.867 3.46094C109.672 3.46094 110.309 3.72656 110.777 4.25781C111.246 4.78516 111.48 5.48242 111.48 6.34961V6.96484H107.057C107.076 7.71875 107.266 8.29102 107.625 8.68164C107.988 9.07227 108.498 9.26758 109.154 9.26758C109.846 9.26758 110.529 9.12305 111.205 8.83398V9.70117C110.861 9.84961 110.535 9.95508 110.227 10.0176C109.922 10.084 109.553 10.1172 109.119 10.1172ZM108.855 4.27539C108.34 4.27539 107.928 4.44336 107.619 4.7793C107.314 5.11523 107.135 5.58008 107.08 6.17383H110.438C110.438 5.56055 110.301 5.0918 110.027 4.76758C109.754 4.43945 109.363 4.27539 108.855 4.27539ZM117.287 8.24805C117.287 8.8457 117.064 9.30664 116.619 9.63086C116.174 9.95508 115.549 10.1172 114.744 10.1172C113.893 10.1172 113.229 9.98242 112.752 9.71289V8.81055C113.061 8.9668 113.391 9.08984 113.742 9.17969C114.098 9.26953 114.439 9.31445 114.768 9.31445C115.275 9.31445 115.666 9.23438 115.939 9.07422C116.213 8.91016 116.35 8.66211 116.35 8.33008C116.35 8.08008 116.24 7.86719 116.021 7.69141C115.807 7.51172 115.385 7.30078 114.756 7.05859C114.158 6.83594 113.732 6.64258 113.479 6.47852C113.229 6.31055 113.041 6.12109 112.916 5.91016C112.795 5.69922 112.734 5.44727 112.734 5.1543C112.734 4.63086 112.947 4.21875 113.373 3.91797C113.799 3.61328 114.383 3.46094 115.125 3.46094C115.816 3.46094 116.492 3.60156 117.152 3.88281L116.807 4.67383C116.162 4.4082 115.578 4.27539 115.055 4.27539C114.594 4.27539 114.246 4.34766 114.012 4.49219C113.777 4.63672 113.66 4.83594 113.66 5.08984C113.66 5.26172 113.703 5.4082 113.789 5.5293C113.879 5.65039 114.021 5.76562 114.217 5.875C114.412 5.98438 114.787 6.14258 115.342 6.34961C116.104 6.62695 116.617 6.90625 116.883 7.1875C117.152 7.46875 117.287 7.82227 117.287 8.24805ZM121.588 10.1172C120.639 10.1172 119.889 9.82812 119.338 9.25C118.791 8.67188 118.518 7.86914 118.518 6.8418C118.518 5.80664 118.771 4.98438 119.279 4.375C119.791 3.76562 120.477 3.46094 121.336 3.46094C122.141 3.46094 122.777 3.72656 123.246 4.25781C123.715 4.78516 123.949 5.48242 123.949 6.34961V6.96484H119.525C119.545 7.71875 119.734 8.29102 120.094 8.68164C120.457 9.07227 120.967 9.26758 121.623 9.26758C122.314 9.26758 122.998 9.12305 123.674 8.83398V9.70117C123.33 9.84961 123.004 9.95508 122.695 10.0176C122.391 10.084 122.021 10.1172 121.588 10.1172ZM121.324 4.27539C120.809 4.27539 120.396 4.44336 120.088 4.7793C119.783 5.11523 119.604 5.58008 119.549 6.17383H122.906C122.906 5.56055 122.77 5.0918 122.496 4.76758C122.223 4.43945 121.832 4.27539 121.324 4.27539ZM128.543 3.46094C128.828 3.46094 129.084 3.48438 129.311 3.53125L129.176 4.43359C128.91 4.375 128.676 4.3457 128.473 4.3457C127.953 4.3457 127.508 4.55664 127.137 4.97852C126.77 5.40039 126.586 5.92578 126.586 6.55469V10H125.613V3.57812H126.416L126.527 4.76758H126.574C126.812 4.34961 127.1 4.02734 127.436 3.80078C127.771 3.57422 128.141 3.46094 128.543 3.46094ZM131.918 10L129.48 3.57812H130.523L131.906 7.38672C132.219 8.27734 132.402 8.85547 132.457 9.12109H132.504C132.547 8.91406 132.682 8.48633 132.908 7.83789C133.139 7.18555 133.652 5.76562 134.449 3.57812H135.492L133.055 10H131.918ZM139.236 10.1172C138.287 10.1172 137.537 9.82812 136.986 9.25C136.439 8.67188 136.166 7.86914 136.166 6.8418C136.166 5.80664 136.42 4.98438 136.928 4.375C137.439 3.76562 138.125 3.46094 138.984 3.46094C139.789 3.46094 140.426 3.72656 140.895 4.25781C141.363 4.78516 141.598 5.48242 141.598 6.34961V6.96484H137.174C137.193 7.71875 137.383 8.29102 137.742 8.68164C138.105 9.07227 138.615 9.26758 139.271 9.26758C139.963 9.26758 140.646 9.12305 141.322 8.83398V9.70117C140.979 9.84961 140.652 9.95508 140.344 10.0176C140.039 10.084 139.67 10.1172 139.236 10.1172ZM138.973 4.27539C138.457 4.27539 138.045 4.44336 137.736 4.7793C137.432 5.11523 137.252 5.58008 137.197 6.17383H140.555C140.555 5.56055 140.418 5.0918 140.145 4.76758C139.871 4.43945 139.48 4.27539 138.973 4.27539ZM147.633 9.13867H147.58C147.131 9.79102 146.459 10.1172 145.564 10.1172C144.725 10.1172 144.07 9.83008 143.602 9.25586C143.137 8.68164 142.904 7.86523 142.904 6.80664C142.904 5.74805 143.139 4.92578 143.607 4.33984C144.076 3.75391 144.729 3.46094 145.564 3.46094C146.436 3.46094 147.104 3.77734 147.568 4.41016H147.645L147.604 3.94727L147.58 3.49609V0.882812H148.553V10H147.762L147.633 9.13867ZM145.688 9.30273C146.352 9.30273 146.832 9.12305 147.129 8.76367C147.43 8.40039 147.58 7.81641 147.58 7.01172V6.80664C147.58 5.89648 147.428 5.24805 147.123 4.86133C146.822 4.4707 146.34 4.27539 145.676 4.27539C145.105 4.27539 144.668 4.49805 144.363 4.94336C144.062 5.38477 143.912 6.00977 143.912 6.81836C143.912 7.63867 144.062 8.25781 144.363 8.67578C144.664 9.09375 145.105 9.30273 145.688 9.30273Z" fill="#C8C8C8" fill-opacity="0.5"/>
</svg>
